<?xml version="1.0" encoding="utf-8"?>
<!-- Generator: Adobe Illustrator 16.0.0, SVG Export Plug-In . SVG Version: 6.00 Build 0)  -->
<!DOCTYPE svg PUBLIC "-//W3C//DTD SVG 1.1//EN" "http://www.w3.org/Graphics/SVG/1.1/DTD/svg11.dtd">
<svg version="1.1" xmlns="http://www.w3.org/2000/svg" xmlns:xlink="http://www.w3.org/1999/xlink" x="0px" y="0px" width="569.7px"
	 height="489.7px" viewBox="0 0 569.7 489.7" style="enable-background:new 0 0 569.7 489.7;" xml:space="preserve">
<style type="text/css">
<![CDATA[
	.st0{fill:#467C0D;}
	.st1{display:none;fill:#2C3E4F;}
	.st2{fill:#4E8414;}
	.st3{fill:#4E950B;}
	.st4{fill:#EA5C1C;}
	.st5{fill:#BE1621;}
	.st6{display:inline;fill:#2C3E4F;}
	.st7{fill:#92BF5E;}
	.st8{fill:#2C3E4F;}
	.st9{fill:#FCC007;}
	.st10{fill:#FFD86F;}
	.st11{fill:#FFDF9D;}
	.st12{fill:#FFF7C1;}
	.st13{fill:#9B1522;}
	.st14{fill:#6EAA2E;}
	.st15{fill:#3A600D;}
	.st16{display:none;}
	.st17{fill:#425666;}
]]>
</style>
<g id="OBJECTS">
	<g>
		<g>
			<circle class="st17" cx="81.1" cy="80.5" r="34.2"/>
			<circle class="st17" cx="69.6" cy="204.2" r="10"/>
			<circle class="st17" cx="24.6" cy="334.4" r="24.6"/>
			<circle class="st17" cx="65.3" cy="406.1" r="10.7"/>
			<circle class="st17" cx="200.5" cy="47.7" r="21.4"/>
			<circle class="st17" cx="336.4" cy="31" r="31"/>
			<circle class="st17" cx="437" cy="56.2" r="8.6"/>
			<circle class="st17" cx="506.6" cy="170.3" r="21.4"/>
			<circle class="st17" cx="473.4" cy="278.3" r="7.5"/>
			<circle class="st17" cx="533.1" cy="337.4" r="23.5"/>
			<circle class="st17" cx="480.5" cy="388.4" r="18.2"/>
			<circle class="st17" cx="505.5" cy="456.5" r="9.6"/>
		</g>
		<g>
			<path class="st10" d="M485.2,49.2c-0.5-2.2-0.3-2.7-0.3-5c1.3-0.6,2.5-1.3,3.5-2.3c0.6-0.6,0.5-1.5,0-2.1c-1-0.9-2-1.6-3.2-2.1
				c0.1-1.4,0.1-2.8,0-4.2c0-1.2-1.5-1.8-2.4-0.9c-1,1-1.8,2.2-2.7,3.4c-1.7-0.5-2.9-0.9-4.5-1.7c-1.3-0.6-2.6,0.7-1.9,2
				c0.9,1.6,1.3,3.2,2.2,4.9c0,0-0.5,0.4-0.5,0.5c-0.1,0.1-0.2,0.2-0.3,0.3c-0.1,0.1-0.3,0.2-0.4,0.3c-0.5,0.3-1,0.6-1.2,1.1
				c-0.3,0.6-0.2,1.5,0.2,2c0.4,0.6,1.1,0.8,1.8,0.7c0.4-0.1,0.9,0,1.3-0.1c0.4,0,0.9-0.1,1.3-0.1c0,0,0.3,0,0.3,0
				c1.3,2.3,2.4,2.8,4.3,4.8C483.8,51.8,485.5,50.5,485.2,49.2z"/>
			<path class="st10" d="M120.5,51.4c0.5-2.2,1-2.6,2-4.6c1.4,0,2.8-0.1,4.2-0.6c0.7-0.3,1.1-1.1,0.9-1.9c-0.5-1.2-1.1-2.3-1.9-3.3
				c0.7-1.2,1.3-2.5,1.9-3.8c0.5-1.1-0.6-2.3-1.7-1.8c-1.3,0.5-2.6,1.1-3.9,1.8c-1.3-1.2-2.2-2.1-3.3-3.5c-0.9-1.1-2.7-0.5-2.6,1
				c0.1,1.9-0.2,3.5-0.2,5.4c0,0-0.6,0.2-0.7,0.2c-0.1,0.1-0.3,0.1-0.4,0.2c-0.1,0-0.3,0-0.5,0.1c-0.6,0.1-1.1,0.1-1.6,0.5
				c-0.6,0.4-0.9,1.2-0.7,1.9c0.1,0.7,0.7,1.2,1.3,1.5c0.4,0.1,0.8,0.3,1.2,0.5c0.4,0.2,0.8,0.3,1.2,0.5c0,0,0.3,0.1,0.3,0.1
				c0.2,2.7,1,3.6,1.7,6.2C118.1,53.1,120.2,52.7,120.5,51.4z"/>
			<path class="st10" d="M37.1,292.8c2-1.2,2.5-1.1,4.7-1.8c1,1.1,2,2,3.3,2.6c0.7,0.4,1.6,0,1.9-0.7c0.6-1.2,0.9-2.4,1.1-3.7
				c1.4-0.4,2.7-0.8,4-1.3c1.1-0.4,1.2-2,0.1-2.5c-1.3-0.6-2.6-1.1-4-1.5c0-1.7,0-3.1,0.2-4.8c0.2-1.4-1.5-2.3-2.5-1.2
				c-1.3,1.4-2.7,2.3-4,3.6c0,0-0.5-0.3-0.6-0.3c-0.1-0.1-0.3-0.1-0.4-0.2c-0.1-0.1-0.2-0.2-0.4-0.3c-0.4-0.4-0.9-0.7-1.5-0.8
				c-0.7-0.1-1.5,0.2-1.9,0.8c-0.4,0.6-0.4,1.3-0.1,2c0.2,0.4,0.3,0.8,0.5,1.2c0.2,0.4,0.3,0.8,0.5,1.2c0,0,0.1,0.3,0.1,0.3
				c-1.8,2-1.9,3.2-3.2,5.5C34.2,292.3,35.9,293.5,37.1,292.8z"/>
			<path class="st10" d="M566.5,317.5c-0.7-2.2-0.4-2.7-0.5-5c1.3-0.7,2.4-1.5,3.4-2.5c0.5-0.6,0.4-1.5-0.2-2c-1-0.9-2.1-1.5-3.3-2
				c0-1.4-0.1-2.8-0.2-4.2c-0.1-1.2-1.6-1.7-2.4-0.8c-0.9,1.1-1.7,2.3-2.5,3.5c-1.7-0.4-3-0.8-4.6-1.4c-1.3-0.6-2.6,0.9-1.8,2.1
				c1,1.6,1.5,3.2,2.5,4.8c0,0-0.4,0.4-0.5,0.5c-0.1,0.1-0.2,0.2-0.2,0.3c-0.1,0.1-0.3,0.2-0.4,0.3c-0.5,0.3-0.9,0.7-1.1,1.2
				c-0.3,0.7-0.2,1.5,0.3,2c0.5,0.6,1.2,0.8,1.9,0.6c0.4-0.1,0.9-0.1,1.3-0.2c0.4-0.1,0.9-0.1,1.3-0.2c0,0,0.3-0.1,0.3-0.1
				c1.5,2.2,2.6,2.6,4.5,4.5C565.4,320.2,566.9,318.8,566.5,317.5z"/>
			<path class="st10" d="M444,144.4c-1.6-0.8-1.7-1.2-3-2.3c0.3-1.1,0.4-2.1,0.3-3.2c-0.1-0.6-0.6-1-1.2-1c-1,0.1-1.9,0.4-2.8,0.8
				c-0.8-0.7-1.6-1.4-2.5-2.1c-0.7-0.5-1.8,0-1.7,0.9c0.1,1.1,0.4,2.1,0.7,3.2c-1.1,0.7-2,1.3-3.2,1.8c-1,0.5-0.8,1.9,0.3,2.1
				c1.4,0.3,2.6,0.8,4,1.1c0,0,0,0.5,0,0.5c0,0.1,0,0.2,0.1,0.3c0,0.1,0,0.2,0,0.4c0,0.4-0.1,0.9,0.1,1.3c0.2,0.5,0.7,0.9,1.3,0.9
				c0.6,0,1-0.3,1.3-0.7c0.2-0.3,0.4-0.5,0.6-0.8c0.2-0.3,0.4-0.5,0.6-0.8c0,0,0.1-0.2,0.1-0.2c2,0.3,2.8-0.1,4.9-0.2
				C444.9,146.5,445,144.9,444,144.4z"/>
			<path class="st10" d="M276.2,39.5c-0.2-1.7,0-2.1,0.3-3.8c1-0.3,2-0.8,2.9-1.4c0.5-0.4,0.5-1.1,0.2-1.6c-0.6-0.8-1.4-1.4-2.2-1.9
				c0.2-1.1,0.3-2.1,0.4-3.2c0.1-0.9-1-1.5-1.7-0.9c-0.8,0.7-1.6,1.5-2.3,2.3c-1.2-0.5-2.1-1-3.2-1.7c-0.9-0.6-2.1,0.3-1.7,1.4
				c0.5,1.3,0.7,2.6,1.2,3.9c0,0-0.4,0.3-0.4,0.3c-0.1,0.1-0.2,0.2-0.2,0.2c-0.1,0.1-0.2,0.1-0.3,0.2c-0.4,0.2-0.8,0.4-1,0.8
				c-0.3,0.5-0.3,1.1,0,1.6c0.3,0.5,0.8,0.7,1.3,0.7c0.3,0,0.7,0,1,0.1c0.3,0,0.7,0,1,0c0,0,0.2,0,0.2,0c0.8,1.9,1.6,2.3,2.8,4
				C274.9,41.3,276.3,40.5,276.2,39.5z"/>
			<path class="st10" d="M45,157.6c-1.6-0.7-1.8-1-3.2-2.1c0.2-1.1,0.3-2.1,0.1-3.2c-0.1-0.6-0.7-1-1.3-0.9c-1,0.2-1.9,0.6-2.7,1
				c-0.8-0.7-1.7-1.3-2.6-1.9c-0.8-0.5-1.8,0.2-1.6,1.1c0.2,1.1,0.5,2.1,0.9,3.2c-1.1,0.8-1.9,1.4-3,2c-1,0.5-0.7,2,0.4,2.1
				c1.4,0.2,2.6,0.6,4,0.8c0,0,0,0.5,0.1,0.5c0,0.1,0.1,0.2,0.1,0.3c0,0.1,0,0.2,0,0.4c0,0.4,0,0.9,0.2,1.3c0.3,0.5,0.8,0.8,1.3,0.8
				c0.6,0,1-0.3,1.3-0.8c0.2-0.3,0.4-0.6,0.5-0.8c0.2-0.3,0.3-0.6,0.5-0.9c0,0,0.1-0.2,0.1-0.2c2,0.2,2.8-0.3,4.9-0.5
				C46,159.6,45.9,158,45,157.6z"/>
			<path class="st10" d="M14.9,427.2c-1.3-1.1-1.4-1.5-2.4-2.9c0.5-1,0.9-2,1.1-3c0.1-0.6-0.4-1.2-1-1.2c-1-0.1-2,0-2.9,0.1
				c-0.6-0.9-1.2-1.8-1.9-2.6c-0.6-0.7-1.7-0.4-1.9,0.5c-0.1,1.1-0.1,2.2-0.1,3.3c-1.3,0.5-2.2,0.8-3.5,1C1.2,422.6,1,424,2,424.5
				c1.3,0.6,2.3,1.4,3.6,2c0,0-0.1,0.5-0.1,0.5c0,0.1,0,0.2,0,0.3c0,0.1-0.1,0.2-0.1,0.3c-0.1,0.4-0.3,0.8-0.2,1.3
				c0.1,0.5,0.5,1,1,1.2c0.5,0.2,1.1,0,1.5-0.4c0.2-0.2,0.5-0.4,0.8-0.6c0.3-0.2,0.5-0.4,0.7-0.7c0,0,0.1-0.2,0.2-0.2
				c1.9,0.8,2.8,0.6,4.8,1C15.3,429.4,15.7,427.9,14.9,427.2z"/>
			<path class="st10" d="M473,427.3c-0.3-1.7,0-2.1,0.1-3.8c1-0.4,2-0.9,2.8-1.5c0.5-0.4,0.5-1.1,0.1-1.6c-0.7-0.8-1.5-1.3-2.3-1.8
				c0.1-1.1,0.3-2.1,0.3-3.2c0-0.9-1-1.4-1.7-0.8c-0.8,0.7-1.5,1.5-2.3,2.4c-1.2-0.5-2.2-0.9-3.3-1.6c-1-0.6-2.1,0.4-1.6,1.4
				c0.6,1.3,0.8,2.6,1.4,3.9c0,0-0.4,0.3-0.4,0.3c-0.1,0.1-0.1,0.2-0.2,0.2c-0.1,0.1-0.2,0.1-0.3,0.2c-0.4,0.2-0.8,0.4-1,0.8
				c-0.3,0.5-0.3,1.1,0,1.6c0.3,0.5,0.8,0.7,1.4,0.7c0.3,0,0.7,0,1,0c0.3,0,0.7,0,1,0c0,0,0.2,0,0.2,0c0.9,1.8,1.7,2.3,2.9,3.9
				C471.8,429.2,473.2,428.3,473,427.3z"/>
		</g>
	</g>
</g>
<g id="DESIGNED_BY_FREEPIK">
	<g>
		<path class="st14" d="M356.6,107.5c1.2-1.6,2.4-3,3.8-4.4c3.2-3.3,6.8-6.1,10.8-8.2c3.3-1.8,6.7-3.4,10.4-4
			c7-1.1,13.9,0.8,19.1,5.7c2.9,2.8,5.2,6.3,6.5,10.1c2.4,6.9,1.8,14.8-1.2,21.4c-1.8,4-4.5,7.6-7.6,10.6c-2.9,2.7-6.7,5.9-10.7,6.7
			c-2.9,0.6-5.5,1.4-8.5,1.5c-7.2,0.2-15.3-2.7-20.7-7.4c-2.2-1.9-4.7-4-5.9-6.6c-0.5-1.2-0.9-2.5-1.1-3.9c-0.4-2-1-4-1.2-6
			c-0.4-3.4,0.2-7.7,2.4-10.5c1.2-1.5,2.4-2.9,3.6-4.5C356.4,107.9,356.5,107.7,356.6,107.5z"/>
		<path class="st2" d="M352.6,112.5c1.2-1.5,2.4-2.9,3.6-4.5c0.1-0.2,0.2-0.3,0.4-0.5c1.2-1.6,2.4-3,3.8-4.4
			c3.2-3.3,6.8-6.1,10.8-8.2c3.3-1.8,6.7-3.4,10.4-4c7-1.1,13.9,0.8,19.1,5.7c0,0,0,0,0,0c-1.6,0.1-3.3,0.3-4.9,0.7
			c-3.1,1.1-5.9,2.8-8.4,5c-2.1,1.7-4.1,3.5-6.1,5.4c-2.8,2.8-4.9,5.9-6.2,9.6c-1.7,4.6-0.5,9.8,0.8,14.4c0.9,3.2,2.3,5.7,4.7,8
			c0.9,1,2,1.9,3.1,2.6c1.4,0.8,3,1,4.6,1.2c0.8,0.1,1.8,0.2,2.4,0.8c-1,0.5-2,0.8-3,1c-2.9,0.6-5.5,1.4-8.5,1.5
			c-7.2,0.2-15.3-2.7-20.7-7.4c-2.2-1.9-4.7-4-5.9-6.6c-0.5-1.2-0.9-2.5-1.1-3.9c-0.4-2-1-3.9-1.2-6
			C349.9,119.7,350.5,115.3,352.6,112.5z"/>
		<path class="st0" d="M358.4,123.5c0.2-2,1-3.8,2.1-5.4c1.3-1.2,2.6-2.4,3.9-3.6c2.8-2.5,5.7-5,9-6.9c1.1-0.6,2.2-1.2,3.3-1.8
			c1.7-0.8,3.3-1,5.1-1.2c3-0.4,5.3-0.7,8.2,0.5c1.7,0.7,3.3,1.7,4.5,3.2c1.4,1.7,2.7,4.1,2.6,6.4c-0.1,2-0.4,4.1-0.9,6
			c-0.8,2.6-2.5,4.6-3.9,6.9c-2.6,4.3-6.7,7.1-10.8,9.7c-2.5,1.5-4.5,1.5-7.4,1c-2.6-0.4-5.5-0.7-7.9-1.8c-3.2-1.4-5.8-3.7-7.2-6.8
			c-0.7-1.5-0.5-3.3-0.9-4.9c-0.1-0.4-0.2-0.7-0.2-1.1C358.2,123,357.9,123.7,358.4,123.5z"/>
		<path class="st15" d="M359,129.7c-0.7-1.5-0.5-3.3-0.9-4.9c-0.1-0.4-0.2-0.7-0.2-1.1c0.2-0.7-0.1,0,0.5-0.2c0.2-2,1-3.8,2.1-5.4
			c1.3-1.2,2.6-2.4,3.9-3.6c2.8-2.5,5.7-5,9-6.9c1.1-0.6,2.2-1.2,3.3-1.8c1.7-0.8,3.3-1,5.2-1.2c0.9-0.1,1.7-0.2,2.5-0.3
			c-3.2,3.2-5.9,6.9-8.7,10.5c-2.2,2.9-3.4,6.6-3.6,10.2c0,1.1,0.1,2,0.4,3c0.4,1.5,1,2.1,1.8,3.3c0.3,0.5,0.6,1.1,0.7,1.7
			c0.3,0.4,0.6,0.6,0.9,0.9c0.8,0.8,1.5,1.8,2.2,2.7c0.4,0.5,0.7,1.1,1.1,1.6c-1.6,0.5-3.2,0.4-5.1,0c-2.6-0.4-5.5-0.7-7.9-1.8
			C363.1,135.1,360.4,132.8,359,129.7z"/>
		<path class="st7" d="M402.3,102.9c2.7,2.8,4.3,7.9,2.9,11.6c-0.4,1-1.8,0.8-1.9-0.3c-0.3-3.7-0.8-6.8-2.6-10.1
			C400.2,103.2,401.5,102.1,402.3,102.9z"/>
		<path class="st7" d="M402.8,120.7c0.1-0.4,0.2-0.7,0.2-1.1c-0.1-1.1,1.7-1.3,2-0.3c0.2,0.9,0,1.8-0.9,2.3
			C403.4,122.1,402.6,121.5,402.8,120.7z"/>
		<path class="st14" d="M392,110.2c0.7,1.3,2.7,3.3,2,5c-0.2,0.5-0.8,0.8-1.2,0.3c-0.5-0.6-0.7-1.4-1.1-2.1
			c-0.4-0.8-0.9-1.6-1.2-2.5C390.1,109.9,391.5,109.3,392,110.2z"/>
		<path class="st14" d="M392.1,115.5c0.7,1.1,1.2,2.4,1,3.7c-0.1,0.7-1.2,0.8-1.5,0.2c-0.5-0.9-0.7-2-1.1-3
			C390,115.3,391.4,114.4,392.1,115.5z"/>
		<path class="st14" d="M390.2,120c0.5,0,1,0.4,0.9,0.9c0,0.3,0,0.5,0.2,0.8c0.3,0.7-0.6,1.1-1.1,0.8c-0.6-0.3-0.9-0.9-0.9-1.7
			C389.4,120.5,389.7,120,390.2,120z"/>
		<path class="st14" d="M201.9,107.5c-1.2-1.6-2.4-3-3.8-4.4c-3.2-3.3-6.8-6.1-10.8-8.2c-3.3-1.8-6.7-3.4-10.4-4
			c-7-1.1-13.9,0.8-19.1,5.7c-3,2.8-5.2,6.3-6.5,10.1c-2.4,6.9-1.8,14.8,1.2,21.4c1.8,4,4.5,7.6,7.6,10.6c2.9,2.7,6.7,5.9,10.7,6.7
			c2.9,0.6,5.5,1.4,8.5,1.5c7.2,0.2,15.3-2.7,20.7-7.4c2.2-1.9,4.7-4,5.9-6.6c0.5-1.2,0.9-2.5,1.1-3.9c0.4-2,1-4,1.2-6
			c0.4-3.4-0.2-7.7-2.4-10.5c-1.2-1.5-2.4-2.9-3.6-4.5C202.1,107.9,202,107.7,201.9,107.5z"/>
		<path class="st2" d="M205.8,112.5c-1.2-1.5-2.4-2.9-3.6-4.5c-0.1-0.2-0.2-0.3-0.4-0.5c-1.2-1.6-2.4-3-3.8-4.4
			c-3.2-3.3-6.8-6.1-10.8-8.2c-3.3-1.8-6.7-3.4-10.4-4c-7-1.1-13.9,0.8-19.1,5.7c0,0,0,0,0,0c1.6,0.1,3.3,0.3,4.9,0.7
			c3.1,1.1,5.9,2.8,8.4,5c2.1,1.7,4.1,3.5,6.1,5.4c2.8,2.8,4.9,5.9,6.2,9.6c1.7,4.6,0.5,9.8-0.8,14.4c-0.9,3.2-2.3,5.7-4.8,8
			c-0.9,1-2,1.9-3.1,2.6c-1.4,0.8-3,1-4.6,1.2c-0.8,0.1-1.8,0.2-2.4,0.8c1,0.5,2,0.8,3,1c2.9,0.6,5.5,1.4,8.5,1.5
			c7.2,0.2,15.3-2.7,20.7-7.4c2.2-1.9,4.7-4,5.9-6.6c0.5-1.2,0.9-2.5,1.1-3.9c0.4-2,1-3.9,1.2-6C208.6,119.7,208,115.3,205.8,112.5z
			"/>
		<path class="st0" d="M200.1,123.5c-0.3-2-1-3.8-2.1-5.4c-1.3-1.2-2.6-2.4-3.9-3.6c-2.8-2.5-5.7-5-9-6.9c-1.1-0.6-2.2-1.2-3.3-1.8
			c-1.7-0.8-3.3-1-5.1-1.2c-3-0.4-5.3-0.7-8.2,0.5c-1.7,0.7-3.3,1.7-4.5,3.2c-1.4,1.7-2.7,4.1-2.6,6.4c0.1,2,0.4,4.1,0.9,6
			c0.8,2.6,2.5,4.6,3.9,6.9c2.6,4.3,6.7,7.1,10.9,9.7c2.5,1.5,4.5,1.5,7.4,1c2.6-0.4,5.5-0.7,7.9-1.8c3.2-1.4,5.8-3.7,7.2-6.8
			c0.7-1.5,0.5-3.3,0.9-4.9c0.1-0.4,0.2-0.7,0.2-1.1C200.3,123,200.6,123.7,200.1,123.5z"/>
		<path class="st15" d="M199.5,129.7c0.7-1.5,0.5-3.3,0.9-4.9c0.1-0.4,0.2-0.7,0.2-1.1c-0.2-0.7,0.1,0-0.5-0.2c-0.2-2-1-3.8-2.1-5.4
			c-1.3-1.2-2.6-2.4-3.9-3.6c-2.8-2.5-5.7-5-9-6.9c-1.1-0.6-2.2-1.2-3.3-1.8c-1.7-0.8-3.3-1-5.2-1.2c-0.9-0.1-1.7-0.2-2.5-0.3
			c3.2,3.2,5.9,6.9,8.7,10.5c2.2,2.9,3.4,6.6,3.6,10.2c0,1.1-0.1,2-0.4,3c-0.4,1.5-1,2.1-1.8,3.3c-0.3,0.5-0.6,1.1-0.7,1.7
			c-0.2,0.4-0.6,0.6-0.9,0.9c-0.8,0.8-1.5,1.8-2.2,2.7c-0.4,0.5-0.7,1.1-1.1,1.6c1.6,0.5,3.2,0.4,5.1,0c2.6-0.4,5.5-0.7,7.9-1.8
			C195.4,135.1,198,132.8,199.5,129.7z"/>
		<path class="st3" d="M273.2,91.5c0,0-19.7-3-30.7-2c0,0,5.3,4.3,9,8.4c0,0-24.4-0.7-35.4,6c0,0,6,3.3,9,6.7c0,0-25.7-6.3-41.1,1.7
			c0,0,4.3,7,11.7,8.7c0,0-18.4,2-25.7,12.4c0,0,1.3,3,7,4.7c0,0-14.4,7.4-20,16c0,0,4.3,0.3,7.4-0.7c0,0-13.7,10-19.7,20
			c0,0,8.4-2,11.4-1.3c0,0-18,15-23.4,29.7c0,0,3.3-1.7,6.3-1.3c0,0-2,5-8.4,13c-6.3,8-7.7,16.4-7.7,16.4s3.7-1.3,7.4-4.7
			c0,0-9,20.4-9.7,29.7c0,0,2.7-1,5.7-1.3c0,0-7.7,26.7-15.4,35.1c0,0,4.3,0.7,8.4-2c0,0-8.7,26.4-7.7,39.8c0,0,3.7-5,6.7-6.7
			c0,0-1.3,35.8-6.7,44.1c0,0,6.7-1.3,8.7-4.7c0,0-5.7,21-2.3,34.7c0,0,3-4,5.3-6c0,0,0,27.4,29.1,55.5
			c29.1,28.1,207.5,20.4,230.9,11.7c23.4-8.7,37.1-46.4,40.4-66.5c0,0,3,6,3.3,9c0,0,6.7-19.7,0-36.1c0,0,2.3,2.7,7,4.7
			c0,0,1.7-27.7-7-38.1c0,0,4.7,0.7,7,5c0,0,2.7-31.1-4.3-48.4c0,0,3.7,3,7.7,4.3c0,0-4.7-17.7-5-29.1c-0.3-11.4-9.4-23.1-9.4-23.1
			s2.7,0.7,7.7-1c0,0-13.4-20-19.4-34.4c0,0,3.3-0.7,6.7,4c0,0-1.7-15-16.4-29.7c0,0,2.3,1.3,7.4,2c0,0-5.3-14.7-15.7-21.7
			c0,0,4.7,1.7,8.7,0c0,0-7.4-17.7-20.4-22.7c0,0,4.3-0.7,8-2.3c0,0-21.7-17.7-36.8-18c0,0,9.4-2.7,15-1.3c0,0-21-11.7-36.4-9
			c0,0,8.4-4,11-7.7c0,0-22.4-9.7-43.8,1.7c0,0,6-4,7.4-7.7c0,0-10.7,1.3-13.4,4.7c0,0,0.7-4.7,4.3-6.3
			C296.9,87.2,287.2,83.2,273.2,91.5z"/>
		<path class="st0" d="M426.9,361.5c0,0,2.3,2.7,7,4.7c0,0,0.2-3,0.1-7.5c-0.6-1.3-1.2-2.6-1.8-3.8c-0.5-1.1-3.6-9.5-4.5-9.1
			c-0.1,0.9-0.6,1.6-1,2.4c-0.4,1-0.3,1.8-0.6,2.8c-0.5,0.6-0.8,1.2-1.1,1.9c-0.3,1.4-0.5,2.9-0.8,4.3c-0.5,2.4-1.1,4.5-2,6.8
			c-0.5,1.2-4.3,9.4-5.4,5.7c-0.5-1.6,0-4.3,0-6c0-0.8,0-1.6,0-2.4c0.1,1.6-1.4,3.2-2.1,4.5c-2.4,4-4.8,8-7.2,12.1
			c-1.5,2.6-2.6,5.4-4.2,7.9c-1.4,2.2-3.3,4-4.9,6c-1.3,1.5-2.4,3.1-3.6,4.7c-0.6,0.8-1.7,1.6-2,2.6c1.6-0.7,3-0.3,4.7-0.4
			c1.4-0.1,2.4-0.9,3.2-1.9c-0.3,0.5-0.5,1.1-0.8,1.5c-1.7,2.6-4.1,4.8-6,7.3c-2,2.6-4,5.1-6.1,7.7c-0.9,1.1-1.8,2.6-3,3.4
			c0.2-0.2,0.4-0.7,0.6-0.9c-1.5,0.4-3.6,1.9-4.9,2.7c-5.9,3.8-11.6,7.5-18.1,10.1c-6.4,2.6-12.5,5-19.3,6.3
			c-3.3,0.6-6.5,0.9-9.8,1.4c-1.3-0.1-2.5,0.3-3.4,1.2c0,0.6,0.4,1.2,0.9,1.7c-3.8-0.3-7.6-0.8-11.5-0.9c-17.8-0.7-35.7,0.2-53.4,2
			c-0.4,1.1,2,3,2.8,3.8c-0.2,0-0.3,0-0.4,0c-8-1.2-14.5-5.5-21.3-9.7c-12.5-7.9-23.2-17.5-33.3-28.3c1,1.1-7.3-8.8-8-8.5
			c-0.5,2.2-0.1,4.8-0.1,7c0,1.1,0.5,2.7-0.6,3.4c-1.8-0.6-2.6-3-3.3-4.5c-2.2-4.5-5.3-8.4-7.9-12.7c-2.3-3.8-4.3-7.7-6.1-11.8
			c-5.8-12.4-10.9-25.1-13.4-38.6c-0.7-3.7-1.2-7.3-1.4-11.1c0.1-0.9-0.1-1.8-0.4-2.6c-1.6,2.6-2.9,5.8-4.3,8.6
			c-0.5,1-0.9,2.8-1.8,3.2c-0.1-1-0.6-1.7-1-2.6c-0.9-2.1-1.3-4.4-1.8-6.6c-1.4-5.1-3-10.1-4.5-15.1c-1.4-4.5-3-9-3.5-13.7
			c-0.1-2.3-0.1-4.7-0.1-7c0-0.8,0-1.7,0.1-2.5c-0.5-0.6-0.3-0.6-1.2-0.5c-1,0.2-3.6,3.1-4.2,3.8c-0.4,0.5-0.6,0.8-0.7,1.2
			c0.1-8-0.1-15.9-0.1-23.9c0-7,2-13.6,3.5-20.4c0.6-2.7,1.8-6.1,1.3-8.9c-3.4,2.1-6.5,4.5-10,6.5c-0.5-1.6,0-4.1,0-5.7
			c0-3.4-0.3-6.9,0-10.4c0.7-7.5,3.7-15,5.9-22.1c1.3-4.1,2.8-8.2,2.9-12.6c0-0.1,0.3-4.1,0-4.6c-0.6-0.9-0.2-0.7-1.6-0.5
			c-3.4,0.4-5.1,2.4-7.6,4.3c-2.1-1.3,2.3-10.3,2.8-11.5c0.9-2.1,2.4-6.6,5-7.6l-2-0.1c-5.7,5.7-13.8,14.8-17,23.8
			c0,0,3.3-1.7,6.3-1.3c0,0-2,5-8.4,13c-6.3,8-7.7,16.4-7.7,16.4s3.7-1.3,7.4-4.7c0,0-9,20.4-9.7,29.7c0,0,2.7-1,5.7-1.3
			c0,0-7.7,26.7-15.4,35.1c0,0,4.3,0.7,8.4-2c0,0-8.7,26.4-7.7,39.8c0,0,3.7-5,6.7-6.7c0,0-1.3,35.8-6.7,44.1c0,0,6.7-1.3,8.7-4.7
			c0,0-5.7,21-2.3,34.7c0,0,3-4,5.3-6c0,0,0,27.4,29.1,55.5c29.1,28.1,207.5,20.4,230.9,11.7c23.4-8.7,37.1-46.4,40.4-66.5
			c0,0,3,6,3.3,9C426.9,397.6,433.5,377.9,426.9,361.5z"/>
		<path class="st15" d="M189.9,336.3c-8-4.4-16.4-12.5-16.4-12.5c3,0.6,4.3-2.6,4.3-2.6c-7.7-3.7-16.1-18.8-16.1-18.8
			c2.9,1.3,4.9,1.1,4.9,1.1c-5.2-6.2-6.8-26.4-6.8-26.4c-0.8-8.2-8.4-10.8-15.9-7.1l0,0l0,0c-1.1,0.5-2.1,1.2-3.1,2c0,0,0,0-0.1,0
			c-0.5,0.4-1,0.8-1.5,1.2c0,0,0,0-0.1,0.1c-0.5,0.4-1,0.9-1.4,1.4c0,0-0.1,0.1-0.1,0.2c-0.4,0.4-0.8,0.9-1.2,1.4
			c-0.1,0.1-0.2,0.2-0.2,0.3c-0.4,0.5-0.8,1.1-1.2,1.7c0,0.1-0.1,0.1-0.1,0.2c-0.3,0.5-0.7,1.1-1,1.7c-0.1,0.2-0.2,0.3-0.3,0.5
			c-0.4,0.7-0.7,1.3-1.1,2.1c-8.7,18.8-2.8,40-2.8,40c1.4-3.1,2.6-4.3,2.6-4.3c-0.5,7.2,0.3,13.2,1.7,18.3c0.9,3.2,2,6,3.2,8.4
			c0.2,0.5,0.5,1,0.8,1.4c4.6,8.2,10.1,11.7,10.1,11.7l0,0l0,0c-0.1-0.8-0.2-1.6-0.3-2.3c-0.1-0.7-0.2-1.3-0.2-1.8
			c-0.1-0.5-0.1-0.9-0.1-1.2c0-0.3-0.1-0.4-0.1-0.4c1.1,2.8,2.5,5.1,3.9,7c0.9,1.3,1.9,2.3,2.8,3.2c1.4,1.4,2.9,2.4,4.2,3.2
			c0.7,0.4,1.3,0.7,1.9,1c1.2,0.5,2.2,0.8,3,1c0.3,0.1,0.5,0.1,0.7,0.1c0.5,0.1,0.8,0.1,0.8,0.1c-0.1-0.2-0.2-0.4-0.4-0.6
			c-1-1.8-1.3-2.5-1.3-2.8c0,0,0-0.1,0-0.1c0,0,0-0.1,0-0.1c0,0,0,0,0,0s7.4,7.9,16.4,8c0.3,0,0.6,0,0.9,0c0.1,0,0.2,0,0.3,0
			c0.2,0,0.4,0,0.5,0c0.1,0,0.2,0,0.3,0c0.1,0,0.3,0,0.4-0.1c0.1,0,0.2,0,0.3-0.1c0.1,0,0.3-0.1,0.4-0.1c0.1,0,0.2,0,0.2-0.1
			c0.1,0,0.2-0.1,0.3-0.1c0.1,0,0.1,0,0.2-0.1c0.1,0,0.2-0.1,0.3-0.1c0.1,0,0.1-0.1,0.2-0.1c0.1-0.1,0.2-0.1,0.3-0.2
			c0,0,0.1,0,0.1-0.1c0.1-0.1,0.3-0.2,0.4-0.3c0,0,0,0,0,0l0,0c2.6-2.1,1.2-5.8,1.2-5.8s5.2,1.5,7.6-3c2.4-4.5-3.6-12.7-3.6-12.7
			C196,347.6,197.9,340.7,189.9,336.3z"/>
		<path class="st15" d="M414.6,292.5c-0.3-0.7-0.5-1.5-0.8-2.1c-0.1-0.2-0.2-0.4-0.2-0.5c-0.3-0.6-0.6-1.2-0.8-1.8
			c0-0.1-0.1-0.1-0.1-0.2c-0.3-0.6-0.7-1.2-1.1-1.8c-0.1-0.1-0.1-0.2-0.2-0.3c-0.3-0.5-0.7-1-1-1.5c0-0.1-0.1-0.1-0.1-0.2
			c-0.4-0.5-0.8-1.1-1.3-1.6c0,0,0,0-0.1-0.1c-0.4-0.5-0.9-0.9-1.3-1.4c0,0,0,0-0.1-0.1c-1-0.9-1.9-1.6-2.9-2.3c0,0,0,0,0,0l0,0
			c-7.1-4.5-14.9-2.6-16.5,5.5c0,0-3.6,20-9.3,25.6c0,0,2,0.4,5-0.6c0,0-9.9,14.2-17.9,17.2c0,0,1,3.4,4,3.1c0,0-9.1,7.2-17.5,10.8
			c-8.4,3.6-7.1,10.6-1.2,13c0,0-6.8,7.6-4.8,12.3c2,4.7,7.3,3.8,7.3,3.8s-1.9,4,0.9,6.2c0,0,0.1,0.1,0.1,0.1
			c0.1,0.1,0.2,0.1,0.3,0.2c0.1,0,0.1,0.1,0.2,0.1c0.1,0.1,0.2,0.1,0.3,0.2c0.1,0,0.1,0.1,0.2,0.1c0.1,0,0.2,0.1,0.3,0.1
			c0.1,0,0.2,0.1,0.2,0.1c0.1,0,0.2,0.1,0.4,0.1c0.1,0,0.2,0.1,0.3,0.1c0.1,0,0.3,0.1,0.4,0.1c0.1,0,0.2,0,0.3,0.1
			c0.2,0,0.3,0.1,0.5,0.1c0.1,0,0.2,0,0.3,0c0.3,0,0.6,0.1,0.9,0.1c9,0.8,17.1-6.3,17.1-6.3s0.2,0.1-0.5,1.2
			c-0.2,0.3-0.4,0.7-0.8,1.2c-0.2,0.3-0.5,0.7-0.8,1.1c0,0,11.2,0.5,18.7-13.8c0,0-0.2,0.9-0.5,2.4c-0.2,0.9-0.4,2-0.7,3.3l0,0l0,0
			c0,0,14.3-7.1,18.5-28.1c0.6-3,1-6.3,1.1-9.9c0,0,1,1.3,2.1,4.5C413.4,332.6,421.4,312.1,414.6,292.5z"/>
		<path class="st15" d="M371.9,282.1c-0.8-0.7-4.4-1.4-10-2.1c1.3,1.5,2,3.4,2.1,5.5c0.1,4.9-3.9,9-8.9,9c-5,0.1-9.1-3.8-9.1-8.8
			c0-2.9,1.3-5.5,3.5-7.1c-5.8-0.5-12.5-1-19.9-1.5c1.3,1.5,2.2,3.5,2.2,5.7c0.1,4.9-3.9,9-8.9,9c-5,0.1-9.1-3.8-9.1-8.8
			c0-2.6,1.1-5,2.9-6.6c-6.6-0.3-13.4-0.6-20.5-0.8c2.2,1.6,3.7,4.1,3.7,7c0.1,4.9-3.9,9-8.9,9c-5,0.1-9.1-3.8-9.1-8.8
			c0-3.2,1.6-6,4.1-7.6c-9.1-0.2-18.4-0.3-27.6-0.3c2.7,1.5,4.5,4.3,4.5,7.6c0.1,4.9-3.9,9-8.9,9c-5,0.1-9.1-3.8-9.1-8.8
			c0-3.3,1.7-6.2,4.4-7.8c-8.9,0.1-17.7,0.3-26,0.7c3.5,1.2,6.1,4.4,6.1,8.3c0.1,4.9-3.9,9-8.9,9c-5,0.1-9.1-3.8-9.1-8.8
			c-0.1-3.6,2.1-6.8,5.3-8.2c-8.9,0.5-17.2,1.2-24.6,2.1c2.7,1.5,4.5,4.3,4.5,7.6c0.1,4.9-3.9,8.9-8.9,9s-9.1-3.8-9.1-8.8
			c0-2.3,0.9-4.5,2.3-6.1c-5,1-9.4,2.1-12.7,3.4c-6.3,2.5,4.3,169.5,15.4,179.1c11,9.6,178.4,6.6,186.4-0.7
			C377.9,454.6,377.9,287,371.9,282.1z"/>
		<path class="st12" d="M375.4,280.3c-0.8-0.7-4.4-1.4-10-2.1c1.3,1.5,2,3.5,2.1,5.6c0.1,5-3.9,9.1-8.9,9.1c-5,0.1-9.1-3.9-9.1-8.9
			c0-2.9,1.3-5.5,3.5-7.2c-5.8-0.5-12.5-1-19.9-1.5c1.3,1.5,2.2,3.5,2.2,5.8c0.1,5-3.9,9.1-8.9,9.1c-5,0.1-9.1-3.9-9.1-8.9
			c0-2.7,1.1-5.1,2.9-6.7c-6.6-0.3-13.4-0.6-20.5-0.8c2.2,1.6,3.7,4.2,3.7,7.1c0.1,5-3.9,9.1-8.9,9.2c-5,0.1-9.1-3.9-9.1-8.9
			c0-3.2,1.6-6.1,4.1-7.7c-9.1-0.2-18.4-0.3-27.6-0.3c2.7,1.5,4.5,4.4,4.5,7.7c0.1,5-3.9,9.1-8.9,9.1c-5,0.1-9.1-3.9-9.1-8.9
			c-0.1-3.4,1.7-6.3,4.4-7.9c-8.9,0.1-17.7,0.3-26,0.7c3.5,1.2,6.1,4.5,6.1,8.4c0.1,5-3.9,9.1-8.9,9.1c-5,0.1-9.1-3.9-9.1-8.9
			c-0.1-3.7,2.1-6.9,5.3-8.3c-8.9,0.5-17.2,1.2-24.6,2.2c2.6,1.5,4.5,4.4,4.5,7.7c0.1,5-3.9,9.1-8.9,9.1c-5,0.1-9.1-3.9-9.1-8.9
			c0-2.4,0.9-4.6,2.3-6.2c-5,1-9.3,2.1-12.7,3.4c-6.3,2.5,4.3,171.7,15.4,181.4c11,9.7,178.4,6.7,186.4-0.7
			C381.4,455.1,381.4,285.3,375.4,280.3z"/>
		<g>
			<path class="st11" d="M173.6,380.5c1.2,0,2.5,0,3.7,0c2.5,0,4.7-0.3,7.1-0.9c1.4-0.3,2.9-0.7,4.3-1c0.9-0.2,2.2-0.3,3.1-0.7
				c2.4-1.1,4.4-3.7,4.2-6.5c-0.1-1.3-1.2-3.1-0.1-4.1c0.4-0.3,1.2-0.6,1.6-0.8c1.3-0.7,2.4-1.5,3.5-2.5c2.2-2,3.8-4,3.5-7.1
				c-0.2-2.7-1.6-5.5-3.4-7.5c-0.2-0.2-1.4-0.9-1.5-1.2c-0.4-0.7,0.2-0.5,0.4-1.1c0.5-1.2,1.1-1.8,1.1-3.2c0-1.5-0.5-3-1.2-4.3
				c-1.5-2.7-3.3-4.5-6.4-4.4l-22.4,7.5C171.7,355.1,172.6,367.9,173.6,380.5z"/>
			<path class="st11" d="M373.4,462.4c3.7-3.4,5.7-40.8,6.2-80.8c-1.9,2.7-4.7,4.6-7.8,5.4c-0.8,0.2-1.2,0.1-1.9,0.6
				c-0.6,0.4-0.9,1-1.5,1.5c-0.5,0.3-0.7,0.2-1.1,0.5c-0.5,0.4-0.7,1-0.9,1.5c-0.6,1.6-0.9,3.1-2,4.5c-1.5,2-3.7,3.3-5.4,5.1
				c-1.3,1.4-2.4,3-3.6,4.5c-0.8,1-1.6,1.8-1.7,3.1c-0.2,3.4,2.5,0.5,3.7,2.3c-0.3,1.4-3,3.5-3.9,4.4c-1.3,1.5-2.1,2.3-4,3.1
				c-1.5,0.5-2.9,1.3-4.1,2.3c-2.1,1.5-3.9,2.9-6.4,3.8c-2.4,0.9-4.9,1.5-7.3,2.3c-1.1,0.4-7.7,2.5-7.2,4.1c1.2,0.3,2.5-0.2,3.7,0.2
				c-2.2,1.4-4.5,2.9-6.7,4.4c-1.4,1-2.4,2.1-3.9,2.9c-1.5,0.8-1.8,1-3.1,2.5c-1.8,2-3.4,3.3-5.8,4.5c-2.5,1.3-4.6,3.2-7,4.7
				c-1.2,0.9-2.6,1.5-4,1.9c-0.7,0-1.4,0-2.1,0.1c-1.5,0.2-2.7,0.8-4.2,0.9c-2.2,0.1-4.2,1-6.4,1c-1.5,0-2.9,0-4.4,0
				c-1.1,0-2.1,0.2-3.1-0.4c-1.1-0.7-1.7-2-3.1-2.2c-1.1-0.1-2.8,0.8-3.8,1.1c-1.2,0.4-2.4,0.7-3.6,0.9c-3.5,0.5-6.9-0.2-10.3-0.9
				c-3-0.6-5.8-1.3-8.4-2.8c-1.7-0.9-3.1-2-4.9-2.8c-3.7-1.5-7.1-3.5-10.7-5.2c-3.5-1.6-6.1-4.4-9.5-6c-1.9-0.9-3.8-1.5-4.3-3.7
				c-0.3-1.2-0.3-3.7-1.2-4.6c-0.7-0.8-1.9-0.8-2.9-1c-3.8-0.5-7.4,0-11.1-1.8c-2.2-1.1-4.3-2.5-6.4-3.8c-0.7-0.4-3.1-1.4-3.6-2
				c-0.7-0.7-0.4,0-0.6-1.2c-0.2-1.3,0.9-1.9,1.4-2.9c0.9-2.1-3.1-2.4-4.4-2.8c-1.6-0.5-2.9-1.3-4.5-1.7c-1.7-0.4-3.3-0.5-4.9-1.1
				c-1.7-0.5-3.3-1.3-4.8-2.2c3.1,29.1,6.9,52.7,10.9,56.1C198,472.8,365.4,469.8,373.4,462.4z"/>
			<path class="st11" d="M376,332.4c-3.5,0.3-6.1,1.4-9.3,2.6c-1.7,0.6-3.7,1.4-5.5,0.9c-1.5-0.5-2.1-1.3-3.9-0.9
				c-1.4,0.4-2.7,0.8-4.1,1c-4.2,0.7-7.2,3.7-10.9,5.6c-2.2,1.1-5.3,2.1-6,4.9c-0.3,1.3,0.1,2.2,0.3,3.4c0.2,1,0.1,2.1,0.1,3.1
				c0,2,0.2,4,0,6c-0.1,1.1-0.6,2.2-0.6,3.3c0,1,0.4,2,0.7,2.9c0.5,1.6,1.8,3.1,3.4,3.8c1,0.5,2.1,0.5,3.1,1.1
				c0.7,0.4,1.2,0.9,2,1.3c0.8,0.4,1.8,0.5,2.5,0.9c0.8,0.6,1.1,1.5,1.6,2.3c0.5,1,0.9,1.8,2,1.9c0.8,0.1,2.4-0.5,3,0
				c0.5,0.4,0.5,1,1,1.4c0.9,0.8,2,1,3.2,0.9c1.4-0.1,2.9-0.3,4.3-0.5c1.1-0.2,2.4-0.2,3.5-0.4c1.8-0.4,3.6-1.8,5.3-2.5
				c0.8-0.3,1.5-0.6,2.3-1c1.4-0.6,4.1-1.5,5.7-1c0.1-14.1,0-28.3-0.2-41.2C378.3,332.4,377.2,332.4,376,332.4z"/>
		</g>
		<g>
			<path class="st3" d="M161.9,271.5c0,0,1.6,20.3,6.8,26.4c0,0-2,0.2-4.9-1.1c0,0,8.4,15.1,16.1,18.8c0,0-1.3,3.2-4.3,2.6
				c0,0,8.4,8.1,16.4,12.5c8,4.4,6.1,11.3-0.1,13.1c0,0,6,8.2,3.6,12.7c-2.4,4.5-7.6,3-7.6,3s2.7,7.3-6.3,7.2c-9-0.1-16.4-8-16.4-8
				s-0.3,0.1,1.7,3.7c0,0-11.2-0.6-17.3-15.6c0,0,0.3,2.4,0.7,5.8c0,0-17.7-11.1-15.8-39.8c0,0-1.1,1.2-2.6,4.3c0,0-5.9-21.2,2.8-40
				C142.8,259.4,160.7,258.6,161.9,271.5z"/>
			<path class="st0" d="M165.1,358.8c0,0,7.4,7.9,16.4,8c2.5,0,4.1-0.5,5.2-1.3c-0.8-0.2-1.5-0.6-2.4-0.9c-1.9-0.9-4-1.3-5.7-2.5
				c-1.4-0.9-2.8-1.9-4.3-2.7c-2.7-1.6-5.3-3.8-6.9-6.5c-0.9-1.5-1.8-3-2.6-4.6c-0.2-0.4-0.6-1.6-1.1-1.5c-0.5,0.9-0.7,2.1-0.8,3.1
				c-0.5-0.3-1-1.2-1.3-1.6c-0.5-0.5-0.8-1.1-1.1-1.7c-0.7-1.6-1.4-3.1-2.3-4.6c-0.8-1.3-1.6-2.5-2.3-3.9c-1.8-3.4-3.8-7-4.9-10.7
				c-0.3-1-0.4-2.4-1-3.3c0-0.3-0.2-0.4-0.4-0.4c-0.3,0.4-0.6,0.7-0.8,1.2c-0.2,0.5-0.3,1.1-0.6,1.5c-0.2-0.2-0.2-0.4-0.3-0.7
				c-0.4-1.1-0.8-2.2-1-3.4c-0.5-2.2-0.7-4.5-1.2-6.8c-0.3-1.5-0.7-3.1-1-4.6c-0.8-3.9-2.1-8-2-12c0-1.3,0.3-2.7,0.3-4
				c0.1-0.2,0.1-0.4,0-0.6c-1.2,0.7-1.9,2.1-2.7,3.1c0.3-2,0.6-4,0.8-6.1c0.3-4.1,0.6-8.1,1-12.2c0.4-4.3,1.6-8.5,3.2-12.5
				c0.3-0.7,0.5-1.3,0.8-2c-4.2,2.1-8.5,6.3-11.5,12.7c-8.7,18.8-2.8,40-2.8,40c1.4-3.1,2.6-4.3,2.6-4.3
				c-1.8,28.7,15.8,39.8,15.8,39.8c-0.4-3.4-0.7-5.8-0.7-5.8c6.1,14.9,17.3,15.6,17.3,15.6C164.7,358.9,165.1,358.8,165.1,358.8z"/>
			<path class="st0" d="M150.9,274.1c-0.2-0.9-1.4-1-1.7-0.2c-0.4,1-0.2,2.1-0.1,3.2c0.1,0.7,1.2,0.8,1.4,0.1
				C150.8,276.2,151.1,275.1,150.9,274.1z"/>
			<path class="st0" d="M158.8,288.9c-0.4-1-1.9-0.3-1.4,0.7c0.3,0.6,0.5,1.2,0.7,1.8c0.2,0.7,1.3,0.7,1.3-0.1
				C159.2,290.5,159.1,289.7,158.8,288.9z"/>
			<path class="st0" d="M157.3,308.6c-0.1-0.9-0.3-1.6-0.7-2.3c-0.6-1-2.2-0.3-1.7,0.8c0.4,0.7,0.7,1.3,1,2
				C156.3,309.9,157.4,309.4,157.3,308.6z"/>
			<path class="st0" d="M174.2,330.5c-0.3-0.8-0.9-1.4-1.3-2.2c-0.5-0.9-1.9-0.3-1.4,0.7c0.4,0.9,0.8,1.8,1.6,2.4
				C173.7,331.9,174.4,331.2,174.2,330.5z"/>
			<path class="st0" d="M173.9,349.1c-0.7-1-1.6-1.7-2.5-2.6c-0.6-0.6-1.7,0.2-1.1,0.9c0.9,1,1.7,2,2.9,2.6
				C173.8,350.3,174.2,349.5,173.9,349.1z"/>
			<path class="st0" d="M188.8,350c-0.3-0.2-0.5-0.4-0.7-0.6c-0.7-0.9-2,0.4-1.1,1.2c0.4,0.3,0.8,0.5,1.4,0.5
				C189,351.1,189.3,350.4,188.8,350z"/>
			<path class="st3" d="M137.2,283c-0.3-0.9-1.7-0.7-1.5,0.3c0.1,0.4,0,0.7,0.1,1.1c0,0.4,0,0.7-0.1,1.1c-0.2,0.6,0.7,1.2,1,0.5
				c0.2-0.4,0.4-0.8,0.6-1.3C137.5,284.1,137.3,283.5,137.2,283z"/>
			<path class="st3" d="M142,307.5c-0.1-1-1.8-0.9-1.7,0.1c0,0.8,0,1.4,0.3,2.2c0.2,0.6,1.2,0.6,1.4-0.1
				C142.1,308.9,142,308.3,142,307.5z"/>
			<path class="st3" d="M141.6,325.6c-0.3-0.9-1.9-0.4-1.7,0.5c0.2,0.8,0.4,1.6,0.8,2.4c0.3,0.6,1.2,0.4,1.3-0.2
				C142.1,327.4,141.9,326.5,141.6,325.6z"/>
			<path class="st3" d="M153.7,340.5c-0.2-0.9-0.6-1.7-0.9-2.6c-0.2-0.5-0.8-0.6-1.2-0.4c-0.5,0.2-0.6,0.7-0.4,1.2
				c0.3,0.9,0.7,1.7,1.4,2.4C153,341.5,153.9,341.2,153.7,340.5z"/>
			<path class="st3" d="M163,358.4c-0.2-1.2-0.8-2.1-1.5-3.1c-0.3-0.4-0.9-0.4-1.2-0.1c-0.4,0.3-0.4,0.8-0.1,1.2
				c0.6,0.9,1.1,1.7,1.7,2.5C162.3,359.5,163.1,359.1,163,358.4z"/>
			<path class="st14" d="M187.6,331.6c-1.2-1.1-2.9-1.5-4.3-2.4c-0.6-0.4-1.2,0.5-0.6,0.9c1.4,0.9,2.9,1.8,4.5,2.4
				C187.7,332.8,188,332,187.6,331.6z"/>
			<path class="st14" d="M188.8,335.3c-0.6-0.4-1.1-0.7-1.8-0.9c-0.8-0.2-1.2,0.9-0.5,1.2c0.6,0.3,1.2,0.4,1.9,0.5
				C188.9,336.2,189.1,335.5,188.8,335.3z"/>
			<path class="st14" d="M193.5,336.3c-0.2-0.4-0.4-0.7-0.8-0.9c-0.8-0.5-1.7,0.7-0.8,1.2c0.3,0.2,0.6,0.4,0.9,0.5
				C193.2,337.4,193.7,336.7,193.5,336.3z"/>
			<path class="st14" d="M173.4,314.2c-0.4-0.6-0.9-1.2-1.4-1.8c-0.5-0.6-1.4,0.2-0.9,0.7c0.5,0.6,0.9,1.2,1.5,1.7
				C173,315.2,173.7,314.6,173.4,314.2z"/>
		</g>
		<g>
			<path class="st3" d="M386.6,278.4c0,0-3.6,20-9.3,25.6c0,0,2,0.4,5-0.6c0,0-9.9,14.2-17.9,17.2c0,0,1,3.4,4,3.1
				c0,0-9.1,7.2-17.5,10.8c-8.4,3.6-7.1,10.6-1.2,13c0,0-6.8,7.6-4.8,12.3c1.9,4.7,7.3,3.8,7.3,3.8s-3.4,7,5.6,7.8
				c9,0.8,17.1-6.3,17.1-6.3s0.3,0.2-2.1,3.5c0,0,11.2,0.5,18.7-13.8c0,0-0.5,2.3-1.2,5.7c0,0,18.7-9.3,19.7-38c0,0,1,1.3,2.1,4.5
				c0,0,8-20.5,1.2-40.1C406.8,268.3,389.1,265.7,386.6,278.4z"/>
			<path class="st0" d="M374.8,365c0,0-8.1,7.1-17.1,6.3c-2.5-0.2-4.1-0.9-5-1.8c0.8-0.2,1.6-0.4,2.4-0.7c2-0.7,4.1-0.9,6-1.9
				c1.5-0.8,3-1.6,4.5-2.3c2.9-1.3,5.6-3.3,7.5-5.8c1.1-1.4,2.1-2.8,3-4.3c0.2-0.4,0.7-1.5,1.3-1.4c0.4,1,0.4,2.2,0.5,3.2
				c0.5-0.2,1.1-1.1,1.5-1.5c0.5-0.4,0.9-1,1.3-1.6c0.9-1.5,1.7-2.9,2.7-4.3c0.9-1.2,1.8-2.4,2.6-3.6c2.1-3.2,4.5-6.6,5.9-10.2
				c0.4-0.9,0.7-2.3,1.3-3.2c0.1-0.3,0.2-0.4,0.4-0.4c0.2,0.4,0.5,0.8,0.7,1.3c0.2,0.5,0.1,1.1,0.4,1.5c0.2-0.1,0.3-0.4,0.4-0.7
				c0.5-1.1,1-2.1,1.4-3.3c0.7-2.2,1.2-4.4,1.8-6.6c0.5-1.5,1-3,1.5-4.5c1.2-3.8,2.8-7.7,3.1-11.7c0.1-1.3,0-2.7,0.1-4
				c-0.1-0.2,0-0.4,0-0.6c1.1,0.8,1.7,2.3,2.4,3.4c-0.1-2.1-0.2-4.1-0.2-6.2c0.1-4.1,0.2-8.2,0.2-12.2c0-4.3-0.8-8.6-2-12.7
				c-0.2-0.7-0.4-1.4-0.6-2c4,2.6,7.8,7.1,10.2,13.8c6.8,19.6-1.2,40.1-1.2,40.1c-1.1-3.3-2.1-4.5-2.1-4.5c-1,28.7-19.7,38-19.7,38
				c0.7-3.3,1.2-5.7,1.2-5.7c-7.5,14.3-18.7,13.8-18.7,13.8C375.2,365.1,374.8,365,374.8,365z"/>
			<path class="st0" d="M397.3,282.1c0.3-0.9,1.5-0.8,1.7,0c0.3,1,0,2.2-0.2,3.2c-0.2,0.7-1.3,0.7-1.5,0
				C397.2,284.2,397,283.1,397.3,282.1z"/>
			<path class="st0" d="M388,296.1c0.5-0.9,1.9-0.1,1.4,0.8c-0.3,0.6-0.6,1.2-0.8,1.8c-0.2,0.6-1.4,0.6-1.3-0.2
				C387.4,297.6,387.6,296.8,388,296.1z"/>
			<path class="st0" d="M387.5,315.8c0.2-0.8,0.5-1.5,1-2.3c0.7-1,2.2,0,1.6,0.9c-0.4,0.6-0.8,1.3-1.2,1.9
				C388.4,317.2,387.3,316.6,387.5,315.8z"/>
			<path class="st0" d="M368.6,336c0.4-0.7,1-1.3,1.5-2c0.6-0.8,1.9-0.1,1.3,0.8c-0.5,0.8-1,1.7-1.8,2.2
				C368.9,337.4,368.3,336.6,368.6,336z"/>
			<path class="st0" d="M367,354.4c0.8-0.9,1.8-1.6,2.7-2.3c0.7-0.5,1.7,0.4,1,1c-1,0.9-1.9,1.8-3.1,2.3
				C367,355.7,366.7,354.8,367,354.4z"/>
			<path class="st0" d="M352.1,353.9c0.3-0.2,0.5-0.3,0.7-0.5c0.8-0.8,2,0.6,1,1.3c-0.4,0.3-0.9,0.4-1.4,0.4
				C351.8,355,351.6,354.2,352.1,353.9z"/>
			<path class="st3" d="M410.1,292.3c0.4-0.9,1.7-0.5,1.5,0.4c-0.1,0.4-0.1,0.7-0.2,1.1c-0.1,0.4-0.1,0.7,0,1.1
				c0.1,0.6-0.8,1.1-1.1,0.4c-0.2-0.4-0.4-0.9-0.5-1.3C409.7,293.4,409.9,292.8,410.1,292.3z"/>
			<path class="st3" d="M402.9,316.2c0.2-1,1.8-0.7,1.7,0.3c-0.1,0.7-0.2,1.4-0.5,2.1c-0.3,0.6-1.3,0.4-1.4-0.2
				C402.7,317.6,402.8,317,402.9,316.2z"/>
			<path class="st3" d="M401.5,334.3c0.4-0.9,2-0.2,1.6,0.7c-0.3,0.8-0.6,1.6-1.1,2.3c-0.4,0.6-1.2,0.3-1.2-0.3
				C400.8,336,401.1,335.2,401.5,334.3z"/>
			<path class="st3" d="M388,347.9c0.3-0.9,0.8-1.7,1.1-2.5c0.2-0.4,0.8-0.5,1.2-0.3c0.5,0.3,0.5,0.8,0.3,1.2
				c-0.4,0.9-0.8,1.7-1.6,2.2C388.6,348.9,387.8,348.6,388,347.9z"/>
			<path class="st3" d="M377,364.8c0.3-1.2,1-2,1.8-2.9c0.3-0.4,0.9-0.3,1.3,0c0.4,0.4,0.3,0.9,0,1.3c-0.6,0.8-1.2,1.6-1.9,2.3
				C377.6,366,376.8,365.4,377,364.8z"/>
			<path class="st14" d="M355.1,335.7c1.3-1,3.1-1.3,4.5-2c0.6-0.3,1.2,0.6,0.5,1c-1.5,0.8-3.1,1.5-4.7,2
				C354.9,336.9,354.7,336,355.1,335.7z"/>
			<path class="st14" d="M353.6,339.2c0.6-0.3,1.2-0.6,1.8-0.7c0.8-0.2,1.1,1,0.3,1.3c-0.6,0.2-1.3,0.3-1.9,0.3
				C353.4,340.2,353.2,339.4,353.6,339.2z"/>
			<path class="st14" d="M348.8,339.8c0.2-0.4,0.5-0.6,0.9-0.8c0.9-0.4,1.6,0.9,0.7,1.3c-0.3,0.1-0.6,0.3-1,0.4
				C348.9,340.9,348.6,340.2,348.8,339.8z"/>
			<path class="st14" d="M370.9,319.8c0.5-0.6,1-1.1,1.6-1.6c0.5-0.5,1.3,0.3,0.8,0.8c-0.5,0.5-1.1,1-1.7,1.5
				C371.2,320.8,370.6,320.2,370.9,319.8z"/>
		</g>
		<g>
			<path class="st3" d="M124.1,420c0,0,1,10.7,3.7,14.7c0,0,1-3.3,2-5.3c0,0,5.3,22.4,12.4,28.4c0,0,1.7-1.3,2-4
				c0,0,10,17.4,25.1,24.4c0,0-0.3-1.3,0-4.3c0,0,21.4,10.4,38.1,11.7c16.7,1.3,16.7-7,10.4-11c0,0,19.7-0.7,10-14
				c0,0,13.4-4.3,4.3-13c-9-8.7-28.4-11-38.4-16.4c0,0,5.7-0.7,8-1c0,0-16-4.7-29.7-17.4c0,0,4,0,6.7,0c0,0-5.3-3-13.4-9.7
				C157.2,396.3,121.8,382.6,124.1,420z"/>
			<path class="st0" d="M207.3,485.5c5.8,0.5,9.6-0.2,11.8-1.5c-0.3,0-0.6-0.1-1-0.1c-2.8-0.5-5.6-0.6-8.2-1.7
				c-2.7-1.1-5.4-2.7-7.8-4.2c-2.8-1.8-5.3-3.9-8.1-5.4c-1.9-1-3.6-2.2-5.4-3.4c-1-0.7-2.1-1.2-3.3-1.7c-1.2-0.5-2.2-1.2-3.3-1.9
				c-2.4-1.7-4.4-3.6-6.5-5.7c-0.6-0.6-1.3-1.2-1.9-1.8c-0.1-0.3-0.3-0.5-0.6-0.5c-0.5,0.8-0.9,1.6-1.1,2.6
				c-0.2,0.7-0.1,1.6-0.4,2.3c-0.5,0-0.9-0.2-1.2-0.6c-1-1-2.1-1.9-3.2-2.8c-2.3-1.8-4.7-3.2-6.8-5.2c-1.7-1.7-3.4-3.4-5-5.2
				c-1.7-1.8-3.3-3.6-4.9-5.6c-1.1-1.5-2-3.2-3.2-4.6c-0.6,0.2-1.1,2.1-1.3,2.6c-0.2,0.7-0.1,1.4-0.4,2c-1.1,0.2-1.9-1.4-2.3-2.1
				c-2-3.1-3.9-6.1-5.6-9.3c-2-3.8-3.7-7.9-4.7-12c-0.3-1.1-0.1-2.3-0.4-3.3c-0.5,0.4-1.2,1.5-1.6,2.1c-0.3,0.4-0.8,1.5-1.3,1.7
				c-3.3-3.3-3.1-9.1-3.1-13.4c0-0.9,0-1.8-0.1-2.8c-1.8,3.8-2.7,9-2.2,16.1c0,0,1,10.7,3.7,14.7c0,0,1-3.3,2-5.3
				c0,0,5.3,22.4,12.4,28.4c0,0,1.7-1.3,2-4c0,0,10,17.4,25.1,24.4c0,0-0.3-1.3,0-4.3C169.2,473.8,190.6,484.1,207.3,485.5z"/>
			<path class="st0" d="M132.3,406.1c-0.1-0.8-1.4-0.8-1.5,0c-0.3,1.4-0.3,3,0,4.4c0.2,0.8,1.4,0.8,1.6,0
				C132.6,409.1,132.5,407.5,132.3,406.1z"/>
			<path class="st0" d="M152.3,409.4c-0.5-1.3-1.2-2.4-1.6-3.7c-0.3-1.1-1.9-0.6-1.6,0.5c0.3,1.4,0.9,2.7,1.8,3.8
				C151.3,410.7,152.7,410.3,152.3,409.4z"/>
			<path class="st0" d="M153.9,429.3c-1-1.5-2.1-2.8-3.3-4c-0.9-0.9-2.2,0.5-1.4,1.4c0.6,0.6,1.1,1.2,1.6,1.9c0.6,0.7,1.3,1.3,2,1.8
				C153.5,430.8,154.3,429.9,153.9,429.3z"/>
			<path class="st0" d="M171.6,429.6c-0.8-1.5-1.9-2.7-3-4c-0.8-0.9-2.1,0.4-1.4,1.4c1,1.2,2,2.4,3.1,3.6
				C171,431.2,172,430.4,171.6,429.6z"/>
			<path class="st0" d="M175.5,449.7c-0.8-1.6-2.2-2.5-3.7-3.1c-0.9-0.3-1.5,1.1-0.6,1.5c1.2,0.6,2.3,1.4,3.2,2.5
				C175,451.2,175.9,450.4,175.5,449.7z"/>
			<path class="st0" d="M198.7,446c-1.2-1.7-3-2.8-4.4-4.3c-0.9-0.9-2.2,0.4-1.4,1.4c1.3,1.5,2.9,2.7,4.4,3.9
				C198.1,447.5,199.3,446.8,198.7,446z"/>
			<path class="st0" d="M206.5,466.9c-0.9-1.1-2.2-1.6-3.3-2.4c-0.8-0.6-1.9,0.4-1.1,1.1c1.1,0.9,2.3,1.7,3.5,2.4
				C206.4,468.4,207,467.6,206.5,466.9z"/>
			<path class="st0" d="M223.1,463.5c-0.9-0.6-1.9-1-2.9-1.5c-1.1-0.5-2,1.1-0.9,1.6c1.1,0.5,2.1,1,3.3,1.2
				C223.3,465,223.8,463.9,223.1,463.5z"/>
			<path class="st3" d="M138.4,438.9c-0.2-1-0.5-1.9-0.5-2.8c-0.1-0.9-1.3-0.9-1.4,0c-0.1,1.3,0.1,2.5,0.9,3.4
				C137.8,440,138.5,439.4,138.4,438.9z"/>
			<path class="st3" d="M158.1,456.9c-1-1.2-2-2.3-2.8-3.6c-0.6-1-2.1-0.1-1.5,0.9c0.9,1.5,1.9,2.9,3.4,3.9
				C157.9,458.6,158.6,457.5,158.1,456.9z"/>
			<path class="st3" d="M189.7,473.1c-1.2-0.6-2.5-1.1-3.6-1.7c-1-0.6-1.8,0.9-0.9,1.5c1.2,0.9,2.6,1.8,4.1,1.7
				C190,474.6,190.5,473.5,189.7,473.1z"/>
			<path class="st14" d="M217.1,442.4c-2-0.9-4.8-1.3-7-1.1c-0.8,0.1-1.1,1.3-0.2,1.4c1.1,0.2,2.2,0.3,3.3,0.5
				c1.2,0.2,2.3,0.6,3.6,0.5C217.4,443.8,217.8,442.7,217.1,442.4z"/>
			<path class="st14" d="M220.7,445.2c-1-0.6-2-1-3.1-1.2c-0.9-0.2-1.3,1.2-0.4,1.4c1,0.2,2,0.6,3,0.9
				C220.9,446.5,221.2,445.6,220.7,445.2z"/>
			<path class="st14" d="M228.6,449.1c-0.4-0.7-1.1-1.3-1.7-1.9c-0.7-0.7-1.8,0.4-1.1,1.1c0.6,0.6,1.2,1.2,1.9,1.7
				C228.3,450.3,228.9,449.6,228.6,449.1z"/>
			<path class="st14" d="M185.4,425.6c-0.8-0.7-1.8-1.1-2.7-1.6c-0.9-0.4-1.7,0.9-0.8,1.4c0.9,0.5,1.9,1,2.9,1.3
				C185.4,426.8,185.9,426,185.4,425.6z"/>
			<path class="st14" d="M188.3,427.1c-0.1,0-0.2-0.1-0.3-0.1c-0.6-0.2-1.3,0-1.3,0.7c0,0.7,0.7,1,1.3,0.7c0.1,0,0.2-0.1,0.3-0.1
				C188.8,428.1,188.8,427.3,188.3,427.1z"/>
			<path class="st14" d="M166.6,406.6c-0.5-0.4-0.9-0.8-1.5-1.1c-0.7-0.3-1.3-0.6-2-0.9c-0.8-0.3-1.3,1-0.6,1.3
				c0.6,0.3,1.2,0.5,1.8,0.9c0.6,0.3,1.2,0.5,1.8,0.7C166.6,407.7,167,406.9,166.6,406.6z"/>
		</g>
		<g>
			<path class="st3" d="M420,418.3c0,0-0.3,10.7-2.7,14.9c0,0-1.2-3.3-2.4-5.2c0,0-3.8,22.7-10.4,29.2c0,0-1.8-1.2-2.3-3.9
				c0,0-8.8,18-23.3,26c0,0,0.2-1.4-0.3-4.3c0,0-20.6,11.8-37.2,14.2c-16.6,2.5-17.1-5.9-11.1-10.3c0,0-19.7,0.7-11-13.3
				c0,0-13.6-3.4-5.2-12.7c8.4-9.3,27.6-12.9,37.2-18.9c0,0-5.7-0.3-8.1-0.5c0,0,15.7-5.8,28.5-19.3c0,0-4,0.3-6.7,0.5
				c0,0,5.1-3.4,12.7-10.6C385.4,396.9,419.8,380.8,420,418.3z"/>
			<path class="st0" d="M341.4,489.3c-5.8,0.9-9.6,0.4-11.9-0.7c0.3-0.1,0.6-0.1,0.9-0.2c2.7-0.7,5.5-1,8.1-2.3
				c2.6-1.3,5.2-3,7.5-4.7c2.6-1.9,5-4.3,7.8-5.9c1.8-1.1,3.5-2.5,5.2-3.7c1-0.7,2-1.3,3.2-1.9c1.2-0.6,2.1-1.3,3.1-2.1
				c2.3-1.9,4.2-3.9,6.1-6.2c0.6-0.7,1.2-1.3,1.8-2c0.1-0.3,0.2-0.5,0.5-0.6c0.5,0.8,1,1.6,1.3,2.5c0.2,0.7,0.2,1.6,0.6,2.3
				c0.5,0,0.9-0.2,1.1-0.6c1-1,2-2,3-3c2.1-1.9,4.5-3.5,6.5-5.7c1.6-1.8,3.1-3.6,4.6-5.5c1.6-1.9,3.1-3.8,4.5-5.9
				c1-1.6,1.8-3.3,2.9-4.8c0.7,0.1,1.3,2,1.5,2.6c0.2,0.6,0.2,1.4,0.6,2c1.1,0.1,1.8-1.5,2.2-2.2c1.8-3.2,3.5-6.4,4.9-9.7
				c1.7-3.9,3.1-8.1,3.9-12.3c0.2-1.1-0.1-2.3,0.2-3.3c0.6,0.4,1.3,1.4,1.8,2c0.3,0.4,0.9,1.5,1.4,1.6c3.1-3.5,2.4-9.3,2.2-13.5
				c-0.1-0.9-0.1-1.8-0.1-2.8c2,3.7,3.3,8.8,3.3,15.9c0,0-0.3,10.7-2.7,14.9c0,0-1.2-3.3-2.4-5.2c0,0-3.8,22.7-10.4,29.2
				c0,0-1.8-1.2-2.3-3.9c0,0-8.8,18-23.4,26c0,0,0.2-1.4-0.3-4.3C378.7,475,358,486.8,341.4,489.3z"/>
			<path class="st0" d="M411,405c0.1-0.8,1.3-0.9,1.5-0.1c0.3,1.4,0.5,3,0.3,4.4c-0.1,0.8-1.3,0.9-1.6,0.1
				C410.9,408,410.8,406.4,411,405z"/>
			<path class="st0" d="M391.2,409.7c0.4-1.3,1.1-2.5,1.4-3.8c0.2-1.1,1.8-0.7,1.7,0.3c-0.2,1.5-0.8,2.7-1.6,4
				C392.3,410.9,390.9,410.6,391.2,409.7z"/>
			<path class="st0" d="M391,429.6c0.9-1.5,1.9-2.9,3-4.2c0.8-0.9,2.3,0.3,1.5,1.3c-0.5,0.6-1,1.3-1.5,2c-0.5,0.7-1.2,1.3-1.9,1.9
				C391.5,431,390.6,430.2,391,429.6z"/>
			<path class="st0" d="M373.3,431.1c0.7-1.5,1.7-2.8,2.7-4.1c0.8-1,2.2,0.3,1.4,1.3c-1,1.3-1.9,2.5-2.9,3.8
				C374,432.7,372.9,431.9,373.3,431.1z"/>
			<path class="st0" d="M370.7,451.4c0.7-1.6,2-2.6,3.5-3.3c0.8-0.4,1.5,1,0.7,1.5c-1.2,0.7-2.2,1.6-3.1,2.7
				C371.4,452.9,370.4,452.1,370.7,451.4z"/>
			<path class="st0" d="M347.4,449.3c1.1-1.7,2.8-3,4.1-4.6c0.8-1,2.2,0.3,1.4,1.3c-1.2,1.5-2.7,2.9-4.2,4.2
				C348.1,450.8,346.8,450.1,347.4,449.3z"/>
			<path class="st0" d="M341,470.7c0.8-1.1,2.1-1.7,3.1-2.6c0.7-0.7,1.9,0.3,1.2,1c-1,1-2.2,1.9-3.4,2.6
				C341.3,472.2,340.6,471.3,341,470.7z"/>
			<path class="st0" d="M324.2,468.4c0.9-0.7,1.8-1.2,2.8-1.7c1.1-0.6,2.1,1,1.1,1.6c-1,0.6-2,1.1-3.2,1.5
				C324.1,469.9,323.6,468.9,324.2,468.4z"/>
			<path class="st3" d="M407,438.1c0.1-1,0.4-1.9,0.4-2.9c0-0.9,1.2-1,1.4-0.1c0.2,1.2,0.1,2.5-0.7,3.5
				C407.7,439.1,407,438.7,407,438.1z"/>
			<path class="st3" d="M388.7,457.4c0.9-1.2,1.8-2.4,2.5-3.8c0.5-1,2-0.2,1.6,0.8c-0.8,1.6-1.7,3-3.1,4.1
				C388.9,459.1,388.2,458,388.7,457.4z"/>
			<path class="st3" d="M358.2,475.7c1.2-0.7,2.4-1.2,3.5-2c1-0.6,1.8,0.7,1,1.5c-1.2,0.9-2.4,2-4,2
				C358,477.2,357.4,476.1,358.2,475.7z"/>
			<path class="st14" d="M328.8,447c2-1,4.7-1.6,7-1.6c0.8,0,1.1,1.2,0.3,1.4c-1.1,0.2-2.2,0.4-3.3,0.7c-1.2,0.3-2.3,0.7-3.5,0.8
				C328.6,448.3,328.2,447.3,328.8,447z"/>
			<path class="st14" d="M325.4,450c0.9-0.7,1.9-1.1,3-1.4c0.9-0.2,1.4,1.1,0.5,1.4c-1,0.3-2,0.7-3,1.1
				C325.3,451.3,324.9,450.4,325.4,450z"/>
			<path class="st14" d="M317.8,454.4c0.4-0.8,1-1.4,1.5-2c0.7-0.7,1.8,0.2,1.1,1c-0.6,0.6-1.1,1.3-1.8,1.8
				C318.2,455.6,317.5,454.9,317.8,454.4z"/>
			<path class="st14" d="M359.3,428c0.8-0.7,1.7-1.2,2.6-1.7c0.9-0.5,1.8,0.8,0.9,1.3c-0.9,0.5-1.8,1.1-2.8,1.5
				C359.4,429.2,358.8,428.4,359.3,428z"/>
			<path class="st14" d="M356.5,429.7c0.1,0,0.2-0.1,0.3-0.1c0.5-0.3,1.3-0.1,1.3,0.6c0,0.7-0.6,1-1.2,0.8c-0.1,0-0.2-0.1-0.3-0.1
				C356.1,430.7,356,429.9,356.5,429.7z"/>
			<path class="st14" d="M376.7,407.8c0.4-0.5,0.9-0.9,1.4-1.2c0.6-0.4,1.3-0.7,2-1c0.8-0.3,1.4,0.9,0.7,1.3c-0.6,0.3-1.2,0.6-1.7,1
				c-0.5,0.3-1.1,0.6-1.7,0.8C376.8,408.9,376.3,408.2,376.7,407.8z"/>
		</g>
		<path class="st0" d="M343.5,264.7c16.6-7.7,32.7-61.4-69.6-59.4c-102.3,1.9-90,41.3-82.6,52.5c7.4,11.2,52.4,0.4,85.1,0.4
			C309.1,258.2,324.6,273.6,343.5,264.7z"/>
		<path class="st8" d="M340,261.3c15.7-6.7,31.1-53.1-66.2-51.5c-97.2,1.7-85.5,35.8-78.5,45.4c7,9.7,49.8,0.3,80.9,0.3
			C307.2,255.7,321.9,269,340,261.3z"/>
		<path class="st0" d="M377.8,196.2c-1.3-1.9-3.5-3-5.8-3.4c-1.5-0.3-3.1-0.3-4.6-0.2c-1.4,0.1-2.9,0.1-4.2,0.6
			c-1.7,0.7-3.2,2.1-3.5,3.9c-0.3,1.9,0.7,3.8,2.2,5.1c1.5,1.2,3.4,1.8,5.3,2.2c1.6,0.3,3.2,0.5,4.9,0.3c1.6-0.1,2.9-0.8,4.4-1.2
			c2.6-0.7,2.8-4.7,1.8-6.7C378.1,196.7,378,196.4,377.8,196.2z"/>
		<path class="st5" d="M377.7,194.3c-1.3-1.9-3.5-3-5.8-3.4c-1.5-0.3-3.1-0.3-4.6-0.2c-1.4,0.1-2.9,0.1-4.2,0.6
			c-1.7,0.7-3.2,2.1-3.5,3.9c-0.3,1.9,0.7,3.8,2.2,5.1c1.5,1.2,3.4,1.8,5.3,2.2c1.6,0.3,3.2,0.5,4.9,0.3c1.6-0.1,2.9-0.8,4.4-1.2
			c2.6-0.7,2.8-4.7,1.8-6.7C378,194.8,377.9,194.5,377.7,194.3z"/>
		<path class="st0" d="M188,194.9c-1.6-1.6-4-2.2-6.3-2.2c-1.5,0-3.1,0.3-4.5,0.8c-1.3,0.4-2.8,0.7-3.9,1.5c-1.5,1-2.7,2.7-2.7,4.6
			c0,1.9,1.4,3.6,3.1,4.5c1.7,0.9,3.7,1.1,5.6,1c1.6,0,3.3-0.2,4.8-0.6c1.5-0.5,2.7-1.3,4-2c2.4-1.2,1.8-5.2,0.4-6.9
			C188.3,195.3,188.1,195.1,188,194.9z"/>
		<path class="st5" d="M187.6,192.9c-1.6-1.6-4-2.2-6.3-2.2c-1.5,0-3,0.3-4.5,0.8c-1.3,0.4-2.8,0.7-3.9,1.5c-1.5,1-2.7,2.7-2.7,4.6
			c0,1.9,1.4,3.6,3.1,4.5c1.7,0.9,3.7,1.1,5.6,1c1.6,0,3.3-0.2,4.8-0.6c1.5-0.4,2.7-1.3,4-2c2.4-1.2,1.8-5.2,0.4-6.9
			C188,193.3,187.8,193.1,187.6,192.9z"/>
		<path class="st15" d="M270.9,176.5c-6.9,1.9-9.5,16.3-6.8,20.5c2.8,4.3,17,3.3,19.8,0.8C286.7,195.3,283.4,173,270.9,176.5z"/>
		<path class="st9" d="M270.9,175.1c-6.9,1.9-9.5,16.3-6.8,20.6c2.8,4.3,17,3.3,19.8,0.8C286.7,193.9,283.4,171.6,270.9,175.1z"/>
		<path class="st4" d="M284.7,194.1c-2.5-0.5-6-0.9-6.5-1c-5-0.2-9.7,0.5-14.5,1.6c-0.3-0.8-0.5-1.7-0.6-2.8
			c6.9-2.3,14.6-3,21.7-1.2C284.9,192,284.9,193.2,284.7,194.1z M264.2,183.5c3.3-0.7,6.6-1.2,10.1-1.1c1.8,0.1,3.5,0.2,5.2,0.5
			c0.7,0.1,1.4,0.3,2.1,0.6c2,0.6,1.7,1.5,1.8,0.9c0,0.3,0.1,0.6,0.3,0.8c-0.6-2.1-1.5-4.1-2.6-5.9c-1.6-0.3-3.2-0.4-4.6-0.5
			c-3.6-0.3-7.3,0-10.8,1C265.1,181,264.6,182.2,264.2,183.5z"/>
		<path class="st4" d="M270,181.4c0.4-1.9,1.2-3.8,2.3-5.4c0.4-0.5,0.8-0.9,1.2-1.3c-0.8,0-1.6,0.1-2.5,0.4
			c-6.9,1.9-9.5,16.3-6.8,20.6c1.4,2.2,5.8,3,10.1,2.9c-2-3.6-3-7.8-4.1-11.7C269.6,184.9,269.5,183.4,270,181.4z"/>
		<g>
			<path class="st5" d="M271,190c-2.7,0.4-5.3,1-7.9,1.9v0c0,0.3,0,0.5,0.1,0.8c0,0,0,0,0,0.1c0,0.2,0.1,0.4,0.1,0.6
				c0,0,0,0.1,0,0.1c0,0.2,0.1,0.4,0.1,0.6c0,0,0,0.1,0,0.1c0.1,0.2,0.1,0.4,0.2,0.6c2.8-0.6,5.5-1.1,8.3-1.4
				C271.6,192.2,271.3,191.1,271,190z"/>
			<path class="st5" d="M270,181.4c0.2-0.8,0.5-1.7,0.8-2.5c-1.7,0.2-3.4,0.4-5,0.9l0,0c-0.3,0.6-0.6,1.1-0.8,1.7c0,0,0,0.1,0,0.1
				c-0.2,0.6-0.5,1.2-0.7,1.8c1.9-0.4,3.7-0.7,5.6-0.9C269.8,182.2,269.9,181.8,270,181.4z"/>
		</g>
		<path class="st0" d="M263.9,98.3c-1.9-0.3-3.7-0.2-5.6,0.1c-1,0.2-1,1.8,0,2c1.9,0.3,3.7,0.4,5.6,0.1
			C265,100.3,265,98.5,263.9,98.3z"/>
		<path class="st0" d="M253.9,116.2c-1.5,1.2-3,2.1-4.7,3c-0.8,0.4-0.4,1.6,0.4,1.6c1.2,0,2.2-0.2,3.2-0.9c1-0.6,2-1.5,2.7-2.5
			C256.2,116.4,254.7,115.6,253.9,116.2z"/>
		<path class="st0" d="M227,116.7c-0.1-0.5-0.7-0.9-1.2-0.7c-1.3,0.5-2.5,1.2-3.4,2.3c-0.7,0.8,0.2,1.9,1.1,1.4c1.1-0.6,2-1.3,3-2
			C226.9,117.5,227.1,117.1,227,116.7z"/>
		<path class="st0" d="M190.9,133.9c-0.6,0.6-1.1,1.4-1.7,2c-0.7,0.6-1.6,0.9-2.3,1.5c-0.7,0.5-0.1,1.5,0.6,1.5
			c2,0.1,4.4-2.3,4.8-4.2C192.4,134,191.5,133.3,190.9,133.9z"/>
		<path class="st0" d="M217,137.6c-1.7,1.2-3.2,2.6-4.9,3.7c-0.8,0.5-0.3,2,0.7,1.6c2.1-0.7,4.1-1.8,5.5-3.6
			C219,138.4,218.1,136.8,217,137.6z"/>
		<path class="st0" d="M195.5,158.8c-0.1,0.7-0.4,1.4-0.6,2.1c-0.3,0.8-0.7,1.5-0.9,2.4c-0.1,0.9,0.9,1.7,1.6,1
			c1.3-1.2,1.6-3.5,1.8-5.2C197.6,157.9,195.7,157.7,195.5,158.8z"/>
		<path class="st0" d="M177,160.3c-0.2,0.7-0.5,1.3-1,1.9c-0.4,0.7-1,1.2-1.5,1.9c-0.5,0.7,0.3,1.7,1.1,1.4c1.9-0.8,3-2.9,3.2-4.9
			C178.9,159.5,177.4,159.4,177,160.3z"/>
		<path class="st0" d="M162.3,182.1c-0.2,1.6-1.1,2.7-1.8,4c-0.4,0.8,0.4,1.9,1.3,1.3c1.7-1.2,2.4-3.3,2.6-5.3
			C164.6,180.7,162.5,180.8,162.3,182.1z"/>
		<path class="st0" d="M198.4,186.4c-0.2-1-1.8-0.8-1.8,0.2c0,1.2-0.3,2.5-0.8,3.6c-0.4,0.8,0.7,1.8,1.4,1
			C198.3,189.8,198.7,188.2,198.4,186.4z"/>
		<path class="st0" d="M179,217.2c-0.2-1.3-2.2-1.3-2.1,0c0.1,1.5-0.3,2.9-0.9,4.3c-0.3,0.9,1,1.6,1.5,0.9
			C178.9,220.9,179.2,219.1,179,217.2z"/>
		<path class="st0" d="M162.4,220.2c-0.2,1.3-0.5,2.5-0.8,3.8c-0.2,1,1.1,1.5,1.6,0.7c0.8-1.4,1.2-2.8,1.3-4.5
			C164.5,218.8,162.5,218.9,162.4,220.2z"/>
		<path class="st0" d="M171.3,255.3c-0.1,1.3-0.5,2.5-0.8,3.8c-0.2,1.1,1.1,1.5,1.7,0.7c1-1.3,1.2-2.9,1.3-4.5
			C173.6,253.9,171.4,253.9,171.3,255.3z"/>
		<path class="st0" d="M201.5,261.8c0.1-1.3-1.9-1.3-2,0c-0.1,1.6,0,3,0.9,4.4c0.4,0.6,1.4,0.4,1.4-0.4
			C201.6,264.5,201.4,263.1,201.5,261.8z"/>
		<path class="st0" d="M233.9,187.4c-0.3-1-1.6-0.7-1.8,0.2c-0.2,1.6-0.3,3.2-0.5,4.8c-0.1,0.9,1.2,1.7,1.7,0.7
			C234.2,191.4,234.5,189.2,233.9,187.4z"/>
		<path class="st0" d="M259,167.1c-0.1-1-1.4-1.3-1.8-0.2c-0.2,0.7-0.3,1.4-0.4,2.1c-0.1,0.8-0.3,1.5-0.1,2.4
			c0.1,0.8,1.3,0.9,1.7,0.2c0.3-0.7,0.4-1.3,0.5-2C259,168.7,259.1,167.9,259,167.1z"/>
		<path class="st0" d="M248,145.4c-0.5,0.6-0.8,1.3-1.1,1.9c-0.4,0.7-0.6,1.4-0.7,2.2c-0.1,0.8,1.1,1.2,1.6,0.7
			c0.5-0.6,0.8-1.3,1.1-2c0.3-0.7,0.5-1.4,0.6-2.2C249.6,145.3,248.5,144.8,248,145.4z"/>
		<path class="st0" d="M273.2,137.7c-0.4,1.5-1.2,3-1.4,4.5c-0.2,0.9,0.9,1.7,1.6,0.9c1.2-1.4,1.6-3.4,1.8-5.2
			C275.3,136.8,273.5,136.7,273.2,137.7z"/>
		<path class="st0" d="M288.1,112.2c-0.4-0.9-1.7-0.8-1.8,0.2c0,1.7,0.1,3.3,0,5c-0.1,1,1.5,1.2,1.7,0.2
			C288.5,115.9,288.7,113.9,288.1,112.2z"/>
		<path class="st0" d="M320.6,105.9c-1.1-1.7-3.4-3-5.5-2.3c-0.8,0.3-0.8,1.4,0,1.6c0.7,0.2,1.4,0.3,2,0.6c0.7,0.3,1.4,0.8,2.1,1.3
			C319.9,107.7,321.2,106.9,320.6,105.9z"/>
		<path class="st0" d="M340.6,129.5c-1-1.5-2.3-2.6-3.5-3.8c-1-0.9-2.4,0.5-1.5,1.5c1.2,1.3,2.3,2.6,3.8,3.5
			C340.1,131.2,341,130.3,340.6,129.5z"/>
		<path class="st0" d="M317.6,138.2c-0.3-1.2-0.9-2.2-1.4-3.3c-0.6-1.3-2.5-0.2-1.9,1.1c0.5,1.1,1,2.2,1.8,3.1
			C316.7,139.8,317.8,139,317.6,138.2z"/>
		<path class="st0" d="M299.3,158.5c0-1.4-2.1-1.4-2.2,0c0,1.5-0.3,3.3,0.2,4.8c0.3,0.9,1.5,0.9,1.8,0
			C299.6,161.8,299.3,160.1,299.3,158.5z"/>
		<path class="st0" d="M322.2,189.1c-0.1-1.2-1.9-1.2-1.9,0c0,1-0.3,2.1,0.2,2.9c0,0.1,0.1,0.2,0.2,0.3c0.1,0.2,0.4,0.2,0.6,0.2
			c0.2,0,0.4-0.1,0.6-0.2c0.1-0.1,0.1-0.2,0.2-0.3C322.5,191.2,322.3,190.1,322.2,189.1z"/>
		<path class="st0" d="M360.5,156.9c-0.7-0.8-2.1,0.3-1.5,1.2c0.4,0.6,0.8,1.2,1.3,1.8c0.4,0.5,1.2,1.3,2,0.9
			C363.7,159.9,361.1,157.5,360.5,156.9z"/>
		<path class="st0" d="M369.4,132.6c-1-0.7-2.2,0.9-1.3,1.7c0.9,0.7,1.3,1.6,1.4,2.8c0,0.8,1.2,1.3,1.6,0.4
			C372.2,135.5,371.1,133.7,369.4,132.6z"/>
		<path class="st0" d="M391.2,177.9c-1-0.9-2.5,0.5-1.5,1.5c0.8,0.7,1.9,1.9,1.5,3.1c-0.2,0.7,0.8,1.3,1.3,0.8
			C394.2,181.3,392.7,179.2,391.2,177.9z"/>
		<path class="st0" d="M357.6,188.9c-0.2-0.7-0.7-1.3-0.9-2c-0.3-1.2-2-0.7-1.8,0.5c0.2,1,0.6,2,1.5,2.5
			C357.1,190.1,357.9,189.6,357.6,188.9z"/>
		<path class="st0" d="M370.3,221.2c0-1.2-1.8-1.2-1.8,0c0,1.8,0,3.6,0.6,5.2c0.3,0.8,1.7,0.8,1.6-0.2
			C370.7,224.5,370.4,222.9,370.3,221.2z"/>
		<path class="st0" d="M352.8,254.5c-0.2-0.9-0.4-1.8-0.4-2.8c0.1-1.2-1.9-1.4-2-0.3c-0.1,0.7-0.2,1.3-0.1,2
			c0.1,0.8,0.4,1.3,0.9,1.9C351.8,256.2,353,255.4,352.8,254.5z"/>
		<path class="st0" d="M394.2,212.5c-0.3-1.3-0.4-2.8-0.9-4c-0.4-0.9-1.7-0.8-1.7,0.2c-0.1,1.5,0.6,3,1.2,4.4
			C393.2,213.9,394.4,213.3,394.2,212.5z"/>
		<path class="st0" d="M387.3,246.3c0-1.2-1.8-1.2-1.8,0c0,1.4-0.2,2.9,0.1,4.2c0.2,0.8,1.3,0.8,1.6,0
			C387.5,249.2,387.3,247.6,387.3,246.3z"/>
		<path class="st0" d="M413.8,246.7c-1.2-0.3-2,1.5-0.9,2c0.2,0.1,0.5,0.4,0.6,0.8c0.4,1,1.8,0.8,1.9-0.3
			C415.6,248.1,415,247,413.8,246.7z"/>
		<path class="st0" d="M426.1,296.1c-0.1-0.6-0.8-0.9-1.4-0.8c-0.7,0.2-0.9,0.8-0.8,1.4c0.2,1.5,0.4,3.2,1.4,4.4
			c0.6,0.7,1.6,0.1,1.6-0.7C427,298.9,426.3,297.5,426.1,296.1z"/>
		<path class="st0" d="M386.3,273.6c-0.2-0.9-1.5-0.9-1.8,0c-0.3,1.3-0.3,2.7,0.1,4c0.2,0.8,1.4,0.8,1.6,0
			C386.6,276.3,386.6,274.8,386.3,273.6z"/>
		<path class="st0" d="M420.6,347.5c0-1.4-2.1-1.4-2.1,0c0,1.1-0.2,2.2,0.2,3.3c0.3,0.9,1.5,0.9,1.8,0
			C420.7,349.7,420.6,348.6,420.6,347.5z"/>
		<path class="st0" d="M399.5,370.5c-0.1-1.3-2-1.3-2,0c0,1.2-0.3,2.3-0.4,3.5c0,0.9,1.2,1.1,1.6,0.4
			C399.5,373.4,399.5,371.9,399.5,370.5z"/>
		<path class="st0" d="M387.8,384.8c-0.2,0.8-0.3,1.5-0.6,2.3c-0.2,0.7-0.5,1.5-0.2,2.3c0.2,0.5,0.9,0.9,1.4,0.5
			c1.2-0.9,1.4-3.1,1.6-4.5C390.3,384,388.1,383.3,387.8,384.8z"/>
		<path class="st0" d="M325.6,265.3c-0.5-1-2.2-0.3-1.8,0.8c0.5,1.3,0.8,2.9,1.8,3.9c0.5,0.5,1.6,0.2,1.5-0.6
			C327.1,267.9,326.2,266.6,325.6,265.3z"/>
		<path class="st0" d="M238.4,264.8c-0.6-1.1-2-0.1-1.6,0.9c0.4,0.9,0,1.6,0,2.5c0,0.5,0.7,1,1.2,0.7
			C239.3,268,239.1,266.2,238.4,264.8z"/>
		<path class="st0" d="M275.4,260.8c-0.4-0.9-2-0.3-1.6,0.7c0.3,0.8,0.3,1.7,0.6,2.5c0.2,0.8,1.3,0.7,1.6,0
			C276.3,262.9,275.9,261.8,275.4,260.8z"/>
		<path class="st0" d="M293.7,267.5c-0.2-0.4-0.4-0.8-0.6-1.1c-0.5-0.9-2.1-0.3-1.7,0.7c0.3,0.9,0.7,1.6,1.4,2.3
			c0.4,0.4,1.4,0.2,1.3-0.5C293.9,268.3,293.9,267.9,293.7,267.5z"/>
		<path class="st0" d="M409.6,227.5c-0.3-0.5-0.5-1.2-0.5-1.8c-0.1-1.4-2.2-1.4-2.2,0c0,1.5,0.7,4.3,2.6,4.3c0.4,0,0.9-0.4,0.8-0.8
			C410.2,228.6,409.9,228.1,409.6,227.5z"/>
		<path class="st3" d="M141.3,211.6c-1.2,1.4-2,3.2-2.7,4.9c-0.3,0.8,0.9,1.2,1.3,0.6c0.9-1.5,2-3,2.6-4.7
			C142.9,211.7,141.8,211.1,141.3,211.6z"/>
		<path class="st3" d="M139.3,253c-0.2-1.1-2-0.8-1.9,0.3c0.1,1.6-0.1,3.2-0.3,4.8c-0.1,0.8,1.1,1.5,1.5,0.6
			C139.5,256.8,139.5,255,139.3,253z"/>
		<path class="st3" d="M129.8,273.8c-0.1-1.2-2-1.2-1.9,0c0.1,1.1-0.2,2.1-0.7,3.1c-0.4,0.8,0.6,1.5,1.2,0.9
			C129.5,276.8,129.9,275.3,129.8,273.8z"/>
		<path class="st3" d="M126.2,334.2c-0.2-1-1.7-0.7-1.8,0.2c-0.1,1.5-0.3,2.9-0.9,4.3c-0.4,0.9,1,1.3,1.5,0.6
			C126.1,337.9,126.5,336,126.2,334.2z"/>
		<path class="st3" d="M127.8,361.2c-0.4,2-0.6,4-0.3,6c0.2,1.1,1.7,0.7,1.8-0.2c0.2-1.7,0.3-3.5,0.6-5.2
			C130.1,360.4,128,359.8,127.8,361.2z"/>
		<path class="st3" d="M145.8,364.5c0,1.5,0.1,3,0.3,4.5c0.1,1,1.4,1,1.5,0c0.2-1.5,0.3-3,0.3-4.5
			C147.9,363.2,145.8,363.2,145.8,364.5z"/>
		<path class="st3" d="M146.3,382.6c-0.1-1.2-2.1-1.2-1.9,0c0.2,1.6,0.4,3.1,0.7,4.7c0.2,0.8,1.5,0.6,1.5-0.2
			C146.6,385.6,146.5,384.1,146.3,382.6z"/>
		<path class="st3" d="M163.3,390.8c-0.5-2-1.1-4-1.3-6.1c-0.2-1.2-2.3-0.9-2.2,0.3c0.3,2.2,0.5,4.6,1.8,6.5
			C162.2,392.5,163.5,391.9,163.3,390.8z"/>
		<path class="st3" d="M415.6,386.1c0-0.6-0.5-1.1-1.1-1.1c-0.6,0-1,0.5-1.1,1.1c-0.1,0.8-0.4,1.4-0.3,2.3c0.1,0.6,0.9,0.8,1.3,0.5
			C415.4,388.3,415.6,387.1,415.6,386.1z"/>
		<path class="st3" d="M422.6,372c-0.6,0.9-0.7,2.7,0.7,2.9c0.5,0.1,1-0.1,1.1-0.6c0.1-0.4-0.1-0.8,0.1-1.2
			C425.1,371.9,423.3,370.8,422.6,372z"/>
		<path class="st14" d="M390.1,142.6c-1.5-2.2-4.6-3.4-7.2-4.1c-0.9-0.2-1.4,1-0.6,1.5c1.1,0.7,2.3,1.1,3.4,1.7
			c1.1,0.6,2.2,1.3,3.3,1.9C389.7,144.1,390.6,143.3,390.1,142.6z"/>
		<path class="st14" d="M390.2,145.4c-0.6-0.4-1.1-0.7-1.8-0.9c-1.1-0.3-1.5,1.3-0.5,1.7c0.6,0.2,1.1,0.4,1.7,0.5
			C390.5,147,390.8,145.8,390.2,145.4z"/>
		<path class="st14" d="M399.5,168.6c-0.9-2.6-3.2-4.3-5.4-5.7c-0.7-0.4-1.3,0.6-0.6,1.1c1.9,1.4,3.4,3.2,4.7,5.1
			C398.6,169.7,399.7,169.3,399.5,168.6z"/>
		<path class="st14" d="M401.5,170.4c-0.9-0.6-1.6,0.8-0.8,1.4c0.3,0.2,0.4,0.5,0.5,0.8c0.1,0.6,1,0.6,1.2,0
			C402.6,171.7,402.3,170.9,401.5,170.4z"/>
		<path class="st14" d="M409.2,192.9c-1.3-3.7-3.6-7.1-6.6-9.6c-0.7-0.6-1.6,0.3-1,1c2.7,2.7,4.2,6,6.2,9.3
			C408.3,194.2,409.5,193.8,409.2,192.9z"/>
		<path class="st14" d="M410.9,195.4c-0.4-0.3-0.9-0.1-1.2,0.3c-0.2,0.4-0.1,0.9,0.3,1.2c0.2,0.1,0.4,0.4,0.5,0.6
			c0.3,0.5,1.1,0.4,1.2-0.2C412,196.5,411.6,195.8,410.9,195.4z"/>
		<path class="st14" d="M420.5,223.2c-2.9-4.4-5.6-9.1-8.7-13.3c-0.5-0.6-1.6,0-1.1,0.6c3,4.3,4.6,10.2,8.7,13.5
			C419.9,224.5,420.9,223.9,420.5,223.2z"/>
		<path class="st14" d="M423,228.3c-0.4-0.6-0.8-1.1-1.3-1.6c-0.7-0.6-1.6,0.3-1,1c0.5,0.5,1,0.9,1.6,1.3
			C422.7,229.3,423.3,228.7,423,228.3z"/>
		<path class="st14" d="M429.2,257.8c-1-4.6-3.5-9.2-5.4-13.5c-0.3-0.7-1.6-0.2-1.3,0.5c1.8,4.5,3.2,9.3,5.4,13.5
			C428.3,259.1,429.4,258.5,429.2,257.8z"/>
		<path class="st14" d="M430.1,268c0-1-1.5-1.2-1.7-0.2c-0.3,1.6,0,3.1,0.6,4.6c0.3,0.7,1.3,0.2,1.2-0.5
			C430,270.5,430.1,269.2,430.1,268z"/>
		<path class="st14" d="M431.6,276.8c-0.2-0.9-1.5-0.5-1.4,0.4c0.1,0.6,0.2,1.2,0.5,1.8c0.3,0.6,1.1,0.3,1.2-0.3
			C431.8,278,431.7,277.4,431.6,276.8z"/>
		<path class="st14" d="M371.5,124.2c-1.5-1.5-3.4-2.1-5-3.2c-0.8-0.6-1.5,0.7-0.7,1.3c1.6,1.2,3.4,1.8,5.1,2.9
			C371.3,125.4,371.9,124.7,371.5,124.2z"/>
		<path class="st14" d="M345.7,107.6c-2.2-1.2-4.5-1.9-7.1-1.9c-1.1,0-1.1,1.6,0,1.6c2.3,0,4.4,0.8,6.5,1.6
			C345.9,109.2,346.5,108,345.7,107.6z"/>
		<path class="st14" d="M321.8,94.9c-3.4-1.4-6.9-1.4-10.2,0c-0.7,0.3-0.2,1.6,0.6,1.3c3.2-1.3,6.1-0.8,9.3,0
			C322.3,96.4,322.6,95.2,321.8,94.9z"/>
		<path class="st14" d="M330.1,94.9c-0.8-0.3-1.7-0.4-2.5-0.5c-0.9-0.1-1.1,1.4-0.2,1.6c0.9,0.1,1.7,0.3,2.6,0.2
			C330.7,96.2,330.8,95.2,330.1,94.9z"/>
		<path class="st14" d="M287.9,88.9c-1.8,0.2-3.5,0.7-5.1,1.6c-0.8,0.5-0.1,1.8,0.8,1.3c1.4-0.8,2.9-1.3,4.5-1.7
			C288.7,90,288.6,88.9,287.9,88.9z"/>
		<path class="st14" d="M296,92.6c-0.7,0.1-1.4,0.3-2,0.6c-0.9,0.3-0.5,1.8,0.4,1.5c0.7-0.2,1.4-0.5,2.1-0.8
			C297.2,93.4,296.7,92.5,296,92.6z"/>
		<path class="st14" d="M264.6,92.3c-2.3-0.5-4.5-1-6.9-1c-0.9,0-0.8,1.3,0,1.3c2.2,0.2,4.4,0.7,6.7,1
			C265.2,93.6,265.3,92.4,264.6,92.3z"/>
		<path class="st14" d="M430.5,309.1c0-1.2-1.9-1.2-1.9,0c0,1.8,0.1,3.5,0.5,5.2c0.2,0.9,1.5,0.7,1.5-0.2
			C430.7,312.4,430.5,310.7,430.5,309.1z"/>
		<path class="st13" d="M366,194.6c-0.9-0.3-1.7,0.3-2.3,0.9c-0.6,0.5-1.1,1.3-1.2,2c0,0.6,0.8,1.1,1.3,0.7c0.4-0.3,0.7-0.8,1.1-1.1
			c0.6-0.4,1.2-0.5,1.6-1.2C366.8,195.4,366.5,194.8,366,194.6z"/>
		<path class="st13" d="M372.4,195c-0.8-1.4-2.6,0-3.4,0.7c-1,0.8-2.1,2-2.7,3.1c-0.4,0.7,0.4,1.6,1.1,1.1c1.2-0.7,2-1.9,3.1-2.6
			C371.3,196.7,373.2,196.2,372.4,195z"/>
		<path class="st13" d="M375.9,197c-0.2-0.3-0.7-0.6-1-0.4c-0.6,0.3-1.1,0.5-1.6,1c-0.4,0.4-0.8,0.9-1.1,1.4c-0.6,1,0.8,2.1,1.6,1.2
			c0.6-0.7,1.3-1.3,1.9-2.1C376,197.8,376.1,197.4,375.9,197z"/>
		<path class="st13" d="M177.1,193.1c-1,0.3-1.8,0.9-2.6,1.4c-0.8,0.6-1.8,1-2.4,1.8c-0.3,0.4-0.2,1.3,0.5,1.2
			c1.1-0.1,2-0.7,2.9-1.3c1-0.6,1.8-1.2,2.5-2.1C178.3,193.6,177.6,192.9,177.1,193.1z"/>
		<path class="st13" d="M183.5,194.6c-2.6-0.4-5.2,2.2-6.9,3.9c-0.8,0.9,0.4,2.1,1.3,1.3c0.9-0.8,1.9-1.6,3-2.2c1-0.6,2.1-0.8,3-1.5
			C184.4,195.7,184.2,194.7,183.5,194.6z"/>
		<path class="st13" d="M186.7,196.7c-1.8,0.5-3.1,1.9-4.4,3.1c-0.9,0.8,0.4,2,1.3,1.3c1.3-1,2.6-2,3.9-3.1
			C188.2,197.5,187.5,196.5,186.7,196.7z"/>
		<path class="st7" d="M156.2,102.9c-2.7,2.8-4.3,7.9-2.9,11.6c0.4,1,1.8,0.8,1.9-0.3c0.3-3.7,0.8-6.8,2.6-10.1
			C158.3,103.2,157,102.1,156.2,102.9z"/>
		<path class="st7" d="M155.7,120.7c-0.1-0.4-0.2-0.7-0.2-1.1c0.1-1.1-1.7-1.3-2-0.3c-0.2,0.9,0,1.8,0.9,2.3
			C155.1,122.1,155.9,121.5,155.7,120.7z"/>
		<path class="st14" d="M166.5,110.2c-0.7,1.3-2.7,3.3-2,5c0.2,0.5,0.8,0.8,1.2,0.3c0.5-0.6,0.7-1.4,1.1-2.1
			c0.4-0.8,0.9-1.6,1.2-2.5C168.4,109.9,167,109.3,166.5,110.2z"/>
		<path class="st14" d="M166.4,115.5c-0.7,1.1-1.2,2.4-1,3.7c0.1,0.7,1.2,0.8,1.5,0.2c0.5-0.9,0.7-2,1.1-3
			C168.5,115.3,167.1,114.4,166.4,115.5z"/>
		<path class="st14" d="M168.2,120c-0.5,0-1,0.4-0.9,0.9c0,0.3,0,0.5-0.2,0.8c-0.3,0.7,0.6,1.1,1.1,0.8c0.6-0.3,0.9-0.9,0.9-1.7
			C169.1,120.5,168.8,120,168.2,120z"/>
		<path class="st11" d="M184.1,297.2c-1.4-0.6-2.5,0.5-3.5,1.4c-1.3,1.1-2.4,2.4-3.5,3.7c-0.9,1.1,0.6,2.7,1.6,1.6
			c0.9-1.1,2-2,3.1-2.9c0.5-0.4,1-0.8,1.5-1.2c0.3-0.2,0.6-0.4,0.8-0.7c0.1-0.1,0.3-0.3,0-0.1C184.6,298.5,184.8,297.5,184.1,297.2z
			"/>
		<path class="st11" d="M185.4,298.6c-2.6,3.4-6.5,5.3-9.2,8.5c-0.8,0.9,0.4,2.1,1.3,1.3c3.2-2.8,7.5-4.9,9.5-8.9
			C187.7,298.4,186.2,297.6,185.4,298.6z"/>
		<path class="st11" d="M227.6,349.4c-0.9-0.8-2.1,0-3,0.4c-1.3,0.7-2.7,1.5-3.8,2.5c-0.8,0.8,0.2,2,1.1,1.5
			c1.2-0.7,2.4-1.3,3.6-1.9c0.9-0.4,1.9-0.7,2.3-1.7C228,350,227.9,349.6,227.6,349.4z"/>
		<path class="st11" d="M231.1,353.2c-4.6,2.2-9.4,5.2-13.1,8.8c-0.8,0.7,0.3,1.8,1.1,1.1c4.1-3.2,8.9-5.2,12.9-8.3
			C233,354.1,232.2,352.7,231.1,353.2z"/>
		<path class="st11" d="M272.9,438.8c-3.5,0.6-7.2,3-10,5.2c-0.9,0.7,0.3,2,1.2,1.5c1.6-0.8,3.1-1.8,4.7-2.6
			c1.6-0.9,3.2-1.5,4.8-2.4C274.6,440,273.9,438.6,272.9,438.8z"/>
		<path class="st11" d="M278.2,441c-1.9,1.1-3.7,2.2-5.6,3.4c-1.2,0.7-0.1,2.5,1.1,1.8c2-1.1,3.8-2.3,5.6-3.8
			C280.1,441.7,279.1,440.5,278.2,441z"/>
		<path class="st11" d="M355.1,388.1c-2.8,1-5.3,2.8-7.5,4.7c-1,0.8,0.3,2.4,1.4,1.8c2.4-1.4,5.1-2.9,7.2-4.7
			C356.9,389.2,356.1,387.7,355.1,388.1z"/>
		<path class="st11" d="M349.8,318c-1.9,0.1-3.5,1.3-4.9,2.5c-1.8,1.5-3.5,3-5.5,4.3c-0.7,0.5-0.3,1.8,0.6,1.4
			c1.7-0.7,3.2-1.8,4.7-3c1.8-1.4,3.8-2.2,5.6-3.5C351,319.2,350.8,318,349.8,318z"/>
		<path class="st11" d="M356.6,319.6c-3.1,1.3-5.7,3.6-8.8,5.1c-1.1,0.5-0.1,2,0.9,1.6c3-1.3,5.8-3.2,8.5-5.1
			C358,320.6,357.6,319.2,356.6,319.6z"/>
		<path class="st11" d="M276.7,288.5c-1.4-0.1-2.6,1-3.7,1.7c-1.5,1-3,1.8-4.6,2.5c-0.6,0.3-0.3,1.3,0.3,1.2c1.6-0.2,3-0.8,4.4-1.5
			c1.4-0.7,3.5-1.4,4.3-2.8C277.7,289.2,277.2,288.6,276.7,288.5z"/>
		<path class="st11" d="M279.8,291.2c-2,1.2-3.7,3-5.6,4.4c-1,0.7-0.1,2.4,1,1.7c2-1.3,4.5-2.8,5.7-5
			C281.3,291.6,280.5,290.7,279.8,291.2z"/>
		<g>
			<path class="st5" d="M341.7,323c-1.6-0.6-3.3-0.2-5-0.2c-2,0-3.9,0.1-5.8,0.5c-1.7,0.3-1.3,3.1,0.4,3c1.8-0.1,3.6,0,5.4,0
				c1.9,0.1,3.7,0.3,5.3-0.6C343.3,325.1,342.9,323.4,341.7,323z"/>
			<path class="st5" d="M335.2,301.8c-1.3,0.9-2.2,2.2-3.3,3.4c-1.1,1.3-2.3,2.6-3.3,4.1c-0.9,1.5,1.1,2.8,2.3,1.8
				c1.2-1.1,2.3-2.2,3.5-3.4c1.2-1.2,2.6-2.5,2.9-4.2C337.7,302.3,336.4,301,335.2,301.8z"/>
			<path class="st5" d="M338.5,341.4c-1.8-2.6-4.4-5.4-7.5-6.3c-1.5-0.4-2.5,1.8-1.1,2.5c2.7,1.4,4,4.4,6.7,5.7
				C337.8,343.9,339.4,342.7,338.5,341.4z"/>
		</g>
		<g>
			<path class="st5" d="M221.4,321.3c-2-0.2-4.1,0.1-6.1,0.2c-2.3,0.1-4.5,0.2-6.7,0.7c-1.9,0.5-1.1,3.3,0.8,3
				c4-0.7,9.1,1.1,12.7-1.2C223.3,323.2,222.8,321.5,221.4,321.3z"/>
			<path class="st5" d="M218.7,308.1c-2.4-2-5.2-3.6-8-5.2c-1.6-1-2.9,1.4-1.4,2.5c2.6,1.9,5,3.9,8,5.1
				C218.6,311,219.8,309,218.7,308.1z"/>
			<path class="st5" d="M219.4,334.2c-2,2.2-3.7,4.7-5.4,7.2c-1.1,1.7,1.5,3.2,2.7,1.6c1.7-2.3,3.5-4.6,4.9-7.1
				C222.3,334.5,220.5,332.9,219.4,334.2z"/>
		</g>
		<path class="st1" d="M236.4,159.3c-4.8,3.3-13,11.3-17.9,14.4c-2.4,1.5-1.8,4.6,0.9,3.6c6-2,15.6-9.2,19.6-14.2
			C241.1,160.6,239.4,157.1,236.4,159.3z"/>
		<path class="st1" d="M220.6,159.3c4.8,3.3,13,11.3,17.9,14.4c2.4,1.5,1.8,4.6-0.9,3.6c-6-2-15.6-9.2-19.6-14.2
			C215.8,160.6,217.5,157.1,220.6,159.3z"/>
		<path class="st1" d="M334.1,157.4c-4.8,3.3-13,11.3-17.9,14.4c-2.4,1.5-1.8,4.6,0.9,3.6c6-2,15.6-9.2,19.6-14.2
			C338.9,158.7,337.2,155.3,334.1,157.4z"/>
		<path class="st1" d="M318.3,157.4c4.7,3.3,13,11.3,17.9,14.4c2.4,1.5,1.8,4.6-0.9,3.6c-6-2-15.6-9.2-19.7-14.2
			C313.6,158.7,315.3,155.3,318.3,157.4z"/>
		<g class="st16">
			<path class="st6" d="M224.8,157.7c-8-1-19.4,7.4-16.3,16.2c0.5,1.3,2.3,1.4,2.7,0c1.9-6.6,4.5-11.6,12.3-12.1
				c7.6-0.5,12.2,5.6,12.2,12.5c0,2.7,4.2,2.7,4.2,0C239.8,164.8,234.1,158.9,224.8,157.7z"/>
			<path class="st6" d="M323.2,157.7c8-1,19.4,7.4,16.3,16.2c-0.4,1.3-2.3,1.4-2.7,0c-1.9-6.6-4.5-11.6-12.3-12.1
				c-7.6-0.5-12.2,5.6-12.2,12.5c0,2.7-4.2,2.7-4.2,0C308.2,164.8,313.9,158.9,323.2,157.7z"/>
		</g>
	</g>
	<g>
		<path class="st5" d="M241,371.2c-1.4,0.6-3.5,1.2-6.2,2c-2.7,0.8-4.8,1.4-6.2,2c-0.3,1-0.6,3.2-0.7,6.6c0.6,0.2,1.3,0.3,2.1,0.3
			c0.6,0,1.5-0.1,2.7-0.3c1.2-0.2,2.1-0.3,2.7-0.3c1.1,0,2,0.2,2.7,0.7c0.5,0.8,0.8,1.3,0.8,1.5c0,0.3-0.1,0.5-0.4,0.6
			c-0.1,0-0.3,0.3-0.8,0.8c-0.3,0.3-0.7,0.5-1.1,0.5c-0.8,0.2-2.3,0.3-4.4,0.3c-1.8,0-3.2,0.3-4.3,0.7c-0.7,2.8-1.1,5-1.1,6.7
			c0,1.1,0.2,2,0.5,2.6c1.8,1.3,4.9,1.8,9.3,1.6c0.3,0,0.6-0.1,1-0.4s0.6-0.4,0.9-0.4c1.1-0.2,1.8,0.6,2.1,2.4
			c0.1,0.6,0,1.2-0.3,1.7c-0.3,0.5-0.8,0.8-1.4,0.8c-4.6,0.2-8.6-0.2-12-1.1c-1.1-0.3-2-0.9-2.9-1.8c-0.9-0.9-1.4-1.9-1.5-3.1
			c-0.3-3.3-0.3-6.3,0-8.9c-1.1-0.7-1.5-1.4-1.4-2.1c0-0.3,0.3-0.7,0.9-0.9c0.6-0.3,0.9-0.6,0.9-0.9s0.2-2.1,0.5-5.4
			c-2.1-0.4-3.2-1.2-3.1-2.4c0-1.1,0.7-2,2-2.6c1.2-0.5,2.4-1,3.7-1.5c1.4-0.7,3.2-1.4,5.4-1.9c1.8-0.5,3.7-1,5.5-1.4
			c0.2,0,0.4-0.1,0.7-0.1c1,0,2.2,0.4,3.6,1.2c0,0.2,0.1,0.4,0.3,0.9c0.2,0.4,0.2,0.7,0.2,0.9C241.4,370.8,241.3,371,241,371.2z"/>
		<path class="st5" d="M265.5,400.1c0.1,0.2,0.2,0.3,0.2,0.5c0,0.9-0.9,1.5-2.7,2c-2-1.6-4.5-4-7.5-7.2c-3.3-3.6-5.8-6.1-7.5-7.5
			c-0.1,1-0.3,3.6-0.6,7.8c-0.2,3.2-0.5,5.7-1,7.5c-0.1,0-0.3,0.1-0.7,0.3c-0.4,0.2-0.7,0.2-1,0.2c-1.7-0.4-2.5-1.5-2.5-3.5
			c0-0.6,0.1-1.3,0.2-2.3c0.2-1.1,0.2-1.8,0.3-2.1c0.2-2.2,0.2-4.8,0.3-7.9v-6.2c0-5.2,0.3-9.5,0.9-13.1c0.4-2.4,2.6-3.4,6.7-3.3
			c2.1,0.1,3.8,1.1,5.4,3.1c1.4,1.8,2.1,3.8,2.1,5.9c0,1.8-0.7,3.6-2,5.4c-1.1,1.6-2.5,2.9-4.2,3.8c-0.7,0.4-1,0.8-1,1.3
			c0,0.5,0.4,1.1,1.2,1.8c0.6,0.5,1.2,1,1.8,1.5c0,0,2.1,1.9,6.3,5.7C262.6,396.1,264.4,398.3,265.5,400.1z M253.5,374.5
			c0.1-0.7,0.2-1.3,0.1-1.8c-0.1-0.8-0.4-1.5-1-2.2c-0.6-0.6-1.4-1-2.7-1c-0.9,0-1.5,0.3-1.7,0.9c-0.2,1-0.3,2-0.3,3.3
			c0,0.5,0.1,1.8,0.2,3.8c0.1,1.6,0.1,2.8,0,3.8C251.3,378.9,253.1,376.7,253.5,374.5z"/>
		<path class="st5" d="M285.8,400.1c0.1,0.2,0.2,0.3,0.2,0.5c0,0.9-0.9,1.5-2.7,2c-2-1.6-4.5-4-7.5-7.2c-3.3-3.6-5.8-6.1-7.5-7.5
			c-0.1,1-0.3,3.6-0.6,7.8c-0.2,3.2-0.5,5.7-1,7.5c-0.1,0-0.3,0.1-0.7,0.3c-0.4,0.2-0.7,0.2-1,0.2c-1.7-0.4-2.5-1.5-2.5-3.5
			c0-0.6,0.1-1.3,0.2-2.3c0.2-1.1,0.2-1.8,0.3-2.1c0.2-2.2,0.2-4.8,0.3-7.9v-6.2c0-5.2,0.3-9.5,0.9-13.1c0.4-2.4,2.6-3.4,6.7-3.3
			c2.1,0.1,3.8,1.1,5.4,3.1c1.4,1.8,2.1,3.8,2.1,5.9c0,1.8-0.7,3.6-2,5.4c-1.1,1.6-2.5,2.9-4.2,3.8c-0.7,0.4-1,0.8-1,1.3
			c0,0.5,0.4,1.1,1.2,1.8c0.6,0.5,1.2,1,1.8,1.5c0,0,2.1,1.9,6.3,5.7C282.9,396.1,284.7,398.3,285.8,400.1z M273.8,374.5
			c0.1-0.7,0.2-1.3,0.1-1.8c-0.1-0.8-0.4-1.5-1-2.2c-0.6-0.6-1.4-1-2.7-1c-0.9,0-1.5,0.3-1.7,0.9c-0.2,1-0.3,2-0.3,3.3
			c0,0.5,0.1,1.8,0.2,3.8c0.1,1.6,0.1,2.8,0,3.8C271.6,378.9,273.4,376.7,273.8,374.5z"/>
		<path class="st5" d="M302.3,387.4c-2.2,5.1-5.4,8.1-9.5,9c-0.5,0.1-1,0.2-1.5,0.2c-2.2,0-4.4-1.2-6.6-3.5
			c-1.5-1.6-2.2-3.7-2.2-6.2c0-2.8,0.8-5.8,2.5-9.1c0.7-1.4,1.6-2.5,2.6-3.5c1.2-1.2,2.3-1.8,3.4-1.8c0.6,0,1.2,0.2,1.7,0.7
			c0.5,0.5,2,1.1,4.3,1.8c1.8,0.6,3.1,1.6,3.9,3.1c1.3,2.5,2,4.7,2,6.6C302.8,385.6,302.7,386.6,302.3,387.4z M297.7,383.9
			c-0.3-2.8-1-4.4-2.2-5c-0.2-0.1-0.4-0.1-0.5-0.1c-0.5,0-1,0.4-1.7,1.1c-0.8,0.9-1.4,1.4-1.8,1.5c-0.3,0.1-0.6,0-1.1-0.3
			c-0.5-0.3-0.8-0.5-1-0.5c-0.1,0-0.2,0-0.3,0.1c-1.3,1.1-2,2.9-2,5.3c0,1.6,0.4,3,1.1,4.2c1.1,1.6,2,2.3,2.7,2.3
			c1.7,0,3.3-1,4.8-3.1C297.3,387.4,297.9,385.6,297.7,383.9z"/>
		<path class="st5" d="M328.1,400.1c0.1,0.2,0.2,0.3,0.2,0.5c0,0.9-0.9,1.5-2.7,2c-2-1.6-4.5-4-7.5-7.2c-3.3-3.6-5.8-6.1-7.5-7.5
			c-0.1,1-0.3,3.6-0.6,7.8c-0.2,3.2-0.5,5.7-1,7.5c-0.1,0-0.3,0.1-0.7,0.3c-0.4,0.2-0.7,0.2-1,0.2c-1.7-0.4-2.5-1.5-2.5-3.5
			c0-0.6,0.1-1.3,0.2-2.3c0.2-1.1,0.2-1.8,0.3-2.1c0.2-2.2,0.2-4.8,0.3-7.9v-6.2c0-5.2,0.3-9.5,0.9-13.1c0.4-2.4,2.6-3.4,6.7-3.3
			c2.1,0.1,3.8,1.1,5.4,3.1c1.4,1.8,2.1,3.8,2.1,5.9c0,1.8-0.7,3.6-2,5.4c-1.1,1.6-2.5,2.9-4.2,3.8c-0.7,0.4-1,0.8-1,1.3
			c0,0.5,0.4,1.1,1.2,1.8c0.6,0.5,1.2,1,1.8,1.5c0,0,2.1,1.9,6.3,5.7C325.1,396.1,327,398.3,328.1,400.1z M316,374.5
			c0.1-0.7,0.2-1.3,0.1-1.8c-0.1-0.8-0.4-1.5-1-2.2c-0.6-0.6-1.4-1-2.7-1c-0.9,0-1.5,0.3-1.7,0.9c-0.2,1-0.3,2-0.3,3.3
			c0,0.5,0.1,1.8,0.2,3.8c0.1,1.6,0.1,2.8,0,3.8C313.8,378.9,315.6,376.7,316,374.5z"/>
	</g>
	<g>
		<path class="st5" d="M261.8,338.7c-0.3,0.7-1,1.1-2,1.2c-0.8,0-1.6,0-2.5,0.1c-1.1,0.1-1.7,0.4-1.9,1.1c-0.4,2.4-0.7,5.6-0.8,9.7
			c-0.1,5.5-0.2,8.7-0.2,9.7c-0.1,0.9-0.7,1.5-1.9,1.7c-1.9,0-3-0.5-3.4-1.5c-0.4-1.3-0.7-2.7-0.7-4.3c0-1.1,0.2-2.9,0.5-5.2
			s0.5-4.1,0.5-5.4c0-1.2-0.1-2.3-0.4-3.4c-0.4,0-0.9-0.1-1.4-0.1c-1,0-2.6,0.2-4.8,0.7s-3.7,0.7-4.7,0.7c-0.9,0-1.8-0.2-2.7-0.4
			c-1.1-0.4-1.7-1.1-1.7-1.9c0-0.4,0.5-1.6,1.6-3.6c1.8-3.3,4.2-8.4,7.3-15.3c3.1-6.9,5.6-12.1,7.5-15.5c0.5-1.2,1.1-2.4,1.7-3.7
			s1.6-1.9,3-1.9c1.7,0,2.6,0.6,2.7,1.7s0.1,2.3,0.1,3.4c0,2.9-0.4,7-1.2,12.4c-0.8,5.4-1.2,9.5-1.2,12.3c0,1.2,0,2.4,0.2,3.6
			c3.1,0,5.1,0.6,5.9,1.9C262.1,337.4,262.1,338.1,261.8,338.7z M249.6,323c-1.2,2.3-2.5,4.6-3.7,6.9c-1.3,2.7-2.3,5.1-2.8,7.2
			c0.8,0,1.9-0.3,3.2-0.7c1.6-0.5,2.6-0.8,2.9-0.8c0-1.4,0.1-3.5,0.2-6.4C249.5,326.2,249.6,324.2,249.6,323z"/>
		<path class="st5" d="M285.8,320.9c0.2,1,0.2,2,0.2,3c0,5.6-1.9,10.5-5.7,14.9c-3.1,3.5-6.1,5.2-9.1,5c-2.3-0.1-4.3-1.2-5.9-3.1
			c-2.2-2.8-3.4-6.4-3.4-10.9c0-4.2,0.9-8.7,2.8-13.5c1.2-3,2.5-5.1,3.9-6.3c2.1-1.7,4.4-2.5,7.1-2.5c1.8,0,3.4,0.5,4.6,1.6
			c1.5,1.3,2.7,2.7,3.5,4.1c0.7,1.2,1.2,2.5,1.4,3.8C285.4,318.3,285.6,319.6,285.8,320.9z M279.7,320.2c-0.3-1.2-0.5-2.4-0.7-3.6
			c-0.3-1.3-1-2.3-1.9-2.9c-0.7-0.4-1.2-0.6-1.6-0.6c-0.4,0-0.9,0.3-1.4,0.8c-3.8,3.9-5.7,8.9-5.7,14.8c0,3.5,0.8,6.6,2.5,9.2
			c0.2,0.4,0.5,0.6,0.9,0.6c0.4,0,1.3-0.7,2.6-2.1c3.8-4.1,5.7-8.3,5.7-12.5C280.1,322.6,279.9,321.4,279.7,320.2z"/>
		<path class="st5" d="M313.9,338.7c-0.3,0.7-1,1.1-2,1.2c-0.8,0-1.6,0-2.5,0.1c-1.1,0.1-1.7,0.4-1.9,1.1c-0.4,2.4-0.7,5.6-0.8,9.7
			c-0.1,5.5-0.2,8.7-0.2,9.7c0,0.9-0.7,1.5-1.9,1.7c-1.9,0-3-0.5-3.4-1.5c-0.4-1.3-0.7-2.7-0.7-4.3c0-1.1,0.2-2.9,0.5-5.2
			s0.5-4.1,0.5-5.4c0-1.2-0.1-2.3-0.4-3.4c-0.4,0-0.9-0.1-1.4-0.1c-1,0-2.6,0.2-4.8,0.7s-3.7,0.7-4.7,0.7c-0.9,0-1.8-0.2-2.7-0.4
			c-1.1-0.4-1.7-1.1-1.7-1.9c0-0.4,0.5-1.6,1.6-3.6c1.8-3.3,4.2-8.4,7.3-15.3c3.1-6.9,5.6-12.1,7.5-15.5c0.5-1.2,1.1-2.4,1.7-3.7
			c0.6-1.2,1.6-1.9,3-1.9c1.7,0,2.6,0.6,2.7,1.7c0.1,1.1,0.1,2.3,0.1,3.4c0,2.9-0.4,7-1.2,12.4c-0.8,5.4-1.2,9.5-1.2,12.3
			c0,1.2,0,2.4,0.1,3.6c3.1,0,5.1,0.6,5.9,1.9C314.1,337.4,314.2,338.1,313.9,338.7z M301.6,323c-1.2,2.3-2.5,4.6-3.7,6.9
			c-1.3,2.7-2.3,5.1-2.8,7.2c0.8,0,1.9-0.3,3.2-0.7c1.6-0.5,2.6-0.8,2.9-0.8c0-1.4,0.1-3.5,0.2-6.4
			C301.6,326.2,301.6,324.2,301.6,323z"/>
	</g>
	<g>
		<path class="st4" d="M207.5,418.3c-0.7,1.6-1.4,2.6-1.9,3.1c-0.8,0.8-1.2,1.2-1.3,1.3c-0.6,0.4-1.1,0.7-1.7,0.8
			c-0.1,0.4-0.1,0.8-0.1,1.4c0,0.4,0,0.9,0.1,1.7c0.1,0.7,0.1,1.3,0.1,1.6c0,1.3-0.3,2.3-0.9,2.9l-0.8-0.4c-0.3-0.2-0.5-0.4-0.5-0.6
			c-0.2-1.2-0.3-2.6-0.3-4.2c0-1,0.1-2.5,0.2-4.5c0.1-2,0.2-3.5,0.2-4.6c0-1.5-0.1-2.9-0.3-4.1c-0.2,0.1-0.3,0-0.4-0.3
			c-0.1-0.2-0.3-0.4-0.3-0.4c0.1-0.6,0.3-0.9,0.5-0.9c0.3-0.1,0.9-0.1,1.8,0.1c2.5,0.4,4.4,1.5,5.6,3.3c0.4,0.6,0.6,1.2,0.6,2
			C208,416.9,207.8,417.6,207.5,418.3z M205.6,416.1c0.1-0.8-0.2-1.4-1-1.8c0,0-0.7-0.3-2.1-0.8c0.2,3.5,0.3,6,0.2,7.4
			C204.5,419.2,205.4,417.6,205.6,416.1z"/>
		<path class="st4" d="M219.7,426.9c0.1,0.3,0.2,0.6,0.2,0.8c0,0.4-0.2,0.7-0.5,1c-0.3,0.3-0.5,0.4-0.7,0.4
			c-0.9-0.2-1.5-0.9-1.8-2.3c-0.3-1.5-0.6-2.7-1-3.7c-0.7,0.1-1.3,0.1-2,0.2c-0.7,0.1-1.3,0.3-1.8,0.7c-0.2,0.6-0.5,1.7-0.8,3.2
			c-0.3,1.4-0.6,2.5-1,3.2c-0.2,0.3-0.5,0.4-1,0.3c-0.6-0.2-1-0.5-1-0.9c-0.1-0.7,0.2-1.7,0.6-2.9c0.6-1.4,0.9-2.4,1-3
			c0-0.2-0.1-0.4-0.4-0.6c-0.3-0.2-0.4-0.4-0.4-0.5c0-0.1,0-0.2,0.1-0.3c0.1-0.1,0.3-0.2,0.6-0.3c0.3-0.1,0.5-0.2,0.5-0.3
			c0.3-1,0.9-2.7,1.6-5.4c0.6-2.3,1.2-4,1.7-5.2c0.1-0.3,0.4-0.4,0.7-0.4c0.3,0,0.5,0.1,0.7,0.3c0.5,0.5,0.9,1.2,1,2.1
			c0.1,0.8,0.2,1.6,0.3,2.4C217.7,420.2,218.7,423.9,219.7,426.9z M215.5,421.4c-0.1-0.7-0.2-1.5-0.4-2.4c-0.2-0.8-0.4-1.5-0.5-2.3
			c-0.6,1.6-1.1,3.2-1.5,4.8C213.4,421.4,214.2,421.4,215.5,421.4z"/>
		<path class="st4" d="M231.2,421c-0.5,1.3-0.9,2.9-1,4.7c-0.1,1.6-0.2,3.3-0.3,4.9c0,0.5-0.4,0.7-1,0.7c-0.2,0-0.3,0-0.5-0.1
			c-0.8-0.3-1.2-1-1.2-1.9c0-0.3,0-0.7,0.1-1.2c0.1-0.5,0.1-0.9,0.1-1.2c0.1-0.6,0.2-1.4,0.3-2.5c-1.3,1.2-2.8,2.2-4.5,2.8
			c-0.2,0.1-0.5,0.1-0.7,0.1c-0.9,0-1.7-0.5-2.4-1.5c-0.4-0.6-0.6-1.2-0.6-2.1c0-0.7,0.2-1.6,0.5-2.6c1-3.1,2.6-6.1,4.9-9.1
			c1.1-1.5,2.1-2.2,3-2.2c0.8,0,1.2,0.3,1.3,0.9c0.1,0.5-0.1,0.8-0.5,1c-0.7,0.4-1,0.6-1.1,0.6c-1.6,1.8-3.1,4.1-4.4,6.9
			c-0.8,1.7-1.2,3.3-1.2,4.7c0,0.3,0,0.5,0,0.7c0,0,0.1,0.1,0.2,0.3c0.1,0.2,0.2,0.2,0.3,0.2c1.3-0.5,3.2-1.8,5.7-3.9
			c0.2-0.2,0.4-0.6,0.7-1.3c0.2-0.5,0.5-0.8,1-0.8c-0.2,0,0,0,0.5-0.1c0.2,0,0.4,0,0.5,0.1c0.4,0.5,0.5,1,0.5,1.3
			C231.3,420.7,231.2,420.8,231.2,421z"/>
		<path class="st4" d="M243,413.8c-0.7,0.3-1.8,0.6-3.1,1c-1.4,0.4-2.4,0.7-3.1,1c-0.2,0.5-0.3,1.6-0.4,3.3c0.3,0.1,0.7,0.2,1.1,0.2
			c0.3,0,0.7,0,1.4-0.1s1.1-0.1,1.4-0.1c0.5,0,1,0.1,1.4,0.3c0.3,0.4,0.4,0.6,0.4,0.7c0,0.1-0.1,0.2-0.2,0.3c0,0-0.2,0.2-0.4,0.4
			c-0.2,0.2-0.3,0.2-0.6,0.2c-0.4,0.1-1.1,0.2-2.2,0.2c-0.9,0-1.6,0.1-2.2,0.3c-0.4,1.4-0.5,2.5-0.5,3.4c0,0.6,0.1,1,0.2,1.3
			c0.9,0.6,2.5,0.9,4.7,0.8c0.2,0,0.3-0.1,0.5-0.2c0.2-0.1,0.3-0.2,0.4-0.2c0.5-0.1,0.9,0.3,1.1,1.2c0.1,0.3,0,0.6-0.2,0.8
			s-0.4,0.4-0.7,0.4c-2.3,0.1-4.3-0.1-6-0.5c-0.5-0.1-1-0.4-1.5-0.9c-0.4-0.5-0.7-1-0.7-1.6c-0.2-1.7-0.2-3.2,0-4.5
			c-0.5-0.4-0.8-0.7-0.7-1.1c0-0.2,0.2-0.3,0.4-0.5c0.3-0.1,0.4-0.3,0.5-0.4s0.1-1.1,0.2-2.7c-1.1-0.2-1.6-0.6-1.6-1.2
			c0-0.6,0.4-1,1-1.3c0.6-0.2,1.2-0.5,1.8-0.7c0.7-0.4,1.6-0.7,2.7-1c0.9-0.2,1.9-0.5,2.8-0.7c0.1,0,0.2,0,0.3,0
			c0.5,0,1.1,0.2,1.8,0.6c0,0.1,0.1,0.2,0.1,0.4c0.1,0.2,0.1,0.4,0.1,0.5C243.2,413.6,243.1,413.7,243,413.8z"/>
		<path class="st4" d="M263,410.8c-0.3,2.6-0.5,5.2-0.8,7.7c-0.3,3.1-0.5,5.6-0.5,7.7c0,0.7,0,1.3,0.1,2c0,0.3-0.1,0.6-0.3,0.8
			c-0.2,0.2-0.5,0.3-0.8,0.3c-0.6,0-1.1-0.4-1.5-1.2c-1.2-2.4-2.8-6.2-4.6-11.3c0-0.1-0.1-0.2-0.1-0.2c-0.1,0-0.2,0.1-0.3,0.4
			c-0.3,2.7-0.5,5.6-0.5,8.7c0,1.5,0,2.9,0.1,4.5c0,0.6-0.1,0.9-0.5,1.2c-0.1,0.1-0.3,0.2-0.4,0.2c-0.1,0-0.3-0.1-0.5-0.2
			c-0.3-0.1-0.5-0.2-0.5-0.3c-0.2-0.1-0.4-0.3-0.5-0.7c0-0.3,0-0.6-0.1-0.9c-0.1-1.1-0.1-2.2-0.1-3.4c0-2,0.1-4.6,0.3-7.6
			c0.4-4.6,0.6-7.2,0.6-7.7c0-0.4,0.4-0.6,1.1-0.6c0.3,0,0.8,0.2,1.4,0.7c0.6,1.2,1.4,3.1,2.3,5.7c0.9,2.5,1.6,4.4,2.4,5.7
			c0.3-2.6,0.7-6.4,1.4-11.6c0.1-0.4,0.3-0.6,0.8-0.6c0.2,0,0.4,0,0.6,0.1c0.3,0.1,0.5,0.1,0.5,0.1
			C262.8,410.5,262.9,410.6,263,410.8z"/>
		<path class="st4" d="M274.2,422c-1.1,2.6-2.7,4.1-4.8,4.5c-0.3,0.1-0.5,0.1-0.7,0.1c-1.1,0-2.2-0.6-3.3-1.8
			c-0.7-0.8-1.1-1.9-1.1-3.1c0-1.4,0.4-2.9,1.3-4.6c0.4-0.7,0.8-1.3,1.3-1.8c0.6-0.6,1.2-0.9,1.7-0.9c0.3,0,0.6,0.1,0.9,0.3
			c0.3,0.2,1,0.5,2.2,0.9c0.9,0.3,1.6,0.8,2,1.6c0.7,1.3,1,2.4,1,3.3C274.5,421.1,274.4,421.6,274.2,422z M271.9,420.2
			c-0.1-1.4-0.5-2.2-1.1-2.5c-0.1,0-0.2-0.1-0.3-0.1c-0.2,0-0.5,0.2-0.9,0.6c-0.4,0.4-0.7,0.7-0.9,0.8c-0.1,0.1-0.3,0-0.6-0.2
			s-0.4-0.3-0.5-0.3c-0.1,0-0.1,0-0.1,0.1c-0.7,0.6-1,1.5-1,2.7c0,0.8,0.2,1.5,0.6,2.1c0.5,0.8,1,1.2,1.4,1.2c0.8,0,1.7-0.5,2.4-1.6
			C271.7,422,272,421.1,271.9,420.2z"/>
		<path class="st4" d="M290,410.3c-0.2,0.7-0.5,1.1-1,1.2c-1.2,0.3-3.4,0.7-6.5,1.2c-0.4,4.8-0.6,8.8-0.6,11.9c0,1.2,0,2.4,0.1,3.6
			c0,0.4,0,0.6-0.1,0.8c-0.1,0.3-0.3,0.5-0.6,0.4c-0.6,0-1-0.3-1.4-0.7c-0.4-0.5-0.6-1-0.6-1.5c0-0.7-0.1-1.5-0.1-2.2
			c0-1.3,0.1-3.3,0.3-6c0.2-2.6,0.2-4.6,0.2-6c-0.5,0-1.2,0-2.2,0.1c-1.1,0.2-1.8,0.2-2.2,0.2c-0.9,0-1.7-0.3-2.3-0.8
			c-0.2-0.5-0.3-0.8-0.3-0.8c0-0.1,0.1-0.3,0.2-0.4c0.6-0.2,1.9-0.4,3.8-0.6c1.7-0.2,2.9-0.5,3.7-0.9c0.7,0.2,1.4,0.3,2.3,0.3
			s1.7-0.1,2.5-0.3c0.2,0,0.8-0.2,1.8-0.4c0.7-0.2,1.3-0.2,1.7-0.2c0.3,0,0.5,0.1,0.4,0.4C289.7,409.8,290,410,290,410.3z"/>
		<path class="st4" d="M306.1,410c0,0.4-0.1,0.7-0.4,1.1c-0.2,0.3-0.6,0.5-0.9,0.6c-0.2,0-0.4,0-0.6-0.1c-0.3-0.1-0.5-0.2-0.6-0.2
			c-0.8,0.1-1.9,0.4-3.1,0.9c-1.6,0.7-2.6,1-3,1.2c-0.1,1.2-0.1,2.4-0.1,3.7s0,2.5,0.1,3.7c0.2,0,0.3,0.1,0.5,0.1
			c0.4,0,1.1-0.2,2.1-0.5c0.9-0.3,1.7-0.4,2.2-0.3c0.4,0,0.6,0.2,0.6,0.5c-0.1,0.7-0.6,1.3-1.4,1.7c-0.8,0.2-1.6,0.5-2.4,0.8
			c-0.3,0-0.8,0.1-1.5,0.3c0,0.4-0.1,0.8-0.1,1.3c0,0.5,0,1.2,0.1,2.1c0,0.9,0.1,1.6,0.1,2.1c0,1.7-0.3,3-0.8,3.9
			c-0.1,0.2-0.3,0.3-0.5,0.3c-0.2,0-0.5-0.1-0.7-0.3c-0.3-0.2-0.4-0.4-0.5-0.7c-0.2-0.6-0.3-1.3-0.3-2.1c0-0.3,0.1-1.2,0.2-2.8
			c0.1-1.2,0.1-2.1-0.1-2.8c0-0.2-0.2-0.5-0.6-0.6c-0.4-0.2-0.7-0.3-0.8-0.5c-0.1-0.1,0-0.5,0.1-1.2c0.2,0,0.4,0,0.6-0.2
			s0.3-0.3,0.5-0.3c0.1,0,0.2,0,0.2,0c0.2-0.9,0.3-2,0.3-3.2c0-0.4-0.1-1.9-0.2-4.5c-0.4-0.1-0.7-0.3-1.1-0.7
			c-0.4-0.4-0.5-0.7-0.5-1c0-0.5,0.3-0.8,1-0.9c0.9-0.1,2.7-0.6,5.2-1.4c2.2-0.7,4-1.1,5.4-1.1c0.3,0,0.6,0.1,0.9,0.3
			C306,409.4,306.1,409.7,306.1,410z"/>
		<path class="st4" d="M314.1,422c-1.1,2.6-2.7,4.1-4.8,4.5c-0.3,0.1-0.5,0.1-0.7,0.1c-1.1,0-2.2-0.6-3.3-1.8
			c-0.7-0.8-1.1-1.9-1.1-3.1c0-1.4,0.4-2.9,1.3-4.6c0.4-0.7,0.8-1.3,1.3-1.8c0.6-0.6,1.2-0.9,1.7-0.9c0.3,0,0.6,0.1,0.9,0.3
			c0.3,0.2,1,0.5,2.2,0.9c0.9,0.3,1.6,0.8,2,1.6c0.7,1.3,1,2.4,1,3.3C314.4,421.1,314.3,421.6,314.1,422z M311.8,420.2
			c-0.1-1.4-0.5-2.2-1.1-2.5c-0.1,0-0.2-0.1-0.3-0.1c-0.2,0-0.5,0.2-0.9,0.6c-0.4,0.4-0.7,0.7-0.9,0.8c-0.1,0.1-0.3,0-0.6-0.2
			s-0.4-0.3-0.5-0.3c-0.1,0-0.1,0-0.1,0.1c-0.7,0.6-1,1.5-1,2.7c0,0.8,0.2,1.5,0.6,2.1c0.5,0.8,1,1.2,1.4,1.2c0.8,0,1.7-0.5,2.4-1.6
			C311.6,422,311.9,421.1,311.8,420.2z"/>
		<path class="st4" d="M325.7,412.5c-0.1,1.3-0.5,3.1-1.2,5.4c-0.9,3-1.4,4.8-1.5,5.5c-0.4,1.9-1.2,3.7-2.4,5.3
			c-0.7,1-1.6,1.5-2.6,1.5c-0.9,0-1.5-0.6-1.9-1.6c-0.7-1.8-1.1-3.9-1.1-6.4c0-1.4,0.1-3.2,0.4-5.4c0,0.2,0-0.4,0-1.8
			c0-1.2,0.5-1.8,1.4-1.8c0.2,0,0.4,0.1,0.6,0.2c0.2,0.1,0.4,0.2,0.6,0.3c0,1,0,2.4-0.1,4.3c-0.1,2-0.1,3.5-0.1,4.4
			c0,1,0,1.8,0.1,2.6c0,0.4,0.2,1.2,0.5,2.3c0.8-0.9,1.4-2.1,1.9-3.6c0.2-0.5,0.5-1.9,0.9-4.1c0.4-1.7,0.8-3,1.2-4
			c0.1-0.3,0.2-0.8,0.3-1.5c0.1-0.7,0.2-1.3,0.3-1.6c0.2-0.5,0.6-0.7,1.1-0.7C325,411.9,325.5,412.1,325.7,412.5z"/>
		<path class="st4" d="M338.8,410.8c-0.3,2.6-0.5,5.2-0.8,7.7c-0.3,3.1-0.5,5.6-0.5,7.7c0,0.7,0,1.3,0.1,2c0,0.3-0.1,0.6-0.3,0.8
			c-0.2,0.2-0.5,0.3-0.8,0.3c-0.6,0-1.1-0.4-1.5-1.2c-1.2-2.4-2.8-6.2-4.6-11.3c0-0.1-0.1-0.2-0.1-0.2c-0.1,0-0.2,0.1-0.3,0.4
			c-0.3,2.7-0.5,5.6-0.5,8.7c0,1.5,0,2.9,0.1,4.5c0,0.6-0.1,0.9-0.5,1.2c-0.1,0.1-0.3,0.2-0.4,0.2c-0.1,0-0.3-0.1-0.5-0.2
			c-0.3-0.1-0.5-0.2-0.5-0.3c-0.2-0.1-0.4-0.3-0.5-0.7c0-0.3,0-0.6-0.1-0.9c-0.1-1.1-0.1-2.2-0.1-3.4c0-2,0.1-4.6,0.3-7.6
			c0.4-4.6,0.6-7.2,0.6-7.7c0-0.4,0.4-0.6,1.1-0.6c0.3,0,0.8,0.2,1.4,0.7c0.6,1.2,1.4,3.1,2.3,5.7c0.9,2.5,1.6,4.4,2.4,5.7
			c0.3-2.6,0.7-6.4,1.4-11.6c0.1-0.4,0.3-0.6,0.8-0.6c0.2,0,0.4,0,0.6,0.1c0.3,0.1,0.5,0.1,0.5,0.1
			C338.6,410.5,338.7,410.6,338.8,410.8z"/>
		<path class="st4" d="M348.6,421.9c-0.2,0.4-0.4,0.9-0.5,1.3c-0.2,0.5-0.5,0.9-0.7,1.2c-0.6,0.7-1.2,1.5-1.8,2.2
			c-0.7,0.9-1.4,1.5-1.9,1.8c-0.2,0.2-0.4,0.5-0.6,0.7c-0.2,0.2-0.5,0.4-0.7,0.4c-0.1,0-0.3,0-0.4-0.1c-0.2-0.1-0.3-0.1-0.5-0.2
			c-0.2-0.1-0.3-0.2-0.4-0.4c-0.1-0.8-0.1-1.7-0.1-2.6c0-0.9,0-2.3,0.1-4.2c0.1-1.9,0.1-3.3,0.1-4.2c0-1.2,0-2.4-0.1-3.4
			c0,0-0.2-0.2-0.6-0.7c-0.2-0.3-0.4-0.5-0.4-0.7c0-0.1,0-0.2,0.1-0.3c0.1-0.2,0.3-0.4,0.6-0.4c0.2,0,0.5-0.1,0.7-0.1
			c1.6,0.3,3.3,1.2,5.1,2.7c0.5,0.4,0.8,0.8,1.1,1.2c0.9,1.4,1.4,2.6,1.4,3.8C349,420.7,348.8,421.3,348.6,421.9z M346.5,418.8
			c-0.2-1.2-1.2-2.3-3.1-3.2c-0.1,3.2-0.2,6.6-0.1,10.2c2.2-2.2,3.3-4.2,3.3-6.2C346.6,419.3,346.6,419.1,346.5,418.8z"/>
	</g>
	<g>
		<path class="st8" d="M230.3,160.7c-5.1,3.5-13.8,12.1-19.1,15.3c-2.5,1.6-2,4.9,1,3.8c6.4-2.2,16.7-9.8,21-15.1
			C235.3,162.1,233.5,158.5,230.3,160.7z"/>
		<path class="st8" d="M213.4,160.7c5.1,3.5,13.8,12.1,19.1,15.3c2.5,1.6,2,4.9-1,3.8c-6.4-2.2-16.7-9.8-21-15.1
			C208.4,162.1,210.1,158.5,213.4,160.7z"/>
		<path class="st8" d="M334.6,158.8c-5.1,3.5-13.8,12.1-19.1,15.3c-2.5,1.6-2,4.9,1,3.8c6.4-2.2,16.7-9.8,21-15.1
			C339.6,160.2,337.9,156.5,334.6,158.8z"/>
		<path class="st8" d="M317.7,158.8c5.1,3.5,13.8,12.1,19.1,15.3c2.5,1.6,2,4.9-1,3.8c-6.4-2.2-16.7-9.8-21-15.1
			C312.7,160.2,314.5,156.5,317.7,158.8z"/>
	</g>
</g>
</svg>
