<?xml version="1.0" encoding="utf-8"?>
<!-- Generator: Adobe Illustrator 16.0.0, SVG Export Plug-In . SVG Version: 6.00 Build 0)  -->
<!DOCTYPE svg PUBLIC "-//W3C//DTD SVG 1.1//EN" "http://www.w3.org/Graphics/SVG/1.1/DTD/svg11.dtd">
<svg version="1.1" id="Calque_1" xmlns="http://www.w3.org/2000/svg" xmlns:xlink="http://www.w3.org/1999/xlink" x="0px" y="0px"
	 width="161.8px" height="189.8px" viewBox="0 0 161.8 189.8" style="enable-background:new 0 0 161.8 189.8;" xml:space="preserve"
	>
<style type="text/css">
<![CDATA[
	.st0{fill:#E6791F;}
	.st1{fill:#E95C1D;}
	.st2{fill:#EA5043;}
	.st3{fill:#EE744A;}
	.st4{fill:#F5A468;}
	.st5{fill:#F9BF98;}
	.st6{fill:#2C3E4F;}
	.st7{fill:#FDCE8A;}
	.st8{fill:#FEF7C2;}
	.st9{fill:#FFE09F;}
	.st10{fill:#D63F15;}
	.st11{font-size:23.8505;}
	.st12{font-family:'TrashHand';}
	.st13{font-size:20.8692;}
]]>
</style>
<g>
	<path class="st0" d="M121.9,10.6c0.6-0.8,1.2-1.5,1.9-2.2c1.6-1.6,3.4-3,5.4-4.1c1.6-0.9,3.3-1.7,5.2-2c3.5-0.6,6.9,0.4,9.5,2.8
		c1.5,1.4,2.6,3.1,3.2,5c1.2,3.4,0.9,7.3-0.6,10.6c-0.9,2-2.2,3.8-3.8,5.2c-1.4,1.3-3.3,2.9-5.3,3.3c-1.4,0.3-2.7,0.7-4.2,0.7
		c-3.6,0.1-7.6-1.4-10.3-3.7c-1.1-0.9-2.3-2-2.9-3.3c-0.3-0.6-0.4-1.3-0.5-1.9c-0.2-1-0.5-2-0.6-3c-0.2-1.7,0.1-3.8,1.2-5.2
		c0.6-0.8,1.2-1.5,1.8-2.2C121.7,10.7,121.8,10.6,121.9,10.6z"/>
	<path class="st1" d="M119.9,13c0.6-0.8,1.2-1.5,1.8-2.2c0.1-0.1,0.1-0.2,0.2-0.2c0.6-0.8,1.2-1.5,1.9-2.2c1.6-1.6,3.4-3,5.4-4.1
		c1.6-0.9,3.3-1.7,5.2-2c3.5-0.6,6.9,0.4,9.5,2.8c0,0,0,0,0,0c-0.8,0-1.6,0.2-2.4,0.3c-1.5,0.6-2.9,1.4-4.2,2.5c-1,0.9-2,1.7-3,2.7
		c-1.4,1.4-2.4,2.9-3.1,4.8c-0.8,2.3-0.3,4.8,0.4,7.1c0.5,1.6,1.2,2.8,2.4,4c0.5,0.5,1,0.9,1.5,1.3c0.7,0.4,1.5,0.5,2.3,0.6
		c0.4,0.1,0.9,0.1,1.2,0.4c-0.5,0.2-1,0.4-1.5,0.5c-1.4,0.3-2.7,0.7-4.2,0.7c-3.6,0.1-7.6-1.4-10.3-3.7c-1.1-0.9-2.3-2-2.9-3.3
		c-0.3-0.6-0.4-1.3-0.5-1.9c-0.2-1-0.5-2-0.6-3C118.5,16.6,118.8,14.4,119.9,13z"/>
	<path class="st1" d="M122.7,18.5c0.1-1,0.5-1.9,1.1-2.7c0.6-0.6,1.3-1.2,1.9-1.8c1.4-1.2,2.8-2.5,4.5-3.4c0.5-0.3,1.1-0.6,1.6-0.9
		c0.8-0.4,1.6-0.5,2.6-0.6c1.5-0.2,2.6-0.3,4,0.3c0.9,0.4,1.6,0.8,2.2,1.6c0.7,0.9,1.3,2,1.3,3.2c0,1-0.2,2-0.5,3
		c-0.4,1.3-1.3,2.3-1.9,3.4c-1.3,2.1-3.3,3.5-5.4,4.8c-1.2,0.8-2.3,0.7-3.7,0.5c-1.3-0.2-2.7-0.4-3.9-0.9c-1.6-0.7-2.9-1.8-3.6-3.4
		c-0.3-0.8-0.3-1.6-0.4-2.4c-0.1-0.2-0.1-0.4-0.1-0.5C122.6,18.2,122.5,18.6,122.7,18.5z"/>
	<path class="st10" d="M123,21.5c-0.3-0.8-0.3-1.6-0.4-2.4c-0.1-0.2-0.1-0.4-0.1-0.5c0.1-0.4,0,0,0.2-0.1c0.1-1,0.5-1.9,1.1-2.7
		c0.6-0.6,1.3-1.2,1.9-1.8c1.4-1.2,2.8-2.5,4.5-3.4c0.5-0.3,1.1-0.6,1.6-0.9c0.8-0.4,1.6-0.5,2.6-0.6c0.4-0.1,0.8-0.1,1.2-0.1
		c-1.6,1.6-2.9,3.4-4.3,5.2c-1.1,1.4-1.7,3.2-1.8,5.1c0,0.5,0.1,1,0.2,1.5c0.2,0.7,0.5,1.1,0.9,1.6c0.2,0.3,0.3,0.5,0.4,0.8
		c0.1,0.2,0.3,0.3,0.4,0.5c0.4,0.4,0.8,0.9,1.1,1.4c0.2,0.3,0.3,0.6,0.5,0.8c-0.8,0.2-1.6,0.2-2.5,0c-1.3-0.2-2.7-0.4-3.9-0.9
		C125.1,24.2,123.8,23.1,123,21.5z"/>
	<path class="st7" d="M144.5,8.3c1.3,1.4,2.1,3.9,1.4,5.7c-0.2,0.5-0.9,0.4-0.9-0.1c-0.2-1.8-0.4-3.4-1.3-5
		C143.5,8.4,144.1,7.9,144.5,8.3z"/>
	<path class="st7" d="M144.7,17.1c0-0.2,0.1-0.4,0.1-0.5c0-0.6,0.8-0.7,1-0.1c0.1,0.5,0,0.9-0.4,1.2C145,17.8,144.6,17.5,144.7,17.1
		z"/>
	<path class="st5" d="M139.4,11.9c0.4,0.7,1.3,1.7,1,2.5c-0.1,0.2-0.4,0.4-0.6,0.2c-0.3-0.3-0.4-0.7-0.5-1.1
		c-0.2-0.4-0.4-0.8-0.6-1.2C138.4,11.7,139.2,11.5,139.4,11.9z"/>
	<path class="st5" d="M139.4,14.5c0.3,0.6,0.6,1.2,0.5,1.8c0,0.4-0.6,0.4-0.8,0.1c-0.2-0.5-0.3-1-0.5-1.5
		C138.4,14.4,139.1,14,139.4,14.5z"/>
	<path class="st5" d="M138.5,16.8c0.2,0,0.5,0.2,0.5,0.5c0,0.1,0,0.3,0.1,0.4c0.1,0.3-0.3,0.6-0.5,0.4c-0.3-0.2-0.5-0.5-0.4-0.8
		C138.1,17,138.3,16.8,138.5,16.8z"/>
	<path class="st0" d="M45.2,10.6c-0.6-0.8-1.2-1.5-1.9-2.2c-1.6-1.6-3.4-3-5.4-4.1c-1.6-0.9-3.3-1.7-5.2-2c-3.5-0.6-6.9,0.4-9.5,2.8
		c-1.5,1.4-2.6,3.1-3.2,5c-1.2,3.4-0.9,7.3,0.6,10.6c0.9,2,2.2,3.8,3.8,5.2c1.4,1.3,3.3,2.9,5.3,3.3c1.4,0.3,2.7,0.7,4.2,0.7
		c3.6,0.1,7.6-1.4,10.3-3.7c1.1-0.9,2.3-2,2.9-3.3c0.3-0.6,0.4-1.3,0.5-1.9c0.2-1,0.5-2,0.6-3c0.2-1.7-0.1-3.8-1.2-5.2
		c-0.6-0.8-1.2-1.5-1.8-2.2C45.3,10.7,45.2,10.6,45.2,10.6z"/>
	<path class="st1" d="M47.1,13c-0.6-0.8-1.2-1.5-1.8-2.2c-0.1-0.1-0.1-0.2-0.2-0.2c-0.6-0.8-1.2-1.5-1.9-2.2c-1.6-1.6-3.4-3-5.4-4.1
		c-1.6-0.9-3.3-1.7-5.2-2c-3.5-0.6-6.9,0.4-9.5,2.8c0,0,0,0,0,0c0.8,0,1.6,0.2,2.4,0.3c1.5,0.6,2.9,1.4,4.2,2.5c1,0.9,2,1.7,3,2.7
		c1.4,1.4,2.4,2.9,3.1,4.8c0.8,2.3,0.3,4.8-0.4,7.1c-0.5,1.6-1.2,2.8-2.4,4c-0.5,0.5-1,0.9-1.5,1.3c-0.7,0.4-1.5,0.5-2.3,0.6
		c-0.4,0.1-0.9,0.1-1.2,0.4c0.5,0.2,1,0.4,1.5,0.5c1.4,0.3,2.7,0.7,4.2,0.7c3.6,0.1,7.6-1.4,10.3-3.7c1.1-0.9,2.3-2,2.9-3.3
		c0.3-0.6,0.4-1.3,0.5-1.9c0.2-1,0.5-2,0.6-3C48.5,16.6,48.2,14.4,47.1,13z"/>
	<path class="st1" d="M44.3,18.5c-0.1-1-0.5-1.9-1.1-2.7c-0.6-0.6-1.3-1.2-1.9-1.8c-1.4-1.2-2.8-2.5-4.5-3.4
		c-0.5-0.3-1.1-0.6-1.6-0.9c-0.8-0.4-1.6-0.5-2.6-0.6c-1.5-0.2-2.6-0.3-4.1,0.3c-0.9,0.4-1.6,0.8-2.2,1.6c-0.7,0.9-1.3,2-1.3,3.2
		c0,1,0.2,2,0.5,3c0.4,1.3,1.3,2.3,1.9,3.4c1.3,2.1,3.3,3.5,5.4,4.8c1.2,0.8,2.3,0.7,3.7,0.5c1.3-0.2,2.7-0.4,3.9-0.9
		c1.6-0.7,2.9-1.8,3.6-3.4c0.3-0.8,0.3-1.6,0.4-2.4c0.1-0.2,0.1-0.4,0.1-0.5C44.4,18.2,44.5,18.6,44.3,18.5z"/>
	<path class="st10" d="M44,21.5c0.3-0.8,0.3-1.6,0.4-2.4c0.1-0.2,0.1-0.4,0.1-0.5c-0.1-0.4,0,0-0.2-0.1c-0.1-1-0.5-1.9-1.1-2.7
		c-0.6-0.6-1.3-1.2-1.9-1.8c-1.4-1.2-2.8-2.5-4.5-3.4c-0.5-0.3-1.1-0.6-1.6-0.9c-0.8-0.4-1.6-0.5-2.6-0.6C32.2,9,31.8,9,31.4,9
		c1.6,1.6,2.9,3.4,4.3,5.2c1.1,1.4,1.7,3.2,1.8,5.1c0,0.5-0.1,1-0.2,1.5c-0.2,0.7-0.5,1.1-0.9,1.6c-0.2,0.3-0.3,0.5-0.4,0.8
		c-0.1,0.2-0.3,0.3-0.4,0.5c-0.4,0.4-0.8,0.9-1.1,1.4c-0.2,0.3-0.3,0.6-0.5,0.8c0.8,0.2,1.6,0.2,2.5,0c1.3-0.2,2.7-0.4,3.9-0.9
		C42,24.2,43.3,23.1,44,21.5z"/>
	<path class="st10" d="M39.2,124c-4-2.2-8.1-6.2-8.1-6.2c1.5,0.3,2.1-1.3,2.1-1.3c-3.8-1.8-8-9.3-8-9.3c1.4,0.6,2.4,0.5,2.4,0.5
		c-2.6-3-3.4-13.1-3.4-13.1c-0.4-4.1-4.1-5.4-7.9-3.5l0,0h0c-0.5,0.3-1,0.6-1.6,1c0,0,0,0,0,0c-0.2,0.2-0.5,0.4-0.7,0.6c0,0,0,0,0,0
		c-0.2,0.2-0.5,0.5-0.7,0.7c0,0,0,0.1-0.1,0.1c-0.2,0.2-0.4,0.5-0.6,0.7c0,0.1-0.1,0.1-0.1,0.2c-0.2,0.3-0.4,0.6-0.6,0.9
		c0,0,0,0.1-0.1,0.1c-0.2,0.3-0.3,0.5-0.5,0.8c0,0.1-0.1,0.2-0.1,0.3c-0.2,0.3-0.4,0.7-0.5,1c-4.3,9.3-1.4,19.8-1.4,19.8
		c0.7-1.6,1.3-2.1,1.3-2.1c-0.2,3.6,0.2,6.6,0.8,9.1c0.4,1.6,1,3,1.6,4.1c0.1,0.2,0.2,0.5,0.4,0.7c2.3,4.1,5,5.8,5,5.8l0,0l0,0
		c0-0.4-0.1-0.8-0.1-1.2c0-0.3-0.1-0.7-0.1-0.9c0-0.3-0.1-0.5-0.1-0.6c0-0.1,0-0.2,0-0.2c0.6,1.4,1.2,2.5,1.9,3.5
		c0.5,0.6,0.9,1.2,1.4,1.6c0.7,0.7,1.4,1.2,2.1,1.6c0.3,0.2,0.6,0.3,0.9,0.5c0.6,0.3,1.1,0.4,1.5,0.5c0.1,0,0.2,0.1,0.3,0.1
		c0.2,0,0.4,0,0.4,0c-0.1-0.1-0.1-0.2-0.2-0.3c-0.5-0.9-0.6-1.2-0.7-1.4c0,0,0,0,0,0c0,0,0,0,0-0.1c0,0,0,0,0,0s3.7,3.9,8.1,3.9
		c0.1,0,0.3,0,0.4,0c0,0,0.1,0,0.1,0c0.1,0,0.2,0,0.3,0c0,0,0.1,0,0.1,0c0.1,0,0.1,0,0.2,0c0,0,0.1,0,0.1,0c0.1,0,0.1,0,0.2,0
		c0,0,0.1,0,0.1,0c0.1,0,0.1,0,0.2-0.1c0,0,0.1,0,0.1,0c0.1,0,0.1,0,0.2-0.1c0,0,0.1,0,0.1,0c0.1,0,0.1-0.1,0.2-0.1c0,0,0,0,0.1,0
		c0.1,0,0.1-0.1,0.2-0.1c0,0,0,0,0,0l0,0c1.3-1,0.6-2.9,0.6-2.9s2.6,0.7,3.8-1.5c1.2-2.2-1.8-6.3-1.8-6.3
		C42.2,129.5,43.2,126.1,39.2,124z"/>
	<path class="st10" d="M150.6,102.2c-0.1-0.4-0.3-0.7-0.4-1.1c0-0.1-0.1-0.2-0.1-0.3c-0.1-0.3-0.3-0.6-0.4-0.9c0,0,0-0.1-0.1-0.1
		c-0.2-0.3-0.3-0.6-0.5-0.9c0-0.1-0.1-0.1-0.1-0.2c-0.2-0.3-0.3-0.5-0.5-0.7c0,0,0-0.1-0.1-0.1c-0.2-0.3-0.4-0.5-0.6-0.8
		c0,0,0,0,0,0c-0.2-0.2-0.4-0.5-0.7-0.7c0,0,0,0,0,0c-0.5-0.4-1-0.8-1.5-1.1c0,0,0,0,0,0l0,0c-3.5-2.2-7.4-1.3-8.2,2.7
		c0,0-1.8,9.9-4.6,12.7c0,0,1,0.2,2.5-0.3c0,0-4.9,7.1-8.9,8.5c0,0,0.5,1.7,2,1.5c0,0-4.5,3.6-8.7,5.4c-4.2,1.8-3.5,5.3-0.6,6.5
		c0,0-3.4,3.8-2.4,6.1c1,2.3,3.6,1.9,3.6,1.9s-1,2,0.5,3.1c0,0,0,0,0.1,0c0,0,0.1,0.1,0.1,0.1c0,0,0.1,0,0.1,0c0,0,0.1,0.1,0.2,0.1
		c0,0,0.1,0,0.1,0c0.1,0,0.1,0,0.2,0.1c0,0,0.1,0,0.1,0c0.1,0,0.1,0,0.2,0.1c0,0,0.1,0,0.1,0c0.1,0,0.1,0,0.2,0.1c0,0,0.1,0,0.1,0
		c0.1,0,0.2,0,0.3,0c0,0,0.1,0,0.1,0c0.1,0,0.3,0,0.4,0c4.5,0.4,8.5-3.1,8.5-3.1s0.1,0-0.3,0.6c-0.1,0.2-0.2,0.3-0.4,0.6
		c-0.1,0.2-0.2,0.3-0.4,0.5c0,0,5.5,0.2,9.3-6.8c0,0-0.1,0.5-0.3,1.2c-0.1,0.4-0.2,1-0.3,1.6l0,0l0,0c0,0,7.1-3.5,9.2-13.9
		c0.3-1.5,0.5-3.1,0.6-4.9c0,0,0.5,0.6,1,2.2C150,122.1,154,111.9,150.6,102.2z"/>
	<path class="st10" d="M129.4,96.4c-0.4-0.3-2.2-0.7-5-1c0.6,0.7,1,1.7,1,2.7c0,2.4-1.9,4.4-4.4,4.5c-2.5,0-4.5-1.9-4.5-4.3
		c0-1.4,0.7-2.7,1.7-3.5c-2.9-0.3-6.2-0.5-9.9-0.7c0.7,0.8,1.1,1.7,1.1,2.8c0,2.4-1.9,4.4-4.4,4.5c-2.5,0-4.5-1.9-4.5-4.3
		c0-1.3,0.5-2.5,1.4-3.3c-3.2-0.2-6.7-0.3-10.2-0.4c1.1,0.8,1.8,2.1,1.8,3.5c0,2.4-1.9,4.4-4.4,4.5c-2.5,0-4.5-1.9-4.5-4.3
		c0-1.6,0.8-3,2-3.8c-4.5-0.1-9.1-0.2-13.7-0.2c1.3,0.7,2.2,2.1,2.2,3.8c0,2.4-1.9,4.4-4.4,4.5c-2.5,0-4.5-1.9-4.5-4.3
		c0-1.6,0.9-3.1,2.2-3.9c-4.4,0-8.8,0.2-12.9,0.3c1.7,0.6,3,2.2,3,4.1c0,2.4-1.9,4.4-4.4,4.5c-2.5,0-4.5-1.9-4.5-4.3
		c0-1.8,1-3.4,2.6-4.1c-4.4,0.2-8.5,0.6-12.2,1.1c1.3,0.8,2.2,2.1,2.2,3.7c0,2.4-1.9,4.4-4.4,4.5c-2.5,0-4.5-1.9-4.5-4.3
		c0-1.2,0.4-2.2,1.2-3c-2.5,0.5-4.6,1-6.3,1.7c-3.1,1.2,2.2,84,7.6,88.8c5.5,4.7,88.4,3.3,92.4-0.3
		C132.4,181.9,132.4,98.9,129.4,96.4z"/>
	<path class="st8" d="M131.2,96.2c-0.4-0.3-2.2-0.7-5-1.1c0.6,0.8,1,1.7,1,2.8c0,2.5-1.9,4.5-4.4,4.5c-2.5,0-4.5-1.9-4.5-4.4
		c0-1.4,0.7-2.7,1.7-3.6c-2.9-0.3-6.2-0.5-9.9-0.7c0.7,0.8,1.1,1.8,1.1,2.8c0,2.5-1.9,4.5-4.4,4.5c-2.5,0-4.5-1.9-4.5-4.4
		c0-1.3,0.5-2.5,1.4-3.3c-3.2-0.2-6.7-0.3-10.2-0.4c1.1,0.8,1.8,2.1,1.8,3.5c0,2.5-1.9,4.5-4.4,4.5c-2.5,0-4.5-1.9-4.5-4.4
		c0-1.6,0.8-3,2-3.8c-4.5-0.1-9.1-0.2-13.7-0.2c1.3,0.8,2.2,2.2,2.2,3.8c0,2.5-1.9,4.5-4.4,4.5c-2.5,0-4.5-1.9-4.5-4.4
		c0-1.7,0.9-3.1,2.2-3.9c-4.4,0-8.8,0.2-12.9,0.3c1.7,0.6,3,2.2,3,4.2c0,2.5-1.9,4.5-4.4,4.5c-2.5,0-4.5-1.9-4.5-4.4
		c0-1.8,1-3.4,2.6-4.1c-4.4,0.3-8.5,0.6-12.2,1.1c1.3,0.8,2.2,2.2,2.2,3.8c0,2.5-1.9,4.5-4.4,4.5c-2.5,0-4.5-1.9-4.5-4.4
		c0-1.2,0.4-2.3,1.2-3.1c-2.5,0.5-4.6,1-6.3,1.7c-3.1,1.2,2.2,85.1,7.6,89.9c5.5,4.8,88.4,3.3,92.4-0.3
		C134.2,182.8,134.2,98.7,131.2,96.2z"/>
	<g>
		<path class="st9" d="M31.2,145.9c0.6,0,1.2,0,1.8,0c1.2,0,2.3-0.2,3.5-0.4c0.7-0.2,1.4-0.4,2.1-0.5c0.5-0.1,1.1-0.1,1.5-0.3
			c1.2-0.6,2.2-1.9,2.1-3.2c-0.1-0.7-0.6-1.5,0-2c0.2-0.2,0.6-0.3,0.8-0.4c0.6-0.4,1.2-0.8,1.7-1.3c1.1-1,1.9-2,1.7-3.5
			c-0.1-1.3-0.8-2.7-1.7-3.7c-0.1-0.1-0.7-0.4-0.8-0.6c-0.2-0.4,0.1-0.3,0.2-0.5c0.2-0.6,0.5-0.9,0.5-1.6c0-0.7-0.2-1.5-0.6-2.1
			c-0.8-1.3-1.6-2.2-3.2-2.2l-11.1,3.7C30.2,133.3,30.6,139.6,31.2,145.9z"/>
		<path class="st9" d="M130.2,186.5c1.8-1.7,2.8-20.2,3.1-40.1c-1,1.3-2.3,2.3-3.9,2.7c-0.4,0.1-0.6,0.1-0.9,0.3
			c-0.3,0.2-0.5,0.5-0.7,0.7c-0.2,0.2-0.3,0.1-0.6,0.3c-0.2,0.2-0.3,0.5-0.4,0.8c-0.3,0.8-0.5,1.5-1,2.3c-0.7,1-1.8,1.6-2.7,2.5
			c-0.7,0.7-1.2,1.5-1.8,2.2c-0.4,0.5-0.8,0.9-0.8,1.5c-0.1,1.7,1.3,0.3,1.9,1.1c-0.1,0.7-1.5,1.7-1.9,2.2c-0.7,0.8-1,1.2-2,1.5
			c-0.7,0.3-1.4,0.6-2,1.1c-1.1,0.8-1.9,1.4-3.1,1.9c-1.2,0.4-2.4,0.7-3.6,1.1c-0.5,0.2-3.8,1.2-3.6,2c0.6,0.1,1.2-0.1,1.9,0.1
			c-1.1,0.7-2.2,1.4-3.3,2.2c-0.7,0.5-1.2,1-1.9,1.5c-0.7,0.4-0.9,0.5-1.5,1.2c-0.9,1-1.7,1.6-2.9,2.3c-1.3,0.6-2.3,1.6-3.5,2.3
			c-0.6,0.4-1.3,0.7-2,1c-0.3,0-0.7,0-1,0.1c-0.7,0.1-1.3,0.4-2.1,0.5c-1.1,0.1-2.1,0.5-3.2,0.5c-0.7,0-1.5,0-2.2,0
			c-0.5,0-1.1,0.1-1.5-0.2c-0.6-0.4-0.8-1-1.6-1.1c-0.6-0.1-1.4,0.4-1.9,0.6c-0.6,0.2-1.2,0.3-1.8,0.4c-1.7,0.3-3.4-0.1-5.1-0.4
			c-1.5-0.3-2.9-0.6-4.2-1.4c-0.8-0.5-1.6-1-2.4-1.4c-1.8-0.8-3.5-1.8-5.3-2.6c-1.7-0.8-3-2.2-4.7-3c-0.9-0.4-1.9-0.7-2.1-1.9
			c-0.1-0.6-0.1-1.8-0.6-2.3c-0.3-0.4-0.9-0.4-1.4-0.5c-1.9-0.2-3.7,0-5.5-0.9c-1.1-0.5-2.1-1.2-3.2-1.9c-0.3-0.2-1.5-0.7-1.8-1
			c-0.3-0.3-0.2,0-0.3-0.6c-0.1-0.6,0.5-0.9,0.7-1.4c0.5-1-1.5-1.2-2.2-1.4c-0.8-0.2-1.5-0.7-2.2-0.8c-0.8-0.2-1.6-0.3-2.4-0.5
			c-0.8-0.3-1.6-0.7-2.4-1.1c1.5,14.4,3.4,26.1,5.4,27.8C43.2,191.6,126.2,190.1,130.2,186.5z"/>
		<path class="st9" d="M131.5,122c-1.7,0.1-3,0.7-4.6,1.3c-0.8,0.3-1.8,0.7-2.7,0.4c-0.7-0.2-1.1-0.6-1.9-0.4
			c-0.7,0.2-1.3,0.4-2,0.5c-2.1,0.3-3.5,1.8-5.4,2.8c-1.1,0.6-2.6,1.1-3,2.4c-0.2,0.6,0,1.1,0.2,1.7c0.1,0.5,0.1,1,0.1,1.5
			c0,1,0.1,2,0,3c0,0.6-0.3,1.1-0.3,1.7c0,0.5,0.2,1,0.3,1.4c0.3,0.8,0.9,1.5,1.7,1.9c0.5,0.2,1,0.2,1.5,0.5c0.3,0.2,0.6,0.5,1,0.6
			c0.4,0.2,0.9,0.2,1.3,0.5c0.4,0.3,0.5,0.7,0.8,1.1c0.3,0.5,0.4,0.9,1,1c0.4,0.1,1.2-0.3,1.5,0c0.2,0.2,0.2,0.5,0.5,0.7
			c0.4,0.4,1,0.5,1.6,0.5c0.7-0.1,1.5-0.2,2.2-0.3c0.5-0.1,1.2-0.1,1.7-0.2c0.9-0.2,1.8-0.9,2.6-1.2c0.4-0.1,0.7-0.3,1.1-0.5
			c0.7-0.3,2-0.7,2.8-0.5c0.1-7,0-14-0.1-20.4C132.6,122,132.1,122,131.5,122z"/>
	</g>
	<g>
		<path class="st0" d="M25.4,91.8c0,0,0.8,10,3.4,13.1c0,0-1,0.1-2.4-0.5c0,0,4.2,7.5,8,9.3c0,0-0.6,1.6-2.1,1.3c0,0,4.1,4,8.1,6.2
			c4,2.2,3,5.6-0.1,6.5c0,0,3,4.1,1.8,6.3s-3.8,1.5-3.8,1.5s1.3,3.6-3.1,3.6c-4.5-0.1-8.1-3.9-8.1-3.9s-0.2,0.1,0.8,1.8
			c0,0-5.5-0.3-8.6-7.7c0,0,0.1,1.2,0.3,2.9c0,0-8.8-5.5-7.9-19.7c0,0-0.5,0.6-1.3,2.1c0,0-2.9-10.5,1.4-19.8
			C15.9,85.8,24.7,85.5,25.4,91.8z"/>
		<path class="st1" d="M26.9,135.1c0,0,3.7,3.9,8.1,3.9c1.3,0,2.1-0.3,2.6-0.7c-0.4-0.1-0.8-0.3-1.2-0.5c-1-0.4-2-0.6-2.8-1.2
			c-0.7-0.5-1.4-0.9-2.1-1.3c-1.4-0.8-2.6-1.9-3.4-3.2c-0.5-0.8-0.9-1.5-1.3-2.3c-0.1-0.2-0.3-0.8-0.6-0.8c-0.2,0.5-0.3,1-0.4,1.6
			c-0.3-0.1-0.5-0.6-0.7-0.8c-0.2-0.2-0.4-0.5-0.5-0.8c-0.4-0.8-0.7-1.5-1.1-2.3c-0.4-0.6-0.8-1.3-1.1-1.9c-0.9-1.7-1.9-3.5-2.4-5.3
			c-0.1-0.5-0.2-1.2-0.5-1.6c0-0.1-0.1-0.2-0.2-0.2c-0.1,0.2-0.3,0.4-0.4,0.6c-0.1,0.2-0.1,0.5-0.3,0.7c-0.1-0.1-0.1-0.2-0.2-0.3
			c-0.2-0.6-0.4-1.1-0.5-1.7c-0.2-1.1-0.4-2.2-0.6-3.4c-0.2-0.8-0.3-1.5-0.5-2.3c-0.4-1.9-1-4-1-5.9c0-0.7,0.1-1.3,0.2-2
			c0-0.1,0-0.2,0-0.3c-0.6,0.3-0.9,1-1.4,1.5c0.1-1,0.3-2,0.4-3c0.2-2,0.3-4,0.5-6c0.2-2.1,0.8-4.2,1.6-6.2c0.1-0.3,0.3-0.7,0.4-1
			c-2.1,1.1-4.2,3.1-5.7,6.3c-4.3,9.3-1.4,19.8-1.4,19.8c0.7-1.6,1.3-2.1,1.3-2.1c-0.9,14.2,7.9,19.7,7.9,19.7
			c-0.2-1.7-0.3-2.9-0.3-2.9c3,7.4,8.6,7.7,8.6,7.7C26.8,135.2,26.9,135.1,26.9,135.1z"/>
		<path class="st1" d="M19.9,93.1c-0.1-0.4-0.7-0.5-0.9-0.1c-0.2,0.5-0.1,1.1-0.1,1.6c0,0.4,0.6,0.4,0.7,0.1
			C19.8,94.2,20,93.6,19.9,93.1z"/>
		<path class="st1" d="M23.8,100.5c-0.2-0.5-0.9-0.1-0.7,0.3c0.1,0.3,0.2,0.6,0.3,0.9c0.1,0.3,0.7,0.4,0.6,0
			C24,101.2,23.9,100.9,23.8,100.5z"/>
		<path class="st1" d="M23.1,110.2c0-0.4-0.2-0.8-0.4-1.2c-0.3-0.5-1.1-0.1-0.8,0.4c0.2,0.3,0.3,0.7,0.5,1
			C22.6,110.9,23.1,110.6,23.1,110.2z"/>
		<path class="st1" d="M31.4,121.1c-0.1-0.4-0.4-0.7-0.6-1.1c-0.2-0.4-0.9-0.1-0.7,0.3c0.2,0.4,0.4,0.9,0.8,1.2
			C31.2,121.8,31.6,121.4,31.4,121.1z"/>
		<path class="st1" d="M31.3,130.3c-0.4-0.5-0.8-0.9-1.2-1.3c-0.3-0.3-0.9,0.1-0.5,0.5c0.5,0.5,0.8,1,1.4,1.3
			C31.2,130.9,31.4,130.5,31.3,130.3z"/>
		<path class="st1" d="M38.7,130.7c-0.1-0.1-0.2-0.2-0.3-0.3c-0.3-0.4-1,0.2-0.5,0.6c0.2,0.2,0.4,0.3,0.7,0.3
			C38.8,131.3,38.9,130.9,38.7,130.7z"/>
		<path class="st0" d="M13.1,97.5c-0.1-0.5-0.8-0.4-0.7,0.1c0,0.2,0,0.4,0,0.5c0,0.2,0,0.3,0,0.5c-0.1,0.3,0.3,0.6,0.5,0.3
			c0.1-0.2,0.2-0.4,0.3-0.6C13.2,98.1,13.2,97.8,13.1,97.5z"/>
		<path class="st0" d="M15.5,109.7c0-0.5-0.9-0.4-0.9,0c0,0.4,0,0.7,0.1,1.1c0.1,0.3,0.6,0.3,0.7,0
			C15.5,110.4,15.5,110.1,15.5,109.7z"/>
		<path class="st0" d="M15.3,118.7c-0.2-0.5-1-0.2-0.8,0.3c0.1,0.4,0.2,0.8,0.4,1.2c0.1,0.3,0.6,0.2,0.6-0.1
			C15.5,119.5,15.4,119.1,15.3,118.7z"/>
		<path class="st0" d="M21.3,126c-0.1-0.5-0.3-0.9-0.4-1.3c-0.1-0.2-0.4-0.3-0.6-0.2c-0.2,0.1-0.3,0.4-0.2,0.6
			c0.2,0.4,0.3,0.9,0.7,1.2C20.9,126.5,21.4,126.4,21.3,126z"/>
		<path class="st0" d="M25.9,134.9c-0.1-0.6-0.4-1.1-0.7-1.5c-0.1-0.2-0.4-0.2-0.6-0.1c-0.2,0.2-0.2,0.4-0.1,0.6
			c0.3,0.4,0.5,0.8,0.8,1.2C25.5,135.5,25.9,135.2,25.9,134.9z"/>
		<path class="st7" d="M38.1,121.6c-0.6-0.5-1.4-0.8-2.1-1.2c-0.3-0.2-0.6,0.2-0.3,0.4c0.7,0.5,1.4,0.9,2.2,1.2
			C38.1,122.2,38.3,121.8,38.1,121.6z"/>
		<path class="st7" d="M38.7,123.4c-0.3-0.2-0.5-0.3-0.9-0.4c-0.4-0.1-0.6,0.4-0.2,0.6c0.3,0.1,0.6,0.2,0.9,0.3
			C38.7,123.9,38.8,123.6,38.7,123.4z"/>
		<path class="st7" d="M41,123.9c-0.1-0.2-0.2-0.3-0.4-0.4c-0.4-0.2-0.8,0.4-0.4,0.6c0.2,0.1,0.3,0.2,0.5,0.3
			C40.9,124.5,41.1,124.2,41,123.9z"/>
		<path class="st7" d="M31.1,113c-0.2-0.3-0.4-0.6-0.7-0.9c-0.2-0.3-0.7,0.1-0.4,0.4c0.2,0.3,0.5,0.6,0.8,0.8
			C30.9,113.5,31.2,113.2,31.1,113z"/>
	</g>
	<g>
		<path class="st0" d="M136.7,95.3c0,0-1.8,9.9-4.6,12.7c0,0,1,0.2,2.5-0.3c0,0-4.9,7.1-8.9,8.5c0,0,0.5,1.7,2,1.5
			c0,0-4.5,3.6-8.7,5.4c-4.2,1.8-3.5,5.3-0.6,6.5c0,0-3.4,3.8-2.4,6.1c1,2.3,3.6,1.9,3.6,1.9s-1.7,3.5,2.8,3.8
			c4.5,0.4,8.5-3.1,8.5-3.1s0.2,0.1-1,1.7c0,0,5.5,0.2,9.3-6.8c0,0-0.3,1.2-0.6,2.8c0,0,9.2-4.6,9.8-18.8c0,0,0.5,0.6,1,2.2
			c0,0,4-10.2,0.6-19.9C146.7,90.2,138,89,136.7,95.3z"/>
		<path class="st1" d="M130.9,138.2c0,0-4,3.5-8.5,3.1c-1.3-0.1-2-0.5-2.5-0.9c0.4-0.1,0.8-0.2,1.2-0.4c1-0.3,2-0.5,3-1
			c0.7-0.4,1.5-0.8,2.2-1.1c1.4-0.6,2.8-1.6,3.7-2.9c0.5-0.7,1-1.4,1.5-2.2c0.1-0.2,0.4-0.7,0.6-0.7c0.2,0.5,0.2,1.1,0.3,1.6
			c0.3-0.1,0.6-0.6,0.7-0.7c0.3-0.2,0.5-0.5,0.6-0.8c0.4-0.7,0.8-1.4,1.4-2.1c0.5-0.6,0.9-1.2,1.3-1.8c1.1-1.6,2.2-3.3,3-5.1
			c0.2-0.5,0.3-1.2,0.6-1.6c0-0.1,0.1-0.2,0.2-0.2c0.1,0.2,0.3,0.4,0.3,0.6c0.1,0.2,0.1,0.5,0.2,0.8c0.1-0.1,0.1-0.2,0.2-0.3
			c0.3-0.5,0.5-1,0.7-1.6c0.3-1.1,0.6-2.2,0.9-3.3c0.2-0.7,0.5-1.5,0.7-2.2c0.6-1.9,1.4-3.8,1.6-5.8c0.1-0.7,0-1.3,0-2
			c0-0.1,0-0.2,0-0.3c0.6,0.4,0.8,1.1,1.2,1.7c0-1-0.1-2-0.1-3.1c0-2,0.1-4,0.1-6.1c0-2.1-0.4-4.2-1-6.3c-0.1-0.3-0.2-0.7-0.3-1
			c2,1.3,3.9,3.5,5,6.8c3.4,9.7-0.6,19.9-0.6,19.9c-0.6-1.6-1-2.2-1-2.2c-0.5,14.2-9.8,18.8-9.8,18.8c0.4-1.7,0.6-2.8,0.6-2.8
			c-3.7,7.1-9.3,6.8-9.3,6.8C131.1,138.2,130.9,138.2,130.9,138.2z"/>
		<path class="st1" d="M142,97.1c0.1-0.4,0.7-0.4,0.9,0c0.1,0.5,0,1.1-0.1,1.6c-0.1,0.4-0.7,0.3-0.7,0C142,98.1,141.9,97.6,142,97.1
			z"/>
		<path class="st1" d="M137.4,104c0.2-0.5,0.9,0,0.7,0.4c-0.2,0.3-0.3,0.6-0.4,0.9c-0.1,0.3-0.7,0.3-0.6-0.1
			C137.1,104.8,137.2,104.4,137.4,104z"/>
		<path class="st1" d="M137.2,113.8c0.1-0.4,0.2-0.8,0.5-1.1c0.3-0.5,1.1,0,0.8,0.5c-0.2,0.3-0.4,0.6-0.6,0.9
			C137.6,114.5,137.1,114.2,137.2,113.8z"/>
		<path class="st1" d="M127.8,123.8c0.2-0.4,0.5-0.7,0.7-1c0.3-0.4,0.9,0,0.7,0.4c-0.2,0.4-0.5,0.8-0.9,1.1
			C127.9,124.5,127.6,124.1,127.8,123.8z"/>
		<path class="st1" d="M127,132.9c0.4-0.4,0.9-0.8,1.3-1.1c0.4-0.3,0.8,0.2,0.5,0.5c-0.5,0.4-0.9,0.9-1.6,1.1
			C127,133.5,126.9,133.1,127,132.9z"/>
		<path class="st1" d="M119.6,132.7c0.1-0.1,0.3-0.2,0.4-0.3c0.4-0.4,1,0.3,0.5,0.6c-0.2,0.1-0.4,0.2-0.7,0.2
			C119.5,133.2,119.4,132.8,119.6,132.7z"/>
		<path class="st0" d="M148.4,102.1c0.2-0.5,0.9-0.3,0.7,0.2c0,0.2,0,0.4-0.1,0.5c0,0.2,0,0.3,0,0.5c0,0.3-0.4,0.5-0.5,0.2
			c-0.1-0.2-0.2-0.4-0.2-0.7C148.2,102.7,148.3,102.4,148.4,102.1z"/>
		<path class="st0" d="M144.8,114c0.1-0.5,0.9-0.4,0.8,0.1c-0.1,0.4-0.1,0.7-0.2,1.1c-0.1,0.3-0.6,0.2-0.7-0.1
			C144.7,114.7,144.8,114.4,144.8,114z"/>
		<path class="st0" d="M144.1,123c0.2-0.4,1-0.1,0.8,0.3c-0.2,0.4-0.3,0.8-0.5,1.2c-0.2,0.3-0.6,0.2-0.6-0.2
			C143.8,123.8,143.9,123.4,144.1,123z"/>
		<path class="st0" d="M137.4,129.7c0.1-0.4,0.4-0.8,0.6-1.2c0.1-0.2,0.4-0.3,0.6-0.2c0.2,0.1,0.3,0.4,0.2,0.6
			c-0.2,0.4-0.4,0.8-0.8,1.1C137.7,130.2,137.3,130,137.4,129.7z"/>
		<path class="st0" d="M132,138.1c0.2-0.6,0.5-1,0.9-1.5c0.2-0.2,0.5-0.2,0.6,0c0.2,0.2,0.1,0.4,0,0.6c-0.3,0.4-0.6,0.8-1,1.2
			C132.3,138.7,131.9,138.4,132,138.1z"/>
		<path class="st7" d="M121.1,123.7c0.7-0.5,1.5-0.6,2.2-1c0.3-0.2,0.6,0.3,0.3,0.5c-0.7,0.4-1.5,0.7-2.3,1
			C121,124.2,120.9,123.8,121.1,123.7z"/>
		<path class="st7" d="M120.4,125.4c0.3-0.2,0.6-0.3,0.9-0.3c0.4-0.1,0.6,0.5,0.2,0.6c-0.3,0.1-0.6,0.1-1,0.2
			C120.3,125.9,120.2,125.5,120.4,125.4z"/>
		<path class="st7" d="M118,125.7c0.1-0.2,0.3-0.3,0.5-0.4c0.4-0.2,0.8,0.4,0.4,0.6c-0.2,0.1-0.3,0.2-0.5,0.2
			C118.1,126.2,117.9,125.9,118,125.7z"/>
		<path class="st7" d="M129,115.8c0.2-0.3,0.5-0.6,0.8-0.8c0.3-0.3,0.7,0.1,0.4,0.4c-0.3,0.3-0.5,0.5-0.8,0.8
			C129.1,116.3,128.8,116,129,115.8z"/>
	</g>
	<g>
		<path class="st1" d="M43.6,178.3c-0.6-0.8-1.5-1.4-2.2-2.1c-0.4-0.5-1.1,0.2-0.7,0.7c0.7,0.7,1.4,1.3,2.2,1.9
			C43.3,179.1,43.9,178.7,43.6,178.3z"/>
		<path class="st1" d="M55.7,187c-0.5-0.3-0.9-0.5-1.4-0.7c-0.5-0.3-1,0.5-0.5,0.8c0.5,0.3,1.1,0.5,1.6,0.6
			C55.8,187.7,56,187.2,55.7,187z"/>
		<path class="st7" d="M52.7,176.6c-1-0.4-2.4-0.6-3.5-0.6c-0.4,0-0.5,0.6-0.1,0.7c0.6,0.1,1.1,0.1,1.7,0.2c0.6,0.1,1.2,0.3,1.8,0.3
			C52.8,177.2,53,176.7,52.7,176.6z"/>
		<path class="st7" d="M54.5,177.9c-0.5-0.3-1-0.5-1.5-0.6c-0.5-0.1-0.7,0.6-0.2,0.7c0.5,0.1,1,0.3,1.5,0.4
			C54.6,178.6,54.7,178.1,54.5,177.9z"/>
		<path class="st7" d="M58.4,179.9c-0.2-0.4-0.5-0.6-0.8-0.9c-0.3-0.3-0.9,0.2-0.5,0.5c0.3,0.3,0.6,0.6,0.9,0.8
			C58.2,180.5,58.6,180.1,58.4,179.9z"/>
		<path class="st7" d="M37,168.2c-0.4-0.3-0.9-0.5-1.4-0.8c-0.5-0.2-0.8,0.4-0.4,0.7c0.5,0.2,0.9,0.5,1.4,0.6
			C37,168.8,37.3,168.4,37,168.2z"/>
		<path class="st7" d="M38.4,169c0,0-0.1,0-0.1-0.1c-0.3-0.1-0.6,0-0.6,0.4s0.3,0.5,0.6,0.4c0,0,0.1,0,0.1-0.1
			C38.7,169.5,38.7,169.1,38.4,169z"/>
	</g>
	<g>
		<path class="st1" d="M130.1,171c0.4-0.8,0.8-1.4,1.4-2.1c0.4-0.5,1.1,0.1,0.7,0.6c-0.5,0.6-0.9,1.3-1.4,1.9
			C130.5,171.7,130,171.3,130.1,171z"/>
		<path class="st1" d="M128.9,181c0.3-0.8,1-1.3,1.7-1.7c0.4-0.2,0.8,0.5,0.4,0.7c-0.6,0.3-1.1,0.8-1.5,1.3
			C129.2,181.7,128.7,181.4,128.9,181z"/>
		<path class="st1" d="M117.3,179.9c0.6-0.9,1.4-1.5,2-2.3c0.4-0.5,1.1,0.1,0.7,0.6c-0.6,0.8-1.3,1.4-2.1,2.1
			C117.7,180.7,117,180.4,117.3,179.9z"/>
		<path class="st7" d="M108.1,178.8c1-0.5,2.3-0.8,3.4-0.8c0.4,0,0.6,0.6,0.1,0.7c-0.5,0.1-1.1,0.2-1.6,0.4
			c-0.6,0.1-1.1,0.4-1.7,0.4C108,179.5,107.8,179,108.1,178.8z"/>
		<path class="st7" d="M106.4,180.3c0.5-0.3,0.9-0.6,1.5-0.7c0.4-0.1,0.7,0.6,0.2,0.7c-0.5,0.1-1,0.3-1.5,0.5
			C106.3,181,106.1,180.5,106.4,180.3z"/>
		<path class="st7" d="M102.6,182.5c0.2-0.4,0.5-0.7,0.8-1c0.3-0.4,0.9,0.1,0.6,0.5c-0.3,0.3-0.5,0.7-0.9,0.9
			C102.8,183.1,102.5,182.8,102.6,182.5z"/>
		<path class="st7" d="M123.2,169.4c0.4-0.4,0.8-0.6,1.3-0.9c0.4-0.3,0.9,0.4,0.4,0.6c-0.5,0.3-0.9,0.6-1.4,0.7
			C123.2,170,122.9,169.6,123.2,169.4z"/>
		<path class="st7" d="M121.8,170.3c0,0,0.1,0,0.1-0.1c0.3-0.1,0.6,0,0.6,0.3c0,0.3-0.3,0.5-0.6,0.4c0,0-0.1,0-0.1,0
			C121.6,170.8,121.6,170.4,121.8,170.3z"/>
	</g>
	<path class="st1" d="M115.2,87.5c8.3-3.7,16.6-30.2-34.1-29.9C30.4,57.8,36.2,77.4,39.8,83c3.6,5.6,26,0.6,42.2,0.8
		C98.2,84,105.7,91.8,115.2,87.5z"/>
	<path class="st6" d="M113.4,85.8c7.8-3.2,15.8-26.1-32.4-26C32.8,60,38.4,77,41.8,81.8c3.4,4.9,24.7,0.5,40.1,0.7
		C97.3,82.8,104.4,89.5,113.4,85.8z"/>
	<path class="st1" d="M132.4,54.5c-0.6-0.9-1.7-1.5-2.9-1.7c-0.7-0.1-1.5-0.1-2.3-0.1c-0.7,0-1.4,0.1-2.1,0.3
		c-0.8,0.3-1.6,1.1-1.8,1.9c-0.2,0.9,0.3,1.9,1.1,2.5c0.7,0.6,1.7,0.9,2.6,1.1c0.8,0.2,1.6,0.2,2.4,0.2c0.8-0.1,1.4-0.4,2.2-0.6
		c1.3-0.4,1.4-2.3,0.9-3.3C132.5,54.7,132.5,54.6,132.4,54.5z"/>
	<path class="st1" d="M132.3,53.6c-0.6-0.9-1.7-1.5-2.9-1.7c-0.7-0.1-1.5-0.1-2.3-0.1c-0.7,0.1-1.4,0.1-2.1,0.3
		c-0.8,0.3-1.6,1.1-1.8,1.9c-0.2,0.9,0.3,1.9,1.1,2.5c0.7,0.6,1.7,0.9,2.6,1.1c0.8,0.2,1.6,0.2,2.4,0.2c0.8-0.1,1.4-0.4,2.2-0.6
		c1.3-0.4,1.4-2.3,0.9-3.3C132.5,53.8,132.4,53.7,132.3,53.6z"/>
	<path class="st1" d="M38.3,53.9c-0.8-0.8-2-1.1-3.1-1.1c-0.8,0-1.5,0.2-2.2,0.4c-0.7,0.2-1.4,0.3-2,0.7c-0.8,0.5-1.3,1.4-1.3,2.3
		c0,1,0.7,1.8,1.6,2.2c0.8,0.4,1.8,0.5,2.8,0.5c0.8,0,1.6-0.1,2.4-0.3c0.7-0.2,1.3-0.7,2-1c1.2-0.6,0.9-2.6,0.2-3.4
		C38.4,54,38.4,53.9,38.3,53.9z"/>
	<path class="st1" d="M38.1,52.9c-0.8-0.8-2-1.1-3.1-1.1c-0.8,0-1.5,0.2-2.2,0.4c-0.7,0.2-1.4,0.3-2,0.7c-0.8,0.5-1.3,1.4-1.3,2.3
		c0,1,0.7,1.8,1.6,2.2c0.8,0.4,1.8,0.5,2.8,0.5c0.8,0,1.6-0.1,2.4-0.3c0.7-0.2,1.3-0.7,2-1c1.2-0.6,0.9-2.6,0.2-3.4
		C38.3,53,38.2,52.9,38.1,52.9z"/>
	<path class="st6" d="M57.4,46.2c-3.8,0.5-9.2-3.5-7.7-7.7c0.2-0.6,1.1-0.7,1.3,0c0.9,3.2,2.2,5.5,5.9,5.8c3.6,0.2,5.8-2.6,5.8-5.9
		c0-1.3,2-1.3,2,0C64.6,42.8,61.9,45.6,57.4,46.2z"/>
	<path class="st6" d="M104.2,46.2c3.8,0.5,9.2-3.5,7.8-7.7c-0.2-0.6-1.1-0.7-1.3,0c-0.9,3.2-2.2,5.5-5.9,5.8
		c-3.6,0.2-5.8-2.6-5.8-5.9c0-1.3-2-1.3-2,0C97,42.8,99.7,45.6,104.2,46.2z"/>
	<path class="st10" d="M79.4,44.7c-3.4,1-4.7,8.1-3.4,10.2c1.4,2.1,8.4,1.6,9.8,0.4C87.2,54,85.6,43,79.4,44.7z"/>
	<path class="st0" d="M79.4,44c-3.4,1-4.7,8.1-3.4,10.2c1.4,2.1,8.4,1.6,9.8,0.4C87.2,53.4,85.6,42.3,79.4,44z"/>
	<path class="st3" d="M86.2,53.5C85,53.2,83.2,53,83,53c-2.5-0.1-4.8,0.3-7.2,0.8c-0.1-0.4-0.2-0.9-0.3-1.4
		c3.4-1.2,7.2-1.5,10.7-0.6C86.3,52.4,86.3,53,86.2,53.5z M76,48.2c1.7-0.3,3.3-0.6,5-0.5c0.9,0,1.7,0.1,2.6,0.3
		c0.4,0.1,0.7,0.2,1.1,0.3c1,0.3,0.9,0.7,0.9,0.4c0,0.2,0,0.3,0.2,0.4c-0.3-1-0.7-2-1.3-2.9c-0.8-0.2-1.6-0.2-2.3-0.3
		c-1.8-0.1-3.6,0-5.3,0.5C76.5,46.9,76.2,47.6,76,48.2z"/>
	<path class="st1" d="M78.9,47.2c0.2-0.9,0.6-1.9,1.2-2.7c0.2-0.3,0.4-0.5,0.6-0.6c-0.4,0-0.8,0.1-1.3,0.2c-3.4,1-4.7,8.1-3.4,10.2
		c0.7,1.1,2.9,1.5,5,1.4c-1-1.8-1.5-3.8-2-5.8C78.7,48.9,78.7,48.2,78.9,47.2z"/>
	<g>
		<path class="st10" d="M79.4,51.4c-1.3,0.2-2.6,0.5-3.9,0.9v0c0,0.1,0,0.3,0,0.4c0,0,0,0,0,0c0,0.1,0,0.2,0.1,0.3c0,0,0,0,0,0.1
			c0,0.1,0,0.2,0.1,0.3c0,0,0,0,0,0.1c0,0.1,0.1,0.2,0.1,0.3c1.4-0.3,2.7-0.5,4.1-0.7C79.7,52.5,79.6,52,79.4,51.4z"/>
		<path class="st10" d="M78.9,47.2c0.1-0.4,0.2-0.8,0.4-1.2c-0.8,0.1-1.7,0.2-2.5,0.4l0,0c-0.2,0.3-0.3,0.6-0.4,0.9c0,0,0,0,0,0
			c-0.1,0.3-0.2,0.6-0.3,0.9c0.9-0.2,1.8-0.3,2.8-0.4C78.8,47.6,78.9,47.4,78.9,47.2z"/>
	</g>
	<g>
		<path class="st1" d="M75.9,6c-0.9-0.1-1.8-0.1-2.8,0c-0.5,0.1-0.5,0.9,0,1c0.9,0.2,1.8,0.2,2.8,0C76.5,7,76.5,6.1,75.9,6z"/>
		<path class="st1" d="M71,14.9c-0.7,0.6-1.5,1.1-2.3,1.5c-0.4,0.2-0.2,0.8,0.2,0.8c0.6,0,1.1-0.1,1.6-0.4c0.5-0.3,1-0.7,1.3-1.2
			C72.1,15,71.4,14.5,71,14.9z"/>
		<path class="st1" d="M57.6,15.1c-0.1-0.2-0.4-0.4-0.6-0.3c-0.6,0.3-1.2,0.6-1.7,1.1c-0.3,0.4,0.1,1,0.6,0.7c0.5-0.3,1-0.6,1.5-1
			C57.6,15.5,57.7,15.3,57.6,15.1z"/>
		<path class="st1" d="M39.7,23.6c-0.3,0.3-0.5,0.7-0.9,1c-0.3,0.3-0.8,0.5-1.2,0.7c-0.3,0.3,0,0.7,0.3,0.7c1,0,2.2-1.1,2.4-2.1
			C40.4,23.6,40,23.3,39.7,23.6z"/>
		<path class="st1" d="M52.6,25.4c-0.8,0.6-1.6,1.3-2.4,1.8c-0.4,0.3-0.1,1,0.3,0.8c1-0.4,2-0.9,2.7-1.8
			C53.7,25.8,53.2,25.1,52.6,25.4z"/>
		<path class="st1" d="M42,36c-0.1,0.4-0.2,0.7-0.3,1.1c-0.1,0.4-0.4,0.8-0.4,1.2c-0.1,0.5,0.4,0.8,0.8,0.5c0.7-0.6,0.8-1.7,0.9-2.6
			C43.1,35.5,42.1,35.4,42,36z"/>
		<path class="st1" d="M32.9,36.7c-0.1,0.3-0.3,0.7-0.5,0.9c-0.2,0.3-0.5,0.6-0.7,0.9c-0.2,0.3,0.2,0.9,0.5,0.7
			c1-0.4,1.5-1.4,1.6-2.4C33.8,36.3,33,36.3,32.9,36.7z"/>
		<path class="st1" d="M25.6,47.5c-0.1,0.8-0.5,1.3-0.9,2c-0.2,0.4,0.2,0.9,0.6,0.6c0.8-0.6,1.2-1.7,1.3-2.6
			C26.7,46.8,25.6,46.9,25.6,47.5z"/>
		<path class="st1" d="M43.4,49.6c-0.1-0.5-0.9-0.4-0.9,0.1c0,0.6-0.2,1.2-0.4,1.8c-0.2,0.4,0.3,0.9,0.7,0.5
			C43.4,51.3,43.6,50.5,43.4,49.6z"/>
		<path class="st1" d="M33.8,64.9c-0.1-0.6-1.1-0.7-1,0c0.1,0.8-0.1,1.4-0.4,2.1c-0.2,0.4,0.5,0.8,0.8,0.4
			C33.7,66.8,33.9,65.8,33.8,64.9z"/>
		<path class="st1" d="M25.6,66.4c-0.1,0.6-0.3,1.3-0.4,1.9c-0.1,0.5,0.5,0.8,0.8,0.3c0.4-0.7,0.6-1.4,0.6-2.2
			C26.7,65.7,25.7,65.8,25.6,66.4z"/>
		<path class="st1" d="M30,83.8c0,0.6-0.3,1.2-0.4,1.9c-0.1,0.5,0.5,0.8,0.8,0.4c0.5-0.6,0.6-1.4,0.6-2.2
			C31.1,83.1,30.1,83.1,30,83.8z"/>
		<path class="st1" d="M45,85.5c0-0.6-0.9-0.6-1,0c-0.1,0.8,0,1.5,0.4,2.2c0.2,0.3,0.7,0.2,0.7-0.2C45,86.9,44.9,86.2,45,85.5z"/>
		<path class="st1" d="M61.1,50.1c-0.2-0.5-0.8-0.4-0.9,0.1c-0.1,0.8-0.1,1.6-0.2,2.4c-0.1,0.5,0.6,0.9,0.8,0.4
			C61.2,52.1,61.3,51,61.1,50.1z"/>
		<path class="st1" d="M73.5,40.1c-0.1-0.5-0.7-0.6-0.9-0.1c-0.1,0.3-0.1,0.7-0.2,1.1c-0.1,0.4-0.1,0.8-0.1,1.2
			c0.1,0.4,0.7,0.4,0.8,0.1c0.2-0.3,0.2-0.6,0.3-1C73.5,40.9,73.5,40.5,73.5,40.1z"/>
		<path class="st1" d="M68,29.3c-0.2,0.3-0.4,0.6-0.6,1c-0.2,0.4-0.3,0.7-0.3,1.1c0,0.4,0.5,0.6,0.8,0.3c0.3-0.3,0.4-0.6,0.5-1
			c0.1-0.4,0.3-0.7,0.3-1.1C68.8,29.3,68.2,29,68,29.3z"/>
		<path class="st1" d="M80.5,25.5c-0.2,0.8-0.6,1.5-0.7,2.2c-0.1,0.4,0.4,0.8,0.8,0.5c0.6-0.7,0.8-1.7,0.9-2.6
			C81.6,25.1,80.7,25,80.5,25.5z"/>
		<path class="st1" d="M87.9,12.9C87.7,12.4,87,12.5,87,13c0,0.8,0.1,1.7,0,2.5c0,0.5,0.7,0.6,0.9,0.1
			C88.1,14.7,88.2,13.7,87.9,12.9z"/>
		<path class="st1" d="M104,9.8c-0.6-0.9-1.7-1.5-2.8-1.2c-0.4,0.1-0.4,0.7,0,0.8c0.3,0.1,0.7,0.1,1,0.3c0.4,0.2,0.7,0.4,1,0.6
			C103.7,10.6,104.3,10.2,104,9.8z"/>
		<path class="st1" d="M113.9,21.5c-0.5-0.7-1.1-1.3-1.7-1.9c-0.5-0.5-1.2,0.2-0.7,0.7c0.6,0.6,1.2,1.3,1.9,1.7
			C113.7,22.3,114.1,21.8,113.9,21.5z"/>
		<path class="st1" d="M102.5,25.8c-0.1-0.6-0.4-1.1-0.7-1.6c-0.3-0.6-1.2-0.1-0.9,0.5c0.3,0.5,0.5,1.1,0.9,1.5
			C102.1,26.6,102.6,26.2,102.5,25.8z"/>
		<path class="st1" d="M93.5,35.8c0-0.7-1.1-0.7-1.1,0c0,0.8-0.1,1.6,0.1,2.4c0.1,0.4,0.7,0.4,0.9,0C93.6,37.5,93.5,36.6,93.5,35.8z
			"/>
		<path class="st1" d="M104.8,51c0-0.6-0.9-0.6-1,0c0,0.5-0.1,1,0.1,1.5c0,0.1,0,0.1,0.1,0.1c0.1,0.1,0.2,0.1,0.3,0.1
			c0.1,0,0.2,0,0.3-0.1c0,0,0.1-0.1,0.1-0.1C105,52,104.8,51.5,104.8,51z"/>
		<path class="st1" d="M123.8,35c-0.3-0.4-1.1,0.1-0.7,0.6c0.2,0.3,0.4,0.6,0.6,0.9c0.2,0.3,0.6,0.7,1,0.5
			C125.4,36.5,124.1,35.3,123.8,35z"/>
		<path class="st1" d="M128.2,23c-0.5-0.3-1.1,0.5-0.6,0.8c0.4,0.4,0.7,0.8,0.7,1.4c0,0.4,0.6,0.6,0.8,0.2
			C129.6,24.4,129,23.5,128.2,23z"/>
		<path class="st1" d="M139,45.4c-0.5-0.4-1.2,0.3-0.7,0.7c0.4,0.4,0.9,0.9,0.7,1.5c-0.1,0.4,0.4,0.7,0.7,0.4
			C140.5,47.1,139.8,46.1,139,45.4z"/>
		<path class="st1" d="M122.4,50.9c-0.1-0.4-0.3-0.7-0.4-1c-0.2-0.6-1-0.3-0.9,0.2c0.1,0.5,0.3,1,0.7,1.2
			C122.1,51.5,122.5,51.2,122.4,50.9z"/>
		<path class="st1" d="M128.7,66.9c0-0.6-0.9-0.6-0.9,0c0,0.9,0,1.8,0.3,2.6c0.2,0.4,0.8,0.4,0.8-0.1
			C128.8,68.5,128.7,67.7,128.7,66.9z"/>
		<path class="st1" d="M120,83.4c-0.1-0.5-0.2-0.9-0.2-1.4c0-0.6-0.9-0.7-1-0.1c-0.1,0.3-0.1,0.7,0,1c0.1,0.4,0.2,0.7,0.4,1
			C119.5,84.3,120.1,83.8,120,83.4z"/>
		<path class="st1" d="M140.5,62.6c-0.1-0.7-0.2-1.4-0.5-2c-0.2-0.4-0.8-0.4-0.9,0.1c0,0.8,0.3,1.5,0.6,2.2
			C140,63.3,140.6,63,140.5,62.6z"/>
		<path class="st1" d="M137.1,79.3c0-0.6-0.9-0.6-0.9,0c0,0.7-0.1,1.4,0.1,2.1c0.1,0.4,0.7,0.4,0.8,0
			C137.2,80.8,137.1,80,137.1,79.3z"/>
		<path class="st1" d="M150.2,79.5c-0.6-0.2-1,0.7-0.4,1c0.1,0.1,0.2,0.2,0.3,0.4c0.2,0.5,0.9,0.4,0.9-0.1
			C151.1,80.2,150.8,79.7,150.2,79.5z"/>
		<path class="st1" d="M156.3,104c-0.1-0.3-0.4-0.5-0.7-0.4c-0.3,0.1-0.4,0.4-0.4,0.7c0.1,0.7,0.2,1.6,0.7,2.2
			c0.3,0.3,0.8,0,0.8-0.3C156.8,105.4,156.4,104.7,156.3,104z"/>
		<path class="st1" d="M136.6,92.9c-0.1-0.4-0.8-0.4-0.9,0c-0.2,0.6-0.1,1.3,0,2c0.1,0.4,0.7,0.4,0.8,0
			C136.7,94.2,136.7,93.5,136.6,92.9z"/>
		<path class="st1" d="M106.5,87.8c-0.2-0.5-1.1-0.1-0.9,0.4c0.2,0.6,0.4,1.4,0.9,1.9c0.3,0.3,0.8,0.1,0.8-0.3
			C107.2,89,106.8,88.4,106.5,87.8z"/>
		<path class="st1" d="M63.2,88.5c-0.3-0.5-1-0.1-0.8,0.5c0.2,0.4,0,0.8,0,1.3c0,0.3,0.3,0.5,0.6,0.3C63.7,90.1,63.6,89.2,63.2,88.5
			z"/>
		<path class="st1" d="M81.6,86.5c-0.2-0.4-1-0.1-0.8,0.3c0.2,0.4,0.2,0.8,0.3,1.2c0.1,0.4,0.7,0.4,0.8,0C82,87.6,81.9,87,81.6,86.5
			z"/>
		<path class="st1" d="M90.7,89.8c-0.1-0.2-0.2-0.4-0.3-0.6c-0.3-0.4-1.1-0.1-0.9,0.4c0.2,0.4,0.3,0.8,0.7,1.1
			c0.2,0.2,0.7,0.1,0.7-0.3C90.8,90.3,90.8,90,90.7,89.8z"/>
		<path class="st1" d="M148.1,70c-0.2-0.3-0.2-0.6-0.2-0.9c0-0.7-1.1-0.7-1.1,0c0,0.7,0.3,2.1,1.3,2.1c0.2,0,0.4-0.2,0.4-0.4
			C148.4,70.6,148.3,70.3,148.1,70z"/>
		<path class="st0" d="M15.1,62.1c-0.6,0.7-1,1.6-1.3,2.4c-0.2,0.4,0.4,0.6,0.7,0.3c0.5-0.7,1-1.5,1.3-2.3
			C15.9,62.2,15.4,61.9,15.1,62.1z"/>
		<path class="st0" d="M14.1,82.7c-0.1-0.5-1-0.4-0.9,0.1c0.1,0.8,0,1.6-0.2,2.4c-0.1,0.4,0.5,0.8,0.7,0.3
			C14.2,84.6,14.3,83.7,14.1,82.7z"/>
		<path class="st0" d="M9.4,93c-0.1-0.6-1-0.6-0.9,0c0.1,0.6-0.1,1.1-0.4,1.5c-0.2,0.4,0.3,0.7,0.6,0.5C9.3,94.5,9.5,93.7,9.4,93z"
			/>
		<path class="st7" d="M138.5,27.9c-0.8-1.1-2.3-1.7-3.5-2c-0.5-0.1-0.7,0.5-0.3,0.8c0.5,0.3,1.1,0.6,1.7,0.9c0.6,0.3,1.1,0.6,1.6,1
			C138.3,28.7,138.7,28.3,138.5,27.9z"/>
		<path class="st7" d="M138.5,29.3c-0.3-0.2-0.6-0.3-0.9-0.4c-0.5-0.2-0.8,0.7-0.2,0.8c0.3,0.1,0.6,0.2,0.8,0.3
			C138.6,30.1,138.8,29.5,138.5,29.3z"/>
		<path class="st7" d="M143.1,40.8c-0.4-1.3-1.6-2.1-2.7-2.8c-0.3-0.2-0.6,0.3-0.3,0.5c0.9,0.7,1.7,1.6,2.3,2.6
			C142.7,41.4,143.2,41.2,143.1,40.8z"/>
		<path class="st7" d="M144.1,41.7c-0.4-0.3-0.8,0.4-0.4,0.7c0.1,0.1,0.2,0.2,0.2,0.4c0.1,0.3,0.5,0.3,0.6,0
			C144.7,42.4,144.5,42,144.1,41.7z"/>
		<path class="st7" d="M147.9,52.9c-0.7-1.8-1.8-3.5-3.3-4.8c-0.3-0.3-0.8,0.2-0.5,0.5c1.4,1.3,2.1,3,3.1,4.6
			C147.5,53.5,148.1,53.3,147.9,52.9z"/>
		<path class="st7" d="M148.8,54.1c-0.2-0.1-0.5,0-0.6,0.2c-0.1,0.2,0,0.4,0.2,0.6c0.1,0.1,0.2,0.2,0.3,0.3c0.1,0.2,0.6,0.2,0.6-0.1
			C149.3,54.6,149.1,54.3,148.8,54.1z"/>
		<path class="st7" d="M153.5,67.9c-1.5-2.2-2.8-4.5-4.3-6.6c-0.2-0.3-0.8,0-0.6,0.3c1.5,2.1,2.3,5.1,4.3,6.7
			C153.2,68.5,153.8,68.2,153.5,67.9z"/>
		<path class="st7" d="M154.8,70.4c-0.2-0.3-0.4-0.5-0.6-0.8c-0.3-0.3-0.8,0.2-0.5,0.5c0.2,0.3,0.5,0.4,0.8,0.6
			C154.6,70.9,154.9,70.6,154.8,70.4z"/>
		<path class="st7" d="M157.9,85c-0.5-2.3-1.7-4.6-2.7-6.7c-0.2-0.4-0.8-0.1-0.6,0.3c0.9,2.2,1.6,4.6,2.7,6.7
			C157.4,85.7,157.9,85.4,157.9,85z"/>
		<path class="st7" d="M158.3,90.1c0-0.5-0.7-0.6-0.8-0.1c-0.2,0.8,0,1.5,0.3,2.3c0.2,0.4,0.6,0.1,0.6-0.2
			C158.2,91.4,158.3,90.7,158.3,90.1z"/>
		<path class="st7" d="M159,94.5c-0.1-0.5-0.8-0.3-0.7,0.2c0.1,0.3,0.1,0.6,0.2,0.9c0.1,0.3,0.6,0.1,0.6-0.2
			C159.1,95.1,159.1,94.8,159,94.5z"/>
		<path class="st7" d="M129.2,18.8c-0.7-0.7-1.7-1-2.5-1.6c-0.4-0.3-0.7,0.4-0.4,0.6c0.8,0.6,1.7,0.9,2.5,1.4
			C129.2,19.4,129.4,19.1,129.2,18.8z"/>
		<path class="st7" d="M116.5,10.6c-1.1-0.6-2.2-0.9-3.5-0.9c-0.5,0-0.5,0.8,0,0.8c1.1,0,2.2,0.4,3.2,0.8
			C116.6,11.4,116.8,10.8,116.5,10.6z"/>
		<path class="st7" d="M104.6,4.3c-1.7-0.7-3.4-0.7-5.1,0c-0.4,0.2-0.1,0.8,0.3,0.7c1.6-0.6,3-0.4,4.6,0C104.9,5,105,4.5,104.6,4.3z
			"/>
		<path class="st7" d="M108.7,4.3c-0.4-0.1-0.8-0.2-1.2-0.3c-0.4-0.1-0.5,0.7-0.1,0.8c0.4,0.1,0.8,0.1,1.3,0.1
			C109,4.9,109.1,4.4,108.7,4.3z"/>
		<path class="st7" d="M87.8,1.3c-0.9,0.1-1.7,0.4-2.5,0.8c-0.4,0.2,0,0.9,0.4,0.6c0.7-0.4,1.4-0.7,2.2-0.9
			C88.2,1.8,88.1,1.3,87.8,1.3z"/>
		<path class="st7" d="M91.8,3.1c-0.4,0.1-0.7,0.2-1,0.3c-0.5,0.2-0.3,0.9,0.2,0.7c0.4-0.1,0.7-0.2,1.1-0.4
			C92.4,3.6,92.2,3.1,91.8,3.1z"/>
		<path class="st7" d="M76.3,3c-1.1-0.3-2.2-0.5-3.4-0.5c-0.4,0-0.4,0.6,0,0.7c1.1,0.1,2.2,0.4,3.3,0.5C76.5,3.6,76.6,3.1,76.3,3z"
			/>
	</g>
	<path class="st2" d="M126.5,53.7c-0.4-0.2-0.8,0.1-1.1,0.4c-0.3,0.2-0.5,0.6-0.6,1c0,0.3,0.4,0.6,0.6,0.4c0.2-0.2,0.3-0.4,0.6-0.6
		c0.3-0.2,0.6-0.3,0.8-0.6C126.9,54.1,126.8,53.8,126.5,53.7z"/>
	<path class="st2" d="M129.7,53.9c-0.4-0.7-1.3,0-1.7,0.3c-0.5,0.4-1,1-1.3,1.5c-0.2,0.4,0.2,0.8,0.6,0.6c0.6-0.3,1-0.9,1.5-1.3
		C129.1,54.8,130.1,54.5,129.7,53.9z"/>
	<path class="st2" d="M131.4,54.9c-0.1-0.2-0.3-0.3-0.5-0.2c-0.3,0.1-0.5,0.3-0.8,0.5c-0.2,0.2-0.4,0.5-0.5,0.7
		c-0.3,0.5,0.4,1,0.8,0.6c0.3-0.4,0.7-0.7,1-1C131.5,55.3,131.5,55.1,131.4,54.9z"/>
	<path class="st2" d="M32.9,53c-0.5,0.2-0.9,0.4-1.3,0.7c-0.4,0.3-0.9,0.5-1.2,0.9c-0.2,0.2-0.1,0.6,0.2,0.6c0.5-0.1,1-0.4,1.4-0.6
		c0.5-0.3,0.9-0.6,1.2-1C33.5,53.2,33.1,52.9,32.9,53z"/>
	<path class="st2" d="M36.1,53.7c-1.3-0.2-2.6,1.1-3.4,1.9c-0.4,0.4,0.2,1,0.7,0.7c0.5-0.4,1-0.8,1.5-1.1c0.5-0.3,1-0.4,1.5-0.8
		C36.5,54.3,36.4,53.8,36.1,53.7z"/>
	<path class="st2" d="M37.7,54.8c-0.9,0.3-1.5,1-2.2,1.6c-0.4,0.4,0.2,1,0.6,0.6c0.6-0.5,1.3-1,1.9-1.5C38.4,55.2,38,54.7,37.7,54.8
		z"/>
	<path class="st7" d="M22.5,8.3c-1.3,1.4-2.1,3.9-1.4,5.7c0.2,0.5,0.9,0.4,0.9-0.1c0.2-1.8,0.4-3.4,1.3-5
		C23.6,8.4,22.9,7.9,22.5,8.3z"/>
	<path class="st7" d="M22.3,17.1c0-0.2-0.1-0.4-0.1-0.5c0-0.6-0.8-0.7-1-0.1c-0.1,0.5,0,0.9,0.4,1.2C22,17.8,22.4,17.5,22.3,17.1z"
		/>
	<path class="st5" d="M27.6,11.9c-0.4,0.7-1.3,1.7-1,2.5c0.1,0.2,0.4,0.4,0.6,0.2c0.3-0.3,0.4-0.7,0.5-1.1c0.2-0.4,0.4-0.8,0.6-1.2
		C28.6,11.7,27.9,11.5,27.6,11.9z"/>
	<path class="st5" d="M27.6,14.5c-0.3,0.6-0.6,1.2-0.5,1.8c0,0.4,0.6,0.4,0.8,0.1c0.2-0.5,0.3-1,0.5-1.5
		C28.6,14.4,27.9,14,27.6,14.5z"/>
	<path class="st5" d="M28.5,16.8c-0.2,0-0.5,0.2-0.5,0.5c0,0.1,0,0.3-0.1,0.4c-0.1,0.3,0.3,0.6,0.5,0.4c0.3-0.2,0.5-0.5,0.4-0.8
		C28.9,17,28.7,16.8,28.5,16.8z"/>
	<g>
		<path class="st9" d="M36.3,104.6c-0.7-0.3-1.2,0.2-1.7,0.7c-0.6,0.6-1.2,1.2-1.7,1.8c-0.4,0.5,0.3,1.3,0.8,0.8
			c0.5-0.5,1-1,1.5-1.5c0.2-0.2,0.5-0.4,0.7-0.6c0.1-0.1,0.3-0.2,0.4-0.3c0-0.1,0.1-0.1,0-0.1C36.6,105.2,36.7,104.7,36.3,104.6z"/>
		<path class="st9" d="M37,105.2c-1.3,1.7-3.2,2.6-4.5,4.2c-0.4,0.5,0.2,1.1,0.7,0.7c1.6-1.4,3.7-2.4,4.7-4.4
			C38.1,105.2,37.4,104.8,37,105.2z"/>
		<path class="st9" d="M57.9,130.4c-0.4-0.4-1.1,0-1.5,0.2c-0.6,0.3-1.4,0.7-1.9,1.2c-0.4,0.4,0.1,1,0.6,0.7c0.6-0.3,1.2-0.7,1.8-1
			c0.4-0.2,0.9-0.4,1.1-0.8C58.1,130.7,58,130.5,57.9,130.4z"/>
		<path class="st9" d="M59.6,132.3c-2.3,1.1-4.7,2.6-6.5,4.3c-0.4,0.4,0.2,0.9,0.6,0.6c2-1.6,4.4-2.6,6.4-4.1
			C60.6,132.8,60.2,132.1,59.6,132.3z"/>
		<path class="st9" d="M80.4,174.8c-1.8,0.3-3.6,1.5-4.9,2.6c-0.5,0.4,0.1,1,0.6,0.8c0.8-0.4,1.6-0.9,2.3-1.3
			c0.8-0.4,1.6-0.8,2.4-1.2C81.2,175.3,80.9,174.7,80.4,174.8z"/>
		<path class="st9" d="M83,175.8c-0.9,0.5-1.8,1.1-2.8,1.7c-0.6,0.3-0.1,1.2,0.5,0.9c1-0.5,1.9-1.2,2.8-1.9
			C83.9,176.2,83.4,175.6,83,175.8z"/>
		<path class="st9" d="M121.1,149.6c-1.4,0.5-2.6,1.4-3.7,2.3c-0.5,0.4,0.1,1.2,0.7,0.9c1.2-0.7,2.5-1.4,3.6-2.3
			C122,150.2,121.6,149.4,121.1,149.6z"/>
		<path class="st9" d="M118.5,114.9c-0.9,0-1.7,0.7-2.4,1.2c-0.9,0.7-1.8,1.5-2.7,2.1c-0.4,0.2-0.1,0.9,0.3,0.7
			c0.9-0.4,1.6-0.9,2.3-1.5c0.9-0.7,1.9-1.1,2.8-1.7C119.1,115.5,119,114.9,118.5,114.9z"/>
		<path class="st9" d="M121.9,115.7c-1.6,0.6-2.8,1.8-4.3,2.5c-0.5,0.3-0.1,1,0.5,0.8c1.5-0.6,2.9-1.6,4.2-2.5
			C122.6,116.2,122.3,115.5,121.9,115.7z"/>
		<path class="st9" d="M82.2,100.3c-0.7,0-1.3,0.5-1.8,0.9c-0.7,0.5-1.5,0.9-2.3,1.3c-0.3,0.1-0.2,0.6,0.2,0.6
			c0.8-0.1,1.5-0.4,2.2-0.7c0.7-0.4,1.7-0.7,2.2-1.4C82.8,100.6,82.5,100.3,82.2,100.3z"/>
		<path class="st9" d="M83.8,101.6c-1,0.6-1.8,1.5-2.8,2.2c-0.5,0.4,0,1.2,0.5,0.9c1-0.7,2.2-1.4,2.8-2.5
			C84.5,101.8,84.1,101.4,83.8,101.6z"/>
	</g>
	<g>
		<path class="st2" d="M110,122.3c-0.8-0.3-1.6-0.1-2.5-0.1c-1,0-1.9,0.1-2.9,0.3c-0.8,0.2-0.7,1.5,0.2,1.5c0.9,0,1.8,0,2.7,0
			c0.9,0,1.8,0.2,2.7-0.3C110.8,123.4,110.6,122.5,110,122.3z"/>
		<path class="st2" d="M106.8,111.8c-0.7,0.4-1.1,1.1-1.6,1.7c-0.6,0.7-1.2,1.3-1.6,2.1c-0.4,0.7,0.5,1.4,1.1,0.9
			c0.6-0.5,1.2-1.1,1.7-1.7c0.6-0.6,1.3-1.3,1.5-2.1C108,112,107.4,111.4,106.8,111.8z"/>
		<path class="st2" d="M108.4,131.5c-0.9-1.3-2.2-2.7-3.7-3.1c-0.7-0.2-1.2,0.9-0.5,1.2c1.4,0.7,2,2.2,3.3,2.8
			C108,132.7,108.9,132.1,108.4,131.5z"/>
	</g>
	<g>
		<path class="st2" d="M56.3,121.5c-1-0.1-2,0.1-3,0.1c-1.1,0-2.2,0.1-3.3,0.4c-1,0.2-0.5,1.6,0.4,1.5c2-0.3,4.5,0.5,6.3-0.6
			C57.3,122.4,57,121.6,56.3,121.5z"/>
		<path class="st2" d="M55,114.9c-1.2-1-2.6-1.8-3.9-2.6c-0.8-0.5-1.4,0.7-0.7,1.2c1.3,0.9,2.5,1.9,4,2.5
			C55,116.4,55.5,115.4,55,114.9z"/>
		<path class="st2" d="M55.3,127.9c-1,1.1-1.8,2.3-2.7,3.6c-0.6,0.8,0.8,1.6,1.3,0.8c0.8-1.2,1.7-2.3,2.4-3.5
			C56.8,128,55.9,127.3,55.3,127.9z"/>
	</g>
	<text transform="matrix(1 0 0 1 32.2588 157.1934)" class="st3 st12 st13"> Essaie encore</text>
	<text transform="matrix(1 0 0 1 64.2651 129.7168)" class="st2 st12 st11">oups</text>
	<path class="st4" d="M121.9,10.6c0.6-0.8,1.2-1.5,1.9-2.2c1.6-1.6,3.4-3,5.4-4.1c1.6-0.9,3.3-1.7,5.2-2c3.5-0.6,6.9,0.4,9.5,2.8
		c1.5,1.4,2.6,3.1,3.2,5c1.2,3.4,0.9,7.3-0.6,10.6c-0.9,2-2.2,3.8-3.8,5.2c-1.4,1.3-3.3,2.9-5.3,3.3c-1.4,0.3-2.7,0.7-4.2,0.7
		c-3.6,0.1-7.6-1.4-10.3-3.7c-1.1-0.9-2.3-2-2.9-3.3c-0.3-0.6-0.4-1.3-0.5-1.9c-0.2-1-0.5-2-0.6-3c-0.2-1.7,0.1-3.8,1.2-5.2
		c0.6-0.8,1.2-1.5,1.8-2.2C121.7,10.7,121.8,10.6,121.9,10.6z"/>
	<path class="st1" d="M119.9,13c0.6-0.8,1.2-1.5,1.8-2.2c0.1-0.1,0.1-0.2,0.2-0.2c0.6-0.8,1.2-1.5,1.9-2.2c1.6-1.6,3.4-3,5.4-4.1
		c1.6-0.9,3.3-1.7,5.2-2c3.5-0.6,6.9,0.4,9.5,2.8c0,0,0,0,0,0c-0.8,0-1.6,0.2-2.4,0.3c-1.5,0.6-2.9,1.4-4.2,2.5c-1,0.9-2,1.7-3,2.7
		c-1.4,1.4-2.4,2.9-3.1,4.8c-0.8,2.3-0.3,4.8,0.4,7.1c0.5,1.6,1.2,2.8,2.4,4c0.5,0.5,1,0.9,1.5,1.3c0.7,0.4,1.5,0.5,2.3,0.6
		c0.4,0.1,0.9,0.1,1.2,0.4c-0.5,0.2-1,0.4-1.5,0.5c-1.4,0.3-2.7,0.7-4.2,0.7c-3.6,0.1-7.6-1.4-10.3-3.7c-1.1-0.9-2.3-2-2.9-3.3
		c-0.3-0.6-0.4-1.3-0.5-1.9c-0.2-1-0.5-2-0.6-3C118.5,16.6,118.8,14.4,119.9,13z"/>
	<path class="st1" d="M122.7,18.5c0.1-1,0.5-1.9,1.1-2.7c0.6-0.6,1.3-1.2,1.9-1.8c1.4-1.2,2.8-2.5,4.5-3.4c0.5-0.3,1.1-0.6,1.6-0.9
		c0.8-0.4,1.6-0.5,2.6-0.6c1.5-0.2,2.6-0.3,4,0.3c0.9,0.4,1.6,0.8,2.2,1.6c0.7,0.9,1.3,2,1.3,3.2c0,1-0.2,2-0.5,3
		c-0.4,1.3-1.3,2.3-1.9,3.4c-1.3,2.1-3.3,3.5-5.4,4.8c-1.2,0.8-2.3,0.7-3.7,0.5c-1.3-0.2-2.7-0.4-3.9-0.9c-1.6-0.7-2.9-1.8-3.6-3.4
		c-0.3-0.8-0.3-1.6-0.4-2.4c-0.1-0.2-0.1-0.4-0.1-0.5C122.6,18.2,122.5,18.6,122.7,18.5z"/>
	<path class="st10" d="M123,21.5c-0.3-0.8-0.3-1.6-0.4-2.4c-0.1-0.2-0.1-0.4-0.1-0.5c0.1-0.4,0,0,0.2-0.1c0.1-1,0.5-1.9,1.1-2.7
		c0.6-0.6,1.3-1.2,1.9-1.8c1.4-1.2,2.8-2.5,4.5-3.4c0.5-0.3,1.1-0.6,1.6-0.9c0.8-0.4,1.6-0.5,2.6-0.6c0.4-0.1,0.8-0.1,1.2-0.1
		c-1.6,1.6-2.9,3.4-4.3,5.2c-1.1,1.4-1.7,3.2-1.8,5.1c0,0.5,0.1,1,0.2,1.5c0.2,0.7,0.5,1.1,0.9,1.6c0.2,0.3,0.3,0.5,0.4,0.8
		c0.1,0.2,0.3,0.3,0.4,0.5c0.4,0.4,0.8,0.9,1.1,1.4c0.2,0.3,0.3,0.6,0.5,0.8c-0.8,0.2-1.6,0.2-2.5,0c-1.3-0.2-2.7-0.4-3.9-0.9
		C125.1,24.2,123.8,23.1,123,21.5z"/>
	<path class="st5" d="M144.5,8.3c1.3,1.4,2.1,3.9,1.4,5.7c-0.2,0.5-0.9,0.4-0.9-0.1c-0.2-1.8-0.4-3.4-1.3-5
		C143.5,8.4,144.1,7.9,144.5,8.3z"/>
	<path class="st5" d="M144.7,17.1c0-0.2,0.1-0.4,0.1-0.5c0-0.6,0.8-0.7,1-0.1c0.1,0.5,0,0.9-0.4,1.2C145,17.8,144.6,17.5,144.7,17.1
		z"/>
	<path class="st5" d="M139.4,11.9c0.4,0.7,1.3,1.7,1,2.5c-0.1,0.2-0.4,0.4-0.6,0.2c-0.3-0.3-0.4-0.7-0.5-1.1
		c-0.2-0.4-0.4-0.8-0.6-1.2C138.4,11.7,139.2,11.5,139.4,11.9z"/>
	<path class="st5" d="M139.4,14.5c0.3,0.6,0.6,1.2,0.5,1.8c0,0.4-0.6,0.4-0.8,0.1c-0.2-0.5-0.3-1-0.5-1.5
		C138.4,14.4,139.1,14,139.4,14.5z"/>
	<path class="st5" d="M138.5,16.8c0.2,0,0.5,0.2,0.5,0.5c0,0.1,0,0.3,0.1,0.4c0.1,0.3-0.3,0.6-0.5,0.4c-0.3-0.2-0.5-0.5-0.4-0.8
		C138.1,17,138.3,16.8,138.5,16.8z"/>
	<path class="st4" d="M45.2,10.6c-0.6-0.8-1.2-1.5-1.9-2.2c-1.6-1.6-3.4-3-5.4-4.1c-1.6-0.9-3.3-1.7-5.2-2c-3.5-0.6-6.9,0.4-9.5,2.8
		c-1.5,1.4-2.6,3.1-3.2,5c-1.2,3.4-0.9,7.3,0.6,10.6c0.9,2,2.2,3.8,3.8,5.2c1.4,1.3,3.3,2.9,5.3,3.3c1.4,0.3,2.7,0.7,4.2,0.7
		c3.6,0.1,7.6-1.4,10.3-3.7c1.1-0.9,2.3-2,2.9-3.3c0.3-0.6,0.4-1.3,0.5-1.9c0.2-1,0.5-2,0.6-3c0.2-1.7-0.1-3.8-1.2-5.2
		c-0.6-0.8-1.2-1.5-1.8-2.2C45.3,10.7,45.2,10.6,45.2,10.6z"/>
	<path class="st1" d="M47.1,13c-0.6-0.8-1.2-1.5-1.8-2.2c-0.1-0.1-0.1-0.2-0.2-0.2c-0.6-0.8-1.2-1.5-1.9-2.2c-1.6-1.6-3.4-3-5.4-4.1
		c-1.6-0.9-3.3-1.7-5.2-2c-3.5-0.6-6.9,0.4-9.5,2.8c0,0,0,0,0,0c0.8,0,1.6,0.2,2.4,0.3c1.5,0.6,2.9,1.4,4.2,2.5c1,0.9,2,1.7,3,2.7
		c1.4,1.4,2.4,2.9,3.1,4.8c0.8,2.3,0.3,4.8-0.4,7.1c-0.5,1.6-1.2,2.8-2.4,4c-0.5,0.5-1,0.9-1.5,1.3c-0.7,0.4-1.5,0.5-2.3,0.6
		c-0.4,0.1-0.9,0.1-1.2,0.4c0.5,0.2,1,0.4,1.5,0.5c1.4,0.3,2.7,0.7,4.2,0.7c3.6,0.1,7.6-1.4,10.3-3.7c1.1-0.9,2.3-2,2.9-3.3
		c0.3-0.6,0.4-1.3,0.5-1.9c0.2-1,0.5-2,0.6-3C48.5,16.6,48.2,14.4,47.1,13z"/>
	<path class="st1" d="M44.3,18.5c-0.1-1-0.5-1.9-1.1-2.7c-0.6-0.6-1.3-1.2-1.9-1.8c-1.4-1.2-2.8-2.5-4.5-3.4
		c-0.5-0.3-1.1-0.6-1.6-0.9c-0.8-0.4-1.6-0.5-2.6-0.6c-1.5-0.2-2.6-0.3-4.1,0.3c-0.9,0.4-1.6,0.8-2.2,1.6c-0.7,0.9-1.3,2-1.3,3.2
		c0,1,0.2,2,0.5,3c0.4,1.3,1.3,2.3,1.9,3.4c1.3,2.1,3.3,3.5,5.4,4.8c1.2,0.8,2.3,0.7,3.7,0.5c1.3-0.2,2.7-0.4,3.9-0.9
		c1.6-0.7,2.9-1.8,3.6-3.4c0.3-0.8,0.3-1.6,0.4-2.4c0.1-0.2,0.1-0.4,0.1-0.5C44.4,18.2,44.5,18.6,44.3,18.5z"/>
	<path class="st10" d="M44,21.5c0.3-0.8,0.3-1.6,0.4-2.4c0.1-0.2,0.1-0.4,0.1-0.5c-0.1-0.4,0,0-0.2-0.1c-0.1-1-0.5-1.9-1.1-2.7
		c-0.6-0.6-1.3-1.2-1.9-1.8c-1.4-1.2-2.8-2.5-4.5-3.4c-0.5-0.3-1.1-0.6-1.6-0.9c-0.8-0.4-1.6-0.5-2.6-0.6C32.2,9,31.8,9,31.4,9
		c1.6,1.6,2.9,3.4,4.3,5.2c1.1,1.4,1.7,3.2,1.8,5.1c0,0.5-0.1,1-0.2,1.5c-0.2,0.7-0.5,1.1-0.9,1.6c-0.2,0.3-0.3,0.5-0.4,0.8
		c-0.1,0.2-0.3,0.3-0.4,0.5c-0.4,0.4-0.8,0.9-1.1,1.4c-0.2,0.3-0.3,0.6-0.5,0.8c0.8,0.2,1.6,0.2,2.5,0c1.3-0.2,2.7-0.4,3.9-0.9
		C42,24.2,43.3,23.1,44,21.5z"/>
	<path class="st0" d="M80.5,2.6c0,0-9.8-1.5-15.2-1c0,0,2.7,2.2,4.5,4.1c0,0-12.1-0.3-17.6,3c0,0,3,1.7,4.5,3.3
		c0,0-12.8-3.1-20.4,0.8c0,0,2.2,3.5,5.8,4.3c0,0-9.1,1-12.8,6.1c0,0,0.7,1.5,3.5,2.3c0,0-7.1,3.6-9.9,8c0,0,2.2,0.2,3.6-0.3
		c0,0-6.8,5-9.8,9.9c0,0,4.1-1,5.6-0.7c0,0-8.9,7.5-11.6,14.7c0,0,1.7-0.8,3.1-0.7c0,0-1,2.5-4.1,6.5c-3.1,4-3.8,8.1-3.8,8.1
		s1.8-0.7,3.6-2.3c0,0-4.5,10.1-4.8,14.7c0,0,1.3-0.5,2.8-0.7c0,0-3.8,13.3-7.6,17.4c0,0,2.2,0.3,4.1-1c0,0-1.3,5.9-2.4,10.6h158.3
		c-0.3-3.4-1-8.9-2.1-11.6c0,0,1.8,1.5,3.8,2.2c0,0-2.3-8.8-2.5-14.4c-0.2-5.6-4.6-11.4-4.6-11.4s1.3,0.3,3.8-0.5
		c0,0-6.6-9.9-9.6-17.1c0,0,1.7-0.3,3.3,2c0,0-0.8-7.5-8.1-14.7c0,0,1.2,0.7,3.6,1c0,0-2.7-7.3-7.8-10.8c0,0,2.3,0.8,4.3,0
		c0,0-3.6-8.8-10.1-11.3c0,0,2.2-0.3,4-1.2c0,0-10.8-8.8-18.2-8.9c0,0,4.6-1.3,7.5-0.7c0,0-10.4-5.8-18.1-4.5c0,0,4.1-2,5.5-3.8
		c0,0-11.1-4.8-21.7,0.8c0,0,3-2,3.6-3.8c0,0-5.3,0.7-6.6,2.3c0,0,0.3-2.3,2.2-3.1C92.3,0.5,87.5-1.5,80.5,2.6z"/>
	<path class="st10" d="M39.2,124c-4-2.2-8.1-6.2-8.1-6.2c1.5,0.3,2.1-1.3,2.1-1.3c-3.8-1.8-8-9.3-8-9.3c1.4,0.6,2.4,0.5,2.4,0.5
		c-2.6-3-3.4-13.1-3.4-13.1c-0.4-4.1-4.1-5.4-7.9-3.5l0,0h0c-0.5,0.3-1,0.6-1.6,1c0,0,0,0,0,0c-0.2,0.2-0.5,0.4-0.7,0.6c0,0,0,0,0,0
		c-0.2,0.2-0.5,0.5-0.7,0.7c0,0,0,0.1-0.1,0.1c-0.2,0.2-0.4,0.5-0.6,0.7c0,0.1-0.1,0.1-0.1,0.2c-0.2,0.3-0.4,0.6-0.6,0.9
		c0,0,0,0.1-0.1,0.1c-0.2,0.3-0.3,0.5-0.5,0.8c0,0.1-0.1,0.2-0.1,0.3c-0.2,0.3-0.4,0.7-0.5,1c-4.3,9.3-1.4,19.8-1.4,19.8
		c0.7-1.6,1.3-2.1,1.3-2.1c-0.2,3.6,0.2,6.6,0.8,9.1c0.4,1.6,1,3,1.6,4.1c0.1,0.2,0.2,0.5,0.4,0.7c2.3,4.1,5,5.8,5,5.8l0,0l0,0
		c0-0.4-0.1-0.8-0.1-1.2c0-0.3-0.1-0.7-0.1-0.9c0-0.3-0.1-0.5-0.1-0.6c0-0.1,0-0.2,0-0.2c0.6,1.4,1.2,2.5,1.9,3.5
		c0.5,0.6,0.9,1.2,1.4,1.6c0.7,0.7,1.4,1.2,2.1,1.6c0.3,0.2,0.6,0.3,0.9,0.5c0.6,0.3,1.1,0.4,1.5,0.5c0.1,0,0.2,0.1,0.3,0.1
		c0.2,0,0.4,0,0.4,0c-0.1-0.1-0.1-0.2-0.2-0.3c-0.5-0.9-0.6-1.2-0.7-1.4c0,0,0,0,0,0c0,0,0,0,0-0.1c0,0,0,0,0,0s3.7,3.9,8.1,3.9
		c0.1,0,0.3,0,0.4,0c0,0,0.1,0,0.1,0c0.1,0,0.2,0,0.3,0c0,0,0.1,0,0.1,0c0.1,0,0.1,0,0.2,0c0,0,0.1,0,0.1,0c0.1,0,0.1,0,0.2,0
		c0,0,0.1,0,0.1,0c0.1,0,0.1,0,0.2-0.1c0,0,0.1,0,0.1,0c0.1,0,0.1,0,0.2-0.1c0,0,0.1,0,0.1,0c0.1,0,0.1-0.1,0.2-0.1c0,0,0,0,0.1,0
		c0.1,0,0.1-0.1,0.2-0.1c0,0,0,0,0,0l0,0c1.3-1,0.6-2.9,0.6-2.9s2.6,0.7,3.8-1.5c1.2-2.2-1.8-6.3-1.8-6.3
		C42.2,129.5,43.2,126.1,39.2,124z"/>
	<path class="st10" d="M150.6,102.2c-0.1-0.4-0.3-0.7-0.4-1.1c0-0.1-0.1-0.2-0.1-0.3c-0.1-0.3-0.3-0.6-0.4-0.9c0,0,0-0.1-0.1-0.1
		c-0.2-0.3-0.3-0.6-0.5-0.9c0-0.1-0.1-0.1-0.1-0.2c-0.2-0.3-0.3-0.5-0.5-0.7c0,0,0-0.1-0.1-0.1c-0.2-0.3-0.4-0.5-0.6-0.8
		c0,0,0,0,0,0c-0.2-0.2-0.4-0.5-0.7-0.7c0,0,0,0,0,0c-0.5-0.4-1-0.8-1.5-1.1c0,0,0,0,0,0l0,0c-3.5-2.2-7.4-1.3-8.2,2.7
		c0,0-1.8,9.9-4.6,12.7c0,0,1,0.2,2.5-0.3c0,0-4.9,7.1-8.9,8.5c0,0,0.5,1.7,2,1.5c0,0-4.5,3.6-8.7,5.4c-4.2,1.8-3.5,5.3-0.6,6.5
		c0,0-3.4,3.8-2.4,6.1c1,2.3,3.6,1.9,3.6,1.9s-1,2,0.5,3.1c0,0,0,0,0.1,0c0,0,0.1,0.1,0.1,0.1c0,0,0.1,0,0.1,0c0,0,0.1,0.1,0.2,0.1
		c0,0,0.1,0,0.1,0c0.1,0,0.1,0,0.2,0.1c0,0,0.1,0,0.1,0c0.1,0,0.1,0,0.2,0.1c0,0,0.1,0,0.1,0c0.1,0,0.1,0,0.2,0.1c0,0,0.1,0,0.1,0
		c0.1,0,0.2,0,0.3,0c0,0,0.1,0,0.1,0c0.1,0,0.3,0,0.4,0c4.5,0.4,8.5-3.1,8.5-3.1s0.1,0-0.3,0.6c-0.1,0.2-0.2,0.3-0.4,0.6
		c-0.1,0.2-0.2,0.3-0.4,0.5c0,0,5.5,0.2,9.3-6.8c0,0-0.1,0.5-0.3,1.2c-0.1,0.4-0.2,1-0.3,1.6l0,0l0,0c0,0,7.1-3.5,9.2-13.9
		c0.3-1.5,0.5-3.1,0.6-4.9c0,0,0.5,0.6,1,2.2C150,122.1,154,111.9,150.6,102.2z"/>
	<path class="st10" d="M129.4,96.1c-0.4-0.3-2.2-0.7-5-1c0.6,0.7,1,1.7,1,2.7c0,2.4-1.9,4.4-4.4,4.5c-2.5,0-4.5-1.9-4.5-4.3
		c0-1.4,0.7-2.7,1.7-3.5c-2.9-0.3-6.2-0.5-9.9-0.7c0.7,0.8,1.1,1.7,1.1,2.8c0,2.4-1.9,4.4-4.4,4.5c-2.5,0-4.5-1.9-4.5-4.3
		c0-1.3,0.5-2.5,1.4-3.3c-3.2-0.2-6.7-0.3-10.2-0.4c1.1,0.8,1.8,2.1,1.8,3.5c0,2.4-1.9,4.4-4.4,4.5c-2.5,0-4.5-1.9-4.5-4.3
		c0-1.6,0.8-3,2-3.8c-4.5-0.1-9.1-0.2-13.7-0.2c1.3,0.7,2.2,2.1,2.2,3.8c0,2.4-1.9,4.4-4.4,4.5c-2.5,0-4.5-1.9-4.5-4.3
		c0-1.6,0.9-3.1,2.2-3.9c-4.4,0-8.8,0.2-12.9,0.3c1.7,0.6,3,2.2,3,4.1c0,2.4-1.9,4.4-4.4,4.5c-2.5,0-4.5-1.9-4.5-4.3
		c0-1.8,1-3.4,2.6-4.1c-4.4,0.2-8.5,0.6-12.2,1.1c1.3,0.8,2.2,2.1,2.2,3.7c0,2.4-1.9,4.4-4.4,4.5c-2.5,0-4.5-1.9-4.5-4.3
		c0-1.2,0.4-2.2,1.2-3c-2.5,0.5-4.6,1-6.3,1.7c-3.1,1.2,2.2,84,7.6,88.8c5.5,4.7,88.4,3.3,92.4-0.3
		C132.4,181.6,132.4,98.5,129.4,96.1z"/>
	<path class="st8" d="M131.2,96.2c-0.4-0.3-2.2-0.7-5-1.1c0.6,0.8,1,1.7,1,2.8c0,2.5-1.9,4.5-4.4,4.5c-2.5,0-4.5-1.9-4.5-4.4
		c0-1.4,0.7-2.7,1.7-3.6c-2.9-0.3-6.2-0.5-9.9-0.7c0.7,0.8,1.1,1.8,1.1,2.8c0,2.5-1.9,4.5-4.4,4.5c-2.5,0-4.5-1.9-4.5-4.4
		c0-1.3,0.5-2.5,1.4-3.3c-3.2-0.2-6.7-0.3-10.2-0.4c1.1,0.8,1.8,2.1,1.8,3.5c0,2.5-1.9,4.5-4.4,4.5c-2.5,0-4.5-1.9-4.5-4.4
		c0-1.6,0.8-3,2-3.8c-4.5-0.1-9.1-0.2-13.7-0.2c1.3,0.8,2.2,2.2,2.2,3.8c0,2.5-1.9,4.5-4.4,4.5c-2.5,0-4.5-1.9-4.5-4.4
		c0-1.7,0.9-3.1,2.2-3.9c-4.4,0-8.8,0.2-12.9,0.3c1.7,0.6,3,2.2,3,4.2c0,2.5-1.9,4.5-4.4,4.5c-2.5,0-4.5-1.9-4.5-4.4
		c0-1.8,1-3.4,2.6-4.1c-4.4,0.3-8.5,0.6-12.2,1.1c1.3,0.8,2.2,2.2,2.2,3.8c0,2.5-1.9,4.5-4.4,4.5c-2.5,0-4.5-1.9-4.5-4.4
		c0-1.2,0.4-2.3,1.2-3.1c-2.5,0.5-4.6,1-6.3,1.7c-3.1,1.2,2.2,85.1,7.6,89.9c5.5,4.8,88.4,3.3,92.4-0.3
		C134.2,182.8,134.2,98.7,131.2,96.2z"/>
	<g>
		<path class="st9" d="M31.2,145.9c0.6,0,1.2,0,1.8,0c1.2,0,2.3-0.2,3.5-0.4c0.7-0.2,1.4-0.4,2.1-0.5c0.5-0.1,1.1-0.1,1.5-0.3
			c1.2-0.6,2.2-1.9,2.1-3.2c-0.1-0.7-0.6-1.5,0-2c0.2-0.2,0.6-0.3,0.8-0.4c0.6-0.4,1.2-0.8,1.7-1.3c1.1-1,1.9-2,1.7-3.5
			c-0.1-1.3-0.8-2.7-1.7-3.7c-0.1-0.1-0.7-0.4-0.8-0.6c-0.2-0.4,0.1-0.3,0.2-0.5c0.2-0.6,0.5-0.9,0.5-1.6c0-0.7-0.2-1.5-0.6-2.1
			c-0.8-1.3-1.6-2.2-3.2-2.2l-11.1,3.7C30.2,133.3,30.6,139.6,31.2,145.9z"/>
		<path class="st9" d="M131.5,122c-1.7,0.1-3,0.7-4.6,1.3c-0.8,0.3-1.8,0.7-2.7,0.4c-0.7-0.2-1.1-0.6-1.9-0.4
			c-0.7,0.2-1.3,0.4-2,0.5c-2.1,0.3-3.5,1.8-5.4,2.8c-1.1,0.6-2.6,1.1-3,2.4c-0.2,0.6,0,1.1,0.2,1.7c0.1,0.5,0.1,1,0.1,1.5
			c0,1,0.1,2,0,3c0,0.6-0.3,1.1-0.3,1.7c0,0.5,0.2,1,0.3,1.4c0.3,0.8,0.9,1.5,1.7,1.9c0.5,0.2,1,0.2,1.5,0.5c0.3,0.2,0.6,0.5,1,0.6
			c0.4,0.2,0.9,0.2,1.3,0.5c0.4,0.3,0.5,0.7,0.8,1.1c0.3,0.5,0.4,0.9,1,1c0.4,0.1,1.2-0.3,1.5,0c0.2,0.2,0.2,0.5,0.5,0.7
			c0.4,0.4,1,0.5,1.6,0.5c0.7-0.1,1.5-0.2,2.2-0.3c0.5-0.1,1.2-0.1,1.7-0.2c0.9-0.2,1.8-0.9,2.6-1.2c0.4-0.1,0.7-0.3,1.1-0.5
			c0.7-0.3,2-0.7,2.8-0.5c0.1-7,0-14-0.1-20.4C132.6,122,132.1,122,131.5,122z"/>
	</g>
	<g>
		<path class="st0" d="M25.4,91.8c0,0,0.8,10,3.4,13.1c0,0-1,0.1-2.4-0.5c0,0,4.2,7.5,8,9.3c0,0-0.6,1.6-2.1,1.3c0,0,4.1,4,8.1,6.2
			c4,2.2,3,5.6-0.1,6.5c0,0,3,4.1,1.8,6.3s-3.8,1.5-3.8,1.5s1.3,3.6-3.1,3.6c-4.5-0.1-8.1-3.9-8.1-3.9s-0.2,0.1,0.8,1.8
			c0,0-5.5-0.3-8.6-7.7c0,0,0.1,1.2,0.3,2.9c0,0-8.8-5.5-7.9-19.7c0,0-0.5,0.6-1.3,2.1c0,0-2.9-10.5,1.4-19.8
			C15.9,85.8,24.7,85.5,25.4,91.8z"/>
		<path class="st1" d="M26.9,135.1c0,0,3.7,3.9,8.1,3.9c1.3,0,2.1-0.3,2.6-0.7c-0.4-0.1-0.8-0.3-1.2-0.5c-1-0.4-2-0.6-2.8-1.2
			c-0.7-0.5-1.4-0.9-2.1-1.3c-1.4-0.8-2.6-1.9-3.4-3.2c-0.5-0.8-0.9-1.5-1.3-2.3c-0.1-0.2-0.3-0.8-0.6-0.8c-0.2,0.5-0.3,1-0.4,1.6
			c-0.3-0.1-0.5-0.6-0.7-0.8c-0.2-0.2-0.4-0.5-0.5-0.8c-0.4-0.8-0.7-1.5-1.1-2.3c-0.4-0.6-0.8-1.3-1.1-1.9c-0.9-1.7-1.9-3.5-2.4-5.3
			c-0.1-0.5-0.2-1.2-0.5-1.6c0-0.1-0.1-0.2-0.2-0.2c-0.1,0.2-0.3,0.4-0.4,0.6c-0.1,0.2-0.1,0.5-0.3,0.7c-0.1-0.1-0.1-0.2-0.2-0.3
			c-0.2-0.6-0.4-1.1-0.5-1.7c-0.2-1.1-0.4-2.2-0.6-3.4c-0.2-0.8-0.3-1.5-0.5-2.3c-0.4-1.9-1-4-1-5.9c0-0.7,0.1-1.3,0.2-2
			c0-0.1,0-0.2,0-0.3c-0.6,0.3-0.9,1-1.4,1.5c0.1-1,0.3-2,0.4-3c0.2-2,0.3-4,0.5-6c0.2-2.1,0.8-4.2,1.6-6.2c0.1-0.3,0.3-0.7,0.4-1
			c-2.1,1.1-4.2,3.1-5.7,6.3c-4.3,9.3-1.4,19.8-1.4,19.8c0.7-1.6,1.3-2.1,1.3-2.1c-0.9,14.2,7.9,19.7,7.9,19.7
			c-0.2-1.7-0.3-2.9-0.3-2.9c3,7.4,8.6,7.7,8.6,7.7C26.8,135.2,26.9,135.1,26.9,135.1z"/>
		<path class="st1" d="M19.9,93.1c-0.1-0.4-0.7-0.5-0.9-0.1c-0.2,0.5-0.1,1.1-0.1,1.6c0,0.4,0.6,0.4,0.7,0.1
			C19.8,94.2,20,93.6,19.9,93.1z"/>
		<path class="st1" d="M23.8,100.5c-0.2-0.5-0.9-0.1-0.7,0.3c0.1,0.3,0.2,0.6,0.3,0.9c0.1,0.3,0.7,0.4,0.6,0
			C24,101.2,23.9,100.9,23.8,100.5z"/>
		<path class="st1" d="M23.1,110.2c0-0.4-0.2-0.8-0.4-1.2c-0.3-0.5-1.1-0.1-0.8,0.4c0.2,0.3,0.3,0.7,0.5,1
			C22.6,110.9,23.1,110.6,23.1,110.2z"/>
		<path class="st1" d="M31.4,121.1c-0.1-0.4-0.4-0.7-0.6-1.1c-0.2-0.4-0.9-0.1-0.7,0.3c0.2,0.4,0.4,0.9,0.8,1.2
			C31.2,121.8,31.6,121.4,31.4,121.1z"/>
		<path class="st1" d="M31.3,130.3c-0.4-0.5-0.8-0.9-1.2-1.3c-0.3-0.3-0.9,0.1-0.5,0.5c0.5,0.5,0.8,1,1.4,1.3
			C31.2,130.9,31.4,130.5,31.3,130.3z"/>
		<path class="st1" d="M38.7,130.7c-0.1-0.1-0.2-0.2-0.3-0.3c-0.3-0.4-1,0.2-0.5,0.6c0.2,0.2,0.4,0.3,0.7,0.3
			C38.8,131.3,38.9,130.9,38.7,130.7z"/>
		<path class="st0" d="M13.1,97.5c-0.1-0.5-0.8-0.4-0.7,0.1c0,0.2,0,0.4,0,0.5c0,0.2,0,0.3,0,0.5c-0.1,0.3,0.3,0.6,0.5,0.3
			c0.1-0.2,0.2-0.4,0.3-0.6C13.2,98.1,13.2,97.8,13.1,97.5z"/>
		<path class="st0" d="M15.5,109.7c0-0.5-0.9-0.4-0.9,0c0,0.4,0,0.7,0.1,1.1c0.1,0.3,0.6,0.3,0.7,0
			C15.5,110.4,15.5,110.1,15.5,109.7z"/>
		<path class="st0" d="M15.3,118.7c-0.2-0.5-1-0.2-0.8,0.3c0.1,0.4,0.2,0.8,0.4,1.2c0.1,0.3,0.6,0.2,0.6-0.1
			C15.5,119.5,15.4,119.1,15.3,118.7z"/>
		<path class="st0" d="M21.3,126c-0.1-0.5-0.3-0.9-0.4-1.3c-0.1-0.2-0.4-0.3-0.6-0.2c-0.2,0.1-0.3,0.4-0.2,0.6
			c0.2,0.4,0.3,0.9,0.7,1.2C20.9,126.5,21.4,126.4,21.3,126z"/>
		<path class="st0" d="M25.9,134.9c-0.1-0.6-0.4-1.1-0.7-1.5c-0.1-0.2-0.4-0.2-0.6-0.1c-0.2,0.2-0.2,0.4-0.1,0.6
			c0.3,0.4,0.5,0.8,0.8,1.2C25.5,135.5,25.9,135.2,25.9,134.9z"/>
		<path class="st7" d="M38.1,121.6c-0.6-0.5-1.4-0.8-2.1-1.2c-0.3-0.2-0.6,0.2-0.3,0.4c0.7,0.5,1.4,0.9,2.2,1.2
			C38.1,122.2,38.3,121.8,38.1,121.6z"/>
		<path class="st7" d="M38.7,123.4c-0.3-0.2-0.5-0.3-0.9-0.4c-0.4-0.1-0.6,0.4-0.2,0.6c0.3,0.1,0.6,0.2,0.9,0.3
			C38.7,123.9,38.8,123.6,38.7,123.4z"/>
		<path class="st7" d="M41,123.9c-0.1-0.2-0.2-0.3-0.4-0.4c-0.4-0.2-0.8,0.4-0.4,0.6c0.2,0.1,0.3,0.2,0.5,0.3
			C40.9,124.5,41.1,124.2,41,123.9z"/>
		<path class="st7" d="M31.1,113c-0.2-0.3-0.4-0.6-0.7-0.9c-0.2-0.3-0.7,0.1-0.4,0.4c0.2,0.3,0.5,0.6,0.8,0.8
			C30.9,113.5,31.2,113.2,31.1,113z"/>
	</g>
	<g>
		<path class="st0" d="M136.7,95.3c0,0-1.8,9.9-4.6,12.7c0,0,1,0.2,2.5-0.3c0,0-4.9,7.1-8.9,8.5c0,0,0.5,1.7,2,1.5
			c0,0-4.5,3.6-8.7,5.4c-4.2,1.8-3.5,5.3-0.6,6.5c0,0-3.4,3.8-2.4,6.1c1,2.3,3.6,1.9,3.6,1.9s-1.7,3.5,2.8,3.8
			c4.5,0.4,8.5-3.1,8.5-3.1s0.2,0.1-1,1.7c0,0,5.5,0.2,9.3-6.8c0,0-0.3,1.2-0.6,2.8c0,0,9.2-4.6,9.8-18.8c0,0,0.5,0.6,1,2.2
			c0,0,4-10.2,0.6-19.9C146.7,90.2,138,89,136.7,95.3z"/>
		<path class="st1" d="M130.9,138.2c0,0-4,3.5-8.5,3.1c-1.3-0.1-2-0.5-2.5-0.9c0.4-0.1,0.8-0.2,1.2-0.4c1-0.3,2-0.5,3-1
			c0.7-0.4,1.5-0.8,2.2-1.1c1.4-0.6,2.8-1.6,3.7-2.9c0.5-0.7,1-1.4,1.5-2.2c0.1-0.2,0.4-0.7,0.6-0.7c0.2,0.5,0.2,1.1,0.3,1.6
			c0.3-0.1,0.6-0.6,0.7-0.7c0.3-0.2,0.5-0.5,0.6-0.8c0.4-0.7,0.8-1.4,1.4-2.1c0.5-0.6,0.9-1.2,1.3-1.8c1.1-1.6,2.2-3.3,3-5.1
			c0.2-0.5,0.3-1.2,0.6-1.6c0-0.1,0.1-0.2,0.2-0.2c0.1,0.2,0.3,0.4,0.3,0.6c0.1,0.2,0.1,0.5,0.2,0.8c0.1-0.1,0.1-0.2,0.2-0.3
			c0.3-0.5,0.5-1,0.7-1.6c0.3-1.1,0.6-2.2,0.9-3.3c0.2-0.7,0.5-1.5,0.7-2.2c0.6-1.9,1.4-3.8,1.6-5.8c0.1-0.7,0-1.3,0-2
			c0-0.1,0-0.2,0-0.3c0.6,0.4,0.8,1.1,1.2,1.7c0-1-0.1-2-0.1-3.1c0-2,0.1-4,0.1-6.1c0-2.1-0.4-4.2-1-6.3c-0.1-0.3-0.2-0.7-0.3-1
			c2,1.3,3.9,3.5,5,6.8c3.4,9.7-0.6,19.9-0.6,19.9c-0.6-1.6-1-2.2-1-2.2c-0.5,14.2-9.8,18.8-9.8,18.8c0.4-1.7,0.6-2.8,0.6-2.8
			c-3.7,7.1-9.3,6.8-9.3,6.8C131.1,138.2,130.9,138.2,130.9,138.2z"/>
		<path class="st1" d="M142,97.1c0.1-0.4,0.7-0.4,0.9,0c0.1,0.5,0,1.1-0.1,1.6c-0.1,0.4-0.7,0.3-0.7,0C142,98.1,141.9,97.6,142,97.1
			z"/>
		<path class="st1" d="M137.4,104c0.2-0.5,0.9,0,0.7,0.4c-0.2,0.3-0.3,0.6-0.4,0.9c-0.1,0.3-0.7,0.3-0.6-0.1
			C137.1,104.8,137.2,104.4,137.4,104z"/>
		<path class="st1" d="M137.2,113.8c0.1-0.4,0.2-0.8,0.5-1.1c0.3-0.5,1.1,0,0.8,0.5c-0.2,0.3-0.4,0.6-0.6,0.9
			C137.6,114.5,137.1,114.2,137.2,113.8z"/>
		<path class="st1" d="M127.8,123.8c0.2-0.4,0.5-0.7,0.7-1c0.3-0.4,0.9,0,0.7,0.4c-0.2,0.4-0.5,0.8-0.9,1.1
			C127.9,124.5,127.6,124.1,127.8,123.8z"/>
		<path class="st1" d="M127,132.9c0.4-0.4,0.9-0.8,1.3-1.1c0.4-0.3,0.8,0.2,0.5,0.5c-0.5,0.4-0.9,0.9-1.6,1.1
			C127,133.5,126.9,133.1,127,132.9z"/>
		<path class="st1" d="M119.6,132.7c0.1-0.1,0.3-0.2,0.4-0.3c0.4-0.4,1,0.3,0.5,0.6c-0.2,0.1-0.4,0.2-0.7,0.2
			C119.5,133.2,119.4,132.8,119.6,132.7z"/>
		<path class="st0" d="M148.4,102.1c0.2-0.5,0.9-0.3,0.7,0.2c0,0.2,0,0.4-0.1,0.5c0,0.2,0,0.3,0,0.5c0,0.3-0.4,0.5-0.5,0.2
			c-0.1-0.2-0.2-0.4-0.2-0.7C148.2,102.7,148.3,102.4,148.4,102.1z"/>
		<path class="st0" d="M144.8,114c0.1-0.5,0.9-0.4,0.8,0.1c-0.1,0.4-0.1,0.7-0.2,1.1c-0.1,0.3-0.6,0.2-0.7-0.1
			C144.7,114.7,144.8,114.4,144.8,114z"/>
		<path class="st0" d="M144.1,123c0.2-0.4,1-0.1,0.8,0.3c-0.2,0.4-0.3,0.8-0.5,1.2c-0.2,0.3-0.6,0.2-0.6-0.2
			C143.8,123.8,143.9,123.4,144.1,123z"/>
		<path class="st0" d="M137.4,129.7c0.1-0.4,0.4-0.8,0.6-1.2c0.1-0.2,0.4-0.3,0.6-0.2c0.2,0.1,0.3,0.4,0.2,0.6
			c-0.2,0.4-0.4,0.8-0.8,1.1C137.7,130.2,137.3,130,137.4,129.7z"/>
		<path class="st0" d="M132,138.1c0.2-0.6,0.5-1,0.9-1.5c0.2-0.2,0.5-0.2,0.6,0c0.2,0.2,0.1,0.4,0,0.6c-0.3,0.4-0.6,0.8-1,1.2
			C132.3,138.7,131.9,138.4,132,138.1z"/>
		<path class="st7" d="M121.1,123.7c0.7-0.5,1.5-0.6,2.2-1c0.3-0.2,0.6,0.3,0.3,0.5c-0.7,0.4-1.5,0.7-2.3,1
			C121,124.2,120.9,123.8,121.1,123.7z"/>
		<path class="st7" d="M120.4,125.4c0.3-0.2,0.6-0.3,0.9-0.3c0.4-0.1,0.6,0.5,0.2,0.6c-0.3,0.1-0.6,0.1-1,0.2
			C120.3,125.9,120.2,125.5,120.4,125.4z"/>
		<path class="st7" d="M118,125.7c0.1-0.2,0.3-0.3,0.5-0.4c0.4-0.2,0.8,0.4,0.4,0.6c-0.2,0.1-0.3,0.2-0.5,0.2
			C118.1,126.2,117.9,125.9,118,125.7z"/>
		<path class="st7" d="M129,115.8c0.2-0.3,0.5-0.6,0.8-0.8c0.3-0.3,0.7,0.1,0.4,0.4c-0.3,0.3-0.5,0.5-0.8,0.8
			C129.1,116.3,128.8,116,129,115.8z"/>
	</g>
	<path class="st1" d="M115.2,87.5c8.3-3.7,16.6-30.2-34.1-29.9C30.4,57.8,36.2,77.4,39.8,83c3.6,5.6,26,0.6,42.2,0.8
		C98.2,84,105.7,91.8,115.2,87.5z"/>
	<path class="st6" d="M113.4,85.8c7.8-3.2,15.8-26.1-32.4-26C32.8,60,38.4,77,41.8,81.8c3.4,4.9,24.7,0.5,40.1,0.7
		C97.3,82.8,104.4,89.5,113.4,85.8z"/>
	<path class="st1" d="M132.4,54.5c-0.6-0.9-1.7-1.5-2.9-1.7c-0.7-0.1-1.5-0.1-2.3-0.1c-0.7,0-1.4,0.1-2.1,0.3
		c-0.8,0.3-1.6,1.1-1.8,1.9c-0.2,0.9,0.3,1.9,1.1,2.5c0.7,0.6,1.7,0.9,2.6,1.1c0.8,0.2,1.6,0.2,2.4,0.2c0.8-0.1,1.4-0.4,2.2-0.6
		c1.3-0.4,1.4-2.3,0.9-3.3C132.5,54.7,132.5,54.6,132.4,54.5z"/>
	<path class="st1" d="M132.3,53.6c-0.6-0.9-1.7-1.5-2.9-1.7c-0.7-0.1-1.5-0.1-2.3-0.1c-0.7,0.1-1.4,0.1-2.1,0.3
		c-0.8,0.3-1.6,1.1-1.8,1.9c-0.2,0.9,0.3,1.9,1.1,2.5c0.7,0.6,1.7,0.9,2.6,1.1c0.8,0.2,1.6,0.2,2.4,0.2c0.8-0.1,1.4-0.4,2.2-0.6
		c1.3-0.4,1.4-2.3,0.9-3.3C132.5,53.8,132.4,53.7,132.3,53.6z"/>
	<path class="st1" d="M38.3,53.9c-0.8-0.8-2-1.1-3.1-1.1c-0.8,0-1.5,0.2-2.2,0.4c-0.7,0.2-1.4,0.3-2,0.7c-0.8,0.5-1.3,1.4-1.3,2.3
		c0,1,0.7,1.8,1.6,2.2c0.8,0.4,1.8,0.5,2.8,0.5c0.8,0,1.6-0.1,2.4-0.3c0.7-0.2,1.3-0.7,2-1c1.2-0.6,0.9-2.6,0.2-3.4
		C38.4,54,38.4,53.9,38.3,53.9z"/>
	<path class="st1" d="M38.1,52.9c-0.8-0.8-2-1.1-3.1-1.1c-0.8,0-1.5,0.2-2.2,0.4c-0.7,0.2-1.4,0.3-2,0.7c-0.8,0.5-1.3,1.4-1.3,2.3
		c0,1,0.7,1.8,1.6,2.2c0.8,0.4,1.8,0.5,2.8,0.5c0.8,0,1.6-0.1,2.4-0.3c0.7-0.2,1.3-0.7,2-1c1.2-0.6,0.9-2.6,0.2-3.4
		C38.3,53,38.2,52.9,38.1,52.9z"/>
	<path class="st6" d="M57.4,46.2c-3.8,0.5-9.2-3.5-7.7-7.7c0.2-0.6,1.1-0.7,1.3,0c0.9,3.2,2.2,5.5,5.9,5.8c3.6,0.2,5.8-2.6,5.8-5.9
		c0-1.3,2-1.3,2,0C64.6,42.8,61.9,45.6,57.4,46.2z"/>
	<path class="st6" d="M104.2,46.2c3.8,0.5,9.2-3.5,7.8-7.7c-0.2-0.6-1.1-0.7-1.3,0c-0.9,3.2-2.2,5.5-5.9,5.8
		c-3.6,0.2-5.8-2.6-5.8-5.9c0-1.3-2-1.3-2,0C97,42.8,99.7,45.6,104.2,46.2z"/>
	<path class="st10" d="M79.4,44.7c-3.4,1-4.7,8.1-3.4,10.2c1.4,2.1,8.4,1.6,9.8,0.4C87.2,54,85.6,43,79.4,44.7z"/>
	<path class="st5" d="M79.4,44c-3.4,1-4.7,8.1-3.4,10.2c1.4,2.1,8.4,1.6,9.8,0.4C87.2,53.4,85.6,42.3,79.4,44z"/>
	<path class="st4" d="M86.2,53.5C85,53.2,83.2,53,83,53c-2.5-0.1-4.8,0.3-7.2,0.8c-0.1-0.4-0.2-0.9-0.3-1.4
		c3.4-1.2,7.2-1.5,10.7-0.6C86.3,52.4,86.3,53,86.2,53.5z M76,48.2c1.7-0.3,3.3-0.6,5-0.5c0.9,0,1.7,0.1,2.6,0.3
		c0.4,0.1,0.7,0.2,1.1,0.3c1,0.3,0.9,0.7,0.9,0.4c0,0.2,0,0.3,0.2,0.4c-0.3-1-0.7-2-1.3-2.9c-0.8-0.2-1.6-0.2-2.3-0.3
		c-1.8-0.1-3.6,0-5.3,0.5C76.5,46.9,76.2,47.6,76,48.2z"/>
	<path class="st4" d="M78.9,47.2c0.2-0.9,0.6-1.9,1.2-2.7c0.2-0.3,0.4-0.5,0.6-0.6c-0.4,0-0.8,0.1-1.3,0.2c-3.4,1-4.7,8.1-3.4,10.2
		c0.7,1.1,2.9,1.5,5,1.4c-1-1.8-1.5-3.8-2-5.8C78.7,48.9,78.7,48.2,78.9,47.2z"/>
	<g>
		<path class="st1" d="M79.4,51.4c-1.3,0.2-2.6,0.5-3.9,0.9v0c0,0.1,0,0.3,0,0.4c0,0,0,0,0,0c0,0.1,0,0.2,0.1,0.3c0,0,0,0,0,0.1
			c0,0.1,0,0.2,0.1,0.3c0,0,0,0,0,0.1c0,0.1,0.1,0.2,0.1,0.3c1.4-0.3,2.7-0.5,4.1-0.7C79.7,52.5,79.6,52,79.4,51.4z"/>
		<path class="st1" d="M78.9,47.2c0.1-0.4,0.2-0.8,0.4-1.2c-0.8,0.1-1.7,0.2-2.5,0.4l0,0c-0.2,0.3-0.3,0.6-0.4,0.9c0,0,0,0,0,0
			c-0.1,0.3-0.2,0.6-0.3,0.9c0.9-0.2,1.8-0.3,2.8-0.4C78.8,47.6,78.9,47.4,78.9,47.2z"/>
	</g>
	<g>
		<path class="st1" d="M75.9,6c-0.9-0.1-1.8-0.1-2.8,0c-0.5,0.1-0.5,0.9,0,1c0.9,0.2,1.8,0.2,2.8,0C76.5,7,76.5,6.1,75.9,6z"/>
		<path class="st1" d="M71,14.9c-0.7,0.6-1.5,1.1-2.3,1.5c-0.4,0.2-0.2,0.8,0.2,0.8c0.6,0,1.1-0.1,1.6-0.4c0.5-0.3,1-0.7,1.3-1.2
			C72.1,15,71.4,14.5,71,14.9z"/>
		<path class="st1" d="M57.6,15.1c-0.1-0.2-0.4-0.4-0.6-0.3c-0.6,0.3-1.2,0.6-1.7,1.1c-0.3,0.4,0.1,1,0.6,0.7c0.5-0.3,1-0.6,1.5-1
			C57.6,15.5,57.7,15.3,57.6,15.1z"/>
		<path class="st1" d="M39.7,23.6c-0.3,0.3-0.5,0.7-0.9,1c-0.3,0.3-0.8,0.5-1.2,0.7c-0.3,0.3,0,0.7,0.3,0.7c1,0,2.2-1.1,2.4-2.1
			C40.4,23.6,40,23.3,39.7,23.6z"/>
		<path class="st1" d="M52.6,25.4c-0.8,0.6-1.6,1.3-2.4,1.8c-0.4,0.3-0.1,1,0.3,0.8c1-0.4,2-0.9,2.7-1.8
			C53.7,25.8,53.2,25.1,52.6,25.4z"/>
		<path class="st1" d="M42,36c-0.1,0.4-0.2,0.7-0.3,1.1c-0.1,0.4-0.4,0.8-0.4,1.2c-0.1,0.5,0.4,0.8,0.8,0.5c0.7-0.6,0.8-1.7,0.9-2.6
			C43.1,35.5,42.1,35.4,42,36z"/>
		<path class="st1" d="M32.9,36.7c-0.1,0.3-0.3,0.7-0.5,0.9c-0.2,0.3-0.5,0.6-0.7,0.9c-0.2,0.3,0.2,0.9,0.5,0.7
			c1-0.4,1.5-1.4,1.6-2.4C33.8,36.3,33,36.3,32.9,36.7z"/>
		<path class="st1" d="M25.6,47.5c-0.1,0.8-0.5,1.3-0.9,2c-0.2,0.4,0.2,0.9,0.6,0.6c0.8-0.6,1.2-1.7,1.3-2.6
			C26.7,46.8,25.6,46.9,25.6,47.5z"/>
		<path class="st1" d="M43.4,49.6c-0.1-0.5-0.9-0.4-0.9,0.1c0,0.6-0.2,1.2-0.4,1.8c-0.2,0.4,0.3,0.9,0.7,0.5
			C43.4,51.3,43.6,50.5,43.4,49.6z"/>
		<path class="st1" d="M33.8,64.9c-0.1-0.6-1.1-0.7-1,0c0.1,0.8-0.1,1.4-0.4,2.1c-0.2,0.4,0.5,0.8,0.8,0.4
			C33.7,66.8,33.9,65.8,33.8,64.9z"/>
		<path class="st1" d="M25.6,66.4c-0.1,0.6-0.3,1.3-0.4,1.9c-0.1,0.5,0.5,0.8,0.8,0.3c0.4-0.7,0.6-1.4,0.6-2.2
			C26.7,65.7,25.7,65.8,25.6,66.4z"/>
		<path class="st1" d="M30,83.8c0,0.6-0.3,1.2-0.4,1.9c-0.1,0.5,0.5,0.8,0.8,0.4c0.5-0.6,0.6-1.4,0.6-2.2
			C31.1,83.1,30.1,83.1,30,83.8z"/>
		<path class="st1" d="M45,85.5c0-0.6-0.9-0.6-1,0c-0.1,0.8,0,1.5,0.4,2.2c0.2,0.3,0.7,0.2,0.7-0.2C45,86.9,44.9,86.2,45,85.5z"/>
		<path class="st1" d="M61.1,50.1c-0.2-0.5-0.8-0.4-0.9,0.1c-0.1,0.8-0.1,1.6-0.2,2.4c-0.1,0.5,0.6,0.9,0.8,0.4
			C61.2,52.1,61.3,51,61.1,50.1z"/>
		<path class="st1" d="M73.5,40.1c-0.1-0.5-0.7-0.6-0.9-0.1c-0.1,0.3-0.1,0.7-0.2,1.1c-0.1,0.4-0.1,0.8-0.1,1.2
			c0.1,0.4,0.7,0.4,0.8,0.1c0.2-0.3,0.2-0.6,0.3-1C73.5,40.9,73.5,40.5,73.5,40.1z"/>
		<path class="st1" d="M68,29.3c-0.2,0.3-0.4,0.6-0.6,1c-0.2,0.4-0.3,0.7-0.3,1.1c0,0.4,0.5,0.6,0.8,0.3c0.3-0.3,0.4-0.6,0.5-1
			c0.1-0.4,0.3-0.7,0.3-1.1C68.8,29.3,68.2,29,68,29.3z"/>
		<path class="st1" d="M80.5,25.5c-0.2,0.8-0.6,1.5-0.7,2.2c-0.1,0.4,0.4,0.8,0.8,0.5c0.6-0.7,0.8-1.7,0.9-2.6
			C81.6,25.1,80.7,25,80.5,25.5z"/>
		<path class="st1" d="M87.9,12.9C87.7,12.4,87,12.5,87,13c0,0.8,0.1,1.7,0,2.5c0,0.5,0.7,0.6,0.9,0.1
			C88.1,14.7,88.2,13.7,87.9,12.9z"/>
		<path class="st1" d="M104,9.8c-0.6-0.9-1.7-1.5-2.8-1.2c-0.4,0.1-0.4,0.7,0,0.8c0.3,0.1,0.7,0.1,1,0.3c0.4,0.2,0.7,0.4,1,0.6
			C103.7,10.6,104.3,10.2,104,9.8z"/>
		<path class="st1" d="M113.9,21.5c-0.5-0.7-1.1-1.3-1.7-1.9c-0.5-0.5-1.2,0.2-0.7,0.7c0.6,0.6,1.2,1.3,1.9,1.7
			C113.7,22.3,114.1,21.8,113.9,21.5z"/>
		<path class="st1" d="M102.5,25.8c-0.1-0.6-0.4-1.1-0.7-1.6c-0.3-0.6-1.2-0.1-0.9,0.5c0.3,0.5,0.5,1.1,0.9,1.5
			C102.1,26.6,102.6,26.2,102.5,25.8z"/>
		<path class="st1" d="M93.5,35.8c0-0.7-1.1-0.7-1.1,0c0,0.8-0.1,1.6,0.1,2.4c0.1,0.4,0.7,0.4,0.9,0C93.6,37.5,93.5,36.6,93.5,35.8z
			"/>
		<path class="st1" d="M104.8,51c0-0.6-0.9-0.6-1,0c0,0.5-0.1,1,0.1,1.5c0,0.1,0,0.1,0.1,0.1c0.1,0.1,0.2,0.1,0.3,0.1
			c0.1,0,0.2,0,0.3-0.1c0,0,0.1-0.1,0.1-0.1C105,52,104.8,51.5,104.8,51z"/>
		<path class="st1" d="M123.8,35c-0.3-0.4-1.1,0.1-0.7,0.6c0.2,0.3,0.4,0.6,0.6,0.9c0.2,0.3,0.6,0.7,1,0.5
			C125.4,36.5,124.1,35.3,123.8,35z"/>
		<path class="st1" d="M128.2,23c-0.5-0.3-1.1,0.5-0.6,0.8c0.4,0.4,0.7,0.8,0.7,1.4c0,0.4,0.6,0.6,0.8,0.2
			C129.6,24.4,129,23.5,128.2,23z"/>
		<path class="st1" d="M139,45.4c-0.5-0.4-1.2,0.3-0.7,0.7c0.4,0.4,0.9,0.9,0.7,1.5c-0.1,0.4,0.4,0.7,0.7,0.4
			C140.5,47.1,139.8,46.1,139,45.4z"/>
		<path class="st1" d="M122.4,50.9c-0.1-0.4-0.3-0.7-0.4-1c-0.2-0.6-1-0.3-0.9,0.2c0.1,0.5,0.3,1,0.7,1.2
			C122.1,51.5,122.5,51.2,122.4,50.9z"/>
		<path class="st1" d="M128.7,66.9c0-0.6-0.9-0.6-0.9,0c0,0.9,0,1.8,0.3,2.6c0.2,0.4,0.8,0.4,0.8-0.1
			C128.8,68.5,128.7,67.7,128.7,66.9z"/>
		<path class="st1" d="M120,83.4c-0.1-0.5-0.2-0.9-0.2-1.4c0-0.6-0.9-0.7-1-0.1c-0.1,0.3-0.1,0.7,0,1c0.1,0.4,0.2,0.7,0.4,1
			C119.5,84.3,120.1,83.8,120,83.4z"/>
		<path class="st1" d="M140.5,62.6c-0.1-0.7-0.2-1.4-0.5-2c-0.2-0.4-0.8-0.4-0.9,0.1c0,0.8,0.3,1.5,0.6,2.2
			C140,63.3,140.6,63,140.5,62.6z"/>
		<path class="st1" d="M137.1,79.3c0-0.6-0.9-0.6-0.9,0c0,0.7-0.1,1.4,0.1,2.1c0.1,0.4,0.7,0.4,0.8,0
			C137.2,80.8,137.1,80,137.1,79.3z"/>
		<path class="st1" d="M150.2,79.5c-0.6-0.2-1,0.7-0.4,1c0.1,0.1,0.2,0.2,0.3,0.4c0.2,0.5,0.9,0.4,0.9-0.1
			C151.1,80.2,150.8,79.7,150.2,79.5z"/>
		<path class="st1" d="M156.3,104c-0.1-0.3-0.4-0.5-0.7-0.4c-0.3,0.1-0.4,0.4-0.4,0.7c0.1,0.7,0.2,1.6,0.7,2.2
			c0.3,0.3,0.8,0,0.8-0.3C156.8,105.4,156.4,104.7,156.3,104z"/>
		<path class="st1" d="M136.6,92.9c-0.1-0.4-0.8-0.4-0.9,0c-0.2,0.6-0.1,1.3,0,2c0.1,0.4,0.7,0.4,0.8,0
			C136.7,94.2,136.7,93.5,136.6,92.9z"/>
		<path class="st1" d="M106.5,87.8c-0.2-0.5-1.1-0.1-0.9,0.4c0.2,0.6,0.4,1.4,0.9,1.9c0.3,0.3,0.8,0.1,0.8-0.3
			C107.2,89,106.8,88.4,106.5,87.8z"/>
		<path class="st1" d="M63.2,88.5c-0.3-0.5-1-0.1-0.8,0.5c0.2,0.4,0,0.8,0,1.3c0,0.3,0.3,0.5,0.6,0.3C63.7,90.1,63.6,89.2,63.2,88.5
			z"/>
		<path class="st1" d="M81.6,86.5c-0.2-0.4-1-0.1-0.8,0.3c0.2,0.4,0.2,0.8,0.3,1.2c0.1,0.4,0.7,0.4,0.8,0C82,87.6,81.9,87,81.6,86.5
			z"/>
		<path class="st1" d="M90.7,89.8c-0.1-0.2-0.2-0.4-0.3-0.6c-0.3-0.4-1.1-0.1-0.9,0.4c0.2,0.4,0.3,0.8,0.7,1.1
			c0.2,0.2,0.7,0.1,0.7-0.3C90.8,90.3,90.8,90,90.7,89.8z"/>
		<path class="st1" d="M148.1,70c-0.2-0.3-0.2-0.6-0.2-0.9c0-0.7-1.1-0.7-1.1,0c0,0.7,0.3,2.1,1.3,2.1c0.2,0,0.4-0.2,0.4-0.4
			C148.4,70.6,148.3,70.3,148.1,70z"/>
		<path class="st4" d="M15.1,62.1c-0.6,0.7-1,1.6-1.3,2.4c-0.2,0.4,0.4,0.6,0.7,0.3c0.5-0.7,1-1.5,1.3-2.3
			C15.9,62.2,15.4,61.9,15.1,62.1z"/>
		<path class="st4" d="M14.1,82.7c-0.1-0.5-1-0.4-0.9,0.1c0.1,0.8,0,1.6-0.2,2.4c-0.1,0.4,0.5,0.8,0.7,0.3
			C14.2,84.6,14.3,83.7,14.1,82.7z"/>
		<path class="st4" d="M9.4,93c-0.1-0.6-1-0.6-0.9,0c0.1,0.6-0.1,1.1-0.4,1.5c-0.2,0.4,0.3,0.7,0.6,0.5C9.3,94.5,9.5,93.7,9.4,93z"
			/>
		<path class="st4" d="M138.5,27.9c-0.8-1.1-2.3-1.7-3.5-2c-0.5-0.1-0.7,0.5-0.3,0.8c0.5,0.3,1.1,0.6,1.7,0.9c0.6,0.3,1.1,0.6,1.6,1
			C138.3,28.7,138.7,28.3,138.5,27.9z"/>
		<path class="st4" d="M138.5,29.3c-0.3-0.2-0.6-0.3-0.9-0.4c-0.5-0.2-0.8,0.7-0.2,0.8c0.3,0.1,0.6,0.2,0.8,0.3
			C138.6,30.1,138.8,29.5,138.5,29.3z"/>
		<path class="st4" d="M143.1,40.8c-0.4-1.3-1.6-2.1-2.7-2.8c-0.3-0.2-0.6,0.3-0.3,0.5c0.9,0.7,1.7,1.6,2.3,2.6
			C142.7,41.4,143.2,41.2,143.1,40.8z"/>
		<path class="st4" d="M144.1,41.7c-0.4-0.3-0.8,0.4-0.4,0.7c0.1,0.1,0.2,0.2,0.2,0.4c0.1,0.3,0.5,0.3,0.6,0
			C144.7,42.4,144.5,42,144.1,41.7z"/>
		<path class="st4" d="M147.9,52.9c-0.7-1.8-1.8-3.5-3.3-4.8c-0.3-0.3-0.8,0.2-0.5,0.5c1.4,1.3,2.1,3,3.1,4.6
			C147.5,53.5,148.1,53.3,147.9,52.9z"/>
		<path class="st4" d="M148.8,54.1c-0.2-0.1-0.5,0-0.6,0.2c-0.1,0.2,0,0.4,0.2,0.6c0.1,0.1,0.2,0.2,0.3,0.3c0.1,0.2,0.6,0.2,0.6-0.1
			C149.3,54.6,149.1,54.3,148.8,54.1z"/>
		<path class="st4" d="M153.5,67.9c-1.5-2.2-2.8-4.5-4.3-6.6c-0.2-0.3-0.8,0-0.6,0.3c1.5,2.1,2.3,5.1,4.3,6.7
			C153.2,68.5,153.8,68.2,153.5,67.9z"/>
		<path class="st4" d="M154.8,70.4c-0.2-0.3-0.4-0.5-0.6-0.8c-0.3-0.3-0.8,0.2-0.5,0.5c0.2,0.3,0.5,0.4,0.8,0.6
			C154.6,70.9,154.9,70.6,154.8,70.4z"/>
		<path class="st4" d="M157.9,85c-0.5-2.3-1.7-4.6-2.7-6.7c-0.2-0.4-0.8-0.1-0.6,0.3c0.9,2.2,1.6,4.6,2.7,6.7
			C157.4,85.7,157.9,85.4,157.9,85z"/>
		<path class="st4" d="M158.3,90.1c0-0.5-0.7-0.6-0.8-0.1c-0.2,0.8,0,1.5,0.3,2.3c0.2,0.4,0.6,0.1,0.6-0.2
			C158.2,91.4,158.3,90.7,158.3,90.1z"/>
		<path class="st4" d="M159,94.5c-0.1-0.5-0.8-0.3-0.7,0.2c0.1,0.3,0.1,0.6,0.2,0.9c0.1,0.3,0.6,0.1,0.6-0.2
			C159.1,95.1,159.1,94.8,159,94.5z"/>
		<path class="st4" d="M129.2,18.8c-0.7-0.7-1.7-1-2.5-1.6c-0.4-0.3-0.7,0.4-0.4,0.6c0.8,0.6,1.7,0.9,2.5,1.4
			C129.2,19.4,129.4,19.1,129.2,18.8z"/>
		<path class="st4" d="M116.5,10.6c-1.1-0.6-2.2-0.9-3.5-0.9c-0.5,0-0.5,0.8,0,0.8c1.1,0,2.2,0.4,3.2,0.8
			C116.6,11.4,116.8,10.8,116.5,10.6z"/>
		<path class="st4" d="M104.6,4.3c-1.7-0.7-3.4-0.7-5.1,0c-0.4,0.2-0.1,0.8,0.3,0.7c1.6-0.6,3-0.4,4.6,0C104.9,5,105,4.5,104.6,4.3z
			"/>
		<path class="st4" d="M108.7,4.3c-0.4-0.1-0.8-0.2-1.2-0.3c-0.4-0.1-0.5,0.7-0.1,0.8c0.4,0.1,0.8,0.1,1.3,0.1
			C109,4.9,109.1,4.4,108.7,4.3z"/>
		<path class="st4" d="M87.8,1.3c-0.9,0.1-1.7,0.4-2.5,0.8c-0.4,0.2,0,0.9,0.4,0.6c0.7-0.4,1.4-0.7,2.2-0.9
			C88.2,1.8,88.1,1.3,87.8,1.3z"/>
		<path class="st4" d="M91.8,3.1c-0.4,0.1-0.7,0.2-1,0.3c-0.5,0.2-0.3,0.9,0.2,0.7c0.4-0.1,0.7-0.2,1.1-0.4
			C92.4,3.6,92.2,3.1,91.8,3.1z"/>
		<path class="st4" d="M76.3,3c-1.1-0.3-2.2-0.5-3.4-0.5c-0.4,0-0.4,0.6,0,0.7c1.1,0.1,2.2,0.4,3.3,0.5C76.5,3.6,76.6,3.1,76.3,3z"
			/>
	</g>
	<path class="st2" d="M126.5,53.7c-0.4-0.2-0.8,0.1-1.1,0.4c-0.3,0.2-0.5,0.6-0.6,1c0,0.3,0.4,0.6,0.6,0.4c0.2-0.2,0.3-0.4,0.6-0.6
		c0.3-0.2,0.6-0.3,0.8-0.6C126.9,54.1,126.8,53.8,126.5,53.7z"/>
	<path class="st2" d="M129.7,53.9c-0.4-0.7-1.3,0-1.7,0.3c-0.5,0.4-1,1-1.3,1.5c-0.2,0.4,0.2,0.8,0.6,0.6c0.6-0.3,1-0.9,1.5-1.3
		C129.1,54.8,130.1,54.5,129.7,53.9z"/>
	<path class="st2" d="M131.4,54.9c-0.1-0.2-0.3-0.3-0.5-0.2c-0.3,0.1-0.5,0.3-0.8,0.5c-0.2,0.2-0.4,0.5-0.5,0.7
		c-0.3,0.5,0.4,1,0.8,0.6c0.3-0.4,0.7-0.7,1-1C131.5,55.3,131.5,55.1,131.4,54.9z"/>
	<path class="st2" d="M32.9,53c-0.5,0.2-0.9,0.4-1.3,0.7c-0.4,0.3-0.9,0.5-1.2,0.9c-0.2,0.2-0.1,0.6,0.2,0.6c0.5-0.1,1-0.4,1.4-0.6
		c0.5-0.3,0.9-0.6,1.2-1C33.5,53.2,33.1,52.9,32.9,53z"/>
	<path class="st2" d="M36.1,53.7c-1.3-0.2-2.6,1.1-3.4,1.9c-0.4,0.4,0.2,1,0.7,0.7c0.5-0.4,1-0.8,1.5-1.1c0.5-0.3,1-0.4,1.5-0.8
		C36.5,54.3,36.4,53.8,36.1,53.7z"/>
	<path class="st2" d="M37.7,54.8c-0.9,0.3-1.5,1-2.2,1.6c-0.4,0.4,0.2,1,0.6,0.6c0.6-0.5,1.3-1,1.9-1.5C38.4,55.2,38,54.7,37.7,54.8
		z"/>
	<path class="st5" d="M22.5,8.3c-1.3,1.4-2.1,3.9-1.4,5.7c0.2,0.5,0.9,0.4,0.9-0.1c0.2-1.8,0.4-3.4,1.3-5
		C23.6,8.4,22.9,7.9,22.5,8.3z"/>
	<path class="st5" d="M22.3,17.1c0-0.2-0.1-0.4-0.1-0.5c0-0.6-0.8-0.7-1-0.1c-0.1,0.5,0,0.9,0.4,1.2C22,17.8,22.4,17.5,22.3,17.1z"
		/>
	<path class="st5" d="M27.6,11.9c-0.4,0.7-1.3,1.7-1,2.5c0.1,0.2,0.4,0.4,0.6,0.2c0.3-0.3,0.4-0.7,0.5-1.1c0.2-0.4,0.4-0.8,0.6-1.2
		C28.6,11.7,27.9,11.5,27.6,11.9z"/>
	<path class="st5" d="M27.6,14.5c-0.3,0.6-0.6,1.2-0.5,1.8c0,0.4,0.6,0.4,0.8,0.1c0.2-0.5,0.3-1,0.5-1.5
		C28.6,14.4,27.9,14,27.6,14.5z"/>
	<path class="st5" d="M28.5,16.8c-0.2,0-0.5,0.2-0.5,0.5c0,0.1,0,0.3-0.1,0.4c-0.1,0.3,0.3,0.6,0.5,0.4c0.3-0.2,0.5-0.5,0.4-0.8
		C28.9,17,28.7,16.8,28.5,16.8z"/>
	<g>
		<path class="st9" d="M36.3,104.6c-0.7-0.3-1.2,0.2-1.7,0.7c-0.6,0.6-1.2,1.2-1.7,1.8c-0.4,0.5,0.3,1.3,0.8,0.8
			c0.5-0.5,1-1,1.5-1.5c0.2-0.2,0.5-0.4,0.7-0.6c0.1-0.1,0.3-0.2,0.4-0.3c0-0.1,0.1-0.1,0-0.1C36.6,105.2,36.7,104.7,36.3,104.6z"/>
		<path class="st9" d="M37,105.2c-1.3,1.7-3.2,2.6-4.5,4.2c-0.4,0.5,0.2,1.1,0.7,0.7c1.6-1.4,3.7-2.4,4.7-4.4
			C38.1,105.2,37.4,104.8,37,105.2z"/>
		<path class="st9" d="M57.9,130.4c-0.4-0.4-1.1,0-1.5,0.2c-0.6,0.3-1.4,0.7-1.9,1.2c-0.4,0.4,0.1,1,0.6,0.7c0.6-0.3,1.2-0.7,1.8-1
			c0.4-0.2,0.9-0.4,1.1-0.8C58.1,130.7,58,130.5,57.9,130.4z"/>
		<path class="st9" d="M59.6,132.3c-2.3,1.1-4.7,2.6-6.5,4.3c-0.4,0.4,0.2,0.9,0.6,0.6c2-1.6,4.4-2.6,6.4-4.1
			C60.6,132.8,60.2,132.1,59.6,132.3z"/>
		<path class="st9" d="M80.4,174.8c-1.8,0.3-3.6,1.5-4.9,2.6c-0.5,0.4,0.1,1,0.6,0.8c0.8-0.4,1.6-0.9,2.3-1.3
			c0.8-0.4,1.6-0.8,2.4-1.2C81.2,175.3,80.9,174.7,80.4,174.8z"/>
		<path class="st9" d="M83,175.8c-0.9,0.5-1.8,1.1-2.8,1.7c-0.6,0.3-0.1,1.2,0.5,0.9c1-0.5,1.9-1.2,2.8-1.9
			C83.9,176.2,83.4,175.6,83,175.8z"/>
		<path class="st9" d="M121.1,149.6c-1.4,0.5-2.6,1.4-3.7,2.3c-0.5,0.4,0.1,1.2,0.7,0.9c1.2-0.7,2.5-1.4,3.6-2.3
			C122,150.2,121.6,149.4,121.1,149.6z"/>
		<path class="st9" d="M118.5,114.9c-0.9,0-1.7,0.7-2.4,1.2c-0.9,0.7-1.8,1.5-2.7,2.1c-0.4,0.2-0.1,0.9,0.3,0.7
			c0.9-0.4,1.6-0.9,2.3-1.5c0.9-0.7,1.9-1.1,2.8-1.7C119.1,115.5,119,114.9,118.5,114.9z"/>
		<path class="st9" d="M121.9,115.7c-1.6,0.6-2.8,1.8-4.3,2.5c-0.5,0.3-0.1,1,0.5,0.8c1.5-0.6,2.9-1.6,4.2-2.5
			C122.6,116.2,122.3,115.5,121.9,115.7z"/>
		<path class="st9" d="M82.2,100.3c-0.7,0-1.3,0.5-1.8,0.9c-0.7,0.5-1.5,0.9-2.3,1.3c-0.3,0.1-0.2,0.6,0.2,0.6
			c0.8-0.1,1.5-0.4,2.2-0.7c0.7-0.4,1.7-0.7,2.2-1.4C82.8,100.6,82.5,100.3,82.2,100.3z"/>
		<path class="st9" d="M83.8,101.6c-1,0.6-1.8,1.5-2.8,2.2c-0.5,0.4,0,1.2,0.5,0.9c1-0.7,2.2-1.4,2.8-2.5
			C84.5,101.8,84.1,101.4,83.8,101.6z"/>
	</g>
	<g>
		<path class="st2" d="M110,130.3c-0.8-0.3-1.6-0.1-2.5-0.1c-1,0-1.9,0.1-2.9,0.3c-0.8,0.2-0.7,1.5,0.2,1.5c0.9,0,1.8,0,2.7,0
			c0.9,0,1.8,0.2,2.7-0.3C110.8,131.4,110.6,130.5,110,130.3z"/>
		<path class="st2" d="M106.8,119.8c-0.7,0.4-1.1,1.1-1.6,1.7c-0.6,0.7-1.2,1.3-1.6,2.1c-0.4,0.7,0.5,1.4,1.1,0.9
			c0.6-0.5,1.2-1.1,1.7-1.7c0.6-0.6,1.3-1.3,1.5-2.1C108,120,107.4,119.4,106.8,119.8z"/>
		<path class="st2" d="M108.4,139.5c-0.9-1.3-2.2-2.7-3.7-3.1c-0.7-0.2-1.2,0.9-0.5,1.2c1.4,0.7,2,2.2,3.3,2.8
			C108,140.7,108.9,140.1,108.4,139.5z"/>
	</g>
	<g>
		<path class="st2" d="M56.3,129.5c-1-0.1-2,0.1-3,0.1c-1.1,0-2.2,0.1-3.3,0.4c-1,0.2-0.5,1.6,0.4,1.5c2-0.3,4.5,0.5,6.3-0.6
			C57.3,130.4,57,129.6,56.3,129.5z"/>
		<path class="st2" d="M55,122.9c-1.2-1-2.6-1.8-3.9-2.6c-0.8-0.5-1.4,0.7-0.7,1.2c1.3,0.9,2.5,1.9,4,2.5
			C55,124.4,55.5,123.4,55,122.9z"/>
		<path class="st2" d="M55.3,135.9c-1,1.1-1.8,2.3-2.7,3.6c-0.6,0.8,0.8,1.6,1.3,0.8c0.8-1.2,1.7-2.3,2.4-3.5
			C56.8,136,55.9,135.3,55.3,135.9z"/>
	</g>
	<g>
		<path class="st1" d="M45.2,154.8c-0.5,0.2-1.3,0.5-2.3,0.7c-1,0.3-1.8,0.5-2.3,0.7c-0.1,0.4-0.2,1.2-0.3,2.4
			c0.2,0.1,0.5,0.1,0.8,0.1c0.2,0,0.5,0,1-0.1c0.4-0.1,0.8-0.1,1-0.1c0.4,0,0.7,0.1,1,0.3c0.2,0.3,0.3,0.5,0.3,0.5
			c0,0.1,0,0.2-0.1,0.2c0,0-0.1,0.1-0.3,0.3c-0.1,0.1-0.3,0.2-0.4,0.2c-0.3,0.1-0.8,0.1-1.6,0.1c-0.7,0-1.2,0.1-1.6,0.3
			c-0.3,1-0.4,1.8-0.4,2.4c0,0.4,0.1,0.7,0.2,1c0.7,0.5,1.8,0.7,3.4,0.6c0.1,0,0.2-0.1,0.4-0.2c0.1-0.1,0.2-0.2,0.3-0.2
			c0.4-0.1,0.6,0.2,0.8,0.9c0,0.2,0,0.4-0.1,0.6c-0.1,0.2-0.3,0.3-0.5,0.3c-1.7,0.1-3.1-0.1-4.4-0.4c-0.4-0.1-0.7-0.3-1.1-0.6
			c-0.3-0.3-0.5-0.7-0.5-1.1c-0.1-1.2-0.1-2.3,0-3.3c-0.4-0.3-0.6-0.5-0.5-0.8c0-0.1,0.1-0.2,0.3-0.3c0.2-0.1,0.3-0.2,0.3-0.3
			c0-0.1,0.1-0.8,0.2-2c-0.8-0.2-1.2-0.4-1.1-0.9c0-0.4,0.3-0.7,0.7-1c0.4-0.2,0.9-0.4,1.3-0.5c0.5-0.3,1.2-0.5,1.9-0.7
			c0.7-0.2,1.4-0.4,2-0.5c0.1,0,0.2,0,0.3,0c0.4,0,0.8,0.1,1.3,0.4c0,0.1,0,0.2,0.1,0.3c0.1,0.2,0.1,0.3,0.1,0.3
			C45.4,154.6,45.3,154.7,45.2,154.8z"/>
		<path class="st1" d="M50.2,152.6c0,0.3-0.2,0.5-0.6,0.7c-0.1,0.1-0.2,0.1-0.4,0c-0.2-0.1-0.3-0.1-0.3-0.1c-0.1,0-0.2,0-0.3,0.1
			c-0.8,0.8-1.1,1.7-1.1,2.8c0,0.4,0.1,0.8,0.2,1.1c0.1,0.2,0.6,1.2,1.6,3.2c0.7,1.3,1,2.5,1,3.4c0,0.8-0.2,1.5-0.6,2.2
			c-0.1,0.2-0.4,0.5-0.9,0.9c-0.4,0.3-0.8,0.4-1.1,0.4c-0.1,0-0.2,0-0.4-0.1c-0.4-0.2-0.6-0.4-0.6-0.7c0-0.2,0.1-0.4,0.3-0.6
			c0.1-0.1,0.2-0.1,0.4-0.1c0.2,0,0.3-0.1,0.4-0.3c0.3-0.6,0.4-1.2,0.4-1.9c0-0.9-0.4-2.2-1.3-3.9c-0.9-1.7-1.3-3.1-1.3-4.1
			c0-0.8,0.2-1.6,0.5-2.3c0.4-0.8,0.9-1.3,1.6-1.6c0.3-0.2,0.6-0.2,0.9-0.2c0.6,0,1,0.2,1.3,0.5C50.1,152.3,50.2,152.4,50.2,152.6z"
			/>
		<path class="st1" d="M55.9,152.6c0,0.3-0.2,0.5-0.6,0.7c-0.1,0.1-0.2,0.1-0.4,0c-0.2-0.1-0.3-0.1-0.3-0.1c-0.1,0-0.2,0-0.3,0.1
			c-0.8,0.8-1.1,1.7-1.1,2.8c0,0.4,0.1,0.8,0.2,1.1c0.1,0.2,0.6,1.2,1.6,3.2c0.7,1.3,1,2.5,1,3.4c0,0.8-0.2,1.5-0.6,2.2
			c-0.1,0.2-0.4,0.5-0.9,0.9c-0.4,0.3-0.8,0.4-1.1,0.4c-0.1,0-0.2,0-0.4-0.1c-0.4-0.2-0.6-0.4-0.6-0.7c0-0.2,0.1-0.4,0.3-0.6
			c0.1-0.1,0.2-0.1,0.4-0.1c0.2,0,0.3-0.1,0.4-0.3c0.3-0.6,0.4-1.2,0.4-1.9c0-0.9-0.4-2.2-1.3-3.9c-0.9-1.7-1.3-3.1-1.3-4.1
			c0-0.8,0.2-1.6,0.5-2.3c0.4-0.8,0.9-1.3,1.6-1.6c0.3-0.2,0.6-0.2,0.9-0.2c0.6,0,1,0.2,1.3,0.5C55.9,152.3,55.9,152.4,55.9,152.6z"
			/>
		<path class="st1" d="M64.8,164.2c0.1,0.2,0.1,0.4,0.1,0.6c0,0.3-0.1,0.5-0.4,0.7c-0.2,0.2-0.4,0.3-0.5,0.3
			c-0.7-0.1-1.1-0.7-1.3-1.6c-0.2-1.1-0.4-1.9-0.7-2.7c-0.5,0-0.9,0.1-1.4,0.1c-0.5,0.1-1,0.2-1.3,0.5c-0.2,0.4-0.4,1.2-0.6,2.3
			c-0.2,1-0.5,1.8-0.7,2.3c-0.1,0.3-0.3,0.3-0.7,0.2c-0.5-0.2-0.7-0.4-0.7-0.6c0-0.5,0.1-1.2,0.5-2.1c0.4-1,0.6-1.7,0.7-2.2
			c0-0.1-0.1-0.3-0.3-0.4c-0.2-0.2-0.3-0.3-0.3-0.4c0-0.1,0-0.1,0.1-0.2s0.2-0.1,0.4-0.2c0.2,0,0.4-0.1,0.4-0.2
			c0.3-0.7,0.6-2,1.2-3.9c0.5-1.6,0.9-2.9,1.2-3.8c0.1-0.2,0.3-0.3,0.5-0.3c0.2,0,0.4,0.1,0.5,0.2c0.4,0.3,0.6,0.8,0.8,1.5
			c0.1,0.6,0.2,1.1,0.2,1.7C63.3,159.4,64,162.1,64.8,164.2z M61.7,160.2c0-0.5-0.1-1.1-0.3-1.7c-0.1-0.6-0.3-1.1-0.4-1.7
			c-0.4,1.2-0.8,2.3-1.1,3.5C60.2,160.2,60.8,160.2,61.7,160.2z"/>
		<path class="st1" d="M67.9,154.6c0,0.4,0,0.8,0,1.3c0,0.9-0.1,2.4-0.3,4.3s-0.3,3.3-0.3,4.3c0,0.4,0,0.7,0,1.1
			c-0.1,0.4-0.4,0.6-0.8,0.6c-0.6,0-0.9-0.3-1-0.8c-0.1-0.5-0.1-1-0.1-1.5c0-0.9,0.1-2.4,0.3-4.2c0.2-1.9,0.3-3.3,0.3-4.2
			c0-0.4,0-0.7,0-1.1c0.1-0.3,0.4-0.4,0.7-0.4c0.3,0,0.5,0.1,0.8,0.2c0.1,0,0.1-0.1,0.1-0.1c0,0,0.1,0.1,0.1,0.2
			C67.8,154.4,67.8,154.5,67.9,154.6C67.9,154.6,67.9,154.6,67.9,154.6z"/>
		<path class="st1" d="M76.3,154.8c-0.5,0.2-1.3,0.5-2.3,0.7c-1,0.3-1.8,0.5-2.3,0.7c-0.1,0.4-0.2,1.2-0.3,2.4
			c0.2,0.1,0.5,0.1,0.8,0.1c0.2,0,0.5,0,1-0.1c0.4-0.1,0.8-0.1,1-0.1c0.4,0,0.7,0.1,1,0.3c0.2,0.3,0.3,0.5,0.3,0.5
			c0,0.1,0,0.2-0.1,0.2c0,0-0.1,0.1-0.3,0.3c-0.1,0.1-0.3,0.2-0.4,0.2c-0.3,0.1-0.8,0.1-1.6,0.1c-0.7,0-1.2,0.1-1.6,0.3
			c-0.3,1-0.4,1.8-0.4,2.4c0,0.4,0.1,0.7,0.2,1c0.7,0.5,1.8,0.7,3.4,0.6c0.1,0,0.2-0.1,0.4-0.2c0.1-0.1,0.2-0.2,0.3-0.2
			c0.4-0.1,0.6,0.2,0.8,0.9c0,0.2,0,0.4-0.1,0.6c-0.1,0.2-0.3,0.3-0.5,0.3c-1.7,0.1-3.1-0.1-4.4-0.4c-0.4-0.1-0.7-0.3-1.1-0.6
			c-0.3-0.3-0.5-0.7-0.5-1.1c-0.1-1.2-0.1-2.3,0-3.3c-0.4-0.3-0.6-0.5-0.5-0.8c0-0.1,0.1-0.2,0.3-0.3c0.2-0.1,0.3-0.2,0.3-0.3
			c0-0.1,0.1-0.8,0.2-2c-0.8-0.2-1.2-0.4-1.1-0.9c0-0.4,0.3-0.7,0.7-1c0.4-0.2,0.9-0.4,1.3-0.5c0.5-0.3,1.2-0.5,2-0.7
			c0.7-0.2,1.3-0.4,2-0.5c0.1,0,0.2,0,0.3,0c0.4,0,0.8,0.1,1.3,0.4c0,0.1,0,0.2,0.1,0.3c0.1,0.2,0.1,0.3,0.1,0.3
			C76.4,154.6,76.3,154.7,76.3,154.8z"/>
		<path class="st1" d="M89.1,154.8c-0.5,0.2-1.3,0.5-2.3,0.7c-1,0.3-1.8,0.5-2.3,0.7c-0.1,0.4-0.2,1.2-0.3,2.4
			c0.2,0.1,0.5,0.1,0.8,0.1c0.2,0,0.5,0,1-0.1s0.8-0.1,1-0.1c0.4,0,0.7,0.1,1,0.3c0.2,0.3,0.3,0.5,0.3,0.5c0,0.1,0,0.2-0.1,0.2
			c0,0-0.1,0.1-0.3,0.3c-0.1,0.1-0.3,0.2-0.4,0.2c-0.3,0.1-0.8,0.1-1.6,0.1c-0.7,0-1.2,0.1-1.6,0.3c-0.3,1-0.4,1.8-0.4,2.4
			c0,0.4,0.1,0.7,0.2,1c0.7,0.5,1.8,0.7,3.4,0.6c0.1,0,0.2-0.1,0.4-0.2c0.1-0.1,0.2-0.2,0.3-0.2c0.4-0.1,0.6,0.2,0.8,0.9
			c0,0.2,0,0.4-0.1,0.6c-0.1,0.2-0.3,0.3-0.5,0.3c-1.7,0.1-3.1-0.1-4.4-0.4c-0.4-0.1-0.7-0.3-1.1-0.6c-0.3-0.3-0.5-0.7-0.5-1.1
			c-0.1-1.2-0.1-2.3,0-3.3c-0.4-0.3-0.6-0.5-0.5-0.8c0-0.1,0.1-0.2,0.3-0.3c0.2-0.1,0.3-0.2,0.3-0.3c0-0.1,0.1-0.8,0.2-2
			c-0.8-0.2-1.2-0.4-1.1-0.9c0-0.4,0.3-0.7,0.7-1c0.4-0.2,0.9-0.4,1.3-0.5c0.5-0.3,1.2-0.5,2-0.7c0.7-0.2,1.3-0.4,2-0.5
			c0.1,0,0.2,0,0.3,0c0.4,0,0.8,0.1,1.3,0.4c0,0.1,0,0.2,0.1,0.3c0.1,0.2,0.1,0.3,0.1,0.3C89.3,154.6,89.2,154.7,89.1,154.8z"/>
		<path class="st1" d="M98.4,152.5c-0.2,1.9-0.4,3.7-0.6,5.6c-0.2,2.2-0.4,4.1-0.4,5.6c0,0.5,0,1,0,1.4c0,0.2-0.1,0.4-0.2,0.6
			c-0.2,0.2-0.4,0.3-0.6,0.3c-0.4,0-0.8-0.3-1.1-0.9c-0.9-1.7-2-4.5-3.3-8.2c0-0.1-0.1-0.1-0.1-0.1c-0.1,0-0.2,0.1-0.2,0.3
			c-0.2,2-0.4,4.1-0.4,6.3c0,1.1,0,2.1,0.1,3.2c0,0.4-0.1,0.7-0.4,0.8c-0.1,0.1-0.2,0.1-0.3,0.1c-0.1,0-0.2,0-0.4-0.1
			c-0.2-0.1-0.3-0.2-0.4-0.2c-0.2-0.1-0.3-0.2-0.3-0.5c0-0.2,0-0.5,0-0.7c0-0.8-0.1-1.6-0.1-2.4c0-1.5,0.1-3.3,0.3-5.5
			c0.3-3.4,0.4-5.2,0.4-5.6c0-0.3,0.3-0.5,0.8-0.5c0.2,0,0.6,0.1,1,0.5c0.4,0.8,1,2.2,1.6,4.1c0.6,1.8,1.2,3.2,1.7,4.2
			c0.2-1.8,0.5-4.6,1-8.4c0-0.3,0.2-0.4,0.6-0.4c0.1,0,0.3,0,0.4,0.1c0.2,0.1,0.4,0.1,0.4,0.1C98.3,152.3,98.4,152.4,98.4,152.5z"/>
		<path class="st1" d="M105.2,152.6c0,0.4-0.3,0.6-0.8,0.7c-0.7,0.1-1.1,0.3-1.2,0.4c-1.6,1.6-2.3,3.8-2.3,6.4
			c0,1.2,0.2,2.4,0.6,3.5c0.3,0.9,0.5,1.5,0.7,1.8c0.3,0.7,0.8,1.2,1.3,1.5c0.2,0.1,0.4,0.2,0.6,0.3c0.2,0.1,0.3,0.3,0.3,0.5
			s-0.1,0.4-0.2,0.6c-0.1,0.2-0.3,0.3-0.5,0.2c-0.2,0-0.5-0.1-0.8-0.3c-0.7-0.4-1.4-1.2-2.2-2.5c-0.2-0.3-0.4-0.7-0.6-1
			c-0.2-0.3-0.4-0.7-0.4-1c-0.1-0.2-0.2-1.1-0.4-2.7c-0.1-0.5-0.1-1-0.1-1.4c0-2.5,0.7-4.6,2.1-6.3c0.8-1,1.7-1.5,2.6-1.5
			c0.4,0,0.7,0.1,1.1,0.4C105.1,152.2,105.2,152.4,105.2,152.6z"/>
		<path class="st1" d="M112,160.7c-0.8,1.9-2,3-3.5,3.3c-0.2,0-0.4,0.1-0.5,0.1c-0.8,0-1.6-0.4-2.4-1.3c-0.5-0.6-0.8-1.3-0.8-2.3
			c0-1,0.3-2.1,0.9-3.3c0.3-0.5,0.6-0.9,1-1.3c0.4-0.4,0.8-0.6,1.2-0.6c0.2,0,0.4,0.1,0.6,0.3c0.2,0.2,0.7,0.4,1.6,0.7
			c0.7,0.2,1.1,0.6,1.4,1.1c0.5,0.9,0.7,1.7,0.7,2.4C112.2,160,112.1,160.4,112,160.7z M110.3,159.4c-0.1-1-0.4-1.6-0.8-1.8
			c-0.1,0-0.1,0-0.2,0c-0.2,0-0.4,0.1-0.6,0.4c-0.3,0.3-0.5,0.5-0.6,0.6c-0.1,0-0.2,0-0.4-0.1c-0.2-0.1-0.3-0.2-0.4-0.2
			c0,0-0.1,0-0.1,0c-0.5,0.4-0.7,1.1-0.7,1.9c0,0.6,0.1,1.1,0.4,1.5c0.4,0.6,0.7,0.9,1,0.9c0.6,0,1.2-0.4,1.8-1.1
			C110.1,160.7,110.4,160,110.3,159.4z"/>
		<path class="st1" d="M121.4,165.3c0,0.1,0.1,0.1,0.1,0.2c0,0.3-0.3,0.6-1,0.7c-0.7-0.6-1.7-1.4-2.8-2.6c-1.2-1.3-2.1-2.2-2.7-2.8
			c0,0.4-0.1,1.3-0.2,2.8c-0.1,1.2-0.2,2.1-0.4,2.8c0,0-0.1,0-0.3,0.1c-0.1,0.1-0.3,0.1-0.4,0.1c-0.6-0.1-0.9-0.6-0.9-1.3
			c0-0.2,0-0.5,0.1-0.8c0.1-0.4,0.1-0.7,0.1-0.8c0.1-0.8,0.1-1.8,0.1-2.9v-2.3c0-1.9,0.1-3.5,0.3-4.8c0.1-0.9,1-1.3,2.4-1.2
			c0.8,0,1.4,0.4,2,1.1c0.5,0.7,0.8,1.4,0.8,2.2c0,0.7-0.2,1.3-0.7,2c-0.4,0.6-0.9,1-1.5,1.4c-0.3,0.1-0.4,0.3-0.4,0.5
			c0,0.2,0.1,0.4,0.4,0.6c0.2,0.2,0.4,0.4,0.7,0.5c0,0,0.8,0.7,2.3,2.1C120.3,163.9,121,164.7,121.4,165.3z M117,156
			c0-0.3,0.1-0.5,0-0.7c0-0.3-0.2-0.6-0.4-0.8c-0.2-0.2-0.5-0.4-1-0.4c-0.3,0-0.5,0.1-0.6,0.3c-0.1,0.3-0.1,0.7-0.1,1.2
			c0,0.2,0,0.6,0.1,1.4c0,0.6,0,1,0,1.4C116.2,157.6,116.9,156.8,117,156z"/>
		<path class="st1" d="M127.5,154.8c-0.5,0.2-1.3,0.5-2.3,0.7c-1,0.3-1.8,0.5-2.3,0.7c-0.1,0.4-0.2,1.2-0.3,2.4
			c0.2,0.1,0.5,0.1,0.8,0.1c0.2,0,0.5,0,1-0.1c0.4-0.1,0.8-0.1,1-0.1c0.4,0,0.7,0.1,1,0.3c0.2,0.3,0.3,0.5,0.3,0.5
			c0,0.1,0,0.2-0.1,0.2c0,0-0.1,0.1-0.3,0.3c-0.1,0.1-0.3,0.2-0.4,0.2c-0.3,0.1-0.8,0.1-1.6,0.1c-0.7,0-1.2,0.1-1.6,0.3
			c-0.3,1-0.4,1.8-0.4,2.4c0,0.4,0.1,0.7,0.2,1c0.7,0.5,1.8,0.7,3.4,0.6c0.1,0,0.2-0.1,0.4-0.2c0.1-0.1,0.2-0.2,0.3-0.2
			c0.4-0.1,0.6,0.2,0.8,0.9c0,0.2,0,0.4-0.1,0.6c-0.1,0.2-0.3,0.3-0.5,0.3c-1.7,0.1-3.1-0.1-4.4-0.4c-0.4-0.1-0.7-0.3-1.1-0.6
			s-0.5-0.7-0.5-1.1c-0.1-1.2-0.1-2.3,0-3.3c-0.4-0.3-0.6-0.5-0.5-0.8c0-0.1,0.1-0.2,0.3-0.3c0.2-0.1,0.3-0.2,0.3-0.3
			c0-0.1,0.1-0.8,0.2-2c-0.8-0.2-1.2-0.4-1.1-0.9c0-0.4,0.3-0.7,0.7-1c0.4-0.2,0.9-0.4,1.3-0.5c0.5-0.3,1.2-0.5,2-0.7
			c0.7-0.2,1.3-0.4,2-0.5c0.1,0,0.2,0,0.3,0c0.4,0,0.8,0.1,1.3,0.4c0,0.1,0,0.2,0.1,0.3s0.1,0.3,0.1,0.3
			C127.6,154.6,127.6,154.7,127.5,154.8z"/>
	</g>
	<g>
		<path class="st2" d="M73,132.6c-0.9,2.1-2.3,3.4-4,3.8c-0.2,0-0.4,0.1-0.6,0.1c-0.9,0-1.8-0.5-2.7-1.5c-0.6-0.7-0.9-1.5-0.9-2.6
			c0-1.2,0.3-2.4,1-3.8c0.3-0.6,0.7-1.1,1.1-1.5c0.5-0.5,1-0.7,1.4-0.7c0.3,0,0.5,0.1,0.7,0.3c0.2,0.2,0.8,0.4,1.8,0.8
			c0.8,0.3,1.3,0.7,1.6,1.3c0.6,1.1,0.8,2,0.8,2.7C73.3,131.8,73.2,132.2,73,132.6z M71.1,131.1c-0.1-1.2-0.4-1.9-0.9-2.1
			c-0.1,0-0.2,0-0.2,0c-0.2,0-0.4,0.2-0.7,0.5c-0.3,0.4-0.6,0.6-0.7,0.6c-0.1,0-0.3,0-0.5-0.1c-0.2-0.1-0.3-0.2-0.4-0.2
			c0,0-0.1,0-0.1,0c-0.6,0.5-0.8,1.2-0.8,2.2c0,0.7,0.2,1.3,0.5,1.7c0.4,0.7,0.8,1,1.1,1c0.7,0,1.4-0.4,2-1.3
			C70.9,132.6,71.2,131.8,71.1,131.1z"/>
		<path class="st2" d="M82.7,124.7c-0.1,1.1-0.4,2.6-1,4.5c-0.7,2.5-1.1,4-1.2,4.5c-0.3,1.6-1,3.1-2,4.4c-0.6,0.8-1.3,1.3-2.1,1.2
			c-0.7,0-1.2-0.5-1.6-1.4c-0.6-1.5-0.9-3.3-0.9-5.3c0-1.2,0.1-2.7,0.3-4.5c0,0.2,0-0.3,0-1.5c0-1,0.4-1.5,1.1-1.5
			c0.2,0,0.3,0,0.5,0.1c0.2,0.1,0.4,0.2,0.5,0.3c0,0.8,0,2-0.1,3.6c-0.1,1.7-0.1,2.9-0.1,3.7c0,0.8,0,1.5,0.1,2.2
			c0,0.3,0.2,1,0.4,1.9c0.7-0.7,1.2-1.7,1.6-3c0.1-0.4,0.4-1.5,0.8-3.4c0.3-1.4,0.6-2.5,1-3.3c0.1-0.2,0.2-0.6,0.3-1.3
			c0.1-0.6,0.2-1,0.3-1.3c0.2-0.4,0.5-0.6,0.9-0.6C82,124.2,82.4,124.4,82.7,124.7z"/>
		<path class="st2" d="M90.2,129.5c-0.6,1.3-1.1,2.2-1.5,2.6c-0.7,0.7-1,1-1.1,1.1c-0.5,0.4-0.9,0.6-1.4,0.7
			c-0.1,0.3-0.1,0.7-0.1,1.1c0,0.3,0,0.8,0.1,1.4s0.1,1.1,0.1,1.3c0,1.1-0.3,1.9-0.8,2.4l-0.7-0.4c-0.3-0.1-0.4-0.3-0.5-0.5
			c-0.2-1-0.2-2.2-0.2-3.5c0-0.8,0-2.1,0.1-3.8c0.1-1.7,0.1-2.9,0.1-3.8c0-1.2-0.1-2.4-0.2-3.4c-0.1,0-0.2,0-0.4-0.2
			c-0.1-0.2-0.2-0.3-0.3-0.4c0.1-0.5,0.2-0.8,0.4-0.8c0.2-0.1,0.7-0.1,1.5,0c2.1,0.3,3.6,1.2,4.7,2.7c0.3,0.5,0.5,1,0.5,1.6
			C90.5,128.3,90.4,128.9,90.2,129.5z M88.6,127.6c0.1-0.6-0.2-1.1-0.8-1.5c0,0-0.6-0.2-1.7-0.7c0.2,2.9,0.2,5,0.2,6.2
			C87.7,130.3,88.5,128.9,88.6,127.6z"/>
		<path class="st2" d="M96.8,123.3c0,0.3-0.2,0.6-0.7,0.8c-0.1,0.1-0.3,0.1-0.4,0c-0.2-0.1-0.3-0.1-0.4-0.1c-0.1,0-0.2,0-0.3,0.1
			c-0.9,0.9-1.3,1.9-1.3,3.1c0,0.5,0.1,0.9,0.2,1.3c0.1,0.2,0.7,1.4,1.8,3.7c0.8,1.5,1.1,2.8,1.1,3.9c0,0.9-0.2,1.7-0.6,2.5
			c-0.1,0.3-0.5,0.6-1.1,1.1c-0.5,0.3-0.9,0.5-1.2,0.5c-0.1,0-0.3,0-0.4-0.1c-0.5-0.2-0.7-0.5-0.7-0.8c0-0.2,0.1-0.4,0.4-0.7
			c0.1-0.1,0.2-0.1,0.5-0.1c0.2,0,0.4-0.1,0.5-0.3c0.3-0.7,0.5-1.4,0.5-2.1c0-1-0.5-2.5-1.5-4.5c-1-2-1.5-3.5-1.5-4.7
			c0-1,0.2-1.8,0.6-2.6c0.4-0.9,1-1.5,1.8-1.9c0.4-0.2,0.7-0.3,1.1-0.3c0.7,0,1.2,0.2,1.5,0.5C96.7,122.9,96.8,123.1,96.8,123.3z"/>
	</g>
</g>
<path class="st0" d="M1.7,108"/>
</svg>
