<?xml version="1.0" encoding="utf-8"?>
<!-- Generator: Adobe Illustrator 16.0.0, SVG Export Plug-In . SVG Version: 6.00 Build 0)  -->
<!DOCTYPE svg PUBLIC "-//W3C//DTD SVG 1.1//EN" "http://www.w3.org/Graphics/SVG/1.1/DTD/svg11.dtd">
<svg version="1.1" id="Calque_1" xmlns="http://www.w3.org/2000/svg" xmlns:xlink="http://www.w3.org/1999/xlink" x="0px" y="0px"
	 width="164.2px" height="150px" viewBox="0 0 164.2 150" style="enable-background:new 0 0 164.2 150;" xml:space="preserve">
<style type="text/css">
<![CDATA[
	.st0{fill:#FEF7C2;}
	.st1{fill:#FFE09F;}
]]>
</style>
<g>
	<path class="st1" d="M158.2,6.8c-0.6-0.5-3.4-1.1-7.7-1.6c1,1.2,1.6,2.6,1.6,4.2c0.1,3.8-3,6.9-6.8,6.9c-3.8,0.1-6.9-2.9-7-6.7
		c0-2.2,1-4.2,2.6-5.5c-4.5-0.4-9.6-0.8-15.2-1.1c1,1.2,1.7,2.7,1.7,4.3c0.1,3.8-3,6.9-6.8,6.9c-3.8,0.1-6.9-2.9-7-6.7
		c0-2,0.8-3.8,2.2-5.1c-5-0.2-10.3-0.5-15.7-0.6c1.7,1.2,2.8,3.2,2.8,5.4c0.1,3.8-3,6.9-6.8,6.9c-3.8,0.1-6.9-2.9-7-6.7
		c0-2.4,1.2-4.6,3.2-5.8c-7-0.2-14.1-0.2-21.1-0.2c2,1.2,3.4,3.3,3.5,5.8c0.1,3.8-3,6.9-6.8,6.9c-3.8,0.1-6.9-2.9-7-6.7
		c0-2.5,1.3-4.8,3.4-6C57.5,1.5,50.8,1.7,44.4,2c2.7,0.9,4.6,3.4,4.7,6.3c0.1,3.8-3,6.9-6.8,6.9c-3.8,0.1-6.9-2.9-7-6.7
		c0-2.8,1.6-5.2,4-6.3c-6.8,0.4-13.2,0.9-18.8,1.6c2,1.2,3.4,3.3,3.5,5.8c0.1,3.8-3,6.9-6.8,6.9c-3.8,0.1-6.9-2.9-7-6.7
		c0-1.8,0.7-3.4,1.8-4.7C8.1,5.9,4.8,6.8,2.2,7.8C-2.6,9.6,5.6,137.5,14,144.9c8.4,7.3,136.6,5,142.7-0.5
		C162.9,138.8,162.9,10.5,158.2,6.8z"/>
	<path class="st0" d="M160.9,5.4c-0.6-0.5-3.4-1.1-7.7-1.6c1,1.2,1.6,2.7,1.6,4.3c0.1,3.8-3,6.9-6.8,7c-3.8,0.1-6.9-3-7-6.8
		c0-2.2,1-4.2,2.6-5.5c-4.5-0.4-9.6-0.8-15.2-1.1c1,1.2,1.7,2.7,1.7,4.4c0.1,3.8-3,6.9-6.8,7c-3.8,0.1-6.9-3-7-6.8
		c0-2,0.8-3.9,2.2-5.2c-5-0.2-10.3-0.5-15.7-0.6c1.7,1.2,2.8,3.2,2.8,5.5c0.1,3.8-3,6.9-6.8,7c-3.8,0.1-6.9-3-7-6.8
		c0-2.5,1.2-4.6,3.2-5.9C88.1,0.1,81,0,73.9,0c2,1.2,3.4,3.3,3.5,5.9c0.1,3.8-3,6.9-6.8,7c-3.8,0.1-6.9-3-7-6.8c0-2.6,1.3-4.8,3.4-6
		c-6.8,0.1-13.5,0.2-19.9,0.5C49.8,1.5,51.7,4,51.8,7c0.1,3.8-3,6.9-6.8,7c-3.8,0.1-6.9-3-7-6.8c0-2.8,1.6-5.3,4-6.4
		c-6.8,0.4-13.2,0.9-18.8,1.6c2,1.2,3.4,3.3,3.5,5.9c0.1,3.8-3,6.9-6.8,7c-3.8,0.1-6.9-3-7-6.8c0-1.8,0.7-3.5,1.8-4.7
		c-3.9,0.7-7.2,1.6-9.7,2.6C0.1,8.3,8.3,137.9,16.7,145.3c8.4,7.4,136.6,5.1,142.7-0.5C165.5,139.2,165.5,9.3,160.9,5.4z"/>
	<g>
		<path class="st1" d="M14.5,18.3c-1.1-0.5-1.9,0.4-2.7,1c-1,0.9-1.9,1.8-2.7,2.8c-0.7,0.8,0.5,2,1.2,1.2c0.7-0.8,1.5-1.5,2.3-2.3
			c0.4-0.3,0.8-0.6,1.2-0.9c0.2-0.2,0.4-0.3,0.6-0.5c0.1-0.1,0.2-0.2,0-0.1C14.9,19.3,15.1,18.6,14.5,18.3z"/>
		<path class="st1" d="M15.5,19.4c-2,2.6-4.9,4.1-7,6.5c-0.6,0.7,0.3,1.6,1,1c2.5-2.2,5.7-3.8,7.3-6.8
			C17.3,19.2,16.1,18.6,15.5,19.4z"/>
		<path class="st1" d="M47.8,58.3c-0.7-0.6-1.6,0-2.3,0.3c-1,0.5-2.1,1.1-2.9,1.9c-0.6,0.6,0.2,1.5,0.9,1.1c0.9-0.5,1.8-1,2.7-1.5
			c0.7-0.3,1.5-0.6,1.7-1.3C48.1,58.7,48,58.4,47.8,58.3z"/>
		<path class="st1" d="M50.5,61.2c-3.6,1.7-7.2,4-10,6.7c-0.6,0.6,0.3,1.3,0.9,0.9c3.1-2.4,6.8-4,9.9-6.3
			C51.9,61.9,51.3,60.8,50.5,61.2z"/>
		<path class="st1" d="M82.5,126.7c-2.7,0.5-5.5,2.3-7.6,4c-0.7,0.6,0.2,1.5,0.9,1.2c1.2-0.6,2.4-1.4,3.6-2c1.2-0.7,2.5-1.2,3.7-1.8
			C83.8,127.6,83.3,126.6,82.5,126.7z"/>
		<path class="st1" d="M86.6,128.4c-1.5,0.8-2.9,1.7-4.3,2.6c-0.9,0.5-0.1,1.9,0.8,1.4c1.5-0.8,2.9-1.8,4.3-2.9
			C88,128.9,87.2,128,86.6,128.4z"/>
		<path class="st1" d="M145.4,87.9c-2.1,0.7-4.1,2.2-5.8,3.6c-0.8,0.6,0.2,1.8,1,1.3c1.9-1.1,3.9-2.2,5.5-3.6
			C146.8,88.7,146.1,87.6,145.4,87.9z"/>
		<path class="st1" d="M141.4,34.3c-1.4,0.1-2.7,1-3.8,1.9c-1.4,1.1-2.7,2.3-4.2,3.3c-0.5,0.4-0.2,1.4,0.5,1.1
			c1.3-0.5,2.5-1.4,3.6-2.3c1.3-1,2.9-1.7,4.3-2.7C142.2,35.2,142.1,34.2,141.4,34.3z"/>
		<path class="st1" d="M146.6,35.5c-2.4,1-4.4,2.7-6.7,3.9c-0.8,0.4-0.1,1.5,0.7,1.2c2.3-1,4.4-2.4,6.5-3.9
			C147.6,36.3,147.3,35.2,146.6,35.5z"/>
		<path class="st1" d="M85.4,11.7c-1.1-0.1-2,0.8-2.9,1.3c-1.1,0.7-2.3,1.4-3.5,1.9c-0.4,0.2-0.2,1,0.2,0.9c1.2-0.1,2.3-0.6,3.4-1.1
			c1.1-0.6,2.6-1.1,3.3-2.1C86.2,12.2,85.8,11.7,85.4,11.7z"/>
		<path class="st1" d="M87.7,13.7c-1.5,0.9-2.8,2.3-4.3,3.3c-0.8,0.6-0.1,1.9,0.8,1.3c1.6-1,3.4-2.1,4.4-3.8
			C88.9,14,88.3,13.4,87.7,13.7z"/>
	</g>
</g>
</svg>
