<?xml version="1.0" encoding="utf-8"?>
<!-- Generator: Adobe Illustrator 16.0.0, SVG Export Plug-In . SVG Version: 6.00 Build 0)  -->
<!DOCTYPE svg PUBLIC "-//W3C//DTD SVG 1.1//EN" "http://www.w3.org/Graphics/SVG/1.1/DTD/svg11.dtd">
<svg version="1.1" id="Calque_1" xmlns="http://www.w3.org/2000/svg" xmlns:xlink="http://www.w3.org/1999/xlink" x="0px" y="0px"
	 width="767.3px" height="500px" viewBox="0 0 767.3 500" style="enable-background:new 0 0 767.3 500;" xml:space="preserve">
<style type="text/css">
<![CDATA[
	.st0{fill:#4E9633;}
	.st1{enable-background:new    ;}
	.st2{fill:#FFFFFF;}
]]>
</style>
<g>
	<path class="st0" d="M696.6,288.6c-8.8,6-6.1-0.3-4.5-7.5c1.2-5.5,2.6-10.9,3.2-16.6c0.9-8.8-3.8-14.7-12.4-15.4
		c-12.1-1-22.1,23.8-28.6,17.9c-11.4-10.4,13.6-29.9,18.1-43c7-20.2-10.4-52.4-33.5-36.3c-9.4,6.5-15.5,18-21.4,27.5
		c-3.2,5.1-11.7,16.7-14.9,12.9c-7.5-9,17.1-74.4,21.8-91.5c4.8-17.5,6.6-36.8-2.7-53.1c-6.8-11.9-22.1-20.9-35.9-17.5
		c-30.1,7.5-50.1,42.2-57.4,70.2c-4.9,18.6-7.9,37.5-14.6,55.5c-3.5,9.4-6.5,21.7-16.5,22.4c-7.8,0.6-7.1-16.4-7.3-23.9
		c-0.5-21-18-29.3-29-16.5c-11.4,13.3-6.6,34.1-14.5,39.8c-10.2,7.3-14.6-17.2-15.3-19.5c-2.7-8.2-8.7-41.2-37.4-24.3
		c-19.9,11.7-8.4,48.4-32.7,56.3c-14.1,4.6-21.9-42.5-23.5-50.7c-3.9-19.4-7.2-38.8-14.7-57.2c-12.3-30.1-47.8-52.3-70.3-19.2
		c-9.7,14.3-14.3,31.7-21.2,47.4c-2.7,6.1-4.7,16.4-11.6,17.1c-13.4,1.4-18.3-18.1-22.2-28.4c-7.3-19-11-39.1-17.4-58.4
		C169,43.4,146.4-4,103.6,6.5C52.8,19,52.7,72.1,68.8,111.5c12.7,31.2,23.2,48.8,37.6,79.3c3.6,7.6,12.6,27.9,19.6,44.9
		c4.4,10.7,0.6,19-7,20.9c-5.7,1.9-12.2-7.1-15.4-9.2c-9.1-6-20.3-6.9-29.9-1.9c-8.1,4.2-13.3,16.4-12,25.2c1,6.8,3.8,12.5,7,18.5
		c3.5,6.6,8.7,19.3,2.5,21.3c-4.1,3-20.7-13.4-30.2-14.4c-26.3-2.8-26.3,25-4.4,42.1C56.3,353.5,76.4,368,96.7,380
		c22.6,13.3,51.3,27.1,50.7,57.5c1.7,17,1.9,34.4,13.7,47.8c11.2,12.7,30.8,13.9,46.4,13.2c19.8-0.9,39.2-6.2,58.5-10
		c33.5-6.6,69,1,102.2,6.1c33.7,5.2,65.9,7.5,99.8,3.3c33.2-4.1,65.8-10.5,99.3-7.2c25.5,2.5,49.5,7,70.6-10.7
		c8.6-7.2,17.8-19.2,22-54.4c3-24.8,8.2-42.5,25.7-61.4c15.7-17.1,69.5-54.3,46.6-81.7C723.8,272.4,703.9,283.6,696.6,288.6z"/>
	<path class="st0" d="M364.1,132.9c7.3,0.4,12.5-9.7,14.5-14.6c4.9-11.9,6.9-31.5-6.5-38.6c-13.5-7.2-21.9,4.5-22.3,16.9
		C349.4,106.7,352.2,132.3,364.1,132.9z"/>
	<path class="st0" d="M472.9,100.3c5.9-7.7,11.3-21.6,2.9-29.5c-8.5-7.9-16.9-1.1-19.6,7.9c-2.3,7.3-5.3,26.6,3.2,29.4
		C464.7,109.9,470.5,103.5,472.9,100.3z"/>
	<path class="st0" d="M681.1,161.9c6.2-4.1,13.4-12.7,9.3-20.5c-4.1-7.8-11.8-4.9-16,0.8c-3.4,4.7-10.4,17.7-4.9,21.9
		C672.8,166.7,678.5,163.6,681.1,161.9z"/>
	<path class="st0" d="M224.1,71.7c4.1-0.8,5.6-7.2,6-10.2c1-7.3-0.6-18.5-9.1-20.6s-11.5,5.6-10,12.6
		C212.2,59.2,217.4,73.1,224.1,71.7z"/>
	<path class="st0" d="M35,185.5c6,5.5,23.2,17.1,29.8,10.1c4.1-4.3,0.5-12.7-1.4-16.5c-4.8-9.2-15.7-20.7-27.1-16.1
		C24.7,167.6,27.6,178.8,35,185.5z"/>
	<path class="st0" d="M725.2,225.9c-5.7,5.8-18,22.5-11.4,29.4c4.1,4.2,12.7,1,16.6-0.7c9.4-4.4,21.3-14.9,17.2-26.5
		C743.6,216.4,732.2,218.7,725.2,225.9z"/>
	<path class="st0" d="M26.9,254.8c-4.5-6.5-13.9-14-22.1-9.4c-8.2,4.6-4.9,12.8,1.3,17.1c5.1,3.5,19.2,10.6,23.5,4.6
		C32.3,263.5,28.8,257.5,26.9,254.8z"/>
	<path class="st0" d="M538.9,45.2c4.8-4.2,10-12.3,5.7-18.4c-4.4-6.1-10.6-2.9-13.5,2.5c-2.4,4.4-6.8,16.2-1.7,19.1
		C532.4,50.2,536.9,46.9,538.9,45.2z"/>
	<path class="st0" d="M754.4,136.4c6.1-1.8,14.2-7.1,12.7-14.5s-8.5-6.9-13.4-3.3c-4,3-12.9,12-9.4,16.7
		C746.4,138.3,751.9,137.1,754.4,136.4z"/>
	<path class="st0" d="M314.7,27.2c3.6,0,5.9-5.1,6.8-7.5c2.1-6,2.7-15.6-4.1-18.8c-6.8-3.2-10.6,2.7-10.6,8.8
		C306.9,14.7,308.8,27.2,314.7,27.2z"/>
</g>
<g class="st1">
	<path class="st2" d="M205.1,367.4c0.4,1.1,0.6,2,0.6,2.8c0,1.3-0.6,2.5-1.7,3.5c-1.1,1-1.9,1.5-2.3,1.4c-3.3-0.6-5.3-3.2-6.2-7.9
		c-0.9-5.1-2-9.3-3.3-12.7c-2.3,0.2-4.5,0.4-6.8,0.6c-2.6,0.3-4.6,1.1-6.1,2.4c-0.7,2.1-1.7,5.7-2.9,11c-1.1,4.9-2.2,8.6-3.3,11.1
		c-0.5,1.2-1.7,1.5-3.4,1c-2.2-0.7-3.4-1.7-3.5-3c-0.2-2.5,0.5-5.9,2.2-10.2c2-4.9,3.1-8.3,3.3-10.4c0.1-0.6-0.4-1.3-1.3-2
		c-0.9-0.7-1.4-1.3-1.4-1.7c0-0.3,0.2-0.7,0.5-1c0.3-0.4,1-0.7,2.1-0.9c1.1-0.2,1.7-0.6,1.9-1.1c1.2-3.3,3.1-9.5,5.7-18.6
		c2.2-7.9,4.2-13.9,5.9-18.1c0.4-0.9,1.2-1.4,2.5-1.4c0.9,0,1.8,0.3,2.5,0.9c1.9,1.6,3.1,4,3.6,7.2c0.4,2.7,0.8,5.5,1.1,8.2
		C198.1,344.3,201.5,357.2,205.1,367.4z M190.5,348.3c-0.2-2.5-0.6-5.2-1.3-8.3c-0.7-2.7-1.3-5.3-1.9-8c-2,5.5-3.7,11.1-5.2,16.6
		C183.2,348.4,186,348.3,190.5,348.3z"/>
	<path class="st2" d="M237.1,337.6c-2.5,5.5-4.7,9.1-6.5,10.9c-2.8,2.8-4.3,4.3-4.6,4.6c-1.9,1.5-3.9,2.5-5.8,2.8
		c-0.3,1.3-0.4,2.9-0.4,4.7c0,1.3,0.1,3.2,0.3,5.8c0.2,2.6,0.3,4.4,0.3,5.6c0,4.5-1.1,7.9-3.2,10.2l-2.8-1.5
		c-1.1-0.6-1.8-1.3-1.9-2.2c-0.7-4.3-1-9.2-1-14.5c0-3.5,0.2-8.8,0.6-15.8c0.4-7,0.6-12.3,0.6-15.9c0-5.2-0.3-10-0.9-14.3
		c-0.5,0.2-1-0.1-1.5-1c-0.5-0.9-0.9-1.4-1.2-1.5c0.3-2.1,0.9-3.2,1.7-3.2c1-0.3,3.1-0.3,6.2,0.2c8.7,1.4,15.2,5.2,19.6,11.4
		c1.4,2,2.1,4.3,2.1,6.8C238.7,332.9,238.2,335.2,237.1,337.6z M230.6,329.9c0.3-2.7-0.8-4.8-3.4-6.3c-0.1,0-2.5-1-7.2-2.9
		c0.7,12.3,1,20.9,0.7,25.8C226.7,340.9,230,335.4,230.6,329.9z"/>
	<path class="st2" d="M272,337.6c-2.5,5.5-4.7,9.1-6.5,10.9c-2.8,2.8-4.3,4.3-4.6,4.6c-1.9,1.5-3.9,2.5-5.8,2.8
		c-0.3,1.3-0.4,2.9-0.4,4.7c0,1.3,0.1,3.2,0.3,5.8c0.2,2.6,0.3,4.4,0.3,5.6c0,4.5-1.1,7.9-3.2,10.2l-2.8-1.5
		c-1.1-0.6-1.8-1.3-1.9-2.2c-0.7-4.3-1-9.2-1-14.5c0-3.5,0.2-8.8,0.6-15.8c0.4-7,0.6-12.3,0.6-15.9c0-5.2-0.3-10-0.9-14.3
		c-0.5,0.2-1-0.1-1.5-1c-0.5-0.9-0.9-1.4-1.2-1.5c0.3-2.1,0.9-3.2,1.7-3.2c1-0.3,3.1-0.3,6.2,0.2c8.7,1.4,15.2,5.2,19.6,11.4
		c1.4,2,2.1,4.3,2.1,6.8C273.6,332.9,273.1,335.2,272,337.6z M265.5,329.9c0.3-2.7-0.8-4.8-3.4-6.3c-0.1,0-2.5-1-7.2-2.9
		c0.7,12.3,1,20.9,0.7,25.8C261.6,340.9,264.9,335.4,265.5,329.9z"/>
	<path class="st2" d="M319.2,372.9c0.2,0.3,0.3,0.6,0.3,0.9c0,1.5-1.6,2.7-4.8,3.5c-3.5-2.7-7.9-6.9-13.2-12.6
		c-5.9-6.3-10.2-10.7-13.1-13.2c-0.2,1.7-0.6,6.3-1.1,13.6c-0.3,5.5-0.9,9.9-1.8,13.2c-0.1,0-0.5,0.2-1.3,0.5
		c-0.7,0.3-1.3,0.4-1.8,0.3c-2.9-0.7-4.4-2.7-4.4-6.1c0-1,0.1-2.3,0.4-4c0.3-1.9,0.4-3.1,0.5-3.6c0.3-3.9,0.4-8.5,0.5-13.8v-10.9
		c0-9.1,0.5-16.7,1.5-22.9c0.7-4.1,4.6-6,11.7-5.7c3.6,0.1,6.7,1.9,9.4,5.4c2.5,3.2,3.7,6.7,3.7,10.4c0,3.1-1.2,6.3-3.5,9.4
		c-2,2.8-4.5,5-7.4,6.6c-1.2,0.7-1.8,1.4-1.8,2.2c0,0.9,0.7,1.9,2.1,3.1c1.1,0.9,2.1,1.7,3.2,2.6c0.1,0.1,3.7,3.4,11,10
		C314,366,317.3,369.7,319.2,372.9z M298.1,328c0.2-1.2,0.3-2.3,0.2-3.2c-0.2-1.4-0.8-2.7-1.8-3.8c-1-1.1-2.5-1.7-4.7-1.7
		c-1.6,0-2.6,0.5-3,1.5c-0.3,1.7-0.5,3.6-0.5,5.7c0,0.9,0.1,3.1,0.3,6.7c0.1,2.7,0.1,5,0,6.7C294.3,335.8,297.4,331.8,298.1,328z"/>
	<path class="st2" d="M348.4,322.2c-2.5,1-6.1,2.2-10.9,3.5c-4.8,1.3-8.4,2.5-10.9,3.5c-0.6,1.7-1,5.6-1.3,11.6
		c1.1,0.4,2.3,0.6,3.7,0.6c1,0,2.6-0.2,4.7-0.5c2.1-0.3,3.7-0.5,4.7-0.5c1.9,0,3.5,0.4,4.8,1.2c0.9,1.3,1.4,2.2,1.4,2.6
		c0,0.5-0.2,0.8-0.7,1.1c-0.1,0.1-0.6,0.5-1.4,1.4c-0.5,0.6-1.2,0.9-2,0.8c-1.4,0.3-4,0.5-7.7,0.6c-3.1,0.1-5.6,0.5-7.5,1.2
		c-1.3,4.9-1.9,8.8-1.9,11.7c0,1.9,0.3,3.5,0.8,4.6c3.1,2.2,8.6,3.1,16.3,2.8c0.5,0,1.1-0.3,1.7-0.8s1.1-0.8,1.5-0.8
		c1.9-0.4,3.1,1,3.7,4.2c0.2,1.1,0,2-0.6,2.9c-0.6,0.9-1.4,1.4-2.4,1.5c-8.1,0.3-15.1-0.4-21-1.9c-1.9-0.5-3.6-1.5-5.1-3.1
		c-1.5-1.6-2.4-3.4-2.6-5.4c-0.6-5.8-0.6-11,0-15.6c-1.9-1.3-2.7-2.5-2.5-3.7c0.1-0.6,0.6-1.1,1.5-1.6c1-0.5,1.5-1,1.7-1.5
		c0.1-0.5,0.4-3.7,0.8-9.5c-3.7-0.7-5.6-2.1-5.5-4.2c0.1-1.9,1.2-3.5,3.5-4.6c2.1-0.9,4.3-1.7,6.4-2.6c2.5-1.3,5.7-2.4,9.4-3.4
		c3.2-0.9,6.4-1.7,9.7-2.5c0.3-0.1,0.7-0.1,1.2-0.1c1.8,0,3.9,0.7,6.3,2.1c0.1,0.3,0.2,0.8,0.5,1.5c0.3,0.7,0.4,1.3,0.4,1.6
		C349.1,321.5,348.9,321.9,348.4,322.2z"/>
	<path class="st2" d="M393,311.6c-0.9,8.9-1.8,17.9-2.7,26.9c-1.1,10.7-1.7,19.6-1.7,26.7c0,2.3,0.1,4.6,0.2,6.9
		c0.1,1.1-0.3,2-1.1,2.8c-0.8,0.8-1.8,1.2-2.9,1.2c-2.1,0-3.8-1.4-5.2-4.2c-4.3-8.3-9.6-21.4-15.9-39.2c-0.1-0.4-0.3-0.6-0.5-0.6
		c-0.5,0-0.8,0.5-0.9,1.4c-1.1,9.5-1.7,19.6-1.7,30.1c0,5.1,0.1,10.2,0.4,15.5c0.1,1.9-0.5,3.3-1.7,4c-0.5,0.5-1,0.7-1.5,0.7
		c-0.5,0-1.1-0.2-1.8-0.6c-1-0.5-1.6-0.8-1.9-0.9c-0.9-0.3-1.4-1.1-1.6-2.4c-0.1-1.1-0.1-2.2-0.2-3.3c-0.2-3.7-0.3-7.6-0.3-11.7
		c0-7.1,0.4-15.9,1.2-26.5c1.3-16.1,2-25.1,2.1-26.8c0.1-1.5,1.3-2.2,3.7-2.2c1.1-0.1,2.8,0.7,5,2.5c2.1,4.1,4.8,10.7,7.9,19.8
		c3,8.7,5.7,15.4,8.2,19.9c1-8.9,2.6-22.3,4.7-40.2c0.2-1.3,1.2-2,2.9-2c0.6,0,1.3,0.1,2.1,0.3c1.1,0.3,1.7,0.4,1.9,0.5
		C392.4,310.5,392.8,311,393,311.6z"/>
	<path class="st2" d="M448.5,309.9c-0.6,2.4-1.7,3.8-3.4,4.2c-4.3,1.1-11.9,2.5-22.6,4.2c-1.3,16.6-2,30.4-2,41.5
		c0,4.2,0.1,8.3,0.2,12.4c0.1,1.3,0,2.2-0.2,2.9c-0.3,1.1-1,1.6-2,1.5c-1.9-0.1-3.5-0.9-4.8-2.5c-1.3-1.6-2-3.3-2.1-5.3
		c-0.1-2.5-0.2-5.1-0.2-7.8c0-4.4,0.3-11.4,0.9-20.9c0.6-9.1,0.9-16.1,0.8-20.9c-1.8-0.1-4.3,0-7.5,0.5c-3.7,0.5-6.2,0.8-7.6,0.8
		c-3.3,0-5.9-0.9-8-2.6c-0.8-1.7-1.2-2.7-1.2-2.7c0-0.5,0.2-1,0.7-1.5c2.1-0.7,6.5-1.4,13.1-2c5.8-0.6,10.1-1.7,13-3.2
		c2.3,0.8,5,1.2,8,1.2s5.9-0.4,8.6-1.1c0.8-0.1,2.8-0.5,6.1-1.4c2.4-0.6,4.4-0.8,6-0.6c1.2,0,1.7,0.5,1.5,1.5
		C447.6,308.1,448.5,308.7,448.5,309.9z"/>
	<path class="st2" d="M446.5,321.6c0.1,1.9,0.2,3.9,0.2,6c0,4.5-0.5,11.4-1.4,20.5c-0.9,9.1-1.4,16-1.4,20.7c0,1.7,0,3.4,0.1,5.1
		c-0.6,1.9-1.9,2.8-3.9,2.7c-2.9-0.1-4.4-1.4-4.7-3.7c-0.3-2.3-0.4-4.8-0.4-7.4c0-4.5,0.5-11.3,1.6-20.3c1.1-9,1.7-15.7,1.7-20.2
		c0-1.7-0.1-3.4-0.2-5.1c0.7-1.3,1.8-1.9,3.4-1.9c1.3,0,2.5,0.4,3.8,1.1c0.3-0.2,0.5-0.3,0.6-0.3c0.2,0,0.3,0.3,0.3,1
		c-0.1,0.8-0.1,1.3,0,1.4C446.3,321.4,446.4,321.6,446.5,321.6z"/>
	<path class="st2" d="M473.5,311.7c0,1.3-1,2.5-2.9,3.5c-0.5,0.3-1.1,0.3-1.7,0.1c-0.9-0.3-1.4-0.4-1.5-0.4c-0.4,0-0.8,0.2-1.2,0.6
		c-3.6,3.6-5.4,8-5.4,13.2c0,1.9,0.3,3.7,0.9,5.4c0.3,0.7,2.8,5.9,7.6,15.5c3.2,6.4,4.8,11.8,4.8,16.3c0,3.7-0.9,7.2-2.7,10.6
		c-0.6,1.1-2.1,2.6-4.5,4.4c-1.9,1.4-3.7,2.1-5.2,2.1c-0.6,0-1.2-0.1-1.7-0.3c-2-0.9-3-2-3-3.3c0-0.8,0.5-1.8,1.5-2.9
		c0.3-0.3,0.9-0.5,1.9-0.6c1-0.1,1.7-0.5,2-1.2c1.4-2.9,2.1-5.9,2.1-9c0-4.3-2.2-10.6-6.5-18.8c-4.3-8.2-6.5-14.8-6.5-19.8
		c0-4.1,0.8-7.7,2.4-10.9c1.8-3.7,4.4-6.3,7.7-7.9c1.5-0.7,3-1.1,4.5-1.1c2.8,0,4.9,0.8,6.3,2.3C473.2,310.3,473.5,311,473.5,311.7z
		"/>
	<path class="st2" d="M501.2,311.7c0,1.3-1,2.5-2.9,3.5c-0.5,0.3-1.1,0.3-1.7,0.1c-0.9-0.3-1.4-0.4-1.5-0.4c-0.4,0-0.8,0.2-1.2,0.6
		c-3.6,3.6-5.4,8-5.4,13.2c0,1.9,0.3,3.7,0.9,5.4c0.3,0.7,2.8,5.9,7.6,15.5c3.2,6.4,4.8,11.8,4.8,16.3c0,3.7-0.9,7.2-2.7,10.6
		c-0.6,1.1-2.1,2.6-4.5,4.4c-1.9,1.4-3.7,2.1-5.2,2.1c-0.6,0-1.2-0.1-1.7-0.3c-2-0.9-3-2-3-3.3c0-0.8,0.5-1.8,1.5-2.9
		c0.3-0.3,0.9-0.5,1.9-0.6c1-0.1,1.7-0.5,2-1.2c1.4-2.9,2.1-5.9,2.1-9c0-4.3-2.2-10.6-6.5-18.8c-4.3-8.2-6.5-14.8-6.5-19.8
		c0-4.1,0.8-7.7,2.4-10.9c1.8-3.7,4.4-6.3,7.7-7.9c1.5-0.7,3-1.1,4.5-1.1c2.8,0,4.9,0.8,6.3,2.3C500.9,310.3,501.2,311,501.2,311.7z
		"/>
	<path class="st2" d="M543.6,367.4c0.4,1.1,0.6,2,0.6,2.8c0,1.3-0.6,2.5-1.7,3.5c-1.1,1-1.9,1.5-2.3,1.4c-3.3-0.6-5.3-3.2-6.2-7.9
		c-0.9-5.1-2-9.3-3.3-12.7c-2.3,0.2-4.5,0.4-6.8,0.6c-2.6,0.3-4.6,1.1-6.1,2.4c-0.7,2.1-1.7,5.7-2.9,11c-1.1,4.9-2.2,8.6-3.3,11.1
		c-0.5,1.2-1.7,1.5-3.4,1c-2.2-0.7-3.4-1.7-3.5-3c-0.2-2.5,0.5-5.9,2.2-10.2c2-4.9,3.1-8.3,3.3-10.4c0.1-0.6-0.4-1.3-1.3-2
		c-0.9-0.7-1.4-1.3-1.4-1.7c0-0.3,0.2-0.7,0.5-1c0.3-0.4,1-0.7,2.1-0.9c1.1-0.2,1.7-0.6,1.9-1.1c1.2-3.3,3.1-9.5,5.7-18.6
		c2.2-7.9,4.2-13.9,5.9-18.1c0.4-0.9,1.2-1.4,2.5-1.4c0.9,0,1.8,0.3,2.5,0.9c1.9,1.6,3.1,4,3.6,7.2c0.4,2.7,0.8,5.5,1.1,8.2
		C536.6,344.3,540,357.2,543.6,367.4z M529,348.3c-0.2-2.5-0.6-5.2-1.3-8.3c-0.7-2.7-1.3-5.3-1.9-8c-2,5.5-3.7,11.1-5.2,16.6
		C521.7,348.4,524.5,348.3,529,348.3z"/>
	<path class="st2" d="M583.3,347.2c-1.8,4.5-3,10-3.5,16.5c-0.3,5.7-0.6,11.3-0.9,17c-0.1,1.7-1.2,2.5-3.3,2.5
		c-0.6,0-1.2-0.1-1.7-0.3c-2.9-1.2-4.3-3.4-4.3-6.7c0-0.9,0.1-2.3,0.4-4.3c0.3-1.9,0.4-3.3,0.4-4.2c0.3-1.9,0.6-4.8,1-8.7
		c-4.6,4.3-9.8,7.6-15.6,9.7c-0.8,0.3-1.6,0.4-2.4,0.4c-3.1,0-5.9-1.7-8.5-5.2c-1.5-1.9-2.2-4.3-2.2-7.2c0-2.5,0.6-5.5,1.7-8.9
		c3.5-10.8,9.2-21.4,16.9-31.7c3.9-5.1,7.3-7.7,10.3-7.7c2.7,0,4.2,1,4.5,3c0.3,1.7-0.3,2.9-1.7,3.6c-2.3,1.3-3.6,2-3.7,2.1
		c-5.6,6.2-10.7,14.2-15.4,24c-2.9,6.1-4.3,11.5-4.3,16.3c0,0.9,0,1.7,0.1,2.6c0.1,0.1,0.3,0.4,0.6,0.9c0.3,0.6,0.6,0.8,1.1,0.6
		c4.4-1.7,11-6.3,19.9-13.7c0.7-0.5,1.4-2.1,2.3-4.6c0.7-1.9,1.9-2.8,3.6-2.8c-0.5,0,0-0.1,1.6-0.2c0.8-0.1,1.3,0,1.6,0.4
		c1.3,1.9,1.9,3.4,1.9,4.6C583.7,345.9,583.6,346.6,583.3,347.2z"/>
	<path class="st2" d="M624.3,322.2c-2.5,1-6.1,2.2-10.9,3.5c-4.8,1.3-8.4,2.5-10.9,3.5c-0.6,1.7-1,5.6-1.3,11.6
		c1.1,0.4,2.3,0.6,3.7,0.6c1,0,2.6-0.2,4.7-0.5c2.1-0.3,3.7-0.5,4.7-0.5c1.9,0,3.5,0.4,4.8,1.2c0.9,1.3,1.4,2.2,1.4,2.6
		c0,0.5-0.2,0.8-0.7,1.1c-0.1,0.1-0.6,0.5-1.4,1.4c-0.5,0.6-1.2,0.9-2,0.8c-1.4,0.3-4,0.5-7.7,0.6c-3.1,0.1-5.6,0.5-7.5,1.2
		c-1.3,4.9-1.9,8.8-1.9,11.7c0,1.9,0.3,3.5,0.8,4.6c3.1,2.2,8.6,3.1,16.3,2.8c0.5,0,1.1-0.3,1.7-0.8s1.1-0.8,1.5-0.8
		c1.9-0.4,3.1,1,3.7,4.2c0.2,1.1,0,2-0.5,2.9c-0.6,0.9-1.4,1.4-2.5,1.5c-8.1,0.3-15.1-0.4-21-1.9c-1.9-0.5-3.6-1.5-5.1-3.1
		c-1.5-1.6-2.4-3.4-2.6-5.4c-0.6-5.8-0.6-11,0-15.6c-1.9-1.3-2.7-2.5-2.5-3.7c0.1-0.6,0.6-1.1,1.5-1.6c1-0.5,1.5-1,1.7-1.5
		c0.1-0.5,0.4-3.7,0.8-9.5c-3.7-0.7-5.6-2.1-5.5-4.2c0.1-1.9,1.2-3.5,3.5-4.6c2.1-0.9,4.3-1.7,6.4-2.6c2.5-1.3,5.7-2.4,9.4-3.4
		c3.2-0.9,6.4-1.7,9.7-2.5c0.3-0.1,0.7-0.1,1.2-0.1c1.8,0,3.9,0.7,6.3,2.1c0.1,0.3,0.2,0.8,0.5,1.5c0.3,0.7,0.4,1.3,0.4,1.6
		C625,321.5,624.8,321.9,624.3,322.2z"/>
</g>
</svg>
