<?xml version="1.0" encoding="utf-8"?>
<!-- Generator: Adobe Illustrator 16.0.0, SVG Export Plug-In . SVG Version: 6.00 Build 0)  -->
<!DOCTYPE svg PUBLIC "-//W3C//DTD SVG 1.1//EN" "http://www.w3.org/Graphics/SVG/1.1/DTD/svg11.dtd">
<svg version="1.1" id="Calque_1" xmlns="http://www.w3.org/2000/svg" xmlns:xlink="http://www.w3.org/1999/xlink" x="0px" y="0px"
	 width="161.8px" height="200px" viewBox="0 0 161.8 200" enable-background="new 0 0 161.8 200" xml:space="preserve">
<g>
	<path fill="#6EAA2E" d="M121.847,10.552c0.582-0.769,1.211-1.501,1.883-2.191c1.568-1.613,3.366-3.004,5.352-4.063
		c1.643-0.877,3.311-1.67,5.166-1.969c3.478-0.56,6.888,0.414,9.462,2.833c1.462,1.374,2.569,3.111,3.219,5.008
		c1.18,3.437,0.91,7.316-0.575,10.616c-0.893,1.981-2.207,3.758-3.789,5.242c-1.429,1.34-3.344,2.916-5.291,3.302
		c-1.434,0.284-2.748,0.693-4.231,0.728c-3.556,0.082-7.563-1.358-10.251-3.661c-1.078-0.923-2.307-1.98-2.938-3.278
		c-0.262-0.615-0.439-1.253-0.53-1.914c-0.214-0.979-0.492-1.958-0.613-2.954c-0.206-1.679,0.112-3.839,1.175-5.22
		c0.59-0.768,1.211-1.459,1.785-2.238C121.728,10.711,121.788,10.631,121.847,10.552z"/>
	<path fill="#4E8414" d="M119.884,13.029c0.59-0.768,1.211-1.459,1.785-2.238c0.059-0.08,0.118-0.16,0.178-0.239
		c0.582-0.769,1.211-1.501,1.883-2.191c1.568-1.613,3.366-3.004,5.352-4.063c1.643-0.877,3.311-1.67,5.166-1.969
		c3.478-0.56,6.888,0.414,9.462,2.833c0.003,0.003,0.005,0.005,0.008,0.008c-0.81,0.044-1.614,0.157-2.414,0.344
		c-1.55,0.556-2.941,1.382-4.173,2.478c-1.037,0.854-2.043,1.742-3.02,2.664c-1.382,1.365-2.428,2.928-3.089,4.765
		c-0.823,2.284-0.269,4.843,0.395,7.114c0.466,1.594,1.161,2.802,2.354,3.963c0.469,0.485,0.981,0.919,1.537,1.301
		c0.705,0.404,1.491,0.494,2.275,0.616c0.403,0.063,0.868,0.118,1.184,0.401c-0.491,0.234-0.991,0.415-1.494,0.515
		c-1.434,0.284-2.748,0.693-4.231,0.728c-3.556,0.082-7.563-1.358-10.251-3.661c-1.078-0.923-2.307-1.98-2.938-3.278
		c-0.262-0.615-0.439-1.253-0.53-1.914c-0.214-0.979-0.492-1.958-0.613-2.954C118.503,16.57,118.822,14.41,119.884,13.029z"/>
	<path fill="#467C0D" d="M122.74,18.453c0.123-0.991,0.477-1.885,1.061-2.681c0.635-0.605,1.279-1.198,1.936-1.78
		c1.408-1.246,2.805-2.487,4.455-3.398c0.541-0.309,1.088-0.607,1.639-0.897c0.848-0.387,1.643-0.49,2.552-0.606
		c1.48-0.189,2.641-0.336,4.05,0.266c0.855,0.365,1.648,0.834,2.234,1.568c0.678,0.852,1.33,2.046,1.291,3.156
		c-0.036,0.979-0.185,2.041-0.462,2.984c-0.382,1.298-1.251,2.287-1.948,3.416c-1.302,2.112-3.301,3.501-5.379,4.797
		c-1.217,0.76-2.252,0.746-3.652,0.506c-1.278-0.22-2.704-0.354-3.899-0.879c-1.562-0.688-2.863-1.811-3.578-3.367
		c-0.344-0.75-0.269-1.628-0.43-2.426c-0.05-0.176-0.083-0.354-0.099-0.535C122.617,18.221,122.472,18.575,122.74,18.453z"/>
	<path fill="#3A600D" d="M123.038,21.537c-0.345-0.75-0.269-1.628-0.43-2.426c-0.05-0.176-0.083-0.354-0.099-0.535
		c0.107-0.355-0.037-0.001,0.23-0.123c0.123-0.991,0.477-1.885,1.061-2.681c0.635-0.605,1.279-1.198,1.936-1.78
		c1.408-1.246,2.805-2.487,4.455-3.398c0.541-0.309,1.088-0.607,1.639-0.897c0.848-0.387,1.643-0.49,2.552-0.606
		c0.434-0.056,0.839-0.104,1.231-0.135c-1.572,1.601-2.941,3.402-4.306,5.185c-1.108,1.45-1.683,3.249-1.769,5.074
		c-0.025,0.522,0.057,0.977,0.188,1.478c0.188,0.723,0.496,1.053,0.893,1.628c0.154,0.263,0.277,0.541,0.365,0.833
		c0.124,0.189,0.281,0.287,0.439,0.453c0.393,0.413,0.758,0.913,1.114,1.354c0.206,0.252,0.331,0.56,0.522,0.814
		c-0.795,0.226-1.584,0.175-2.545,0.01c-1.278-0.22-2.704-0.354-3.899-0.879C125.054,24.217,123.752,23.094,123.038,21.537z"/>
	<path fill="#92BF5E" d="M144.511,8.274c1.334,1.388,2.108,3.904,1.428,5.745c-0.189,0.514-0.891,0.418-0.938-0.127
		c-0.156-1.816-0.389-3.392-1.277-5.01C143.455,8.39,144.109,7.854,144.511,8.274z"/>
	<path fill="#92BF5E" d="M144.736,17.092c0.049-0.182,0.096-0.36,0.08-0.549c-0.045-0.565,0.844-0.668,0.976-0.132
		c0.116,0.465,0.005,0.916-0.429,1.163C145.038,17.76,144.636,17.457,144.736,17.092z"/>
	<path fill="#6EAA2E" d="M139.381,11.859c0.36,0.651,1.321,1.658,0.987,2.463c-0.098,0.235-0.41,0.392-0.616,0.162
		c-0.265-0.294-0.356-0.703-0.53-1.054c-0.204-0.417-0.431-0.816-0.607-1.248C138.433,11.736,139.155,11.452,139.381,11.859z"/>
	<path fill="#6EAA2E" d="M139.421,14.486c0.34,0.566,0.588,1.17,0.495,1.836c-0.05,0.361-0.605,0.396-0.759,0.1
		c-0.241-0.467-0.334-0.984-0.541-1.466C138.386,14.419,139.104,13.957,139.421,14.486z"/>
	<path fill="#6EAA2E" d="M138.522,16.756c0.226,0,0.478,0.205,0.45,0.449c-0.016,0.14,0.02,0.269,0.074,0.398
		c0.139,0.326-0.291,0.557-0.547,0.421c-0.317-0.169-0.45-0.465-0.428-0.819C138.088,16.961,138.265,16.756,138.522,16.756z"/>
	<path fill="#6EAA2E" d="M45.153,10.552c-0.582-0.769-1.212-1.501-1.884-2.191c-1.566-1.613-3.364-3.004-5.351-4.063
		c-1.642-0.877-3.31-1.67-5.165-1.969c-3.479-0.56-6.888,0.414-9.462,2.833c-1.463,1.374-2.569,3.111-3.221,5.008
		c-1.178,3.437-0.908,7.316,0.577,10.616c0.892,1.981,2.207,3.758,3.789,5.242c1.429,1.34,3.344,2.916,5.29,3.302
		c1.434,0.284,2.748,0.693,4.232,0.728c3.556,0.082,7.563-1.358,10.251-3.661c1.077-0.923,2.306-1.98,2.938-3.278
		c0.262-0.615,0.438-1.253,0.53-1.914c0.213-0.979,0.49-1.958,0.613-2.954c0.205-1.679-0.112-3.839-1.175-5.22
		c-0.591-0.768-1.211-1.459-1.785-2.238C45.273,10.711,45.213,10.631,45.153,10.552z"/>
	<path fill="#4E8414" d="M47.117,13.029c-0.591-0.768-1.211-1.459-1.785-2.238c-0.059-0.08-0.118-0.16-0.179-0.239
		c-0.582-0.769-1.212-1.501-1.884-2.191c-1.566-1.613-3.364-3.004-5.351-4.063c-1.642-0.877-3.31-1.67-5.165-1.969
		c-3.479-0.56-6.888,0.414-9.462,2.833c-0.003,0.003-0.006,0.005-0.008,0.008c0.809,0.044,1.614,0.157,2.414,0.344
		c1.549,0.556,2.939,1.382,4.173,2.478c1.036,0.854,2.043,1.742,3.02,2.664c1.382,1.365,2.427,2.928,3.089,4.765
		c0.822,2.284,0.268,4.843-0.396,7.114c-0.465,1.594-1.16,2.802-2.354,3.963c-0.468,0.485-0.98,0.919-1.537,1.301
		c-0.705,0.404-1.49,0.494-2.274,0.616c-0.403,0.063-0.868,0.118-1.184,0.401c0.491,0.234,0.991,0.415,1.493,0.515
		c1.434,0.284,2.748,0.693,4.232,0.728c3.556,0.082,7.563-1.358,10.251-3.661c1.077-0.923,2.306-1.98,2.938-3.278
		c0.262-0.615,0.438-1.253,0.53-1.914c0.213-0.979,0.49-1.958,0.613-2.954C48.497,16.57,48.179,14.41,47.117,13.029z"/>
	<path fill="#467C0D" d="M44.261,18.453c-0.124-0.991-0.477-1.885-1.062-2.681c-0.634-0.605-1.278-1.198-1.936-1.78
		c-1.408-1.246-2.804-2.487-4.455-3.398c-0.54-0.309-1.087-0.607-1.638-0.897c-0.848-0.387-1.644-0.49-2.552-0.606
		c-1.482-0.189-2.641-0.336-4.051,0.266c-0.855,0.365-1.647,0.834-2.233,1.568c-0.68,0.852-1.331,2.046-1.292,3.156
		c0.035,0.979,0.186,2.041,0.463,2.984c0.381,1.298,1.251,2.287,1.947,3.416c1.301,2.112,3.301,3.501,5.379,4.797
		c1.218,0.76,2.253,0.746,3.652,0.506c1.279-0.22,2.705-0.354,3.898-0.879c1.562-0.688,2.865-1.811,3.58-3.367
		c0.344-0.75,0.268-1.628,0.428-2.426c0.051-0.176,0.084-0.354,0.1-0.535C44.383,18.221,44.528,18.575,44.261,18.453z"/>
	<path fill="#3A600D" d="M43.963,21.537c0.344-0.75,0.268-1.628,0.428-2.426c0.051-0.176,0.084-0.354,0.1-0.535
		c-0.107-0.355,0.037-0.001-0.229-0.123c-0.124-0.991-0.477-1.885-1.062-2.681c-0.634-0.605-1.278-1.198-1.936-1.78
		c-1.408-1.246-2.804-2.487-4.455-3.398c-0.54-0.309-1.087-0.607-1.638-0.897c-0.848-0.387-1.644-0.49-2.552-0.606
		c-0.434-0.056-0.839-0.104-1.232-0.135c1.573,1.601,2.941,3.402,4.307,5.185c1.107,1.45,1.682,3.249,1.768,5.074
		c0.025,0.522-0.056,0.977-0.188,1.478c-0.188,0.723-0.496,1.053-0.892,1.628c-0.155,0.263-0.277,0.541-0.366,0.833
		c-0.123,0.189-0.282,0.287-0.438,0.453c-0.394,0.413-0.758,0.913-1.114,1.354c-0.206,0.252-0.331,0.56-0.522,0.814
		c0.794,0.226,1.583,0.175,2.544,0.01c1.279-0.22,2.705-0.354,3.898-0.879C41.945,24.217,43.249,23.094,43.963,21.537z"/>
	<path fill="#4E950B" d="M80.486,2.63c0,0-9.772-1.49-15.238-0.993c0,0,2.65,2.153,4.473,4.141c0,0-12.092-0.332-17.557,2.981
		c0,0,2.98,1.656,4.472,3.312c0,0-12.754-3.146-20.373,0.829c0,0,2.154,3.478,5.797,4.306c0,0-9.109,0.994-12.752,6.129
		c0,0,0.661,1.49,3.478,2.318c0,0-7.122,3.645-9.938,7.95c0,0,2.152,0.165,3.644-0.331c0,0-6.791,4.969-9.772,9.938
		c0,0,4.141-0.993,5.632-0.662c0,0-8.944,7.453-11.594,14.74c0,0,1.656-0.828,3.146-0.662c0,0-0.993,2.484-4.141,6.459
		C6.616,67.06,5.953,71.2,5.953,71.2s1.821-0.663,3.644-2.319c0,0-4.472,10.104-4.803,14.741c0,0,1.324-0.496,2.815-0.661
		c0,0-3.809,13.25-7.618,17.391c0,0,2.152,0.332,4.141-0.994c0,0-4.307,13.085-3.811,19.71c0,0,1.822-2.484,3.313-3.313
		c0,0-0.662,17.722-3.313,21.863c0,0,3.313-0.662,4.307-2.318c0,0-2.815,10.435-1.159,17.225c0,0,1.491-1.988,2.649-2.981
		c0,0,0,13.582,14.41,27.494c14.409,13.913,102.854,10.104,114.45,5.797c11.594-4.306,18.384-23.022,20.04-32.96
		c0,0,1.491,2.981,1.656,4.473c0,0,3.313-9.772,0-17.889c0,0,1.16,1.326,3.478,2.319c0,0,0.83-13.747-3.478-18.882
		c0,0,2.319,0.331,3.478,2.484c0,0,1.326-15.403-2.152-24.016c0,0,1.822,1.49,3.811,2.155c0,0-2.319-8.781-2.484-14.413
		c-0.167-5.631-4.639-11.428-4.639-11.428s1.324,0.332,3.809-0.496c0,0-6.623-9.938-9.605-17.06c0,0,1.656-0.332,3.313,1.987
		c0,0-0.828-7.453-8.115-14.741c0,0,1.158,0.663,3.643,0.993c0,0-2.649-7.286-7.783-10.766c0,0,2.318,0.828,4.306,0
		c0,0-3.644-8.777-10.103-11.262c0,0,2.152-0.332,3.975-1.159c0,0-10.767-8.778-18.22-8.944c0,0,4.638-1.325,7.453-0.662
		c0,0-10.434-5.797-18.054-4.473c0,0,4.141-1.987,5.467-3.809c0,0-11.097-4.804-21.698,0.827c0,0,2.981-1.987,3.645-3.809
		c0,0-5.301,0.662-6.625,2.318c0,0,0.331-2.318,2.153-3.147C92.246,0.477,87.443-1.511,80.486,2.63z"/>
	<path fill="#467C0D" d="M156.674,136.458c0,0,1.16,1.326,3.478,2.319c0,0,0.09-1.505,0.057-3.7
		c-0.279-0.637-0.574-1.266-0.891-1.877c-0.27-0.524-1.776-4.72-2.245-4.494c-0.056,0.446-0.316,0.797-0.489,1.203
		c-0.211,0.496-0.14,0.911-0.297,1.395c-0.225,0.282-0.4,0.595-0.525,0.935c-0.134,0.708-0.266,1.417-0.395,2.126
		c-0.24,1.172-0.56,2.252-1.004,3.357c-0.242,0.603-2.121,4.677-2.681,2.849c-0.246-0.805,0.023-2.144,0.023-2.991
		c0-0.398-0.003-0.795,0.008-1.192c0.059,0.801-0.675,1.605-1.052,2.242c-1.184,1.996-2.39,3.978-3.574,5.974
		c-0.753,1.269-1.309,2.656-2.082,3.906c-0.67,1.084-1.615,1.999-2.436,2.963c-0.642,0.754-1.203,1.535-1.805,2.313
		c-0.313,0.403-0.841,0.772-0.975,1.281c0.766-0.353,1.498-0.155,2.309-0.216c0.688-0.054,1.189-0.453,1.611-0.957
		c-0.13,0.259-0.251,0.52-0.389,0.732c-0.84,1.293-2.011,2.394-2.963,3.604c-1.001,1.274-2.002,2.539-3.027,3.797
		c-0.447,0.548-0.875,1.298-1.508,1.667c0.097-0.104,0.187-0.324,0.281-0.438c-0.748,0.184-1.77,0.945-2.406,1.35
		c-2.932,1.868-5.727,3.724-8.984,5.028c-3.164,1.267-6.213,2.472-9.582,3.13c-1.617,0.316-3.228,0.453-4.85,0.703
		c-0.662-0.035-1.226,0.159-1.693,0.581c-0.01,0.286,0.176,0.589,0.439,0.858c-1.893-0.158-3.788-0.381-5.684-0.452
		c-8.803-0.333-17.719,0.082-26.483,0.978c-0.22,0.545,0.978,1.502,1.401,1.891c-0.077-0.005-0.144-0.01-0.186-0.016
		c-3.973-0.571-7.174-2.717-10.545-4.826c-6.214-3.891-11.483-8.691-16.499-14.016c0.493,0.523-3.637-4.368-3.965-4.216
		c-0.227,1.07-0.047,2.371-0.042,3.453c0.003,0.528,0.23,1.357-0.306,1.676c-0.898-0.301-1.289-1.468-1.658-2.222
		c-1.083-2.219-2.63-4.169-3.899-6.276c-1.118-1.891-2.129-3.837-3.03-5.842c-2.889-6.132-5.403-12.438-6.642-19.123
		c-0.341-1.836-0.575-3.627-0.7-5.482c0.032-0.447-0.041-0.871-0.221-1.272c-0.801,1.302-1.438,2.874-2.126,4.261
		c-0.235,0.477-0.457,1.399-0.886,1.59c-0.072-0.483-0.291-0.865-0.474-1.309c-0.429-1.049-0.62-2.19-0.913-3.279
		c-0.673-2.505-1.49-4.99-2.247-7.473c-0.681-2.234-1.503-4.438-1.714-6.781c-0.063-1.158-0.074-2.317-0.033-3.475
		c0.002-0.416,0.012-0.831,0.031-1.246c-0.244-0.314-0.152-0.309-0.584-0.232c-0.477,0.086-1.786,1.514-2.067,1.894
		c-0.173,0.233-0.309,0.39-0.358,0.598c0.066-3.949-0.048-7.9-0.036-11.847c0.011-3.493,1.003-6.735,1.737-10.122
		c0.29-1.339,0.873-3.015,0.643-4.404c-1.7,1.017-3.243,2.25-4.965,3.227c-0.247-0.776-0.023-2.026-0.024-2.816
		c-0.004-1.705-0.13-3.444,0.019-5.145c0.324-3.719,1.82-7.411,2.919-10.947c0.637-2.05,1.378-4.072,1.414-6.244
		c0-0.074,0.14-2.027-0.024-2.281c-0.288-0.443-0.082-0.357-0.783-0.268c-1.705,0.219-2.514,1.178-3.75,2.114
		c-1.049-0.624,1.127-5.102,1.366-5.694c0.423-1.044,1.191-3.279,2.483-3.751l-1.004-0.052c-2.844,2.838-6.816,7.354-8.438,11.811
		c0,0,1.656-0.828,3.146-0.662c0,0-0.993,2.484-4.141,6.459C6.616,67.06,5.953,71.2,5.953,71.2s1.821-0.663,3.644-2.319
		c0,0-4.472,10.104-4.803,14.741c0,0,1.324-0.496,2.815-0.661c0,0-3.809,13.25-7.618,17.391c0,0,2.152,0.332,4.141-0.994
		c0,0-4.307,13.085-3.811,19.71c0,0,1.822-2.484,3.313-3.313c0,0-0.662,17.722-3.313,21.863c0,0,3.313-0.662,4.307-2.318
		c0,0-2.815,10.435-1.159,17.225c0,0,1.491-1.988,2.649-2.981c0,0,0,13.582,14.41,27.494c14.409,13.913,102.854,10.104,114.45,5.797
		c11.594-4.306,18.384-23.022,20.04-32.96c0,0,1.491,2.981,1.656,4.473C156.674,154.347,159.987,144.574,156.674,136.458z"/>
	<path fill="#3A600D" d="M39.209,123.962c-3.968-2.173-8.108-6.188-8.108-6.188c1.47,0.294,2.108-1.313,2.108-1.313
		c-3.832-1.828-8.003-9.339-8.003-9.339c1.442,0.624,2.446,0.545,2.446,0.545c-2.563-3.049-3.355-13.092-3.355-13.092
		c-0.391-4.069-4.141-5.371-7.863-3.495l0,0l0,0c-0.521,0.263-1.044,0.588-1.557,0.979c-0.01,0.008-0.02,0.016-0.029,0.023
		c-0.244,0.187-0.486,0.388-0.727,0.605c-0.01,0.008-0.02,0.017-0.029,0.026c-0.241,0.221-0.479,0.457-0.713,0.707
		c-0.023,0.024-0.045,0.051-0.067,0.075c-0.2,0.219-0.398,0.451-0.591,0.693c-0.041,0.051-0.081,0.1-0.121,0.151
		c-0.211,0.271-0.417,0.554-0.616,0.853c-0.022,0.033-0.043,0.069-0.065,0.103c-0.173,0.263-0.34,0.54-0.504,0.824
		c-0.047,0.083-0.094,0.167-0.141,0.252c-0.18,0.328-0.355,0.664-0.521,1.02c-4.327,9.31-1.384,19.83-1.384,19.83
		c0.717-1.559,1.266-2.134,1.266-2.134c-0.225,3.555,0.153,6.563,0.848,9.078c0.434,1.572,0.99,2.95,1.602,4.148
		c0.122,0.239,0.246,0.471,0.372,0.696c2.263,4.054,5.031,5.792,5.031,5.792l0,0l0,0c-0.047-0.421-0.091-0.809-0.132-1.155
		c-0.039-0.347-0.075-0.651-0.106-0.902c-0.03-0.253-0.054-0.45-0.07-0.589c-0.017-0.137-0.026-0.209-0.026-0.209
		c0.565,1.389,1.221,2.529,1.91,3.465c0.46,0.622,0.936,1.154,1.412,1.61c0.713,0.681,1.427,1.188,2.088,1.565
		c0.331,0.188,0.647,0.344,0.945,0.473c0.596,0.258,1.109,0.407,1.492,0.493c0.127,0.03,0.24,0.051,0.336,0.067
		c0.24,0.042,0.375,0.05,0.375,0.05c-0.063-0.109-0.122-0.212-0.177-0.31c-0.488-0.87-0.63-1.238-0.664-1.396
		c-0.004-0.017-0.007-0.031-0.009-0.044c-0.003-0.024-0.002-0.04,0-0.052c0.004-0.015,0.009-0.018,0.009-0.018
		s3.653,3.891,8.138,3.945c0.148,0.003,0.292,0,0.429-0.006c0.044-0.002,0.086-0.006,0.129-0.008
		c0.09-0.007,0.179-0.012,0.263-0.022c0.049-0.005,0.093-0.012,0.14-0.017c0.074-0.011,0.147-0.021,0.218-0.034
		c0.045-0.008,0.088-0.017,0.133-0.026c0.064-0.014,0.129-0.028,0.189-0.044c0.042-0.011,0.082-0.022,0.123-0.034
		c0.059-0.017,0.115-0.036,0.17-0.056c0.037-0.013,0.073-0.026,0.107-0.039c0.056-0.022,0.106-0.044,0.158-0.069
		c0.029-0.013,0.061-0.027,0.089-0.041c0.054-0.027,0.104-0.057,0.153-0.086c0.021-0.014,0.043-0.025,0.064-0.038
		c0.066-0.043,0.13-0.089,0.188-0.134c0-0.002,0.001-0.002,0.001-0.003l0,0c1.277-1.027,0.578-2.894,0.578-2.894
		s2.598,0.723,3.788-1.501c1.19-2.226-1.781-6.306-1.781-6.306C42.218,129.543,43.178,126.134,39.209,123.962z"/>
	<path fill="#3A600D" d="M150.601,102.247c-0.13-0.369-0.271-0.721-0.418-1.066c-0.037-0.088-0.076-0.176-0.115-0.264
		c-0.135-0.3-0.273-0.591-0.42-0.871c-0.02-0.037-0.036-0.074-0.056-0.109c-0.169-0.316-0.347-0.619-0.528-0.909
		c-0.035-0.055-0.07-0.108-0.105-0.161c-0.168-0.261-0.342-0.511-0.52-0.749c-0.021-0.026-0.041-0.055-0.061-0.081
		c-0.207-0.272-0.42-0.53-0.639-0.773c-0.01-0.01-0.019-0.02-0.029-0.031c-0.216-0.238-0.436-0.462-0.661-0.673
		c-0.009-0.009-0.019-0.017-0.027-0.026c-0.472-0.439-0.958-0.814-1.453-1.126c0-0.001,0-0.001,0-0.001l0,0
		c-3.521-2.233-7.379-1.306-8.169,2.704c0,0-1.777,9.917-4.628,12.699c0,0,0.992,0.177,2.488-0.301c0,0-4.89,7.063-8.883,8.504
		c0,0,0.477,1.663,1.969,1.516c0,0-4.516,3.589-8.679,5.359c-4.162,1.771-3.541,5.258-0.575,6.453c0,0-3.359,3.769-2.394,6.099
		c0.965,2.331,3.621,1.866,3.621,1.866s-0.961,1.96,0.467,3.093c0.02,0.014,0.04,0.028,0.06,0.043
		c0.047,0.035,0.094,0.068,0.146,0.102c0.026,0.018,0.055,0.033,0.084,0.051c0.048,0.027,0.098,0.057,0.15,0.083
		c0.033,0.017,0.066,0.032,0.102,0.05c0.054,0.024,0.108,0.049,0.166,0.072c0.037,0.016,0.076,0.031,0.117,0.046
		c0.06,0.021,0.122,0.043,0.186,0.063c0.043,0.015,0.085,0.026,0.129,0.039c0.069,0.02,0.141,0.036,0.214,0.055
		c0.046,0.011,0.09,0.022,0.137,0.032c0.083,0.018,0.171,0.031,0.259,0.046c0.043,0.007,0.084,0.016,0.128,0.022
		c0.136,0.02,0.277,0.036,0.426,0.049c4.468,0.386,8.485-3.127,8.485-3.127s0.078,0.041-0.256,0.599
		c-0.092,0.152-0.214,0.344-0.377,0.583c-0.107,0.159-0.234,0.34-0.381,0.546c0,0,5.545,0.233,9.275-6.844
		c0,0-0.102,0.452-0.264,1.194c-0.098,0.445-0.218,0.994-0.35,1.614l0,0l0,0c0,0,7.082-3.527,9.19-13.949
		c0.302-1.488,0.501-3.117,0.565-4.897c0,0,0.488,0.627,1.048,2.249C150.026,122.117,153.991,111.938,150.601,102.247z"/>
	<path fill="#3A600D" d="M129.428,97.076c-0.398-0.328-2.169-0.688-4.966-1.048c0.627,0.746,1.013,1.699,1.029,2.746
		c0.037,2.434-1.931,4.438-4.396,4.475c-2.465,0.036-4.494-1.906-4.531-4.341c-0.022-1.432,0.652-2.709,1.711-3.531
		c-2.886-0.255-6.215-0.5-9.871-0.723c0.662,0.756,1.07,1.736,1.087,2.814c0.038,2.434-1.931,4.438-4.396,4.474
		c-2.465,0.038-4.495-1.905-4.533-4.34c-0.02-1.299,0.537-2.474,1.433-3.295c-3.247-0.158-6.66-0.294-10.171-0.404
		c1.097,0.788,1.819,2.054,1.842,3.494c0.037,2.435-1.93,4.439-4.396,4.476c-2.465,0.037-4.494-1.907-4.531-4.34
		c-0.024-1.575,0.796-2.969,2.045-3.767c-4.512-0.104-9.123-0.16-13.695-0.155c1.321,0.749,2.223,2.142,2.247,3.755
		c0.038,2.434-1.93,4.437-4.396,4.475c-2.465,0.036-4.495-1.907-4.533-4.34c-0.024-1.642,0.865-3.085,2.201-3.863
		c-4.425,0.045-8.771,0.153-12.904,0.337c1.739,0.582,3.007,2.189,3.035,4.105c0.039,2.436-1.93,4.438-4.395,4.475
		c-2.466,0.037-4.495-1.906-4.534-4.341c-0.027-1.802,1.046-3.366,2.605-4.072c-4.423,0.249-8.543,0.595-12.193,1.054
		c1.314,0.75,2.212,2.141,2.236,3.749c0.038,2.435-1.931,4.437-4.396,4.475s-4.495-1.906-4.532-4.34
		c-0.019-1.164,0.427-2.227,1.161-3.026c-2.5,0.476-4.636,1.033-6.296,1.679c-3.119,1.216,2.154,84.045,7.619,88.787
		c5.466,4.742,88.445,3.27,92.421-0.327C132.41,182.592,132.41,99.529,129.428,97.076z"/>
	<path fill="#FFF7C1" d="M131.167,96.21c-0.398-0.332-2.169-0.697-4.967-1.063c0.629,0.756,1.014,1.723,1.029,2.782
		c0.038,2.465-1.931,4.495-4.396,4.532c-2.465,0.038-4.495-1.93-4.532-4.396c-0.021-1.451,0.653-2.746,1.711-3.577
		c-2.886-0.259-6.214-0.508-9.87-0.731c0.663,0.766,1.07,1.759,1.087,2.85c0.037,2.465-1.931,4.495-4.396,4.532
		c-2.466,0.037-4.495-1.931-4.532-4.396c-0.021-1.318,0.535-2.508,1.431-3.34c-3.247-0.159-6.659-0.297-10.171-0.409
		c1.097,0.798,1.82,2.079,1.843,3.539c0.038,2.466-1.93,4.497-4.396,4.535c-2.465,0.036-4.495-1.932-4.533-4.397
		c-0.024-1.598,0.796-3.009,2.045-3.816C84.009,92.75,79.4,92.695,74.827,92.7c1.32,0.758,2.223,2.169,2.247,3.802
		c0.038,2.466-1.931,4.495-4.396,4.533c-2.466,0.038-4.495-1.932-4.532-4.396c-0.025-1.663,0.863-3.125,2.2-3.914
		c-4.426,0.047-8.771,0.156-12.905,0.342c1.741,0.589,3.007,2.218,3.036,4.159c0.038,2.465-1.93,4.496-4.396,4.533
		c-2.465,0.038-4.495-1.931-4.532-4.397c-0.027-1.824,1.045-3.409,2.604-4.125c-4.422,0.252-8.543,0.603-12.192,1.069
		c1.313,0.759,2.211,2.167,2.237,3.796c0.037,2.466-1.932,4.496-4.396,4.533c-2.466,0.038-4.494-1.93-4.532-4.396
		c-0.019-1.18,0.426-2.257,1.161-3.066c-2.5,0.483-4.635,1.045-6.295,1.702c-3.12,1.232,2.152,85.133,7.618,89.937
		c5.466,4.802,88.445,3.313,92.421-0.331C134.15,182.834,134.15,98.695,131.167,96.21z"/>
	<g>
		<path fill="#FFDF9D" d="M31.145,145.878c0.605,0,1.217,0.018,1.819,0.021c1.245,0.005,2.321-0.159,3.535-0.429
			c0.719-0.157,1.429-0.356,2.148-0.509c0.468-0.098,1.093-0.133,1.532-0.341c1.202-0.57,2.197-1.855,2.068-3.205
			c-0.064-0.668-0.611-1.548-0.041-2.043c0.178-0.153,0.581-0.281,0.788-0.399c0.626-0.359,1.202-0.766,1.727-1.262
			c1.071-1.011,1.87-1.961,1.742-3.5c-0.109-1.337-0.793-2.716-1.704-3.695c-0.112-0.122-0.691-0.437-0.762-0.578
			c-0.179-0.356,0.092-0.258,0.201-0.523c0.245-0.583,0.542-0.876,0.543-1.581c0.003-0.74-0.246-1.471-0.606-2.11
			c-0.753-1.337-1.628-2.223-3.153-2.184l-11.109,3.741C30.198,133.257,30.629,139.617,31.145,145.878z"/>
		<path fill="#FFDF9D" d="M130.174,186.479c1.82-1.669,2.806-20.212,3.056-40.064c-0.951,1.332-2.309,2.267-3.856,2.655
			c-0.406,0.102-0.597,0.051-0.944,0.289c-0.281,0.191-0.454,0.521-0.746,0.723c-0.227,0.156-0.33,0.084-0.551,0.271
			c-0.234,0.199-0.341,0.486-0.443,0.752c-0.309,0.801-0.46,1.528-0.976,2.248c-0.724,1.011-1.815,1.636-2.676,2.516
			c-0.66,0.675-1.183,1.502-1.773,2.237c-0.383,0.476-0.793,0.888-0.825,1.535c-0.088,1.7,1.25,0.266,1.853,1.147
			c-0.125,0.713-1.504,1.722-1.915,2.186c-0.668,0.75-1.042,1.164-1.959,1.538c-0.739,0.258-1.416,0.631-2.031,1.121
			c-1.057,0.759-1.91,1.432-3.149,1.903c-1.181,0.45-2.43,0.745-3.63,1.145c-0.538,0.18-3.826,1.226-3.557,2.035
			c0.613,0.14,1.242-0.082,1.857,0.078c-1.104,0.685-2.226,1.419-3.315,2.165c-0.7,0.479-1.195,1.046-1.935,1.451
			c-0.717,0.393-0.908,0.505-1.542,1.224c-0.888,1.008-1.675,1.638-2.87,2.253c-1.256,0.646-2.285,1.592-3.485,2.334
			c-0.609,0.421-1.266,0.737-1.97,0.949c-0.351,0.004-0.699,0.023-1.047,0.054c-0.721,0.117-1.313,0.401-2.055,0.45
			c-1.088,0.074-2.102,0.49-3.191,0.516c-0.727,0.019-1.459-0.023-2.186-0.013c-0.528,0.008-1.052,0.083-1.521-0.215
			c-0.552-0.352-0.825-1.009-1.556-1.094c-0.563-0.065-1.369,0.401-1.875,0.565c-0.574,0.185-1.172,0.349-1.769,0.438
			c-1.746,0.266-3.403-0.11-5.108-0.435c-1.474-0.28-2.856-0.641-4.182-1.365c-0.847-0.461-1.554-1.012-2.448-1.379
			c-1.832-0.751-3.516-1.75-5.312-2.555c-1.728-0.771-3.023-2.173-4.708-2.961c-0.924-0.432-1.882-0.723-2.136-1.85
			c-0.136-0.596-0.147-1.809-0.575-2.297c-0.35-0.397-0.926-0.41-1.432-0.475c-1.903-0.235-3.673-0.013-5.478-0.883
			c-1.089-0.524-2.138-1.239-3.168-1.868c-0.329-0.2-1.516-0.673-1.798-0.976c-0.326-0.346-0.222-0.017-0.293-0.578
			c-0.084-0.635,0.463-0.926,0.681-1.422c0.454-1.038-1.536-1.198-2.188-1.39c-0.771-0.226-1.458-0.656-2.241-0.835
			c-0.825-0.188-1.633-0.272-2.447-0.534c-0.851-0.271-1.632-0.649-2.391-1.076c1.524,14.417,3.442,26.107,5.384,27.814
			C43.219,191.611,126.199,190.122,130.174,186.479z"/>
		<path fill="#FFDF9D" d="M131.486,122.04c-1.726,0.133-3.016,0.678-4.59,1.281c-0.82,0.315-1.834,0.709-2.732,0.434
			c-0.739-0.225-1.066-0.643-1.93-0.426c-0.708,0.179-1.314,0.394-2.048,0.51c-2.105,0.336-3.546,1.83-5.391,2.778
			c-1.086,0.556-2.647,1.06-2.979,2.431c-0.15,0.624,0.042,1.111,0.167,1.703c0.108,0.508,0.058,1.023,0.054,1.538
			c-0.006,0.978,0.08,1.989,0.014,2.965c-0.037,0.566-0.293,1.078-0.286,1.653c0.007,0.479,0.175,0.969,0.324,1.417
			c0.267,0.804,0.887,1.516,1.671,1.874c0.517,0.236,1.032,0.232,1.525,0.537c0.342,0.214,0.616,0.455,0.976,0.636
			c0.384,0.191,0.909,0.241,1.257,0.47c0.418,0.273,0.544,0.721,0.789,1.145c0.271,0.475,0.432,0.869,0.973,0.955
			c0.383,0.063,1.166-0.264,1.5,0.009c0.239,0.195,0.238,0.489,0.478,0.712c0.437,0.408,0.997,0.503,1.563,0.455
			c0.703-0.061,1.458-0.162,2.157-0.272c0.549-0.086,1.178-0.106,1.715-0.218c0.914-0.188,1.765-0.891,2.645-1.23
			c0.383-0.146,0.746-0.321,1.121-0.477c0.682-0.282,2.018-0.742,2.813-0.484c0.054-6.99,0.016-14.016-0.106-20.406
			C132.612,121.997,132.054,121.999,131.486,122.04z"/>
	</g>
	<text transform="matrix(1 0 0 1 35.9995 161.666)" fill="#2C3E4F" font-family="'TrashHand'" font-size="19.8754">Multiplication</text>
	<g>
		<path fill="#4E950B" d="M25.343,91.821c0,0,0.793,10.045,3.355,13.092c0,0-1.004,0.079-2.446-0.543c0,0,4.17,7.509,8.002,9.337
			c0,0-0.638,1.606-2.109,1.313c0,0,4.143,4.016,8.109,6.188c3.969,2.174,3.008,5.581-0.061,6.479c0,0,2.971,4.081,1.781,6.305
			c-1.19,2.224-3.788,1.5-3.788,1.5s1.351,3.608-3.133,3.554c-4.484-0.055-8.137-3.945-8.137-3.945s-0.173,0.067,0.84,1.817
			c0,0-5.543-0.313-8.559-7.724c0,0,0.147,1.177,0.335,2.855c0,0-8.752-5.496-7.854-19.715c0,0-0.548,0.575-1.266,2.134
			c0,0-2.942-10.52,1.385-19.83C15.885,85.848,24.731,85.45,25.343,91.821z"/>
		<path fill="#467C0D" d="M26.917,135.101c0,0,3.652,3.891,8.137,3.945c1.258,0.016,2.056-0.258,2.555-0.658
			c-0.383-0.123-0.757-0.283-1.172-0.47c-0.95-0.43-1.97-0.649-2.843-1.241c-0.692-0.469-1.383-0.924-2.111-1.334
			c-1.362-0.769-2.607-1.904-3.422-3.246c-0.464-0.762-0.889-1.494-1.283-2.293c-0.091-0.187-0.277-0.773-0.563-0.76
			c-0.229,0.461-0.326,1.046-0.415,1.553c-0.251-0.139-0.501-0.604-0.667-0.814c-0.235-0.244-0.416-0.523-0.544-0.837
			c-0.358-0.785-0.69-1.516-1.136-2.265c-0.402-0.622-0.774-1.262-1.118-1.918c-0.895-1.7-1.878-3.478-2.438-5.321
			c-0.146-0.479-0.213-1.19-0.473-1.624c-0.018-0.129-0.08-0.2-0.188-0.217c-0.137,0.197-0.295,0.363-0.401,0.583
			c-0.113,0.235-0.126,0.519-0.274,0.735c-0.117-0.078-0.112-0.191-0.17-0.35c-0.205-0.565-0.399-1.09-0.521-1.684
			c-0.229-1.111-0.357-2.241-0.582-3.354c-0.172-0.762-0.346-1.524-0.519-2.286c-0.414-1.921-1.019-3.958-0.978-5.938
			c0.013-0.665,0.135-1.321,0.162-1.983c0.043-0.109,0.045-0.215,0.006-0.316c-0.6,0.323-0.948,1.03-1.351,1.545
			c0.129-1.012,0.289-2.007,0.376-3.03c0.171-2.015,0.311-4.036,0.506-6.046c0.208-2.138,0.797-4.19,1.583-6.181
			c0.125-0.328,0.263-0.65,0.406-0.97c-2.105,1.061-4.204,3.137-5.681,6.313c-4.327,9.311-1.385,19.83-1.385,19.83
			c0.718-1.559,1.266-2.134,1.266-2.134c-0.898,14.219,7.854,19.715,7.854,19.715c-0.188-1.679-0.335-2.855-0.335-2.855
			c3.016,7.41,8.559,7.724,8.559,7.724C26.745,135.168,26.917,135.101,26.917,135.101z"/>
		<path fill="#467C0D" d="M19.887,93.1c-0.084-0.435-0.7-0.488-0.857-0.074c-0.191,0.502-0.124,1.063-0.065,1.584
			c0.04,0.362,0.613,0.412,0.715,0.062C19.827,94.168,19.989,93.628,19.887,93.1z"/>
		<path fill="#467C0D" d="M23.774,100.463c-0.188-0.473-0.919-0.131-0.715,0.339c0.128,0.293,0.236,0.604,0.322,0.913
			c0.092,0.327,0.656,0.362,0.646-0.031C24.016,101.246,23.937,100.868,23.774,100.463z"/>
		<path fill="#467C0D" d="M23.075,110.228c-0.039-0.423-0.17-0.785-0.368-1.158c-0.274-0.516-1.103-0.127-0.821,0.388
			c0.177,0.324,0.328,0.667,0.479,1C22.55,110.867,23.114,110.636,23.075,110.228z"/>
		<path fill="#467C0D" d="M31.428,121.097c-0.15-0.386-0.425-0.707-0.625-1.069c-0.242-0.434-0.921-0.125-0.702,0.332
			c0.207,0.435,0.421,0.878,0.804,1.177C31.204,121.771,31.546,121.403,31.428,121.097z"/>
		<path fill="#467C0D" d="M31.281,130.282c-0.356-0.471-0.789-0.864-1.218-1.271c-0.322-0.306-0.857,0.116-0.54,0.454
			c0.45,0.482,0.841,0.968,1.434,1.277C31.235,130.89,31.438,130.492,31.281,130.282z"/>
		<path fill="#467C0D" d="M38.665,130.747c-0.127-0.087-0.244-0.181-0.341-0.303c-0.348-0.441-0.995,0.211-0.531,0.578
			c0.202,0.16,0.417,0.259,0.677,0.262C38.75,131.285,38.92,130.926,38.665,130.747z"/>
		<path fill="#4E950B" d="M13.083,97.516c-0.13-0.466-0.828-0.354-0.748,0.138c0.029,0.184,0.006,0.362,0.025,0.545
			c0.019,0.181,0.014,0.344-0.032,0.522c-0.075,0.295,0.329,0.574,0.512,0.268c0.12-0.202,0.219-0.414,0.29-0.638
			C13.215,98.083,13.156,97.781,13.083,97.516z"/>
		<path fill="#4E950B" d="M15.445,109.679c-0.035-0.483-0.871-0.444-0.853,0.04c0.014,0.375,0.012,0.718,0.145,1.073
			c0.107,0.285,0.602,0.274,0.68-0.031C15.508,110.391,15.472,110.055,15.445,109.679z"/>
		<path fill="#4E950B" d="M15.25,118.657c-0.152-0.466-0.957-0.207-0.82,0.266c0.12,0.418,0.209,0.815,0.408,1.206
			c0.149,0.293,0.578,0.212,0.619-0.112C15.519,119.528,15.401,119.118,15.25,118.657z"/>
		<path fill="#4E950B" d="M21.28,126.047c-0.094-0.454-0.289-0.862-0.44-1.298c-0.078-0.229-0.39-0.307-0.589-0.211
			c-0.236,0.111-0.289,0.36-0.211,0.59c0.154,0.446,0.326,0.855,0.676,1.185C20.933,126.519,21.35,126.392,21.28,126.047z"/>
		<path fill="#4E950B" d="M25.879,134.921c-0.11-0.596-0.384-1.058-0.747-1.534c-0.145-0.19-0.442-0.202-0.618-0.054
			c-0.201,0.168-0.183,0.418-0.054,0.619c0.274,0.426,0.526,0.844,0.843,1.242C25.511,135.456,25.94,135.241,25.879,134.921z"/>
		<path fill="#6EAA2E" d="M38.067,121.621c-0.611-0.539-1.446-0.767-2.138-1.188c-0.296-0.182-0.604,0.243-0.313,0.443
			c0.681,0.469,1.446,0.883,2.207,1.209C38.12,122.212,38.277,121.806,38.067,121.621z"/>
		<path fill="#6EAA2E" d="M38.647,123.438c-0.287-0.181-0.546-0.333-0.873-0.429c-0.396-0.114-0.609,0.441-0.224,0.605
			c0.308,0.129,0.61,0.188,0.937,0.26C38.725,123.926,38.839,123.56,38.647,123.438z"/>
		<path fill="#6EAA2E" d="M40.988,123.945c-0.083-0.21-0.222-0.335-0.415-0.445c-0.402-0.228-0.822,0.36-0.417,0.59
			c0.153,0.087,0.296,0.187,0.453,0.269C40.867,124.493,41.074,124.161,40.988,123.945z"/>
		<path fill="#6EAA2E" d="M31.042,113.009c-0.206-0.32-0.435-0.596-0.687-0.883c-0.246-0.278-0.672,0.081-0.439,0.37
			c0.238,0.297,0.471,0.57,0.752,0.828C30.851,113.492,31.176,113.219,31.042,113.009z"/>
	</g>
	<g>
		<path fill="#4E950B" d="M136.716,95.252c0,0-1.777,9.919-4.627,12.7c0,0,0.991,0.177,2.487-0.301c0,0-4.89,7.061-8.883,8.504
			c0,0,0.477,1.662,1.97,1.514c0,0-4.517,3.59-8.68,5.361c-4.161,1.771-3.541,5.256-0.575,6.453c0,0-3.358,3.768-2.394,6.099
			s3.621,1.866,3.621,1.866s-1.699,3.458,2.77,3.844c4.468,0.385,8.486-3.127,8.486-3.127s0.164,0.086-1.016,1.729
			c0,0,5.547,0.232,9.277-6.844c0,0-0.264,1.156-0.615,2.809c0,0,9.25-4.608,9.756-18.848c0,0,0.489,0.627,1.049,2.25
			c0,0,3.964-10.18,0.574-19.872C146.716,90.24,137.953,88.973,136.716,95.252z"/>
		<path fill="#467C0D" d="M130.892,138.165c0,0-4.019,3.512-8.486,3.127c-1.254-0.108-2.021-0.459-2.479-0.906
			c0.395-0.085,0.781-0.207,1.212-0.352c0.989-0.334,2.024-0.453,2.952-0.956c0.734-0.398,1.467-0.782,2.232-1.121
			c1.432-0.629,2.781-1.637,3.726-2.892c0.535-0.713,1.03-1.398,1.501-2.156c0.109-0.176,0.354-0.742,0.635-0.701
			c0.182,0.483,0.223,1.074,0.262,1.586c0.263-0.111,0.556-0.551,0.742-0.744c0.258-0.219,0.466-0.479,0.625-0.779
			c0.434-0.746,0.836-1.439,1.353-2.142c0.461-0.581,0.895-1.18,1.302-1.798c1.057-1.604,2.21-3.276,2.951-5.057
			c0.191-0.462,0.326-1.164,0.63-1.57c0.028-0.125,0.098-0.189,0.207-0.197c0.117,0.211,0.258,0.391,0.341,0.621
			c0.09,0.244,0.076,0.528,0.202,0.759c0.124-0.066,0.13-0.18,0.203-0.332c0.261-0.542,0.504-1.044,0.685-1.624
			c0.338-1.083,0.576-2.193,0.91-3.278c0.245-0.742,0.492-1.484,0.74-2.226c0.602-1.869,1.402-3.838,1.557-5.813
			c0.053-0.662-0.004-1.328,0.033-1.989c-0.031-0.112-0.021-0.218,0.025-0.316c0.566,0.38,0.844,1.12,1.193,1.672
			c-0.029-1.021-0.092-2.026-0.076-3.055c0.029-2.021,0.088-4.044,0.092-6.066c0.002-2.147-0.381-4.247-0.967-6.307
			c-0.094-0.338-0.199-0.672-0.31-1.005c1.992,1.265,3.875,3.535,5.032,6.841c3.39,9.692-0.574,19.872-0.574,19.872
			c-0.56-1.623-1.049-2.25-1.049-2.25c-0.506,14.239-9.756,18.848-9.756,18.848c0.352-1.652,0.615-2.809,0.615-2.809
			c-3.73,7.076-9.277,6.844-9.277,6.844C131.056,138.251,130.892,138.165,130.892,138.165z"/>
		<path fill="#467C0D" d="M142.021,97.062c0.126-0.425,0.743-0.417,0.86,0.01c0.141,0.52,0.019,1.07-0.091,1.583
			c-0.076,0.356-0.651,0.349-0.718-0.009C141.975,98.132,141.867,97.579,142.021,97.062z"/>
		<path fill="#467C0D" d="M137.427,104.007c0.235-0.451,0.928-0.039,0.68,0.408c-0.156,0.279-0.296,0.577-0.412,0.875
			c-0.123,0.318-0.688,0.296-0.639-0.094C137.109,104.763,137.225,104.394,137.427,104.007z"/>
		<path fill="#467C0D" d="M137.163,113.793c0.081-0.418,0.246-0.765,0.481-1.117c0.323-0.485,1.109-0.016,0.777,0.469
			c-0.207,0.304-0.391,0.629-0.575,0.946C137.623,114.481,137.084,114.194,137.163,113.793z"/>
		<path fill="#467C0D" d="M127.781,123.786c0.187-0.368,0.491-0.661,0.729-1.002c0.281-0.406,0.927-0.033,0.664,0.4
			c-0.248,0.41-0.506,0.83-0.916,1.092C127.937,124.48,127.631,124.082,127.781,123.786z"/>
		<path fill="#467C0D" d="M127.022,132.942c0.402-0.434,0.871-0.781,1.337-1.145c0.352-0.273,0.843,0.199,0.494,0.506
			c-0.496,0.434-0.933,0.879-1.554,1.13C127.007,133.551,126.845,133.136,127.022,132.942z"/>
		<path fill="#467C0D" d="M119.628,132.68c0.136-0.075,0.262-0.156,0.369-0.27c0.389-0.405,0.97,0.308,0.473,0.628
			c-0.217,0.141-0.44,0.217-0.699,0.193C119.491,133.206,119.357,132.832,119.628,132.68z"/>
		<path fill="#4E950B" d="M148.358,102.128c0.175-0.452,0.858-0.271,0.73,0.211c-0.047,0.18-0.042,0.359-0.079,0.54
			c-0.037,0.179-0.047,0.341-0.02,0.522c0.047,0.302-0.385,0.539-0.534,0.219c-0.102-0.214-0.179-0.436-0.228-0.666
			C148.167,102.679,148.257,102.384,148.358,102.128z"/>
		<path fill="#4E950B" d="M144.81,113.996c0.082-0.477,0.91-0.354,0.845,0.126c-0.051,0.371-0.082,0.713-0.25,1.051
			c-0.136,0.275-0.626,0.215-0.673-0.095C144.675,114.7,144.745,114.37,144.81,113.996z"/>
		<path fill="#4E950B" d="M144.119,122.952c0.197-0.449,0.973-0.111,0.791,0.345c-0.161,0.403-0.287,0.792-0.524,1.16
			c-0.179,0.277-0.598,0.153-0.605-0.172C143.767,123.793,143.924,123.396,144.119,122.952z"/>
		<path fill="#4E950B" d="M137.393,129.711c0.137-0.442,0.372-0.828,0.563-1.247c0.102-0.221,0.42-0.266,0.608-0.151
			c0.224,0.134,0.251,0.387,0.151,0.606c-0.197,0.43-0.408,0.819-0.789,1.112C137.69,130.215,137.288,130.05,137.393,129.711z"/>
		<path fill="#4E950B" d="M131.94,138.091c0.169-0.582,0.488-1.016,0.896-1.454c0.164-0.175,0.46-0.157,0.621,0.008
			c0.183,0.188,0.141,0.433-0.008,0.62c-0.314,0.396-0.606,0.789-0.961,1.154C132.255,138.659,131.85,138.403,131.94,138.091z"/>
		<path fill="#6EAA2E" d="M121.121,123.656c0.663-0.477,1.516-0.621,2.245-0.973c0.313-0.151,0.577,0.302,0.269,0.473
			c-0.725,0.399-1.527,0.735-2.315,0.984C121.013,124.238,120.894,123.819,121.121,123.656z"/>
		<path fill="#6EAA2E" d="M120.367,125.406c0.301-0.151,0.576-0.278,0.909-0.34c0.407-0.075,0.563,0.499,0.164,0.624
			c-0.319,0.099-0.626,0.126-0.957,0.165C120.241,125.884,120.163,125.508,120.367,125.406z"/>
		<path fill="#6EAA2E" d="M117.987,125.68c0.104-0.199,0.253-0.312,0.457-0.401c0.422-0.186,0.782,0.44,0.356,0.628
			c-0.162,0.071-0.313,0.156-0.477,0.223C118.053,126.238,117.88,125.888,117.987,125.68z"/>
		<path fill="#6EAA2E" d="M128.959,115.777c0.237-0.3,0.491-0.551,0.771-0.812c0.271-0.254,0.66,0.146,0.401,0.41
			c-0.267,0.273-0.526,0.521-0.831,0.75C129.103,116.276,128.806,115.973,128.959,115.777z"/>
	</g>
	<g>
		<path fill="#4E950B" d="M6.616,165.443c0,0,0.496,5.3,1.821,7.287c0,0,0.497-1.655,0.993-2.648c0,0,2.65,11.096,6.129,14.076
			c0,0,0.828-0.661,0.994-1.986c0,0,4.969,8.613,12.422,12.091c0,0-0.166-0.663,0-2.153c0,0,10.6,5.134,18.881,5.798
			c8.281,0.661,8.281-3.479,5.136-5.466c0,0,9.771-0.332,4.969-6.957c0,0,6.625-2.152,2.152-6.46
			c-4.472-4.306-14.078-5.465-19.047-8.116c0,0,2.815-0.33,3.976-0.496c0,0-7.951-2.318-14.741-8.612c0,0,1.987,0,3.313,0
			c0,0-2.651-1.491-6.625-4.804C23.012,153.685,5.456,146.894,6.616,165.443z"/>
		<path fill="#467C0D" d="M47.856,197.907c2.89,0.23,4.769-0.124,5.859-0.767c-0.158-0.019-0.317-0.033-0.477-0.059
			c-1.381-0.23-2.771-0.319-4.084-0.852c-1.331-0.542-2.666-1.322-3.877-2.093c-1.371-0.871-2.604-1.938-4.039-2.683
			c-0.946-0.49-1.794-1.102-2.689-1.669c-0.519-0.327-1.054-0.598-1.624-0.819c-0.618-0.24-1.079-0.572-1.621-0.955
			c-1.202-0.851-2.202-1.809-3.242-2.842c-0.313-0.311-0.645-0.599-0.953-0.908c-0.044-0.148-0.137-0.237-0.274-0.265
			c-0.246,0.409-0.422,0.813-0.549,1.28c-0.099,0.368-0.066,0.782-0.204,1.133c-0.231,0.008-0.427-0.085-0.585-0.275
			c-0.514-0.478-1.045-0.936-1.594-1.372c-1.129-0.878-2.326-1.605-3.384-2.579c-0.848-0.834-1.671-1.689-2.468-2.57
			c-0.853-0.882-1.661-1.8-2.427-2.757c-0.56-0.743-0.978-1.574-1.579-2.282c-0.322,0.095-0.57,1.04-0.636,1.311
			c-0.079,0.327-0.063,0.686-0.215,0.991c-0.524,0.074-0.937-0.691-1.153-1.024c-0.987-1.51-1.936-3.029-2.772-4.627
			c-0.989-1.891-1.815-3.899-2.353-5.969c-0.144-0.545-0.041-1.127-0.19-1.643c-0.266,0.208-0.575,0.743-0.804,1.051
			c-0.142,0.191-0.372,0.75-0.641,0.822c-1.648-1.631-1.517-4.513-1.521-6.623c-0.002-0.449-0.016-0.915-0.03-1.383
			c-0.89,1.887-1.333,4.477-1.114,7.963c0,0,0.496,5.3,1.821,7.287c0,0,0.497-1.655,0.993-2.648c0,0,2.65,11.096,6.129,14.076
			c0,0,0.828-0.661,0.994-1.986c0,0,4.969,8.613,12.422,12.091c0,0-0.166-0.663,0-2.153
			C28.975,192.109,39.575,197.243,47.856,197.907z"/>
		<path fill="#467C0D" d="M10.637,158.548c-0.066-0.375-0.689-0.375-0.756,0c-0.124,0.702-0.166,1.504-0.012,2.199
			c0.086,0.387,0.692,0.387,0.778,0C10.803,160.052,10.761,159.25,10.637,158.548z"/>
		<path fill="#467C0D" d="M20.575,160.204c-0.243-0.621-0.61-1.188-0.798-1.829c-0.155-0.526-0.931-0.306-0.816,0.226
			c0.153,0.715,0.468,1.321,0.897,1.906C20.1,160.835,20.75,160.651,20.575,160.204z"/>
		<path fill="#467C0D" d="M21.35,170.056c-0.479-0.723-1.023-1.362-1.641-1.972c-0.443-0.438-1.107,0.229-0.682,0.682
			c0.283,0.298,0.55,0.61,0.814,0.924c0.291,0.35,0.619,0.623,0.993,0.882C21.145,170.786,21.554,170.364,21.35,170.056z"/>
		<path fill="#467C0D" d="M30.141,170.215c-0.416-0.725-0.931-1.346-1.493-1.96c-0.417-0.453-1.065,0.212-0.671,0.671
			c0.514,0.592,1.011,1.191,1.549,1.764C29.835,171.02,30.362,170.596,30.141,170.215z"/>
		<path fill="#467C0D" d="M32.1,180.169c-0.39-0.77-1.074-1.226-1.857-1.536c-0.43-0.172-0.731,0.552-0.313,0.743
			c0.617,0.285,1.159,0.716,1.609,1.227C31.82,180.922,32.274,180.516,32.1,180.169z"/>
		<path fill="#467C0D" d="M43.578,178.318c-0.609-0.826-1.473-1.373-2.175-2.115c-0.424-0.451-1.088,0.223-0.674,0.674
			c0.66,0.723,1.434,1.339,2.196,1.944C43.262,179.09,43.882,178.73,43.578,178.318z"/>
		<path fill="#467C0D" d="M47.441,188.716c-0.442-0.524-1.093-0.772-1.626-1.19c-0.389-0.305-0.943,0.218-0.555,0.555
			c0.533,0.46,1.135,0.857,1.758,1.184C47.381,189.455,47.695,189.017,47.441,188.716z"/>
		<path fill="#467C0D" d="M55.661,186.988c-0.455-0.301-0.946-0.518-1.441-0.746c-0.539-0.252-1.013,0.544-0.47,0.805
			c0.53,0.252,1.051,0.493,1.628,0.614C55.79,187.748,56.015,187.221,55.661,186.988z"/>
		<path fill="#4E950B" d="M13.698,174.803c-0.093-0.473-0.245-0.926-0.273-1.41c-0.026-0.458-0.647-0.439-0.699,0
			c-0.073,0.624,0.037,1.233,0.467,1.705C13.411,175.338,13.752,175.08,13.698,174.803z"/>
		<path fill="#4E950B" d="M23.442,183.73c-0.481-0.578-0.986-1.133-1.383-1.776c-0.29-0.473-1.021-0.05-0.743,0.435
			c0.431,0.756,0.949,1.437,1.675,1.926C23.364,184.568,23.695,184.035,23.442,183.73z"/>
		<path fill="#4E950B" d="M39.117,191.76c-0.605-0.285-1.219-0.527-1.806-0.854c-0.499-0.277-0.89,0.431-0.44,0.751
			c0.606,0.431,1.267,0.89,2.042,0.855C39.285,192.497,39.502,191.943,39.117,191.76z"/>
		<path fill="#6EAA2E" d="M52.674,176.563c-1.015-0.43-2.393-0.633-3.492-0.554c-0.386,0.027-0.527,0.648-0.098,0.717
			c0.551,0.086,1.103,0.135,1.65,0.238c0.586,0.109,1.159,0.274,1.76,0.264C52.82,177.223,53.02,176.709,52.674,176.563z"/>
		<path fill="#6EAA2E" d="M54.467,177.938c-0.477-0.319-0.982-0.493-1.546-0.586c-0.45-0.077-0.652,0.597-0.191,0.695
			c0.509,0.108,1.012,0.276,1.507,0.437C54.574,178.595,54.737,178.119,54.467,177.938z"/>
		<path fill="#6EAA2E" d="M58.397,179.859c-0.221-0.362-0.531-0.643-0.834-0.936c-0.349-0.338-0.871,0.184-0.532,0.533
			c0.294,0.302,0.574,0.611,0.937,0.833C58.235,180.454,58.561,180.129,58.397,179.859z"/>
		<path fill="#6EAA2E" d="M36.985,168.199c-0.418-0.326-0.879-0.542-1.353-0.776c-0.45-0.223-0.848,0.448-0.396,0.677
			c0.47,0.238,0.927,0.495,1.438,0.632C36.96,168.809,37.249,168.404,36.985,168.199z"/>
		<path fill="#6EAA2E" d="M38.425,168.954c-0.046-0.02-0.089-0.038-0.133-0.058c-0.276-0.118-0.62,0.015-0.62,0.355
			c0,0.342,0.344,0.476,0.62,0.355c0.044-0.018,0.087-0.037,0.133-0.056C38.651,169.453,38.651,169.052,38.425,168.954z"/>
		<path fill="#6EAA2E" d="M27.679,158.789c-0.235-0.216-0.461-0.421-0.75-0.562c-0.327-0.16-0.664-0.298-1.004-0.424
			c-0.387-0.144-0.661,0.508-0.281,0.666c0.305,0.131,0.603,0.271,0.896,0.426c0.283,0.148,0.573,0.241,0.871,0.354
			C27.671,159.348,27.875,158.97,27.679,158.789z"/>
	</g>
	<g>
		<path fill="#4E950B" d="M153.287,164.599c0,0-0.137,5.323-1.324,7.396c0,0-0.608-1.619-1.171-2.578c0,0-1.895,11.252-5.161,14.461
			c0,0-0.871-0.604-1.127-1.915c0,0-4.375,8.93-11.575,12.903c0,0,0.12-0.672-0.146-2.148c0,0-10.229,5.84-18.447,7.062
			c-8.217,1.223-8.497-2.909-5.492-5.105c0,0-9.771,0.331-5.428-6.604c0,0-6.756-1.7-2.586-6.299
			c4.17-4.6,13.677-6.406,18.455-9.386c0,0-2.832-0.141-4-0.227c0,0,7.775-2.852,14.124-9.591c0,0-1.983,0.134-3.305,0.225
			c0,0,2.543-1.666,6.285-5.24S153.187,146.013,153.287,164.599z"/>
		<path fill="#467C0D" d="M114.335,199.778c-2.865,0.426-4.764,0.2-5.896-0.367c0.157-0.03,0.313-0.054,0.471-0.091
			c1.362-0.323,2.744-0.507,4.019-1.127c1.29-0.63,2.569-1.498,3.726-2.349c1.309-0.961,2.467-2.11,3.849-2.949
			c0.91-0.555,1.715-1.222,2.57-1.848c0.495-0.362,1.012-0.669,1.565-0.929c0.6-0.281,1.037-0.645,1.552-1.063
			c1.142-0.928,2.074-1.953,3.043-3.055c0.29-0.33,0.602-0.641,0.89-0.97c0.033-0.152,0.119-0.246,0.255-0.284
			c0.273,0.394,0.477,0.785,0.634,1.241c0.124,0.36,0.12,0.777,0.28,1.117c0.233-0.009,0.422-0.113,0.566-0.315
			c0.479-0.51,0.979-1.002,1.496-1.477c1.066-0.95,2.214-1.759,3.202-2.803c0.79-0.887,1.553-1.797,2.289-2.73
			c0.79-0.937,1.535-1.908,2.234-2.916c0.509-0.778,0.869-1.635,1.42-2.383c0.327,0.073,0.64,0.999,0.725,1.266
			c0.1,0.319,0.107,0.679,0.281,0.975c0.528,0.037,0.887-0.754,1.08-1.102c0.883-1.572,1.727-3.151,2.453-4.804
			c0.859-1.952,1.547-4.013,1.944-6.113c0.105-0.555-0.036-1.128,0.078-1.653c0.278,0.191,0.624,0.704,0.872,0.994
			c0.155,0.183,0.422,0.723,0.694,0.777c1.535-1.739,1.21-4.604,1.071-6.71c-0.029-0.448-0.045-0.914-0.063-1.383
			c1.016,1.822,1.633,4.379,1.651,7.869c0,0-0.137,5.323-1.324,7.396c0,0-0.608-1.619-1.171-2.578c0,0-1.895,11.252-5.161,14.461
			c0,0-0.871-0.604-1.127-1.915c0,0-4.375,8.93-11.575,12.903c0,0,0.12-0.672-0.146-2.148
			C132.783,192.717,122.553,198.557,114.335,199.778z"/>
		<path fill="#467C0D" d="M148.807,157.992c0.04-0.379,0.663-0.421,0.754-0.051c0.171,0.691,0.267,1.489,0.16,2.194
			c-0.06,0.391-0.665,0.431-0.776,0.052C148.744,159.504,148.732,158.7,148.807,157.992z"/>
		<path fill="#467C0D" d="M139.003,160.317c0.201-0.635,0.529-1.229,0.674-1.88c0.118-0.535,0.907-0.368,0.829,0.169
			c-0.105,0.725-0.378,1.352-0.767,1.964C139.521,160.914,138.861,160.774,139.003,160.317z"/>
		<path fill="#467C0D" d="M138.897,170.199c0.429-0.754,0.93-1.429,1.504-2.08c0.413-0.465,1.12,0.155,0.726,0.635
			c-0.262,0.317-0.506,0.646-0.749,0.978c-0.269,0.367-0.575,0.663-0.931,0.946C139.152,170.914,138.714,170.52,138.897,170.199z"/>
		<path fill="#467C0D" d="M130.136,170.951c0.367-0.751,0.839-1.404,1.358-2.055c0.384-0.481,1.077,0.139,0.714,0.621
			c-0.472,0.629-0.928,1.26-1.425,1.866C130.496,171.732,129.943,171.348,130.136,170.951z"/>
		<path fill="#467C0D" d="M128.857,181.017c0.336-0.794,0.988-1.296,1.748-1.66c0.417-0.199,0.768,0.501,0.363,0.722
			c-0.596,0.326-1.107,0.794-1.521,1.332C129.187,181.747,128.707,181.373,128.857,181.017z"/>
		<path fill="#467C0D" d="M117.28,179.946c0.554-0.866,1.376-1.47,2.026-2.259c0.393-0.477,1.102,0.148,0.72,0.629
			c-0.609,0.766-1.34,1.432-2.062,2.088C117.647,180.693,117.003,180.377,117.28,179.946z"/>
		<path fill="#467C0D" d="M114.128,190.58c0.406-0.553,1.039-0.844,1.542-1.297c0.367-0.329,0.956,0.154,0.591,0.516
			c-0.501,0.496-1.075,0.933-1.673,1.301C114.24,191.314,113.896,190.898,114.128,190.58z"/>
		<path fill="#467C0D" d="M105.81,189.412c0.436-0.33,0.91-0.578,1.388-0.841c0.521-0.286,1.048,0.474,0.523,0.771
			c-0.511,0.288-1.016,0.564-1.582,0.725C105.734,190.182,105.472,189.67,105.81,189.412z"/>
		<path fill="#4E950B" d="M146.853,174.418c0.061-0.479,0.184-0.941,0.178-1.426c-0.005-0.46,0.616-0.483,0.697-0.047
			c0.115,0.615,0.047,1.231-0.351,1.731C147.175,174.932,146.818,174.697,146.853,174.418z"/>
		<path fill="#4E950B" d="M137.736,183.982c0.441-0.609,0.908-1.196,1.259-1.864c0.258-0.492,1.015-0.118,0.772,0.383
			c-0.379,0.782-0.851,1.497-1.541,2.035C137.87,184.813,137.503,184.305,137.736,183.982z"/>
		<path fill="#4E950B" d="M122.64,193.056c0.585-0.327,1.182-0.609,1.745-0.976c0.478-0.311,0.915,0.37,0.488,0.721
			c-0.575,0.471-1.203,0.973-1.979,0.992C122.523,193.802,122.268,193.264,122.64,193.056z"/>
		<path fill="#6EAA2E" d="M108.084,178.811c0.983-0.497,2.345-0.794,3.448-0.789c0.385,0.002,0.57,0.613,0.146,0.71
			c-0.544,0.122-1.091,0.21-1.632,0.349c-0.576,0.15-1.138,0.354-1.736,0.383C107.984,179.479,107.75,178.979,108.084,178.811z"/>
		<path fill="#6EAA2E" d="M106.389,180.305c0.453-0.351,0.946-0.559,1.503-0.69c0.445-0.105,0.692,0.552,0.239,0.681
			c-0.501,0.144-0.992,0.344-1.476,0.538C106.328,180.966,106.132,180.502,106.389,180.305z"/>
		<path fill="#6EAA2E" d="M102.599,182.486c0.195-0.376,0.485-0.676,0.768-0.989c0.324-0.36,0.882,0.124,0.568,0.495
			c-0.273,0.321-0.531,0.65-0.878,0.895C102.799,183.068,102.453,182.767,102.599,182.486z"/>
		<path fill="#6EAA2E" d="M123.173,169.403c0.395-0.353,0.84-0.599,1.297-0.864c0.435-0.253,0.876,0.389,0.439,0.648
			c-0.453,0.27-0.892,0.555-1.392,0.727C123.238,170.01,122.924,169.627,123.173,169.403z"/>
		<path fill="#6EAA2E" d="M121.788,170.255c0.043-0.022,0.085-0.044,0.128-0.066c0.268-0.137,0.619-0.027,0.642,0.313
			c0.023,0.341-0.31,0.497-0.594,0.397c-0.046-0.018-0.09-0.031-0.136-0.049C121.595,170.768,121.568,170.367,121.788,170.255z"/>
		<path fill="#6EAA2E" d="M131.82,159.386c0.222-0.233,0.432-0.451,0.711-0.611c0.314-0.181,0.643-0.341,0.973-0.49
			c0.377-0.17,0.694,0.461,0.326,0.646c-0.296,0.15-0.582,0.311-0.865,0.484c-0.271,0.168-0.556,0.279-0.846,0.412
			C131.866,159.942,131.636,159.579,131.82,159.386z"/>
	</g>
	<path fill="#467C0D" d="M43.643,54.903C35.436,58.74,27.44,85.321,78.14,84.364c50.702-0.957,44.604-20.468,40.944-26.016
		c-3.657-5.549-25.96-0.191-42.163-0.191C60.717,58.156,53.05,50.504,43.643,54.903z"/>
	<path fill="#2C3E4F" d="M45.414,56.584C37.612,59.906,30.01,82.918,78.208,82.09c48.197-0.829,42.4-17.722,38.923-22.526
		c-3.479-4.803-24.68-0.165-40.082-0.165C61.646,59.399,54.358,52.774,45.414,56.584z"/>
	<path fill="#FFFAE1" d="M81.935,61.778c-1.822,1.613,0.699,6.687,2.795,7.673c2.097,0.986,6.406,0.549,7.921-0.657
		c1.515-1.207,2.796-6.358,0.466-7.234C90.788,60.682,83.916,60.024,81.935,61.778z"/>
	<path fill="#FFFAE1" d="M80.746,79.218c0.257-2.07,0.733-7.616-1.157-8.405s-10.124-1.058-11.801,0.009
		c-1.68,1.068-3.552,6.867-1.895,8.413C67.55,80.779,80.449,81.593,80.746,79.218z"/>
	<path fill="#FFFAE1" d="M63.467,70.497c-1.38-1.632-6.956-2.484-8.695-0.125c-1.74,2.36-1.242,5.962-0.498,6.957
		c0.746,0.994,7.33,2.608,8.2,1.366C63.343,77.453,64.834,72.111,63.467,70.497z"/>
	<path fill="#FFFAE1" d="M64.986,60.631c-1.027-0.781-6.985-3.029-8.149-1.514c-1.164,1.514-0.697,6.384,0.233,7.25
		c0.931,0.865,5.006,2.381,6.752,0.758C65.568,65.501,66.265,61.605,64.986,60.631z"/>
	<path fill="#FFFAE1" d="M53.281,58.322c-1.259-1.373-5.218-1.863-6.832,0.125c-1.614,1.987-3.105,3.354-1.491,5.218
		c1.615,1.863,7.578,3.602,8.323,2.731C54.027,65.528,54.648,59.813,53.281,58.322z"/>
	<path fill="#FFFAE1" d="M96.634,61.305c-0.342,0.939-0.745,7.08,1.118,7.701s8.82-0.125,10.063-1.863
		c1.242-1.739,0-5.838-1.491-6.708C104.833,59.564,97.131,59.938,96.634,61.305z"/>
	<path fill="#FFFAE1" d="M84.005,71.945c-0.74,1.604-0.994,6.335,0,7.329c0.993,0.994,8.943,0.745,9.938-1.118
		c0.993-1.863,0.125-6.334-0.87-6.956C92.08,70.579,84.75,70.33,84.005,71.945z"/>
	<path fill="#FFFAE1" d="M109.304,68.634c-0.68,1.19,0.621,4.968,2.237,4.968c1.614,0,5.59-2.858,5.714-4.844
		C117.378,66.771,109.802,67.764,109.304,68.634z"/>
	<path fill="#FFFAE1" d="M109.553,60.807c-0.64,0.64,0.125,4.348,1.118,5.094c0.994,0.745,4.223,0.373,5.465-0.248
		s-0.372-3.976-1.365-4.969C113.777,59.689,110.299,60.063,109.553,60.807z"/>
	<path fill="#DED7AB" d="M93.117,61.56c-2.329-0.878-9.201-1.535-11.182,0.219c-1.822,1.613,0.699,6.687,2.795,7.673
		c0.037,0.018,0.078,0.03,0.116,0.046c-0.48-0.513-0.91-1.039-1.224-1.696c-0.405-0.851-0.797-1.824-0.822-2.78
		c-0.006-0.238,0.006-0.477,0.004-0.714c0-0.223-0.04-0.428,0.077-0.625c0.374-0.63,0.659,0.112,1.024,0.326
		c0.201,0.115,0.242,0.098,0.383-0.065c0.159-0.184,0.324-0.422,0.545-0.539c0.178-0.094,0.415-0.103,0.606-0.051
		c0.251,0.065,0.351,0.097,0.617-0.023c0.366-0.164,0.68-0.438,1.063-0.563c0.2-0.065,0.394-0.097,0.579-0.179
		c0.266-0.117,0.557-0.094,0.843-0.092c0.515,0.004,0.606,0.412,0.868,0.768c0.347,0.471,0.706,0.113,1.1-0.103
		c0.482-0.267,1.08-0.184,1.552,0.083c0.605,0.343,0.976,1.093,1.184,1.725c0.16,0.482,0.177,0.942,0.169,1.45
		c-0.013,0.8-0.354,1.434-0.563,2.183C94.271,67.131,95.343,62.396,93.117,61.56z"/>
	<path fill="#DED7AB" d="M106.324,60.435c-1.49-0.87-9.192-0.497-9.689,0.87c-0.117,0.324-0.242,1.267-0.28,2.388
		c0.207-0.629,0.556-1.239,1.087-1.579c0.23-0.146,0.455-0.314,0.686-0.097c0.242,0.228,0.398,0.663,0.541,0.954
		c0.089,0.18,0.219,0.605,0.444,0.686c0.312,0.109,0.616-0.339,0.741-0.554c0.2-0.351,0.505-0.896,0.931-1.011
		c0.136-0.035,0.257,0.027,0.392-0.005c0.311-0.074,0.564-0.374,0.862-0.496c0.202-0.083,0.413-0.187,0.626-0.235
		c0.361-0.085,0.483,0.143,0.725,0.368c0.143,0.133,0.302,0.22,0.434,0.366c0.141,0.158,0.263,0.368,0.508,0.332
		c0.446-0.066,0.66-0.686,1.088-0.823c0.592-0.191,1.124,0.301,1.404,0.753c0.188,0.305,0.355,0.607,0.583,0.885
		c0.317,0.39,0.476,0.761,0.657,1.23c0.081,0.209,0.172,0.413,0.257,0.619C108.284,63.23,107.367,61.043,106.324,60.435z"/>
	<path fill="#DED7AB" d="M114.771,60.684c-0.994-0.994-4.472-0.621-5.218,0.123c-0.246,0.246-0.282,0.948-0.18,1.761
		c0.035-0.194,0.081-0.384,0.153-0.551c0.137-0.312,0.506-0.53,0.807-0.659c0.301-0.127,0.801-0.221,1.135-0.193
		c0.433,0.035,0.784,0.525,1.237,0.42c0.302-0.068,0.542-0.224,0.864-0.244c0.809-0.051,1.361,0.879,1.52,1.582
		c0.188,0.828,0.105,1.732,0.094,2.578c-0.002,0.157-0.006,0.325,0.016,0.482c0.369-0.096,0.693-0.208,0.938-0.33
		C117.378,65.031,115.764,61.677,114.771,60.684z"/>
	<path fill="#DED7AB" d="M117.255,68.758c0.033-0.534-0.491-0.851-1.28-1.015c0.005,0.042,0.012,0.085,0.02,0.125
		c0.021,0.118,0.05,0.234,0.086,0.348c0.091,0.469-0.169,0.784-0.298,1.2c-0.082,0.27-0.104,0.684-0.433,0.784
		c-0.113,0.035-0.216-0.012-0.328,0.019c-0.114,0.031-0.259,0.17-0.355,0.236c-0.282,0.195-0.477,0.288-0.827,0.229
		c-0.259-0.043-0.375-0.113-0.559,0.112c-0.102,0.125-0.154,0.285-0.258,0.414c-0.137,0.143-0.264,0.294-0.387,0.45
		c-0.173,0.21-0.263,0.356-0.544,0.379c-0.278,0.021-0.585-0.001-0.864-0.004c-0.525-0.008-0.928-0.277-1.269-0.665
		c-0.198-0.225-0.329-0.496-0.491-0.748c-0.131-0.208-0.236-0.384-0.311-0.586c0.195,1.551,1.204,3.565,2.384,3.565
		C113.156,73.602,117.131,70.744,117.255,68.758z"/>
	<path fill="#DED7AB" d="M93.943,78.156c0.584-1.094,0.523-3.083,0.173-4.668c-0.008,0.117-0.015,0.234-0.023,0.352
		c-0.06,0.73-0.196,1.456-0.191,2.188c0.003,0.283-0.191,0.511-0.414,0.694c-0.207,0.17-0.364,0.084-0.597,0.105
		c-0.278,0.024-0.344,0.147-0.51,0.349c-0.199,0.242-0.559,0.578-0.875,0.638c-0.354,0.065-0.663-0.012-0.984-0.152
		c-0.343-0.148-0.468-0.452-0.66-0.755c-0.168-0.262-0.339-0.521-0.502-0.786c-0.125,0.159-0.168,0.48-0.255,0.672
		c-0.108,0.234-0.234,0.467-0.438,0.631c-0.163,0.131-0.37,0.22-0.578,0.142c-0.133-0.05-0.312-0.291-0.465-0.262
		c-0.253,0.045-0.281,0.434-0.594,0.458c-0.175,0.015-0.431-0.074-0.587-0.143c-0.18-0.081-0.351-0.199-0.558-0.113
		c-0.109,0.047-0.169,0.15-0.263,0.217c-0.094,0.069-0.304,0.21-0.424,0.197c-0.063-0.006-0.184-0.145-0.23-0.174
		c-0.287-0.177-0.45-0.215-0.61-0.541c-0.175-0.354-0.296-0.732-0.414-1.107c-0.219-0.691-0.391-1.344-0.454-2.023
		c-0.262,1.999-0.178,4.507,0.516,5.199C84.999,80.268,92.949,80.019,93.943,78.156z"/>
	<path fill="#DED7AB" d="M80.746,79.218c0.043-0.357,0.096-0.823,0.139-1.345c-0.074,0.173-0.166,0.337-0.284,0.488
		c-0.145,0.23-0.22,0.551-0.387,0.763c-0.179,0.229-0.617,0.391-0.909,0.349c-0.221-0.031-0.412-0.221-0.639-0.216
		c-0.179,0.005-0.312,0.138-0.449,0.225c-0.326,0.205-0.543,0.25-0.928,0.248c-0.402-0.003-0.785,0-1.157-0.177
		c-0.394-0.186-0.712-0.706-0.933-1.063c-0.127-0.208-0.299-0.781-0.605-0.755c-0.345,0.03-0.517,0.412-0.669,0.652
		c-0.337,0.537-1.114,0.921-1.777,0.738c-0.298-0.082-0.519-0.317-0.82-0.383c-0.301-0.065-0.673-0.01-0.977-0.005
		c-0.226,0.004-0.419,0.035-0.614-0.089c-0.217-0.138-0.369-0.376-0.526-0.566c-0.146-0.176-0.157-0.254-0.36-0.194
		c-0.144,0.043-0.323,0.34-0.43,0.431c-0.315,0.272-0.816,0.863-1.292,0.68c-0.434-0.168-0.938-0.565-1.112-0.977
		c-0.411-0.98-0.113-2.253-0.016-3.265c0.058-0.579,0.101-1.173,0.237-1.743c-0.965,2.159-1.47,5.169-0.344,6.22
		C67.55,80.779,80.449,81.593,80.746,79.218z"/>
	<path fill="#DED7AB" d="M64.986,60.631c-1.027-0.781-6.985-3.029-8.149-1.514c-0.7,0.911-0.809,3.036-0.582,4.774
		c0.131-0.578,0.279-1.149,0.385-1.739c0.15-0.846,0.478-1.983,1.509-2.127c0.625-0.088,1.005,0.335,1.465,0.654
		c0.222,0.153,0.306,0.04,0.555-0.002c0.165-0.025,0.366,0.007,0.532,0.006c0.338-0.002,0.679-0.023,1.015,0.013
		c0.598,0.063,1.049,0.306,1.525,0.651c0.349,0.254,0.774,0.518,1.195,0.641c0.355,0.103,0.879,0.137,1.133,0.443
		c0.025,0.031,0.047,0.069,0.07,0.105C65.639,61.691,65.439,60.977,64.986,60.631z"/>
	<path fill="#DED7AB" d="M62.763,76.682c-0.387-0.018-0.526-0.49-0.848-0.099c-0.232,0.28-0.633,0.508-0.95,0.671
		c-0.359,0.184-0.633,0.157-1.024,0.157c-0.159-0.001-0.422,0.054-0.577-0.001c-0.403-0.146-0.393-0.736-0.854-0.822
		c-0.266-0.049-0.526,0.084-0.771,0.162c-0.278,0.086-0.594,0.184-0.889,0.177c-0.218-0.005-0.367-0.095-0.562-0.174
		c-0.241-0.098-0.445-0.134-0.633-0.328c-0.14-0.145-0.347-0.324-0.442-0.5c-0.116-0.211-0.041-0.448-0.077-0.673
		c-0.083-0.521-0.522-0.328-0.737-0.741c-0.306-0.588-0.524-1.216-0.505-1.881c0.005-0.174,0.017-0.35,0.028-0.526
		c-0.649,2.114-0.227,4.456,0.352,5.226c0.746,0.994,7.33,2.608,8.2,1.366c0.31-0.441,0.696-1.408,1.006-2.535
		C63.269,76.4,63.062,76.695,62.763,76.682z"/>
	<path fill="#DED7AB" d="M53.281,58.322c-1.259-1.373-5.218-1.863-6.832,0.125c-1.293,1.592-2.503,2.785-2.105,4.155
		c0.004-0.007,0.008-0.013,0.012-0.02c0.212-0.324,0.425-0.652,0.651-0.966c0.164-0.226,0.188-0.188,0.402-0.305
		c0.138-0.077,0.26-0.172,0.368-0.288c0.171-0.124,0.239-0.043,0.422-0.105c0.219-0.077,0.441-0.391,0.582-0.558
		c0.231-0.275,0.286-0.68,0.569-0.911c0.224-0.183,0.508-0.313,0.739-0.489c0.138-0.124,0.288-0.232,0.448-0.324
		c0.346-0.132,0.906-0.043,1.211,0.154c0.154,0.101,0.341,0.265,0.438,0.428c0.033,0.07,0.063,0.142,0.088,0.216
		c0.145,0.079,0.346-0.11,0.465-0.164c0.363-0.159,0.925-0.112,1.318-0.09c0.414,0.023,0.783,0.313,1.037,0.624
		c0.202,0.247,0.335,0.502,0.49,0.782c0.16,0.27,0.32,0.54,0.479,0.812c0.007,0.016,0.012,0.031,0.019,0.047
		C54.042,60.121,53.812,58.902,53.281,58.322z"/>
	<path fill="#467C0D" d="M132.37,54.518c-0.636-0.928-1.741-1.494-2.859-1.7c-0.75-0.138-1.516-0.137-2.273-0.081
		c-0.68,0.05-1.43,0.062-2.063,0.32c-0.843,0.347-1.589,1.053-1.753,1.948c-0.172,0.938,0.333,1.907,1.075,2.505
		c0.744,0.601,1.689,0.886,2.625,1.069c0.792,0.153,1.605,0.242,2.412,0.169c0.77-0.07,1.436-0.376,2.165-0.58
		c1.284-0.357,1.378-2.327,0.875-3.308C132.513,54.742,132.444,54.627,132.37,54.518z"/>
	<path fill="#BE1621" d="M132.328,53.566c-0.635-0.929-1.74-1.496-2.859-1.702c-0.748-0.137-1.516-0.136-2.273-0.079
		c-0.68,0.049-1.43,0.061-2.063,0.32c-0.844,0.345-1.59,1.051-1.754,1.947c-0.17,0.939,0.334,1.906,1.077,2.506
		c0.742,0.599,1.688,0.885,2.624,1.067c0.793,0.155,1.606,0.242,2.412,0.169c0.769-0.068,1.436-0.376,2.164-0.579
		c1.285-0.358,1.378-2.328,0.877-3.308C132.471,53.789,132.404,53.674,132.328,53.566z"/>
	<path fill="#467C0D" d="M38.249,53.852c-0.811-0.781-2.007-1.113-3.144-1.089c-0.763,0.017-1.513,0.173-2.243,0.38
		c-0.655,0.187-1.389,0.35-1.956,0.73c-0.757,0.51-1.344,1.352-1.323,2.264c0.021,0.953,0.711,1.799,1.559,2.235
		c0.85,0.437,1.834,0.526,2.788,0.516c0.806-0.009,1.621-0.087,2.396-0.321c0.738-0.223,1.33-0.658,2.003-1.004
		c1.187-0.611,0.879-2.559,0.188-3.417C38.433,54.04,38.343,53.942,38.249,53.852z"/>
	<path fill="#BE1621" d="M38.083,52.857c-0.81-0.781-2.006-1.113-3.145-1.088c-0.762,0.016-1.512,0.172-2.242,0.38
		c-0.654,0.187-1.388,0.349-1.955,0.73c-0.757,0.509-1.344,1.352-1.324,2.262c0.021,0.954,0.711,1.801,1.56,2.237
		c0.849,0.436,1.832,0.525,2.786,0.516c0.807-0.01,1.623-0.088,2.396-0.322c0.739-0.223,1.329-0.658,2.004-1.005
		c1.185-0.61,0.879-2.558,0.188-3.417C38.268,53.047,38.178,52.949,38.083,52.857z"/>
	<path fill="#3A600D" d="M79.369,44.721c-3.426,0.959-4.722,8.074-3.354,10.187c1.366,2.112,8.446,1.614,9.813,0.372
		C87.194,54.037,85.58,42.981,79.369,44.721z"/>
	<path fill="#FCC007" d="M79.369,44.037c-3.426,0.959-4.722,8.074-3.354,10.187c1.366,2.112,8.446,1.614,9.813,0.372
		C87.194,53.354,85.58,42.298,79.369,44.037z"/>
	<path fill="#EA5C1C" d="M86.23,53.473c-1.26-0.26-2.992-0.465-3.246-0.477c-2.474-0.116-4.818,0.27-7.195,0.778
		c-0.148-0.388-0.242-0.867-0.283-1.401c3.431-1.158,7.235-1.51,10.734-0.617C86.294,52.407,86.291,52.994,86.23,53.473z
		 M76.037,48.212c1.653-0.337,3.263-0.59,5.002-0.535c0.869,0.027,1.726,0.108,2.581,0.259c0.362,0.072,0.716,0.168,1.063,0.289
		c0.969,0.303,0.862,0.729,0.896,0.445c-0.019,0.154,0.047,0.303,0.153,0.42c-0.301-1.027-0.731-2.043-1.302-2.905
		c-0.779-0.16-1.588-0.218-2.288-0.266c-1.784-0.124-3.616-0.004-5.341,0.472C76.494,46.95,76.24,47.57,76.037,48.212z"/>
	<path fill="#EA5C1C" d="M78.896,47.176c0.22-0.936,0.594-1.901,1.153-2.69c0.185-0.259,0.378-0.453,0.579-0.626
		c-0.398,0.001-0.816,0.053-1.26,0.178c-3.426,0.959-4.722,8.074-3.354,10.187c0.691,1.07,2.852,1.469,4.991,1.442
		c-0.99-1.779-1.476-3.848-2.018-5.793C78.717,48.9,78.662,48.17,78.896,47.176z"/>
	<g>
		<path fill="#BE1621" d="M79.419,51.443c-1.332,0.187-2.648,0.503-3.914,0.93v0.002c0.01,0.127,0.023,0.252,0.039,0.372
			c0.001,0.011,0.002,0.02,0.004,0.028c0.016,0.109,0.033,0.215,0.053,0.318c0.004,0.017,0.007,0.035,0.01,0.052
			c0.021,0.097,0.043,0.188,0.066,0.276c0.005,0.018,0.009,0.037,0.014,0.056c0.03,0.104,0.063,0.203,0.098,0.297
			c1.377-0.294,2.742-0.544,4.128-0.683C79.736,52.547,79.574,51.996,79.419,51.443z"/>
		<path fill="#BE1621" d="M78.896,47.176c0.096-0.409,0.228-0.823,0.387-1.229c-0.84,0.078-1.672,0.221-2.48,0.443l0,0
			c-0.151,0.273-0.288,0.563-0.413,0.86c-0.007,0.015-0.013,0.031-0.02,0.047c-0.122,0.297-0.235,0.603-0.333,0.914
			c0.923-0.188,1.832-0.347,2.756-0.444C78.818,47.578,78.846,47.385,78.896,47.176z"/>
	</g>
	<text transform="matrix(1 0 0 1 75.0366 141.0381)" fill="#FCC007" font-family="'TrashHand'" font-size="14.9065">de</text>
	<text transform="matrix(1 0 0 1 61.0522 123.2588)" fill="#BE1621" font-family="'TrashHand'" font-size="19.8754">Tables</text>
	<path fill="#467C0D" d="M75.913,5.987c-0.927-0.146-1.844-0.109-2.766,0.049c-0.484,0.083-0.484,0.89,0,0.974
		c0.922,0.157,1.839,0.193,2.766,0.048C76.445,6.974,76.445,6.07,75.913,5.987z"/>
	<path fill="#467C0D" d="M70.943,14.867c-0.732,0.595-1.496,1.065-2.348,1.477c-0.39,0.188-0.188,0.789,0.213,0.788
		c0.596-0.003,1.077-0.116,1.589-0.425c0.516-0.312,0.992-0.735,1.325-1.238C72.057,14.964,71.35,14.534,70.943,14.867z"/>
	<path fill="#467C0D" d="M57.6,15.089c-0.064-0.233-0.352-0.437-0.598-0.339c-0.648,0.259-1.223,0.609-1.683,1.141
		c-0.335,0.388,0.082,0.963,0.551,0.713c0.53-0.282,1.015-0.621,1.507-0.967C57.557,15.511,57.661,15.313,57.6,15.089z"/>
	<path fill="#467C0D" d="M39.709,23.634c-0.305,0.313-0.522,0.681-0.857,0.975c-0.346,0.305-0.798,0.452-1.16,0.733
		c-0.326,0.255-0.029,0.733,0.311,0.75c0.992,0.047,2.196-1.118,2.368-2.072C40.437,23.649,40.004,23.328,39.709,23.634z"/>
	<path fill="#467C0D" d="M52.637,25.438c-0.833,0.575-1.572,1.286-2.438,1.819c-0.415,0.256-0.146,0.977,0.342,0.809
		c1.048-0.359,2.037-0.913,2.746-1.787C53.641,25.842,53.176,25.066,52.637,25.438z"/>
	<path fill="#467C0D" d="M41.987,35.953c-0.074,0.361-0.175,0.715-0.299,1.063c-0.142,0.401-0.363,0.753-0.427,1.177
		c-0.071,0.464,0.43,0.831,0.81,0.473c0.656-0.617,0.804-1.724,0.908-2.579C43.047,35.521,42.101,35.4,41.987,35.953z"/>
	<path fill="#467C0D" d="M32.843,36.712c-0.122,0.335-0.273,0.652-0.473,0.948c-0.219,0.326-0.517,0.595-0.743,0.919
		c-0.229,0.324,0.154,0.863,0.539,0.702c0.961-0.405,1.481-1.44,1.568-2.448C33.782,36.29,33.007,36.26,32.843,36.712z"/>
	<path fill="#467C0D" d="M25.553,47.516c-0.101,0.774-0.539,1.325-0.873,2.001c-0.189,0.387,0.222,0.919,0.637,0.637
		c0.85-0.573,1.186-1.66,1.284-2.638C26.668,46.836,25.637,46.861,25.553,47.516z"/>
	<path fill="#467C0D" d="M43.409,49.631c-0.089-0.516-0.896-0.38-0.893,0.12c0.004,0.606-0.158,1.223-0.411,1.772
		c-0.188,0.411,0.328,0.908,0.671,0.518C43.391,51.338,43.565,50.543,43.409,49.631z"/>
	<path fill="#467C0D" d="M33.793,64.907c-0.084-0.638-1.088-0.668-1.024,0c0.071,0.759-0.149,1.415-0.426,2.113
		c-0.171,0.43,0.472,0.776,0.766,0.445C33.739,66.754,33.917,65.84,33.793,64.907z"/>
	<path fill="#467C0D" d="M25.561,66.396c-0.081,0.628-0.256,1.257-0.4,1.873c-0.113,0.479,0.533,0.762,0.795,0.334
		c0.42-0.688,0.579-1.407,0.638-2.207C26.641,65.72,25.643,65.755,25.561,66.396z"/>
	<path fill="#467C0D" d="M30.008,83.789c-0.047,0.639-0.259,1.243-0.402,1.864c-0.123,0.537,0.539,0.765,0.844,0.355
		c0.477-0.638,0.604-1.44,0.639-2.22C31.12,83.088,30.059,83.101,30.008,83.789z"/>
	<path fill="#467C0D" d="M44.958,85.527c0.037-0.644-0.946-0.633-0.993,0c-0.058,0.771,0.007,1.509,0.427,2.174
		c0.186,0.292,0.713,0.198,0.688-0.186C45.036,86.851,44.921,86.193,44.958,85.527z"/>
	<path fill="#467C0D" d="M61.04,50.13c-0.156-0.513-0.817-0.362-0.876,0.118c-0.098,0.785-0.13,1.577-0.239,2.363
		c-0.065,0.463,0.594,0.861,0.829,0.351C61.148,52.109,61.32,51.049,61.04,50.13z"/>
	<path fill="#467C0D" d="M73.483,40.063c-0.062-0.488-0.72-0.633-0.886-0.12c-0.107,0.34-0.141,0.7-0.199,1.051
		c-0.07,0.41-0.125,0.766-0.056,1.179c0.066,0.393,0.664,0.442,0.837,0.109c0.17-0.326,0.219-0.629,0.26-0.991
		C73.483,40.889,73.533,40.463,73.483,40.063z"/>
	<path fill="#467C0D" d="M68.007,29.323c-0.24,0.288-0.387,0.629-0.553,0.964c-0.18,0.358-0.315,0.679-0.35,1.08
		c-0.035,0.397,0.531,0.617,0.788,0.326c0.266-0.3,0.398-0.622,0.535-0.996c0.13-0.353,0.272-0.694,0.315-1.069
		C68.785,29.261,68.238,29.047,68.007,29.323z"/>
	<path fill="#467C0D" d="M80.503,25.521c-0.201,0.755-0.571,1.484-0.716,2.244c-0.081,0.425,0.442,0.827,0.778,0.454
		c0.609-0.679,0.815-1.681,0.913-2.566C81.542,25.084,80.644,24.992,80.503,25.521z"/>
	<path fill="#467C0D" d="M87.873,12.863c-0.174-0.463-0.861-0.406-0.877,0.119c-0.025,0.828,0.064,1.653,0.012,2.484
		c-0.032,0.498,0.727,0.579,0.854,0.115C88.1,14.711,88.197,13.729,87.873,12.863z"/>
	<path fill="#467C0D" d="M103.994,9.766c-0.561-0.866-1.707-1.49-2.749-1.159c-0.39,0.124-0.403,0.684,0,0.801
		c0.331,0.097,0.679,0.144,0.996,0.285c0.359,0.16,0.711,0.396,1.021,0.638C103.647,10.63,104.304,10.248,103.994,9.766z"/>
	<path fill="#467C0D" d="M113.901,21.46c-0.477-0.726-1.125-1.288-1.749-1.884c-0.479-0.456-1.181,0.246-0.725,0.725
		c0.595,0.625,1.157,1.273,1.884,1.749C113.669,22.284,114.135,21.818,113.901,21.46z"/>
	<path fill="#467C0D" d="M102.507,25.757c-0.143-0.587-0.447-1.105-0.717-1.643c-0.314-0.623-1.24-0.076-0.933,0.545
		c0.269,0.541,0.505,1.07,0.89,1.539C102.053,26.57,102.607,26.166,102.507,25.757z"/>
	<path fill="#467C0D" d="M93.444,35.838c-0.009-0.689-1.063-0.689-1.071,0c-0.011,0.765-0.129,1.619,0.098,2.358
		c0.133,0.433,0.742,0.433,0.875,0C93.573,37.457,93.453,36.603,93.444,35.838z"/>
	<path fill="#467C0D" d="M104.814,50.994c-0.027-0.615-0.929-0.615-0.955,0c-0.021,0.471-0.138,1.029,0.093,1.456
		c0.02,0.051,0.048,0.101,0.094,0.146c0.07,0.088,0.181,0.124,0.29,0.12c0.111,0.004,0.221-0.032,0.292-0.12
		c0.044-0.045,0.074-0.095,0.093-0.146C104.952,52.023,104.834,51.465,104.814,50.994z"/>
	<path fill="#467C0D" d="M123.8,35.008c-0.349-0.408-1.051,0.133-0.743,0.572c0.204,0.293,0.411,0.585,0.622,0.874
		c0.193,0.266,0.615,0.668,0.973,0.458C125.37,36.492,124.084,35.338,123.8,35.008z"/>
	<path fill="#467C0D" d="M128.207,22.957c-0.498-0.334-1.114,0.454-0.645,0.836c0.432,0.35,0.667,0.804,0.683,1.363
		c0.012,0.418,0.608,0.623,0.817,0.221C129.565,24.416,129.03,23.51,128.207,22.957z"/>
	<path fill="#467C0D" d="M138.986,45.411c-0.498-0.434-1.221,0.272-0.729,0.73c0.395,0.368,0.93,0.927,0.731,1.519
		c-0.123,0.371,0.395,0.666,0.655,0.381C140.482,47.129,139.753,46.08,138.986,45.411z"/>
	<path fill="#467C0D" d="M122.361,50.888c-0.104-0.356-0.334-0.652-0.433-1.012c-0.163-0.589-0.999-0.333-0.898,0.247
		c0.082,0.476,0.286,0.995,0.743,1.215C122.074,51.484,122.467,51.247,122.361,50.888z"/>
	<path fill="#467C0D" d="M128.644,66.895c-0.016-0.59-0.91-0.593-0.915,0c-0.009,0.869,0.003,1.771,0.305,2.595
		c0.156,0.419,0.829,0.384,0.816-0.11C128.828,68.547,128.667,67.729,128.644,66.895z"/>
	<path fill="#467C0D" d="M119.944,83.415c-0.105-0.45-0.218-0.899-0.185-1.366c0.039-0.577-0.92-0.712-1.015-0.137
		c-0.056,0.336-0.077,0.658-0.03,0.996c0.057,0.392,0.205,0.656,0.444,0.963C119.468,84.269,120.042,83.832,119.944,83.415z"/>
	<path fill="#467C0D" d="M140.49,62.566c-0.128-0.663-0.197-1.37-0.452-2c-0.18-0.444-0.845-0.406-0.86,0.117
		c-0.025,0.764,0.281,1.505,0.596,2.185C139.971,63.295,140.569,62.977,140.49,62.566z"/>
	<path fill="#467C0D" d="M137.053,79.316c-0.007-0.591-0.91-0.591-0.917,0c-0.008,0.678-0.117,1.438,0.073,2.094
		c0.11,0.381,0.66,0.381,0.771,0C137.17,80.754,137.061,79.994,137.053,79.316z"/>
	<path fill="#467C0D" d="M150.195,79.533c-0.587-0.17-0.986,0.724-0.422,1.001c0.113,0.055,0.238,0.208,0.309,0.399
		c0.193,0.52,0.895,0.419,0.945-0.127C151.083,80.214,150.779,79.704,150.195,79.533z"/>
	<path fill="#467C0D" d="M156.303,104.012c-0.052-0.301-0.417-0.465-0.688-0.39c-0.323,0.089-0.433,0.386-0.391,0.688
		c0.101,0.742,0.204,1.581,0.706,2.168c0.278,0.326,0.782,0.049,0.795-0.329C156.75,105.438,156.421,104.712,156.303,104.012z"/>
	<path fill="#467C0D" d="M136.574,92.86c-0.11-0.435-0.763-0.435-0.875,0c-0.162,0.629-0.137,1.348,0.034,1.972
		c0.109,0.399,0.699,0.399,0.809,0C136.71,94.208,136.737,93.489,136.574,92.86z"/>
	<path fill="#467C0D" d="M153.554,129.501c-0.018-0.674-1.029-0.674-1.048,0c-0.015,0.543-0.081,1.09,0.075,1.616
		c0.132,0.444,0.766,0.444,0.898,0C153.636,130.591,153.569,130.044,153.554,129.501z"/>
	<path fill="#467C0D" d="M143.093,140.93c-0.036-0.634-1.006-0.644-0.994,0c0.012,0.598-0.162,1.151-0.19,1.739
		c-0.022,0.464,0.59,0.563,0.817,0.222C143.103,142.332,143.13,141.587,143.093,140.93z"/>
	<path fill="#467C0D" d="M137.333,147.985c-0.081,0.383-0.172,0.762-0.275,1.139c-0.096,0.356-0.244,0.758-0.121,1.121
		c0.085,0.25,0.424,0.463,0.674,0.273c0.611-0.468,0.68-1.519,0.807-2.233C138.545,147.579,137.484,147.271,137.333,147.985z"/>
	<path fill="#467C0D" d="M106.503,87.761c-0.225-0.517-1.092-0.146-0.907,0.383c0.226,0.645,0.414,1.432,0.909,1.922
		c0.259,0.258,0.795,0.086,0.762-0.315C107.209,89.049,106.783,88.399,106.503,87.761z"/>
	<path fill="#467C0D" d="M63.236,88.529c-0.283-0.521-1.01-0.064-0.777,0.455c0.193,0.44,0,0.815,0.004,1.263
		c0.002,0.263,0.336,0.517,0.578,0.332C63.698,90.078,63.589,89.186,63.236,88.529z"/>
	<path fill="#467C0D" d="M81.609,86.547c-0.213-0.445-0.985-0.124-0.801,0.339c0.16,0.403,0.171,0.819,0.285,1.231
		c0.109,0.394,0.651,0.369,0.771,0C82.038,87.586,81.842,87.035,81.609,86.547z"/>
	<path fill="#467C0D" d="M90.646,89.829c-0.092-0.196-0.203-0.377-0.316-0.561c-0.269-0.434-1.053-0.15-0.852,0.358
		c0.17,0.435,0.336,0.809,0.677,1.14c0.214,0.207,0.694,0.079,0.648-0.27C90.775,90.266,90.745,90.041,90.646,89.829z"/>
	<path fill="#467C0D" d="M148.097,70.033c-0.158-0.271-0.229-0.594-0.244-0.903c-0.034-0.687-1.088-0.694-1.072,0
		c0.018,0.727,0.326,2.145,1.281,2.14c0.197-0.002,0.429-0.183,0.4-0.4C148.421,70.56,148.252,70.299,148.097,70.033z"/>
	<path fill="#4E950B" d="M15.122,62.15c-0.603,0.693-0.978,1.569-1.318,2.412c-0.159,0.395,0.45,0.607,0.66,0.277
		c0.47-0.74,0.988-1.491,1.301-2.315C15.901,62.165,15.368,61.867,15.122,62.15z"/>
	<path fill="#4E950B" d="M14.116,82.667c-0.074-0.534-0.979-0.406-0.939,0.126c0.058,0.792-0.029,1.597-0.16,2.378
		c-0.068,0.419,0.521,0.752,0.738,0.311C14.207,84.564,14.254,83.67,14.116,82.667z"/>
	<path fill="#4E950B" d="M9.407,92.98c-0.063-0.599-1.006-0.609-0.946,0c0.055,0.555-0.083,1.061-0.352,1.547
		c-0.215,0.389,0.277,0.745,0.598,0.461C9.284,94.479,9.488,93.732,9.407,92.98z"/>
	<path fill="#4E950B" d="M7.625,122.925c-0.1-0.514-0.859-0.366-0.877,0.118c-0.027,0.747-0.164,1.429-0.443,2.128
		c-0.188,0.466,0.491,0.648,0.745,0.313C7.602,124.751,7.8,123.827,7.625,122.925z"/>
	<path fill="#4E950B" d="M8.41,136.313c-0.204,1.004-0.313,1.979-0.159,2.998c0.085,0.549,0.826,0.333,0.886-0.12
		c0.112-0.862,0.163-1.731,0.321-2.589C9.584,135.921,8.55,135.625,8.41,136.313z"/>
	<path fill="#4E950B" d="M17.366,137.949c-0.011,0.767,0.047,1.476,0.139,2.235c0.061,0.479,0.688,0.479,0.746,0
		c0.093-0.76,0.15-1.469,0.14-2.235C18.381,137.288,17.375,137.288,17.366,137.949z"/>
	<path fill="#4E950B" d="M17.61,146.894c-0.067-0.605-1.023-0.612-0.954,0c0.087,0.786,0.204,1.559,0.37,2.333
		c0.088,0.413,0.729,0.313,0.724-0.098C17.742,148.379,17.694,147.64,17.61,146.894z"/>
	<path fill="#4E950B" d="M26.03,150.993c-0.234-1.006-0.522-1.977-0.664-3.005c-0.084-0.613-1.156-0.469-1.082,0.147
		c0.131,1.102,0.262,2.275,0.895,3.216C25.471,151.79,26.151,151.519,26.03,150.993z"/>
	<path fill="#4E950B" d="M151.082,148.632c-0.01-0.291-0.235-0.535-0.535-0.535c-0.317,0-0.502,0.246-0.536,0.535
		c-0.046,0.392-0.219,0.712-0.149,1.115c0.049,0.297,0.431,0.404,0.666,0.271C151.003,149.75,151.101,149.134,151.082,148.632z"/>
	<path fill="#4E950B" d="M154.56,141.656c-0.28,0.431-0.355,1.349,0.34,1.444c0.246,0.032,0.471-0.057,0.549-0.312
		c0.061-0.2-0.06-0.421,0.029-0.597C155.785,141.581,154.933,141.078,154.56,141.656z"/>
	<path fill="#6EAA2E" d="M138.47,27.936c-0.768-1.099-2.293-1.681-3.549-2.018c-0.459-0.123-0.708,0.504-0.317,0.752
		c0.532,0.339,1.13,0.57,1.69,0.859c0.56,0.287,1.078,0.648,1.629,0.953C138.252,28.664,138.71,28.28,138.47,27.936z"/>
	<path fill="#6EAA2E" d="M138.48,29.303c-0.282-0.213-0.563-0.332-0.902-0.43c-0.548-0.157-0.764,0.667-0.232,0.847
		c0.283,0.095,0.556,0.191,0.845,0.271C138.63,30.112,138.803,29.547,138.48,29.303z"/>
	<path fill="#6EAA2E" d="M143.087,40.801c-0.422-1.269-1.568-2.129-2.654-2.828c-0.345-0.223-0.621,0.301-0.313,0.536
		c0.938,0.716,1.687,1.579,2.35,2.552C142.675,41.363,143.214,41.184,143.087,40.801z"/>
	<path fill="#6EAA2E" d="M144.121,41.708c-0.442-0.277-0.798,0.387-0.399,0.684c0.138,0.103,0.204,0.237,0.235,0.402
		c0.058,0.309,0.515,0.277,0.592,0C144.67,42.352,144.509,41.951,144.121,41.708z"/>
	<path fill="#6EAA2E" d="M147.928,52.881c-0.652-1.83-1.801-3.505-3.271-4.775c-0.327-0.281-0.792,0.168-0.479,0.478
		c1.352,1.336,2.085,2.993,3.061,4.589C147.457,53.524,148.076,53.295,147.928,52.881z"/>
	<path fill="#6EAA2E" d="M148.771,54.11c-0.194-0.124-0.463-0.042-0.574,0.149c-0.124,0.214-0.033,0.439,0.15,0.574
		c0.102,0.074,0.188,0.199,0.252,0.305c0.138,0.232,0.564,0.221,0.617-0.08C149.287,54.646,149.121,54.332,148.771,54.11z"/>
	<path fill="#6EAA2E" d="M153.501,67.875c-1.46-2.174-2.768-4.516-4.336-6.607c-0.241-0.321-0.788-0.021-0.55,0.322
		c1.469,2.117,2.298,5.053,4.331,6.713C153.237,68.54,153.742,68.232,153.501,67.875z"/>
	<path fill="#6EAA2E" d="M154.746,70.407c-0.197-0.286-0.385-0.54-0.638-0.781c-0.328-0.316-0.815,0.169-0.499,0.5
		c0.241,0.25,0.495,0.438,0.781,0.637C154.601,70.908,154.893,70.618,154.746,70.407z"/>
	<path fill="#6EAA2E" d="M157.851,85.018c-0.508-2.302-1.744-4.56-2.696-6.706c-0.16-0.361-0.788-0.098-0.64,0.27
		c0.895,2.209,1.585,4.598,2.676,6.713C157.386,85.674,157.936,85.402,157.851,85.018z"/>
	<path fill="#6EAA2E" d="M158.265,90.082c-0.009-0.474-0.743-0.603-0.848-0.115c-0.166,0.794-0.021,1.535,0.304,2.264
		c0.161,0.362,0.641,0.082,0.589-0.249C158.212,91.356,158.276,90.713,158.265,90.082z"/>
	<path fill="#6EAA2E" d="M159.002,94.46c-0.103-0.451-0.757-0.254-0.681,0.188c0.055,0.317,0.113,0.592,0.242,0.889
		c0.126,0.294,0.566,0.126,0.571-0.155C159.139,95.059,159.076,94.774,159.002,94.46z"/>
	<path fill="#6EAA2E" d="M129.212,18.83c-0.73-0.723-1.671-1.026-2.498-1.608c-0.391-0.274-0.735,0.354-0.368,0.63
		c0.782,0.591,1.696,0.916,2.527,1.418C129.147,19.434,129.439,19.053,129.212,18.83z"/>
	<path fill="#6EAA2E" d="M116.448,10.594c-1.104-0.574-2.243-0.93-3.499-0.918c-0.525,0.006-0.525,0.805,0,0.815
		c1.119,0.022,2.167,0.418,3.215,0.776C116.56,11.402,116.818,10.785,116.448,10.594z"/>
	<path fill="#6EAA2E" d="M104.591,4.296c-1.687-0.677-3.398-0.712-5.073,0.014c-0.37,0.16-0.101,0.802,0.274,0.652
		c1.572-0.624,3.02-0.372,4.62-0.022C104.842,5.033,104.983,4.453,104.591,4.296z"/>
	<path fill="#6EAA2E" d="M108.728,4.307c-0.405-0.143-0.819-0.2-1.245-0.25c-0.441-0.053-0.543,0.704-0.105,0.777
		c0.422,0.07,0.837,0.13,1.266,0.105C109.013,4.92,109.072,4.428,108.728,4.307z"/>
	<path fill="#6EAA2E" d="M87.773,1.334c-0.903,0.09-1.717,0.36-2.506,0.809c-0.42,0.238-0.047,0.872,0.376,0.644
		c0.696-0.378,1.442-0.661,2.211-0.857C88.178,1.846,88.119,1.299,87.773,1.334z"/>
	<path fill="#6EAA2E" d="M91.828,3.148c-0.35,0.064-0.67,0.161-1.008,0.277c-0.454,0.158-0.266,0.875,0.201,0.727
		c0.367-0.117,0.709-0.244,1.056-0.416C92.424,3.564,92.167,3.085,91.828,3.148z"/>
	<path fill="#6EAA2E" d="M76.264,2.986c-1.126-0.26-2.235-0.497-3.397-0.517c-0.424-0.007-0.415,0.624,0,0.652
		c1.115,0.077,2.201,0.369,3.313,0.489C76.539,3.649,76.609,3.065,76.264,2.986z"/>
	<path fill="#6EAA2E" d="M158.47,110.456c-0.008-0.605-0.952-0.607-0.94,0c0.019,0.871,0.07,1.734,0.262,2.587
		c0.098,0.438,0.751,0.324,0.762-0.103C158.576,112.109,158.479,111.285,158.47,110.456z"/>
	<path fill="#9B1522" d="M126.486,53.703c-0.428-0.158-0.834,0.149-1.137,0.423c-0.275,0.247-0.547,0.634-0.57,1.008
		c-0.02,0.305,0.385,0.56,0.642,0.37c0.214-0.159,0.348-0.395,0.562-0.558c0.274-0.208,0.583-0.267,0.775-0.575
		C126.921,54.104,126.752,53.801,126.486,53.703z"/>
	<path fill="#9B1522" d="M129.693,53.895c-0.401-0.682-1.313,0.002-1.689,0.326c-0.48,0.413-1.032,0.972-1.328,1.537
		c-0.185,0.353,0.193,0.771,0.558,0.557c0.574-0.34,0.988-0.922,1.535-1.309C129.124,54.755,130.052,54.506,129.693,53.895z"/>
	<path fill="#9B1522" d="M131.398,54.903c-0.095-0.161-0.33-0.288-0.518-0.211c-0.301,0.125-0.535,0.255-0.771,0.485
		c-0.208,0.203-0.379,0.451-0.532,0.698c-0.297,0.476,0.418,1.048,0.785,0.606c0.302-0.361,0.657-0.668,0.965-1.024
		C131.462,55.301,131.507,55.091,131.398,54.903z"/>
	<path fill="#9B1522" d="M32.852,52.957c-0.484,0.156-0.884,0.422-1.295,0.715c-0.387,0.275-0.874,0.512-1.172,0.884
		c-0.164,0.206-0.094,0.637,0.246,0.597c0.523-0.061,0.974-0.37,1.42-0.633c0.476-0.279,0.879-0.584,1.218-1.021
		C33.469,53.236,33.139,52.864,32.852,52.957z"/>
	<path fill="#9B1522" d="M36.049,53.715c-1.295-0.194-2.596,1.07-3.426,1.922c-0.42,0.43,0.209,1.044,0.653,0.652
		c0.464-0.409,0.95-0.771,1.488-1.077c0.484-0.276,1.042-0.409,1.479-0.758C36.491,54.256,36.364,53.762,36.049,53.715z"/>
	<path fill="#9B1522" d="M37.649,54.756c-0.889,0.258-1.527,0.953-2.199,1.554c-0.436,0.39,0.193,0.985,0.632,0.632
		c0.644-0.52,1.304-1.015,1.949-1.53C38.347,55.158,38.004,54.653,37.649,54.756z"/>
	<path fill="#92BF5E" d="M22.489,8.274c-1.333,1.388-2.107,3.904-1.428,5.745c0.189,0.514,0.891,0.418,0.938-0.127
		c0.156-1.816,0.388-3.392,1.276-5.01C23.546,8.39,22.891,7.854,22.489,8.274z"/>
	<path fill="#92BF5E" d="M22.265,17.092c-0.05-0.182-0.097-0.36-0.081-0.549c0.046-0.565-0.844-0.668-0.977-0.132
		c-0.114,0.465-0.005,0.916,0.43,1.163C21.963,17.76,22.364,17.457,22.265,17.092z"/>
	<path fill="#6EAA2E" d="M27.62,11.859c-0.361,0.651-1.322,1.658-0.988,2.463c0.099,0.235,0.411,0.392,0.617,0.162
		c0.264-0.294,0.356-0.703,0.528-1.054c0.206-0.417,0.433-0.816,0.609-1.248C28.567,11.736,27.844,11.452,27.62,11.859z"/>
	<path fill="#6EAA2E" d="M27.579,14.486c-0.34,0.566-0.587,1.17-0.494,1.836c0.049,0.361,0.605,0.396,0.759,0.1
		c0.241-0.467,0.333-0.984,0.54-1.466C28.614,14.419,27.897,13.957,27.579,14.486z"/>
	<path fill="#6EAA2E" d="M28.477,16.756c-0.224,0-0.477,0.205-0.449,0.449c0.016,0.14-0.021,0.269-0.075,0.398
		c-0.137,0.326,0.292,0.557,0.548,0.421c0.318-0.169,0.451-0.465,0.428-0.819C28.913,16.961,28.735,16.756,28.477,16.756z"/>
	<path fill="#FCC007" d="M68.737,137.223c-1.105,0.419-2.138,0.141-3.269,0.028c-1.184-0.118-2.051,0.539-2.605,1.529
		c-0.411,0.734,0.699,1.383,1.127,0.657c0.691-1.176,1.625-0.786,2.746-0.583c0.982,0.178,1.836,0.049,2.567-0.659
		C69.702,137.809,69.296,137.009,68.737,137.223z"/>
	<path fill="#FCC007" d="M98.511,137.413c-2.234,0.653-4.728-2.291-6.591,0.045c-0.554,0.695,0.288,1.564,0.98,0.98
		c0.96-0.807,2.015,0.041,2.985,0.444c1.101,0.454,2.18,0.595,3.187-0.14C99.706,138.281,99.354,137.167,98.511,137.413z"/>
	<path fill="#FFDF9D" d="M36.338,104.577c-0.698-0.301-1.238,0.229-1.727,0.67c-0.621,0.562-1.205,1.178-1.723,1.834
		c-0.433,0.548,0.294,1.328,0.785,0.785c0.47-0.52,0.988-0.996,1.513-1.461c0.241-0.213,0.489-0.417,0.746-0.608
		c0.144-0.105,0.273-0.192,0.382-0.339c0.047-0.063,0.146-0.145,0.023-0.057C36.594,105.22,36.699,104.731,36.338,104.577z"/>
	<path fill="#FFDF9D" d="M37.003,105.241c-1.267,1.669-3.198,2.646-4.548,4.221c-0.391,0.457,0.205,1.059,0.658,0.659
		c1.598-1.41,3.722-2.431,4.727-4.391C38.133,105.16,37.374,104.753,37.003,105.241z"/>
	<path fill="#FFDF9D" d="M57.925,130.448c-0.43-0.397-1.052-0.003-1.468,0.22c-0.646,0.345-1.36,0.726-1.895,1.234
		c-0.392,0.375,0.109,0.997,0.569,0.738c0.587-0.331,1.168-0.657,1.774-0.95c0.424-0.203,0.944-0.363,1.127-0.835
		C58.084,130.724,58.026,130.54,57.925,130.448z"/>
	<path fill="#FFDF9D" d="M59.629,132.329c-2.302,1.082-4.67,2.57-6.508,4.344c-0.381,0.369,0.171,0.871,0.566,0.565
		c2.022-1.567,4.389-2.569,6.412-4.104C60.575,132.774,60.182,132.07,59.629,132.329z"/>
	<path fill="#FFDF9D" d="M80.361,174.762c-1.76,0.309-3.563,1.493-4.939,2.595c-0.459,0.368,0.125,0.979,0.589,0.762
		c0.805-0.378,1.551-0.88,2.332-1.308c0.78-0.424,1.604-0.758,2.38-1.189C81.216,175.346,80.861,174.676,80.361,174.762z"/>
	<path fill="#FFDF9D" d="M83,175.833c-0.947,0.524-1.849,1.11-2.775,1.665c-0.578,0.346-0.065,1.218,0.524,0.898
		c0.999-0.541,1.902-1.154,2.777-1.88C83.917,176.191,83.417,175.603,83,175.833z"/>
	<path fill="#FFDF9D" d="M121.092,149.621c-1.363,0.478-2.64,1.411-3.733,2.345c-0.49,0.42,0.139,1.178,0.674,0.873
		c1.213-0.694,2.509-1.432,3.564-2.348C121.987,150.153,121.577,149.45,121.092,149.621z"/>
	<path fill="#FFDF9D" d="M118.498,114.895c-0.928,0.039-1.732,0.664-2.433,1.226c-0.903,0.725-1.759,1.484-2.733,2.115
		c-0.35,0.227-0.125,0.885,0.3,0.71c0.863-0.355,1.603-0.907,2.339-1.474c0.873-0.675,1.871-1.113,2.752-1.745
		C119.057,115.487,118.978,114.874,118.498,114.895z"/>
	<path fill="#FFDF9D" d="M121.863,115.679c-1.56,0.634-2.822,1.777-4.338,2.504c-0.53,0.254-0.066,1.002,0.454,0.777
		c1.499-0.647,2.874-1.58,4.21-2.508C122.556,116.196,122.334,115.485,121.863,115.679z"/>
	<path fill="#FFDF9D" d="M82.225,100.278c-0.692-0.042-1.293,0.51-1.849,0.867c-0.737,0.474-1.495,0.88-2.287,1.251
		c-0.279,0.131-0.15,0.627,0.16,0.593c0.779-0.085,1.477-0.376,2.17-0.73c0.7-0.356,1.711-0.704,2.153-1.371
		C82.753,100.616,82.51,100.296,82.225,100.278z"/>
	<path fill="#FFDF9D" d="M83.76,101.577c-0.995,0.609-1.82,1.484-2.778,2.158c-0.512,0.361-0.039,1.203,0.498,0.852
		c1.016-0.666,2.207-1.387,2.832-2.458C84.514,101.782,84.109,101.362,83.76,101.577z"/>
	<g>
		<path fill="#BE1621" d="M114.474,117.349c-0.785-0.278-1.65-0.122-2.472-0.105c-0.98,0.021-1.937,0.068-2.899,0.261
			c-0.848,0.169-0.652,1.538,0.201,1.499c0.901-0.042,1.799-0.023,2.698,0.016c0.917,0.04,1.827,0.168,2.649-0.296
			C115.255,118.384,115.06,117.559,114.474,117.349z"/>
		<path fill="#BE1621" d="M111.253,106.84c-0.666,0.431-1.109,1.097-1.613,1.695c-0.559,0.664-1.162,1.313-1.621,2.052
			c-0.45,0.727,0.539,1.401,1.135,0.875c0.6-0.531,1.165-1.113,1.727-1.686c0.592-0.604,1.263-1.256,1.451-2.107
			C112.462,107.075,111.827,106.47,111.253,106.84z"/>
		<path fill="#BE1621" d="M112.889,126.499c-0.878-1.268-2.202-2.694-3.735-3.113c-0.726-0.198-1.219,0.887-0.521,1.234
			c1.354,0.673,1.967,2.188,3.301,2.836C112.509,127.734,113.323,127.124,112.889,126.499z"/>
	</g>
	<g>
		<path fill="#BE1621" d="M54.813,116.542c-1-0.096-2.024,0.074-3.027,0.107c-1.117,0.038-2.213,0.098-3.302,0.363
			c-0.964,0.234-0.542,1.619,0.402,1.46c1.992-0.336,4.511,0.55,6.282-0.618C55.781,117.45,55.506,116.606,54.813,116.542z"/>
		<path fill="#BE1621" d="M53.489,109.957c-1.213-1.013-2.588-1.796-3.949-2.601c-0.802-0.475-1.449,0.705-0.717,1.229
			c1.297,0.926,2.496,1.946,3.981,2.549C53.453,111.397,54.016,110.396,53.489,109.957z"/>
		<path fill="#BE1621" d="M53.831,122.888c-0.996,1.113-1.827,2.339-2.668,3.573c-0.566,0.835,0.764,1.581,1.338,0.781
			c0.834-1.16,1.734-2.258,2.409-3.521C55.265,123.054,54.37,122.286,53.831,122.888z"/>
	</g>
	<path display="none" fill="#2C3E4F" d="M62.244,36.191c-2.354,1.626-6.429,5.621-8.869,7.125c-1.172,0.723-0.914,2.259,0.465,1.786
		c2.961-1.016,7.738-4.567,9.74-7.032C64.581,36.834,63.764,35.141,62.244,36.191z"/>
	<path display="none" fill="#2C3E4F" d="M54.407,36.191c2.354,1.626,6.43,5.621,8.869,7.125c1.173,0.723,0.915,2.259-0.465,1.786
		c-2.96-1.016-7.738-4.567-9.738-7.032C52.07,36.834,52.887,35.141,54.407,36.191z"/>
	<path display="none" fill="#2C3E4F" d="M110.714,35.285c-2.353,1.626-6.428,5.621-8.868,7.125
		c-1.172,0.723-0.914,2.259,0.465,1.786c2.96-1.015,7.738-4.566,9.739-7.032C113.052,35.928,112.234,34.235,110.714,35.285z"/>
	<path display="none" fill="#2C3E4F" d="M102.878,35.285c2.354,1.626,6.429,5.621,8.869,7.125c1.172,0.723,0.914,2.259-0.465,1.786
		c-2.96-1.015-7.738-4.566-9.74-7.032C100.542,35.928,101.359,34.235,102.878,35.285z"/>
</g>
<g>
	<path fill="#2C3E4F" d="M56.498,35.402c-3.983-0.509-9.629,3.661-8.089,8.047c0.224,0.635,1.145,0.693,1.344,0
		c0.948-3.293,2.252-5.766,6.115-6.006c3.773-0.236,6.035,2.763,6.053,6.21c0.007,1.332,2.075,1.333,2.067,0
		C63.96,38.939,61.127,35.994,56.498,35.402z"/>
	<path fill="#2C3E4F" d="M105.302,35.402c3.982-0.509,9.629,3.661,8.089,8.047c-0.224,0.635-1.146,0.693-1.345,0
		c-0.947-3.293-2.251-5.766-6.115-6.006c-3.772-0.236-6.034,2.763-6.054,6.21c-0.007,1.332-2.074,1.333-2.066,0
		C97.84,38.939,100.672,35.994,105.302,35.402z"/>
</g>
</svg>
