<?xml version="1.0" encoding="utf-8"?>
<!-- Generator: Adobe Illustrator 16.0.0, SVG Export Plug-In . SVG Version: 6.00 Build 0)  -->
<!DOCTYPE svg PUBLIC "-//W3C//DTD SVG 1.1//EN" "http://www.w3.org/Graphics/SVG/1.1/DTD/svg11.dtd">
<svg version="1.1" id="Calque_1" xmlns="http://www.w3.org/2000/svg" xmlns:xlink="http://www.w3.org/1999/xlink" x="0px" y="0px"
	 width="161.8px" height="200px" viewBox="0 0 161.8 200" style="enable-background:new 0 0 161.8 200;" xml:space="preserve">
<style type="text/css">
<![CDATA[
	.st0{fill:#1B9B75;}
	.st1{fill:#EA5043;}
	.st2{fill:#EB5D37;}
	.st3{fill:#EC6050;}
	.st4{fill:#EE7067;}
	.st5{fill:#EE744A;}
	.st6{fill:#F49F91;}
	.st7{fill:#F59F5A;}
	.st8{fill:#F8B46A;}
	.st9{fill:#2C3E4F;}
	.st10{fill:#FDCE8A;}
	.st11{fill:#FEF7C2;}
	.st12{fill:#FFE09F;}
	.st13{fill:#FFFBE2;}
	.st14{fill:#037456;}
	.st15{fill:#75C2A8;}
	.st16{fill:#40AE8B;}
	.st17{fill:#DED7AB;}
]]>
</style>
<g>
	<path class="st8" d="M121.9,10.6c0.6-0.8,1.2-1.5,1.9-2.2c1.6-1.6,3.4-3,5.4-4.1c1.6-0.9,3.3-1.7,5.2-2c3.5-0.6,6.9,0.4,9.5,2.8
		c1.5,1.4,2.6,3.1,3.2,5c1.2,3.4,0.9,7.3-0.6,10.6c-0.9,2-2.2,3.8-3.8,5.2c-1.4,1.3-3.3,2.9-5.3,3.3c-1.4,0.3-2.7,0.7-4.2,0.7
		c-3.6,0.1-7.6-1.4-10.3-3.7c-1.1-0.9-2.3-2-2.9-3.3c-0.3-0.6-0.4-1.3-0.5-1.9c-0.2-1-0.5-2-0.6-3c-0.2-1.7,0.1-3.8,1.2-5.2
		c0.6-0.8,1.2-1.5,1.8-2.2C121.7,10.7,121.8,10.6,121.9,10.6z"/>
	<path class="st7" d="M119.9,13c0.6-0.8,1.2-1.5,1.8-2.2c0.1-0.1,0.1-0.2,0.2-0.2c0.6-0.8,1.2-1.5,1.9-2.2c1.6-1.6,3.4-3,5.4-4.1
		c1.6-0.9,3.3-1.7,5.2-2c3.5-0.6,6.9,0.4,9.5,2.8c0,0,0,0,0,0c-0.8,0-1.6,0.2-2.4,0.3c-1.5,0.6-2.9,1.4-4.2,2.5c-1,0.9-2,1.7-3,2.7
		c-1.4,1.4-2.4,2.9-3.1,4.8c-0.8,2.3-0.3,4.8,0.4,7.1c0.5,1.6,1.2,2.8,2.4,4c0.5,0.5,1,0.9,1.5,1.3c0.7,0.4,1.5,0.5,2.3,0.6
		c0.4,0.1,0.9,0.1,1.2,0.4c-0.5,0.2-1,0.4-1.5,0.5c-1.4,0.3-2.7,0.7-4.2,0.7c-3.6,0.1-7.6-1.4-10.3-3.7c-1.1-0.9-2.3-2-2.9-3.3
		c-0.3-0.6-0.4-1.3-0.5-1.9c-0.2-1-0.5-2-0.6-3C118.5,16.6,118.8,14.4,119.9,13z"/>
	<path class="st4" d="M122.7,18.5c0.1-1,0.5-1.9,1.1-2.7c0.6-0.6,1.3-1.2,1.9-1.8c1.4-1.2,2.8-2.5,4.5-3.4c0.5-0.3,1.1-0.6,1.6-0.9
		c0.8-0.4,1.6-0.5,2.6-0.6c1.5-0.2,2.6-0.3,4,0.3c0.9,0.4,1.6,0.8,2.2,1.6c0.7,0.9,1.3,2,1.3,3.2c0,1-0.2,2-0.5,3
		c-0.4,1.3-1.3,2.3-1.9,3.4c-1.3,2.1-3.3,3.5-5.4,4.8c-1.2,0.8-2.3,0.7-3.7,0.5c-1.3-0.2-2.7-0.4-3.9-0.9c-1.6-0.7-2.9-1.8-3.6-3.4
		c-0.3-0.8-0.3-1.6-0.4-2.4c0-0.2-0.1-0.4-0.1-0.5C122.6,18.2,122.5,18.6,122.7,18.5z"/>
	<path class="st3" d="M123,21.5c-0.3-0.8-0.3-1.6-0.4-2.4c0-0.2-0.1-0.4-0.1-0.5c0.1-0.4,0,0,0.2-0.1c0.1-1,0.5-1.9,1.1-2.7
		c0.6-0.6,1.3-1.2,1.9-1.8c1.4-1.2,2.8-2.5,4.5-3.4c0.5-0.3,1.1-0.6,1.6-0.9c0.8-0.4,1.6-0.5,2.6-0.6c0.4-0.1,0.8-0.1,1.2-0.1
		c-1.6,1.6-2.9,3.4-4.3,5.2c-1.1,1.4-1.7,3.2-1.8,5.1c0,0.5,0.1,1,0.2,1.5c0.2,0.7,0.5,1.1,0.9,1.6c0.2,0.3,0.3,0.5,0.4,0.8
		c0.1,0.2,0.3,0.3,0.4,0.5c0.4,0.4,0.8,0.9,1.1,1.4c0.2,0.3,0.3,0.6,0.5,0.8c-0.8,0.2-1.6,0.2-2.5,0c-1.3-0.2-2.7-0.4-3.9-0.9
		C125.1,24.2,123.8,23.1,123,21.5z"/>
	<path class="st10" d="M144.5,8.3c1.3,1.4,2.1,3.9,1.4,5.7c-0.2,0.5-0.9,0.4-0.9-0.1c-0.2-1.8-0.4-3.4-1.3-5
		C143.5,8.4,144.1,7.9,144.5,8.3z"/>
	<path class="st10" d="M144.7,17.1c0-0.2,0.1-0.4,0.1-0.5c0-0.6,0.8-0.7,1-0.1c0.1,0.5,0,0.9-0.4,1.2
		C145,17.8,144.6,17.5,144.7,17.1z"/>
	<path class="st6" d="M139.4,11.9c0.4,0.7,1.3,1.7,1,2.5c-0.1,0.2-0.4,0.4-0.6,0.2c-0.3-0.3-0.4-0.7-0.5-1.1
		c-0.2-0.4-0.4-0.8-0.6-1.2C138.4,11.7,139.2,11.5,139.4,11.9z"/>
	<path class="st6" d="M139.4,14.5c0.3,0.6,0.6,1.2,0.5,1.8c0,0.4-0.6,0.4-0.8,0.1c-0.2-0.5-0.3-1-0.5-1.5
		C138.4,14.4,139.1,14,139.4,14.5z"/>
	<path class="st6" d="M138.5,16.8c0.2,0,0.5,0.2,0.5,0.5c0,0.1,0,0.3,0.1,0.4c0.1,0.3-0.3,0.6-0.5,0.4c-0.3-0.2-0.5-0.5-0.4-0.8
		C138.1,17,138.3,16.8,138.5,16.8z"/>
	<path class="st8" d="M45.2,10.6c-0.6-0.8-1.2-1.5-1.9-2.2c-1.6-1.6-3.4-3-5.4-4.1c-1.6-0.9-3.3-1.7-5.2-2c-3.5-0.6-6.9,0.4-9.5,2.8
		c-1.5,1.4-2.6,3.1-3.2,5c-1.2,3.4-0.9,7.3,0.6,10.6c0.9,2,2.2,3.8,3.8,5.2c1.4,1.3,3.3,2.9,5.3,3.3c1.4,0.3,2.7,0.7,4.2,0.7
		c3.6,0.1,7.6-1.4,10.3-3.7c1.1-0.9,2.3-2,2.9-3.3c0.3-0.6,0.4-1.3,0.5-1.9c0.2-1,0.5-2,0.6-3c0.2-1.7-0.1-3.8-1.2-5.2
		c-0.6-0.8-1.2-1.5-1.8-2.2C45.3,10.7,45.2,10.6,45.2,10.6z"/>
	<path class="st7" d="M47.1,13c-0.6-0.8-1.2-1.5-1.8-2.2c-0.1-0.1-0.1-0.2-0.2-0.2c-0.6-0.8-1.2-1.5-1.9-2.2c-1.6-1.6-3.4-3-5.4-4.1
		c-1.6-0.9-3.3-1.7-5.2-2c-3.5-0.6-6.9,0.4-9.5,2.8c0,0,0,0,0,0c0.8,0,1.6,0.2,2.4,0.3c1.5,0.6,2.9,1.4,4.2,2.5c1,0.9,2,1.7,3,2.7
		c1.4,1.4,2.4,2.9,3.1,4.8c0.8,2.3,0.3,4.8-0.4,7.1c-0.5,1.6-1.2,2.8-2.4,4c-0.5,0.5-1,0.9-1.5,1.3c-0.7,0.4-1.5,0.5-2.3,0.6
		c-0.4,0.1-0.9,0.1-1.2,0.4c0.5,0.2,1,0.4,1.5,0.5c1.4,0.3,2.7,0.7,4.2,0.7c3.6,0.1,7.6-1.4,10.3-3.7c1.1-0.9,2.3-2,2.9-3.3
		c0.3-0.6,0.4-1.3,0.5-1.9c0.2-1,0.5-2,0.6-3C48.5,16.6,48.2,14.4,47.1,13z"/>
	<path class="st4" d="M44.3,18.5c-0.1-1-0.5-1.9-1.1-2.7c-0.6-0.6-1.3-1.2-1.9-1.8c-1.4-1.2-2.8-2.5-4.5-3.4
		c-0.5-0.3-1.1-0.6-1.6-0.9c-0.8-0.4-1.6-0.5-2.6-0.6c-1.5-0.2-2.6-0.3-4.1,0.3c-0.9,0.4-1.6,0.8-2.2,1.6c-0.7,0.9-1.3,2-1.3,3.2
		c0,1,0.2,2,0.5,3c0.4,1.3,1.3,2.3,1.9,3.4c1.3,2.1,3.3,3.5,5.4,4.8c1.2,0.8,2.3,0.7,3.7,0.5c1.3-0.2,2.7-0.4,3.9-0.9
		c1.6-0.7,2.9-1.8,3.6-3.4c0.3-0.8,0.3-1.6,0.4-2.4c0.1-0.2,0.1-0.4,0.1-0.5C44.4,18.2,44.5,18.6,44.3,18.5z"/>
	<path class="st3" d="M44,21.5c0.3-0.8,0.3-1.6,0.4-2.4c0.1-0.2,0.1-0.4,0.1-0.5c-0.1-0.4,0,0-0.2-0.1c-0.1-1-0.5-1.9-1.1-2.7
		c-0.6-0.6-1.3-1.2-1.9-1.8c-1.4-1.2-2.8-2.5-4.5-3.4c-0.5-0.3-1.1-0.6-1.6-0.9c-0.8-0.4-1.6-0.5-2.6-0.6C32.2,9,31.8,9,31.4,9
		c1.6,1.6,2.9,3.4,4.3,5.2c1.1,1.4,1.7,3.2,1.8,5.1c0,0.5-0.1,1-0.2,1.5c-0.2,0.7-0.5,1.1-0.9,1.6c-0.2,0.3-0.3,0.5-0.4,0.8
		c-0.1,0.2-0.3,0.3-0.4,0.5c-0.4,0.4-0.8,0.9-1.1,1.4c-0.2,0.3-0.3,0.6-0.5,0.8c0.8,0.2,1.6,0.2,2.5,0c1.3-0.2,2.7-0.4,3.9-0.9
		C42,24.2,43.3,23.1,44,21.5z"/>
	<path class="st16" d="M80.5,2.6c0,0-9.8-1.5-15.2-1c0,0,2.7,2.2,4.5,4.1c0,0-12.1-0.3-17.6,3c0,0,3,1.7,4.5,3.3
		c0,0-12.8-3.1-20.4,0.8c0,0,2.2,3.5,5.8,4.3c0,0-9.1,1-12.8,6.1c0,0,0.7,1.5,3.5,2.3c0,0-7.1,3.6-9.9,8c0,0,2.2,0.2,3.6-0.3
		c0,0-6.8,5-9.8,9.9c0,0,4.1-1,5.6-0.7c0,0-8.9,7.5-11.6,14.7c0,0,1.7-0.8,3.1-0.7c0,0-1,2.5-4.1,6.5c-3.1,4-3.8,8.1-3.8,8.1
		s1.8-0.7,3.6-2.3c0,0-4.5,10.1-4.8,14.7c0,0,1.3-0.5,2.8-0.7c0,0-3.8,13.3-7.6,17.4c0,0,2.2,0.3,4.1-1c0,0-4.3,13.1-3.8,19.7
		c0,0,1.8-2.5,3.3-3.3c0,0-0.7,17.7-3.3,21.9c0,0,3.3-0.7,4.3-2.3c0,0-2.8,10.4-1.2,17.2c0,0,1.5-2,2.7-3c0,0,0,13.6,14.4,27.5
		c14.4,13.9,102.9,10.1,114.5,5.8c11.6-4.3,18.4-23,20-33c0,0,1.5,3,1.7,4.5c0,0,3.3-9.8,0-17.9c0,0,1.2,1.3,3.5,2.3
		c0,0,0.8-13.7-3.5-18.9c0,0,2.3,0.3,3.5,2.5c0,0,1.3-15.4-2.2-24c0,0,1.8,1.5,3.8,2.2c0,0-2.3-8.8-2.5-14.4s-4.6-11.4-4.6-11.4
		s1.3,0.3,3.8-0.5c0,0-6.6-9.9-9.6-17.1c0,0,1.7-0.3,3.3,2c0,0-0.8-7.5-8.1-14.7c0,0,1.2,0.7,3.6,1c0,0-2.7-7.3-7.8-10.8
		c0,0,2.3,0.8,4.3,0c0,0-3.6-8.8-10.1-11.3c0,0,2.2-0.3,4-1.2c0,0-10.8-8.8-18.2-8.9c0,0,4.6-1.3,7.5-0.7c0,0-10.4-5.8-18.1-4.5
		c0,0,4.1-2,5.5-3.8c0,0-11.1-4.8-21.7,0.8c0,0,3-2,3.6-3.8c0,0-5.3,0.7-6.6,2.3c0,0,0.3-2.3,2.2-3.1C92.3,0.5,87.5-1.5,80.5,2.6z"
		/>
	<path class="st0" d="M156.7,136.5c0,0,1.2,1.3,3.5,2.3c0,0,0.1-1.5,0.1-3.7c-0.3-0.6-0.6-1.3-0.9-1.9c-0.3-0.5-1.8-4.7-2.2-4.5
		c-0.1,0.4-0.3,0.8-0.5,1.2c-0.2,0.5-0.1,0.9-0.3,1.4c-0.2,0.3-0.4,0.6-0.5,0.9c-0.1,0.7-0.3,1.4-0.4,2.1c-0.2,1.2-0.6,2.3-1,3.4
		c-0.2,0.6-2.1,4.7-2.7,2.8c-0.2-0.8,0-2.1,0-3c0-0.4,0-0.8,0-1.2c0.1,0.8-0.7,1.6-1.1,2.2c-1.2,2-2.4,4-3.6,6
		c-0.8,1.3-1.3,2.7-2.1,3.9c-0.7,1.1-1.6,2-2.4,3c-0.6,0.8-1.2,1.5-1.8,2.3c-0.3,0.4-0.8,0.8-1,1.3c0.8-0.4,1.5-0.2,2.3-0.2
		c0.7-0.1,1.2-0.5,1.6-1c-0.1,0.3-0.3,0.5-0.4,0.7c-0.8,1.3-2,2.4-3,3.6c-1,1.3-2,2.5-3,3.8c-0.4,0.5-0.9,1.3-1.5,1.7
		c0.1-0.1,0.2-0.3,0.3-0.4c-0.7,0.2-1.8,0.9-2.4,1.3c-2.9,1.9-5.7,3.7-9,5c-3.2,1.3-6.2,2.5-9.6,3.1c-1.6,0.3-3.2,0.5-4.9,0.7
		c-0.7,0-1.2,0.2-1.7,0.6c0,0.3,0.2,0.6,0.4,0.9c-1.9-0.2-3.8-0.4-5.7-0.5c-8.8-0.3-17.7,0.1-26.5,1c-0.2,0.5,1,1.5,1.4,1.9
		c-0.1,0-0.1,0-0.2,0c-4-0.6-7.2-2.7-10.5-4.8c-6.2-3.9-11.5-8.7-16.5-14c0.5,0.5-3.6-4.4-4-4.2c-0.2,1.1,0,2.4,0,3.5
		c0,0.5,0.2,1.4-0.3,1.7c-0.9-0.3-1.3-1.5-1.7-2.2c-1.1-2.2-2.6-4.2-3.9-6.3c-1.1-1.9-2.1-3.8-3-5.8c-2.9-6.1-5.4-12.4-6.6-19.1
		c-0.3-1.8-0.6-3.6-0.7-5.5c0-0.4,0-0.9-0.2-1.3c-0.8,1.3-1.4,2.9-2.1,4.3c-0.2,0.5-0.5,1.4-0.9,1.6c-0.1-0.5-0.3-0.9-0.5-1.3
		c-0.4-1-0.6-2.2-0.9-3.3c-0.7-2.5-1.5-5-2.2-7.5c-0.7-2.2-1.5-4.4-1.7-6.8c-0.1-1.2-0.1-2.3,0-3.5c0-0.4,0-0.8,0-1.2
		c-0.2-0.3-0.2-0.3-0.6-0.2c-0.5,0.1-1.8,1.5-2.1,1.9c-0.2,0.2-0.3,0.4-0.4,0.6c0.1-3.9,0-7.9,0-11.8c0-3.5,1-6.7,1.7-10.1
		c0.3-1.3,0.9-3,0.6-4.4c-1.7,1-3.2,2.3-5,3.2c-0.2-0.8,0-2,0-2.8c0-1.7-0.1-3.4,0-5.1c0.3-3.7,1.8-7.4,2.9-10.9
		c0.6-2,1.4-4.1,1.4-6.2c0-0.1,0.1-2,0-2.3c-0.3-0.4-0.1-0.4-0.8-0.3c-1.7,0.2-2.5,1.2-3.8,2.1c-1-0.6,1.1-5.1,1.4-5.7
		c0.4-1,1.2-3.3,2.5-3.8l-1-0.1c-2.8,2.8-6.8,7.4-8.4,11.8c0,0,1.7-0.8,3.1-0.7c0,0-1,2.5-4.1,6.5c-3.1,4-3.8,8.1-3.8,8.1
		s1.8-0.7,3.6-2.3c0,0-4.5,10.1-4.8,14.7c0,0,1.3-0.5,2.8-0.7c0,0-3.8,13.3-7.6,17.4c0,0,2.2,0.3,4.1-1c0,0-4.3,13.1-3.8,19.7
		c0,0,1.8-2.5,3.3-3.3c0,0-0.7,17.7-3.3,21.9c0,0,3.3-0.7,4.3-2.3c0,0-2.8,10.4-1.2,17.2c0,0,1.5-2,2.7-3c0,0,0,13.6,14.4,27.5
		c14.4,13.9,102.9,10.1,114.5,5.8c11.6-4.3,18.4-23,20-33c0,0,1.5,3,1.7,4.5C156.7,154.3,160,144.6,156.7,136.5z"/>
	<path class="st14" d="M39.2,124c-4-2.2-8.1-6.2-8.1-6.2c1.5,0.3,2.1-1.3,2.1-1.3c-3.8-1.8-8-9.3-8-9.3c1.4,0.6,2.4,0.5,2.4,0.5
		c-2.6-3-3.4-13.1-3.4-13.1c-0.4-4.1-4.1-5.4-7.9-3.5l0,0l0,0c-0.5,0.3-1,0.6-1.6,1c0,0,0,0,0,0c-0.2,0.2-0.5,0.4-0.7,0.6
		c0,0,0,0,0,0c-0.2,0.2-0.5,0.5-0.7,0.7c0,0,0,0.1-0.1,0.1c-0.2,0.2-0.4,0.5-0.6,0.7c0,0.1-0.1,0.1-0.1,0.2
		c-0.2,0.3-0.4,0.6-0.6,0.9c0,0,0,0.1-0.1,0.1c-0.2,0.3-0.3,0.5-0.5,0.8c0,0.1-0.1,0.2-0.1,0.3c-0.2,0.3-0.4,0.7-0.5,1
		c-4.3,9.3-1.4,19.8-1.4,19.8c0.7-1.6,1.3-2.1,1.3-2.1c-0.2,3.6,0.2,6.6,0.8,9.1c0.4,1.6,1,3,1.6,4.1c0.1,0.2,0.2,0.5,0.4,0.7
		c2.3,4.1,5,5.8,5,5.8l0,0l0,0c0-0.4-0.1-0.8-0.1-1.2s-0.1-0.7-0.1-0.9c0-0.3-0.1-0.5-0.1-0.6s0-0.2,0-0.2c0.6,1.4,1.2,2.5,1.9,3.5
		c0.5,0.6,0.9,1.2,1.4,1.6c0.7,0.7,1.4,1.2,2.1,1.6c0.3,0.2,0.6,0.3,0.9,0.5c0.6,0.3,1.1,0.4,1.5,0.5c0.1,0,0.2,0.1,0.3,0.1
		c0.2,0,0.4,0,0.4,0c-0.1-0.1-0.1-0.2-0.2-0.3c-0.5-0.9-0.6-1.2-0.7-1.4c0,0,0,0,0,0c0,0,0,0,0-0.1c0,0,0,0,0,0s3.7,3.9,8.1,3.9
		c0.1,0,0.3,0,0.4,0c0,0,0.1,0,0.1,0c0.1,0,0.2,0,0.3,0c0,0,0.1,0,0.1,0c0.1,0,0.1,0,0.2,0c0,0,0.1,0,0.1,0c0.1,0,0.1,0,0.2,0
		c0,0,0.1,0,0.1,0c0.1,0,0.1,0,0.2-0.1c0,0,0.1,0,0.1,0c0.1,0,0.1,0,0.2-0.1c0,0,0.1,0,0.1,0c0.1,0,0.1-0.1,0.2-0.1c0,0,0,0,0.1,0
		c0.1,0,0.1-0.1,0.2-0.1c0,0,0,0,0,0l0,0c1.3-1,0.6-2.9,0.6-2.9s2.6,0.7,3.8-1.5c1.2-2.2-1.8-6.3-1.8-6.3
		C42.2,129.5,43.2,126.1,39.2,124z"/>
	<path class="st14" d="M150.6,102.2c-0.1-0.4-0.3-0.7-0.4-1.1c0-0.1-0.1-0.2-0.1-0.3c-0.1-0.3-0.3-0.6-0.4-0.9c0,0,0-0.1-0.1-0.1
		c-0.2-0.3-0.3-0.6-0.5-0.9c0-0.1-0.1-0.1-0.1-0.2c-0.2-0.3-0.3-0.5-0.5-0.7c0,0,0-0.1-0.1-0.1c-0.2-0.3-0.4-0.5-0.6-0.8
		c0,0,0,0,0,0c-0.2-0.2-0.4-0.5-0.7-0.7c0,0,0,0,0,0c-0.5-0.4-1-0.8-1.5-1.1c0,0,0,0,0,0l0,0c-3.5-2.2-7.4-1.3-8.2,2.7
		c0,0-1.8,9.9-4.6,12.7c0,0,1,0.2,2.5-0.3c0,0-4.9,7.1-8.9,8.5c0,0,0.5,1.7,2,1.5c0,0-4.5,3.6-8.7,5.4c-4.2,1.8-3.5,5.3-0.6,6.5
		c0,0-3.4,3.8-2.4,6.1s3.6,1.9,3.6,1.9s-1,2,0.5,3.1c0,0,0,0,0.1,0c0,0,0.1,0.1,0.1,0.1c0,0,0.1,0,0.1,0c0,0,0.1,0.1,0.2,0.1
		c0,0,0.1,0,0.1,0c0.1,0,0.1,0,0.2,0.1c0,0,0.1,0,0.1,0c0.1,0,0.1,0,0.2,0.1c0,0,0.1,0,0.1,0c0.1,0,0.1,0,0.2,0.1c0,0,0.1,0,0.1,0
		c0.1,0,0.2,0,0.3,0c0,0,0.1,0,0.1,0c0.1,0,0.3,0,0.4,0c4.5,0.4,8.5-3.1,8.5-3.1s0.1,0-0.3,0.6c-0.1,0.2-0.2,0.3-0.4,0.6
		c-0.1,0.2-0.2,0.3-0.4,0.5c0,0,5.5,0.2,9.3-6.8c0,0-0.1,0.5-0.3,1.2c-0.1,0.4-0.2,1-0.3,1.6l0,0l0,0c0,0,7.1-3.5,9.2-13.9
		c0.3-1.5,0.5-3.1,0.6-4.9c0,0,0.5,0.6,1,2.2C150,122.1,154,111.9,150.6,102.2z"/>
	<path class="st14" d="M129.4,97.1c-0.4-0.3-2.2-0.7-5-1c0.6,0.7,1,1.7,1,2.7c0,2.4-1.9,4.4-4.4,4.5c-2.5,0-4.5-1.9-4.5-4.3
		c0-1.4,0.7-2.7,1.7-3.5c-2.9-0.3-6.2-0.5-9.9-0.7c0.7,0.8,1.1,1.7,1.1,2.8c0,2.4-1.9,4.4-4.4,4.5c-2.5,0-4.5-1.9-4.5-4.3
		c0-1.3,0.5-2.5,1.4-3.3c-3.2-0.2-6.7-0.3-10.2-0.4c1.1,0.8,1.8,2.1,1.8,3.5c0,2.4-1.9,4.4-4.4,4.5s-4.5-1.9-4.5-4.3
		c0-1.6,0.8-3,2-3.8c-4.5-0.1-9.1-0.2-13.7-0.2c1.3,0.7,2.2,2.1,2.2,3.8c0,2.4-1.9,4.4-4.4,4.5c-2.5,0-4.5-1.9-4.5-4.3
		c0-1.6,0.9-3.1,2.2-3.9c-4.4,0-8.8,0.2-12.9,0.3c1.7,0.6,3,2.2,3,4.1c0,2.4-1.9,4.4-4.4,4.5c-2.5,0-4.5-1.9-4.5-4.3
		c0-1.8,1-3.4,2.6-4.1c-4.4,0.2-8.5,0.6-12.2,1.1c1.3,0.8,2.2,2.1,2.2,3.7c0,2.4-1.9,4.4-4.4,4.5c-2.5,0-4.5-1.9-4.5-4.3
		c0-1.2,0.4-2.2,1.2-3c-2.5,0.5-4.6,1-6.3,1.7c-3.1,1.2,2.2,83,7.6,87.8c5.5,4.7,88.4,3.3,92.4-0.3
		C132.4,181.6,132.4,99.5,129.4,97.1z"/>
	<path class="st11" d="M131.2,96.2c-0.4-0.3-2.2-0.7-5-1.1c0.6,0.8,1,1.7,1,2.8c0,2.5-1.9,4.5-4.4,4.5c-2.5,0-4.5-1.9-4.5-4.4
		c0-1.4,0.7-2.7,1.7-3.6c-2.9-0.3-6.2-0.5-9.9-0.7c0.7,0.8,1.1,1.8,1.1,2.8c0,2.5-1.9,4.5-4.4,4.5c-2.5,0-4.5-1.9-4.5-4.4
		c0-1.3,0.5-2.5,1.4-3.3c-3.2-0.2-6.7-0.3-10.2-0.4c1.1,0.8,1.8,2.1,1.8,3.5c0,2.5-1.9,4.5-4.4,4.5s-4.5-1.9-4.5-4.4
		c0-1.6,0.8-3,2-3.8c-4.5-0.1-9.1-0.2-13.7-0.2c1.3,0.8,2.2,2.2,2.2,3.8c0,2.5-1.9,4.5-4.4,4.5c-2.5,0-4.5-1.9-4.5-4.4
		c0-1.7,0.9-3.1,2.2-3.9c-4.4,0-8.8,0.2-12.9,0.3c1.7,0.6,3,2.2,3,4.2c0,2.5-1.9,4.5-4.4,4.5c-2.5,0-4.5-1.9-4.5-4.4
		c0-1.8,1-3.4,2.6-4.1c-4.4,0.3-8.5,0.6-12.2,1.1c1.3,0.8,2.2,2.2,2.2,3.8c0,2.5-1.9,4.5-4.4,4.5c-2.5,0-4.5-1.9-4.5-4.4
		c0-1.2,0.4-2.3,1.2-3.1c-2.5,0.5-4.6,1-6.3,1.7c-3.1,1.2,2.2,85.1,7.6,89.9s88.4,3.3,92.4-0.3C134.2,182.8,134.2,98.7,131.2,96.2z"
		/>
	<g>
		<path class="st12" d="M31.2,145.9c0.6,0,1.2,0,1.8,0c1.2,0,2.3-0.2,3.5-0.4c0.7-0.2,1.4-0.4,2.1-0.5c0.5-0.1,1.1-0.1,1.5-0.3
			c1.2-0.6,2.2-1.9,2.1-3.2c-0.1-0.7-0.6-1.5,0-2c0.2-0.2,0.6-0.3,0.8-0.4c0.6-0.4,1.2-0.8,1.7-1.3c1.1-1,1.9-2,1.7-3.5
			c-0.1-1.3-0.8-2.7-1.7-3.7c-0.1-0.1-0.7-0.4-0.8-0.6c-0.2-0.4,0.1-0.3,0.2-0.5c0.2-0.6,0.5-0.9,0.5-1.6c0-0.7-0.2-1.5-0.6-2.1
			c-0.8-1.3-1.6-2.2-3.2-2.2l-11.1,3.7C30.2,133.3,30.6,139.6,31.2,145.9z"/>
		<path class="st12" d="M130.2,186.5c1.8-1.7,2.8-20.2,3.1-40.1c-1,1.3-2.3,2.3-3.9,2.7c-0.4,0.1-0.6,0.1-0.9,0.3
			c-0.3,0.2-0.5,0.5-0.7,0.7c-0.2,0.2-0.3,0.1-0.6,0.3c-0.2,0.2-0.3,0.5-0.4,0.8c-0.3,0.8-0.5,1.5-1,2.3c-0.7,1-1.8,1.6-2.7,2.5
			c-0.7,0.7-1.2,1.5-1.8,2.2c-0.4,0.5-0.8,0.9-0.8,1.5c-0.1,1.7,1.3,0.3,1.9,1.1c-0.1,0.7-1.5,1.7-1.9,2.2c-0.7,0.8-1,1.2-2,1.5
			c-0.7,0.3-1.4,0.6-2,1.1c-1.1,0.8-1.9,1.4-3.1,1.9c-1.2,0.5-2.4,0.7-3.6,1.1c-0.5,0.2-3.8,1.2-3.6,2c0.6,0.1,1.2-0.1,1.9,0.1
			c-1.1,0.7-2.2,1.4-3.3,2.2c-0.7,0.5-1.2,1-1.9,1.5c-0.7,0.4-0.9,0.5-1.5,1.2c-0.9,1-1.7,1.6-2.9,2.3c-1.3,0.6-2.3,1.6-3.5,2.3
			c-0.6,0.4-1.3,0.7-2,1c-0.3,0-0.7,0-1,0.1c-0.7,0.1-1.3,0.4-2.1,0.5c-1.1,0.1-2.1,0.5-3.2,0.5c-0.7,0-1.5,0-2.2,0
			c-0.5,0-1.1,0.1-1.5-0.2c-0.6-0.4-0.8-1-1.6-1.1c-0.6-0.1-1.4,0.4-1.9,0.6c-0.6,0.2-1.2,0.3-1.8,0.4c-1.7,0.3-3.4-0.1-5.1-0.4
			c-1.5-0.3-2.9-0.6-4.2-1.4c-0.8-0.5-1.6-1-2.4-1.4c-1.8-0.8-3.5-1.8-5.3-2.6c-1.7-0.8-3-2.2-4.7-3c-0.9-0.4-1.9-0.7-2.1-1.9
			c-0.1-0.6-0.1-1.8-0.6-2.3c-0.3-0.4-0.9-0.4-1.4-0.5c-1.9-0.2-3.7,0-5.5-0.9c-1.1-0.5-2.1-1.2-3.2-1.9c-0.3-0.2-1.5-0.7-1.8-1
			c-0.3-0.3-0.2,0-0.3-0.6c-0.1-0.6,0.5-0.9,0.7-1.4c0.5-1-1.5-1.2-2.2-1.4c-0.8-0.2-1.5-0.7-2.2-0.8c-0.8-0.2-1.6-0.3-2.4-0.5
			c-0.9-0.3-1.6-0.7-2.4-1.1c1.5,14.4,3.4,26.1,5.4,27.8C43.2,191.6,126.2,190.1,130.2,186.5z"/>
		<path class="st12" d="M131.5,122c-1.7,0.1-3,0.7-4.6,1.3c-0.8,0.3-1.8,0.7-2.7,0.4c-0.7-0.2-1.1-0.6-1.9-0.4
			c-0.7,0.2-1.3,0.4-2,0.5c-2.1,0.3-3.5,1.8-5.4,2.8c-1.1,0.6-2.6,1.1-3,2.4c-0.2,0.6,0,1.1,0.2,1.7c0.1,0.5,0.1,1,0.1,1.5
			c0,1,0.1,2,0,3c0,0.6-0.3,1.1-0.3,1.7c0,0.5,0.2,1,0.3,1.4c0.3,0.8,0.9,1.5,1.7,1.9c0.5,0.2,1,0.2,1.5,0.5c0.3,0.2,0.6,0.5,1,0.6
			c0.4,0.2,0.9,0.2,1.3,0.5c0.4,0.3,0.5,0.7,0.8,1.1c0.3,0.5,0.4,0.9,1,1c0.4,0.1,1.2-0.3,1.5,0c0.2,0.2,0.2,0.5,0.5,0.7
			c0.4,0.4,1,0.5,1.6,0.5c0.7-0.1,1.5-0.2,2.2-0.3c0.5-0.1,1.2-0.1,1.7-0.2c0.9-0.2,1.8-0.9,2.6-1.2c0.4-0.1,0.7-0.3,1.1-0.5
			c0.7-0.3,2-0.7,2.8-0.5c0.1-7,0-14-0.1-20.4C132.6,122,132.1,122,131.5,122z"/>
	</g>
	<g>
		<path class="st9" d="M46.4,162c0.1,0.3-0.1,0.4-0.6,0.4c-0.3,0-0.6-0.1-0.9-0.4c-0.3-0.2-0.5-0.6-0.6-1.1c-0.1-0.5-0.2-1.1-0.2-2
			c0-1-0.1-1.6-0.1-2c-0.2,0.6-0.5,1.5-0.9,2.7c-0.2,0.7-0.4,1-0.4,1.1c-0.2,0.4-0.5,0.6-0.8,0.6c-0.6-0.1-1.1-0.5-1.5-1.1
			c-0.2-0.4-0.4-1-0.6-1.8c-0.2-0.9-0.4-1.5-0.5-1.8c-0.6,2.8-1.2,4.8-1.8,6.2c-0.1,0.2-0.4,0.2-0.8,0c-0.4-0.2-0.6-0.5-0.6-0.8
			c0-0.1,0.1-0.5,0.4-1.3c0.1-0.3,0.6-1.8,1.4-4.6c0.3-1,0.6-2.6,0.9-5c0,0,0.1-0.2,0.2-0.4c0.1-0.2,0.2-0.3,0.4-0.3
			c0.5,0,0.8,0.1,0.9,0.3c0,0.4,0.1,1,0.2,1.9c0.1,0.9,0.2,1.5,0.2,1.9c0.1,0.7,0.2,1.5,0.3,2.2c0.1,0.8,0.4,1.5,0.8,2.1
			c1.3-3.5,2.1-6.3,2.4-8.4c0.1-0.2,0.3-0.3,0.6-0.3c0.5,0,0.8,0.2,0.8,0.5c0.1,0.5,0.1,1,0.1,1.7c0,0.2,0,0.6,0,1.3
			c0,0.5,0,1,0,1.3C45.7,157.8,46,160.1,46.4,162z"/>
		<path class="st9" d="M54.5,150.8c-0.1,0.9-0.4,2.2-0.8,3.7c-0.6,2.1-0.9,3.3-1,3.8c-0.3,1.3-0.8,2.6-1.7,3.7c-0.5,0.7-1.1,1-1.8,1
			c-0.6,0-1-0.4-1.3-1.1c-0.5-1.2-0.8-2.7-0.8-4.4c0-1,0.1-2.2,0.3-3.7c0,0.1,0-0.3,0-1.2c0-0.8,0.3-1.2,1-1.2c0.1,0,0.3,0,0.4,0.1
			s0.3,0.1,0.4,0.2c0,0.7,0,1.7-0.1,3c-0.1,1.4-0.1,2.4-0.1,3c0,0.7,0,1.3,0.1,1.8c0,0.3,0.1,0.8,0.4,1.6c0.6-0.6,1-1.5,1.3-2.5
			c0.1-0.3,0.3-1.3,0.6-2.8c0.3-1.2,0.5-2.1,0.9-2.7c0.1-0.2,0.2-0.5,0.2-1.1c0.1-0.5,0.1-0.9,0.2-1.1c0.1-0.3,0.4-0.5,0.8-0.5
			C54,150.4,54.3,150.5,54.5,150.8z"/>
		<path class="st9" d="M60.8,159.4c0,0-0.8,0.6-2.3,1.7c-0.9,0.6-1.7,1.1-2.4,1.4c-0.1,0-0.2,0.1-0.2,0.1c-0.2,0-0.4-0.1-0.5-0.4
			c-0.2-0.3-0.4-0.5-0.4-0.5c0-1.2,0-2.8,0.2-4.9c0.2-2.2,0.3-3.8,0.3-4.8c0-0.7,0-1.3-0.1-1.9c0.2-0.2,0.4-0.3,0.7-0.3
			c0.5,0,0.8,0.2,0.9,0.6c0,1.1,0,2.7-0.1,4.9c-0.1,2.2-0.2,3.8-0.2,4.9c0.4-0.2,0.9-0.4,1.5-0.8c0.6-0.5,1.1-0.8,1.4-0.9
			c0.1,0,0.2,0,0.3,0c0.2,0,0.3,0,0.4,0c0.3,0,0.5,0.1,0.6,0.3C61,158.9,61,159.2,60.8,159.4z"/>
		<path class="st9" d="M71.4,149.3c-0.1,0.5-0.3,0.8-0.7,0.8c-0.9,0.2-2.4,0.5-4.5,0.8c-0.3,3.3-0.4,6-0.4,8.2c0,0.8,0,1.7,0,2.5
			c0,0.3,0,0.4,0,0.6c-0.1,0.2-0.2,0.3-0.4,0.3c-0.4,0-0.7-0.2-1-0.5c-0.3-0.3-0.4-0.7-0.4-1c0-0.5,0-1,0-1.6c0-0.9,0.1-2.3,0.2-4.2
			c0.1-1.8,0.2-3.2,0.2-4.2c-0.4,0-0.9,0-1.5,0.1c-0.7,0.1-1.2,0.2-1.5,0.2c-0.6,0-1.2-0.2-1.6-0.5c-0.2-0.3-0.2-0.5-0.2-0.5
			c0-0.1,0-0.2,0.1-0.3c0.4-0.1,1.3-0.3,2.6-0.4c1.2-0.1,2-0.3,2.6-0.6c0.5,0.2,1,0.2,1.6,0.2c0.6,0,1.2-0.1,1.7-0.2
			c0.2,0,0.6-0.1,1.2-0.3c0.5-0.1,0.9-0.2,1.2-0.1c0.2,0,0.3,0.1,0.3,0.3C71.2,148.9,71.4,149,71.4,149.3z"/>
		<path class="st9" d="M71,151.6c0,0.4,0,0.8,0,1.2c0,0.9-0.1,2.3-0.3,4.1c-0.2,1.8-0.3,3.2-0.3,4.1c0,0.3,0,0.7,0,1
			c-0.1,0.4-0.4,0.5-0.8,0.5c-0.6,0-0.9-0.3-0.9-0.7c-0.1-0.5-0.1-1-0.1-1.5c0-0.9,0.1-2.2,0.3-4c0.2-1.8,0.3-3.1,0.3-4
			c0-0.3,0-0.7,0-1c0.1-0.3,0.4-0.4,0.7-0.4c0.3,0,0.5,0.1,0.8,0.2c0.1,0,0.1-0.1,0.1-0.1c0,0,0.1,0.1,0.1,0.2
			C70.9,151.4,70.9,151.5,71,151.6C70.9,151.6,71,151.6,71,151.6z"/>
		<path class="st9" d="M77.8,154.8c-0.5,1.1-0.9,1.8-1.3,2.2c-0.6,0.6-0.9,0.9-0.9,0.9c-0.4,0.3-0.8,0.5-1.2,0.6
			c-0.1,0.3-0.1,0.6-0.1,0.9c0,0.3,0,0.6,0.1,1.1c0,0.5,0.1,0.9,0.1,1.1c0,0.9-0.2,1.6-0.6,2l-0.6-0.3c-0.2-0.1-0.4-0.3-0.4-0.4
			c-0.1-0.9-0.2-1.8-0.2-2.9c0-0.7,0-1.7,0.1-3.1c0.1-1.4,0.1-2.4,0.1-3.2c0-1-0.1-2-0.2-2.8c-0.1,0-0.2,0-0.3-0.2
			c-0.1-0.2-0.2-0.3-0.2-0.3c0.1-0.4,0.2-0.6,0.3-0.6c0.2-0.1,0.6-0.1,1.2,0c1.7,0.3,3,1,3.9,2.3c0.3,0.4,0.4,0.8,0.4,1.4
			C78.1,153.9,78,154.3,77.8,154.8z M76.5,153.3c0.1-0.5-0.2-0.9-0.7-1.3c0,0-0.5-0.2-1.4-0.6c0.1,2.4,0.2,4.1,0.1,5.1
			C75.7,155.4,76.3,154.3,76.5,153.3z"/>
		<path class="st9" d="M84.8,159.4c0,0-0.8,0.6-2.3,1.7c-0.9,0.6-1.7,1.1-2.4,1.4c-0.1,0-0.2,0.1-0.2,0.1c-0.2,0-0.4-0.1-0.5-0.4
			c-0.2-0.3-0.4-0.5-0.4-0.5c0-1.2,0-2.8,0.2-4.9c0.2-2.2,0.3-3.8,0.3-4.8c0-0.7,0-1.3-0.1-1.9c0.2-0.2,0.4-0.3,0.7-0.3
			c0.5,0,0.8,0.2,0.9,0.6c0,1.1,0,2.7-0.1,4.9c-0.1,2.2-0.2,3.8-0.2,4.9c0.4-0.2,0.9-0.4,1.5-0.8c0.6-0.5,1.1-0.8,1.4-0.9
			c0.1,0,0.2,0,0.3,0c0.2,0,0.3,0,0.4,0c0.3,0,0.5,0.1,0.6,0.3C84.9,158.9,84.9,159.2,84.8,159.4z"/>
		<path class="st9" d="M87.6,151.6c0,0.4,0,0.8,0,1.2c0,0.9-0.1,2.3-0.3,4.1c-0.2,1.8-0.3,3.2-0.3,4.1c0,0.3,0,0.7,0,1
			c-0.1,0.4-0.4,0.5-0.8,0.5c-0.6,0-0.9-0.3-0.9-0.7c-0.1-0.5-0.1-1-0.1-1.5c0-0.9,0.1-2.2,0.3-4c0.2-1.8,0.3-3.1,0.3-4
			c0-0.3,0-0.7,0-1c0.1-0.3,0.4-0.4,0.7-0.4c0.3,0,0.5,0.1,0.8,0.2c0.1,0,0.1-0.1,0.1-0.1c0,0,0.1,0.1,0.1,0.2
			C87.5,151.4,87.5,151.5,87.6,151.6C87.6,151.6,87.6,151.6,87.6,151.6z"/>
		<path class="st9" d="M94.2,149.7c0,0.4-0.2,0.6-0.7,0.7c-0.6,0.1-1,0.3-1.2,0.4c-1.5,1.6-2.2,3.6-2.2,6.1c0,1.2,0.2,2.3,0.6,3.3
			c0.3,0.8,0.5,1.4,0.7,1.7c0.3,0.6,0.7,1.1,1.2,1.4c0.2,0.1,0.4,0.2,0.6,0.3c0.2,0.1,0.3,0.3,0.3,0.5c0,0.2-0.1,0.4-0.2,0.6
			c-0.1,0.2-0.3,0.2-0.4,0.2c-0.2,0-0.4-0.1-0.8-0.3c-0.6-0.4-1.3-1.2-2.1-2.4c-0.2-0.3-0.4-0.6-0.6-0.9c-0.2-0.3-0.3-0.6-0.4-0.9
			c-0.1-0.2-0.2-1.1-0.3-2.6c-0.1-0.5-0.1-0.9-0.1-1.4c0-2.3,0.7-4.3,2-6c0.8-1,1.6-1.4,2.5-1.4c0.4,0,0.7,0.1,1,0.3
			C94.1,149.3,94.2,149.5,94.2,149.7z"/>
		<path class="st9" d="M101,160.7c0.1,0.2,0.1,0.4,0.1,0.6c0,0.3-0.1,0.5-0.3,0.7c-0.2,0.2-0.4,0.3-0.5,0.3
			c-0.6-0.1-1.1-0.6-1.2-1.6c-0.2-1-0.4-1.8-0.7-2.5c-0.5,0-0.9,0.1-1.4,0.1c-0.5,0.1-0.9,0.2-1.2,0.5c-0.1,0.4-0.3,1.1-0.6,2.2
			c-0.2,1-0.4,1.7-0.7,2.2c-0.1,0.2-0.3,0.3-0.7,0.2c-0.4-0.1-0.7-0.3-0.7-0.6c0-0.5,0.1-1.2,0.4-2c0.4-1,0.6-1.7,0.7-2.1
			c0-0.1-0.1-0.3-0.3-0.4c-0.2-0.1-0.3-0.3-0.3-0.3c0-0.1,0-0.1,0.1-0.2c0.1-0.1,0.2-0.1,0.4-0.2s0.3-0.1,0.4-0.2
			c0.2-0.7,0.6-1.9,1.1-3.7c0.4-1.6,0.8-2.8,1.2-3.6c0.1-0.2,0.2-0.3,0.5-0.3c0.2,0,0.4,0.1,0.5,0.2c0.4,0.3,0.6,0.8,0.7,1.4
			c0.1,0.5,0.2,1.1,0.2,1.6C99.6,156.1,100.3,158.7,101,160.7z M98.1,156.9c0-0.5-0.1-1-0.3-1.7c-0.1-0.5-0.3-1.1-0.4-1.6
			c-0.4,1.1-0.7,2.2-1,3.3C96.7,156.9,97.2,156.9,98.1,156.9z"/>
		<path class="st9" d="M111.8,149.3c-0.1,0.5-0.3,0.8-0.7,0.8c-0.9,0.2-2.4,0.5-4.5,0.8c-0.3,3.3-0.4,6-0.4,8.2c0,0.8,0,1.7,0,2.5
			c0,0.3,0,0.4,0,0.6c-0.1,0.2-0.2,0.3-0.4,0.3c-0.4,0-0.7-0.2-1-0.5c-0.3-0.3-0.4-0.7-0.4-1c0-0.5,0-1,0-1.6c0-0.9,0.1-2.3,0.2-4.2
			c0.1-1.8,0.2-3.2,0.2-4.2c-0.4,0-0.9,0-1.5,0.1c-0.7,0.1-1.2,0.2-1.5,0.2c-0.6,0-1.2-0.2-1.6-0.5c-0.2-0.3-0.2-0.5-0.2-0.5
			c0-0.1,0-0.2,0.1-0.3c0.4-0.1,1.3-0.3,2.6-0.4c1.2-0.1,2-0.3,2.6-0.6c0.5,0.2,1,0.2,1.6,0.2c0.6,0,1.2-0.1,1.7-0.2
			c0.2,0,0.6-0.1,1.2-0.3c0.5-0.1,0.9-0.2,1.2-0.1c0.2,0,0.3,0.1,0.3,0.3C111.6,148.9,111.8,149,111.8,149.3z"/>
		<path class="st9" d="M111.4,151.6c0,0.4,0,0.8,0,1.2c0,0.9-0.1,2.3-0.3,4.1c-0.2,1.8-0.3,3.2-0.3,4.1c0,0.3,0,0.7,0,1
			c-0.1,0.4-0.4,0.5-0.8,0.5c-0.6,0-0.9-0.3-0.9-0.7s-0.1-1-0.1-1.5c0-0.9,0.1-2.2,0.3-4s0.3-3.1,0.3-4c0-0.3,0-0.7,0-1
			c0.1-0.3,0.4-0.4,0.7-0.4c0.3,0,0.5,0.1,0.8,0.2c0.1,0,0.1-0.1,0.1-0.1c0,0,0.1,0.1,0.1,0.2C111.3,151.4,111.3,151.5,111.4,151.6
			C111.3,151.6,111.3,151.6,111.4,151.6z"/>
		<path class="st9" d="M119.2,157.4c-0.8,1.8-1.9,2.8-3.3,3.1c-0.2,0-0.3,0.1-0.5,0.1c-0.8,0-1.5-0.4-2.3-1.2
			c-0.5-0.6-0.8-1.3-0.8-2.2c0-1,0.3-2,0.9-3.2c0.3-0.5,0.6-0.9,0.9-1.2c0.4-0.4,0.8-0.6,1.2-0.6c0.2,0,0.4,0.1,0.6,0.2
			c0.2,0.2,0.7,0.4,1.5,0.6c0.6,0.2,1.1,0.6,1.4,1.1c0.5,0.9,0.7,1.6,0.7,2.3C119.4,156.8,119.4,157.1,119.2,157.4z M117.6,156.1
			c-0.1-1-0.4-1.5-0.8-1.7c-0.1,0-0.1,0-0.2,0c-0.2,0-0.4,0.1-0.6,0.4c-0.3,0.3-0.5,0.5-0.6,0.5c-0.1,0-0.2,0-0.4-0.1
			s-0.3-0.2-0.3-0.2c0,0-0.1,0-0.1,0c-0.5,0.4-0.7,1-0.7,1.8c0,0.6,0.1,1.1,0.4,1.5c0.4,0.5,0.7,0.8,0.9,0.8c0.6,0,1.1-0.4,1.7-1.1
			C117.5,157.4,117.7,156.7,117.6,156.1z"/>
		<path class="st9" d="M128.5,149.6c-0.2,1.8-0.4,3.6-0.5,5.3c-0.2,2.1-0.3,3.9-0.3,5.3c0,0.5,0,0.9,0,1.4c0,0.2-0.1,0.4-0.2,0.6
			c-0.2,0.2-0.4,0.2-0.6,0.2c-0.4,0-0.8-0.3-1-0.8c-0.8-1.7-1.9-4.3-3.2-7.8c0-0.1-0.1-0.1-0.1-0.1c-0.1,0-0.2,0.1-0.2,0.3
			c-0.2,1.9-0.3,3.9-0.3,6c0,1,0,2,0.1,3.1c0,0.4-0.1,0.6-0.3,0.8c-0.1,0.1-0.2,0.1-0.3,0.1c-0.1,0-0.2,0-0.4-0.1
			c-0.2-0.1-0.3-0.2-0.4-0.2c-0.2-0.1-0.3-0.2-0.3-0.5c0-0.2,0-0.4,0-0.7c0-0.7-0.1-1.5-0.1-2.3c0-1.4,0.1-3.2,0.2-5.3
			c0.3-3.2,0.4-5,0.4-5.3c0-0.3,0.3-0.4,0.7-0.4c0.2,0,0.6,0.1,1,0.5c0.4,0.8,0.9,2.1,1.6,3.9c0.6,1.7,1.1,3.1,1.6,4
			c0.2-1.8,0.5-4.4,0.9-8c0-0.3,0.2-0.4,0.6-0.4c0.1,0,0.3,0,0.4,0.1c0.2,0.1,0.3,0.1,0.4,0.1C128.4,149.4,128.5,149.5,128.5,149.6z
			"/>
	</g>
	<g>
		<path class="st16" d="M25.4,91.8c0,0,0.8,10,3.4,13.1c0,0-1,0.1-2.4-0.5c0,0,4.2,7.5,8,9.3c0,0-0.6,1.6-2.1,1.3c0,0,4.1,4,8.1,6.2
			c4,2.2,3,5.6-0.1,6.5c0,0,3,4.1,1.8,6.3c-1.2,2.2-3.8,1.5-3.8,1.5s1.3,3.6-3.1,3.6c-4.5-0.1-8.1-3.9-8.1-3.9s-0.2,0.1,0.8,1.8
			c0,0-5.5-0.3-8.6-7.7c0,0,0.1,1.2,0.3,2.9c0,0-8.8-5.5-7.9-19.7c0,0-0.5,0.6-1.3,2.1c0,0-2.9-10.5,1.4-19.8
			C15.9,85.8,24.7,85.5,25.4,91.8z"/>
		<path class="st0" d="M26.9,135.1c0,0,3.7,3.9,8.1,3.9c1.3,0,2.1-0.3,2.6-0.7c-0.4-0.1-0.8-0.3-1.2-0.5c-1-0.4-2-0.6-2.8-1.2
			c-0.7-0.5-1.4-0.9-2.1-1.3c-1.4-0.8-2.6-1.9-3.4-3.2c-0.5-0.8-0.9-1.5-1.3-2.3c-0.1-0.2-0.3-0.8-0.6-0.8c-0.2,0.5-0.3,1-0.4,1.6
			c-0.3-0.1-0.5-0.6-0.7-0.8c-0.2-0.2-0.4-0.5-0.5-0.8c-0.4-0.8-0.7-1.5-1.1-2.3c-0.4-0.6-0.8-1.3-1.1-1.9c-0.9-1.7-1.9-3.5-2.4-5.3
			c-0.1-0.5-0.2-1.2-0.5-1.6c0-0.1-0.1-0.2-0.2-0.2c-0.1,0.2-0.3,0.4-0.4,0.6c-0.1,0.2-0.1,0.5-0.3,0.7c-0.1-0.1-0.1-0.2-0.2-0.3
			c-0.2-0.6-0.4-1.1-0.5-1.7c-0.2-1.1-0.4-2.2-0.6-3.4c-0.2-0.8-0.3-1.5-0.5-2.3c-0.4-1.9-1-4-1-5.9c0-0.7,0.1-1.3,0.2-2
			c0-0.1,0-0.2,0-0.3c-0.6,0.3-0.9,1-1.4,1.5c0.1-1,0.3-2,0.4-3c0.2-2,0.3-4,0.5-6c0.2-2.1,0.8-4.2,1.6-6.2c0.1-0.3,0.3-0.7,0.4-1
			c-2.1,1.1-4.2,3.1-5.7,6.3c-4.3,9.3-1.4,19.8-1.4,19.8c0.7-1.6,1.3-2.1,1.3-2.1c-0.9,14.2,7.9,19.7,7.9,19.7
			c-0.2-1.7-0.3-2.9-0.3-2.9c3,7.4,8.6,7.7,8.6,7.7C26.8,135.2,26.9,135.1,26.9,135.1z"/>
		<path class="st0" d="M19.9,93.1c-0.1-0.4-0.7-0.5-0.9-0.1c-0.2,0.5-0.1,1.1-0.1,1.6c0,0.4,0.6,0.4,0.7,0.1
			C19.8,94.2,20,93.6,19.9,93.1z"/>
		<path class="st0" d="M23.8,100.5c-0.2-0.5-0.9-0.1-0.7,0.3c0.1,0.3,0.2,0.6,0.3,0.9c0.1,0.3,0.7,0.4,0.6,0
			C24,101.2,23.9,100.9,23.8,100.5z"/>
		<path class="st0" d="M23.1,110.2c0-0.4-0.2-0.8-0.4-1.2c-0.3-0.5-1.1-0.1-0.8,0.4c0.2,0.3,0.3,0.7,0.5,1
			C22.6,110.9,23.1,110.6,23.1,110.2z"/>
		<path class="st0" d="M31.4,121.1c-0.1-0.4-0.4-0.7-0.6-1.1c-0.2-0.4-0.9-0.1-0.7,0.3c0.2,0.4,0.4,0.9,0.8,1.2
			C31.2,121.8,31.6,121.4,31.4,121.1z"/>
		<path class="st0" d="M31.3,130.3c-0.4-0.5-0.8-0.9-1.2-1.3c-0.3-0.3-0.9,0.1-0.5,0.5c0.5,0.5,0.8,1,1.4,1.3
			C31.2,130.9,31.4,130.5,31.3,130.3z"/>
		<path class="st0" d="M38.7,130.7c-0.1-0.1-0.2-0.2-0.3-0.3c-0.3-0.4-1,0.2-0.5,0.6c0.2,0.2,0.4,0.3,0.7,0.3
			C38.8,131.3,38.9,130.9,38.7,130.7z"/>
		<path class="st16" d="M13.1,97.5c-0.1-0.5-0.8-0.4-0.7,0.1c0,0.2,0,0.4,0,0.5c0,0.2,0,0.3,0,0.5c-0.1,0.3,0.3,0.6,0.5,0.3
			c0.1-0.2,0.2-0.4,0.3-0.6C13.2,98.1,13.2,97.8,13.1,97.5z"/>
		<path class="st16" d="M15.5,109.7c0-0.5-0.9-0.4-0.9,0c0,0.4,0,0.7,0.1,1.1c0.1,0.3,0.6,0.3,0.7,0
			C15.5,110.4,15.5,110.1,15.5,109.7z"/>
		<path class="st16" d="M15.3,118.7c-0.2-0.5-1-0.2-0.8,0.3c0.1,0.4,0.2,0.8,0.4,1.2c0.1,0.3,0.6,0.2,0.6-0.1
			C15.5,119.5,15.4,119.1,15.3,118.7z"/>
		<path class="st16" d="M21.3,126c-0.1-0.5-0.3-0.9-0.4-1.3c-0.1-0.2-0.4-0.3-0.6-0.2c-0.2,0.1-0.3,0.4-0.2,0.6
			c0.2,0.4,0.3,0.9,0.7,1.2C20.9,126.5,21.4,126.4,21.3,126z"/>
		<path class="st16" d="M25.9,134.9c-0.1-0.6-0.4-1.1-0.7-1.5c-0.1-0.2-0.4-0.2-0.6-0.1c-0.2,0.2-0.2,0.4-0.1,0.6
			c0.3,0.4,0.5,0.8,0.8,1.2C25.5,135.5,25.9,135.2,25.9,134.9z"/>
		<path class="st15" d="M38.1,121.6c-0.6-0.5-1.4-0.8-2.1-1.2c-0.3-0.2-0.6,0.2-0.3,0.4c0.7,0.5,1.4,0.9,2.2,1.2
			C38.1,122.2,38.3,121.8,38.1,121.6z"/>
		<path class="st15" d="M38.7,123.4c-0.3-0.2-0.5-0.3-0.9-0.4c-0.4-0.1-0.6,0.4-0.2,0.6c0.3,0.1,0.6,0.2,0.9,0.3
			C38.7,123.9,38.8,123.6,38.7,123.4z"/>
		<path class="st15" d="M41,123.9c-0.1-0.2-0.2-0.3-0.4-0.4c-0.4-0.2-0.8,0.4-0.4,0.6c0.2,0.1,0.3,0.2,0.5,0.3
			C40.9,124.5,41.1,124.2,41,123.9z"/>
		<path class="st15" d="M31.1,113c-0.2-0.3-0.4-0.6-0.7-0.9c-0.2-0.3-0.7,0.1-0.4,0.4c0.2,0.3,0.5,0.6,0.8,0.8
			C30.9,113.5,31.2,113.2,31.1,113z"/>
	</g>
	<g>
		<path class="st16" d="M136.7,95.3c0,0-1.8,9.9-4.6,12.7c0,0,1,0.2,2.5-0.3c0,0-4.9,7.1-8.9,8.5c0,0,0.5,1.7,2,1.5
			c0,0-4.5,3.6-8.7,5.4c-4.2,1.8-3.5,5.3-0.6,6.5c0,0-3.4,3.8-2.4,6.1c1,2.3,3.6,1.9,3.6,1.9s-1.7,3.5,2.8,3.8s8.5-3.1,8.5-3.1
			s0.2,0.1-1,1.7c0,0,5.5,0.2,9.3-6.8c0,0-0.3,1.2-0.6,2.8c0,0,9.2-4.6,9.8-18.8c0,0,0.5,0.6,1,2.3c0,0,4-10.2,0.6-19.9
			C146.7,90.2,138,89,136.7,95.3z"/>
		<path class="st0" d="M130.9,138.2c0,0-4,3.5-8.5,3.1c-1.3-0.1-2-0.5-2.5-0.9c0.4-0.1,0.8-0.2,1.2-0.4c1-0.3,2-0.5,3-1
			c0.7-0.4,1.5-0.8,2.2-1.1c1.4-0.6,2.8-1.6,3.7-2.9c0.5-0.7,1-1.4,1.5-2.2c0.1-0.2,0.4-0.7,0.6-0.7c0.2,0.5,0.2,1.1,0.3,1.6
			c0.3-0.1,0.6-0.6,0.7-0.7c0.3-0.2,0.5-0.5,0.6-0.8c0.4-0.7,0.8-1.4,1.4-2.1c0.5-0.6,0.9-1.2,1.3-1.8c1.1-1.6,2.2-3.3,3-5.1
			c0.2-0.5,0.3-1.2,0.6-1.6c0-0.1,0.1-0.2,0.2-0.2c0.1,0.2,0.3,0.4,0.3,0.6c0.1,0.2,0.1,0.5,0.2,0.8c0.1-0.1,0.1-0.2,0.2-0.3
			c0.3-0.5,0.5-1,0.7-1.6c0.3-1.1,0.6-2.2,0.9-3.3c0.2-0.7,0.5-1.5,0.7-2.2c0.6-1.9,1.4-3.8,1.6-5.8c0.1-0.7,0-1.3,0-2
			c0-0.1,0-0.2,0-0.3c0.6,0.4,0.8,1.1,1.2,1.7c0-1-0.1-2-0.1-3.1c0-2,0.1-4,0.1-6.1c0-2.1-0.4-4.2-1-6.3c-0.1-0.3-0.2-0.7-0.3-1
			c2,1.3,3.9,3.5,5,6.8c3.4,9.7-0.6,19.9-0.6,19.9c-0.6-1.6-1-2.3-1-2.3c-0.5,14.2-9.8,18.8-9.8,18.8c0.4-1.7,0.6-2.8,0.6-2.8
			c-3.7,7.1-9.3,6.8-9.3,6.8C131.1,138.3,130.9,138.2,130.9,138.2z"/>
		<path class="st0" d="M142,97.1c0.1-0.4,0.7-0.4,0.9,0c0.1,0.5,0,1.1-0.1,1.6c-0.1,0.4-0.7,0.3-0.7,0C142,98.1,141.9,97.6,142,97.1
			z"/>
		<path class="st0" d="M137.4,104c0.2-0.5,0.9,0,0.7,0.4c-0.2,0.3-0.3,0.6-0.4,0.9c-0.1,0.3-0.7,0.3-0.6-0.1
			C137.1,104.8,137.2,104.4,137.4,104z"/>
		<path class="st0" d="M137.2,113.8c0.1-0.4,0.2-0.8,0.5-1.1c0.3-0.5,1.1,0,0.8,0.5c-0.2,0.3-0.4,0.6-0.6,0.9
			C137.6,114.5,137.1,114.2,137.2,113.8z"/>
		<path class="st0" d="M127.8,123.8c0.2-0.4,0.5-0.7,0.7-1c0.3-0.4,0.9,0,0.7,0.4c-0.2,0.4-0.5,0.8-0.9,1.1
			C127.9,124.5,127.6,124.1,127.8,123.8z"/>
		<path class="st0" d="M127,132.9c0.4-0.4,0.9-0.8,1.3-1.1c0.4-0.3,0.8,0.2,0.5,0.5c-0.5,0.4-0.9,0.9-1.6,1.1
			C127,133.5,126.9,133.1,127,132.9z"/>
		<path class="st0" d="M119.6,132.7c0.1-0.1,0.3-0.2,0.4-0.3c0.4-0.4,1,0.3,0.5,0.6c-0.2,0.1-0.4,0.2-0.7,0.2
			C119.5,133.2,119.4,132.8,119.6,132.7z"/>
		<path class="st16" d="M148.4,102.1c0.2-0.5,0.9-0.3,0.7,0.2c0,0.2,0,0.4-0.1,0.5c0,0.2,0,0.3,0,0.5c0,0.3-0.4,0.5-0.5,0.2
			c-0.1-0.2-0.2-0.4-0.2-0.7C148.2,102.7,148.3,102.4,148.4,102.1z"/>
		<path class="st16" d="M144.8,114c0.1-0.5,0.9-0.4,0.8,0.1c-0.1,0.4-0.1,0.7-0.3,1.1c-0.1,0.3-0.6,0.2-0.7-0.1
			C144.7,114.7,144.8,114.4,144.8,114z"/>
		<path class="st16" d="M144.1,123c0.2-0.4,1-0.1,0.8,0.3c-0.2,0.4-0.3,0.8-0.5,1.2c-0.2,0.3-0.6,0.2-0.6-0.2
			C143.8,123.8,143.9,123.4,144.1,123z"/>
		<path class="st16" d="M137.4,129.7c0.1-0.4,0.4-0.8,0.6-1.2c0.1-0.2,0.4-0.3,0.6-0.2c0.2,0.1,0.3,0.4,0.2,0.6
			c-0.2,0.4-0.4,0.8-0.8,1.1C137.7,130.2,137.3,130,137.4,129.7z"/>
		<path class="st16" d="M132,138.1c0.2-0.6,0.5-1,0.9-1.5c0.2-0.2,0.5-0.2,0.6,0c0.2,0.2,0.1,0.4,0,0.6c-0.3,0.4-0.6,0.8-1,1.2
			C132.3,138.7,131.9,138.4,132,138.1z"/>
		<path class="st15" d="M121.1,123.7c0.7-0.5,1.5-0.6,2.2-1c0.3-0.2,0.6,0.3,0.3,0.5c-0.7,0.4-1.5,0.7-2.3,1
			C121,124.2,120.9,123.8,121.1,123.7z"/>
		<path class="st15" d="M120.4,125.4c0.3-0.2,0.6-0.3,0.9-0.3c0.4-0.1,0.6,0.5,0.2,0.6c-0.3,0.1-0.6,0.1-1,0.2
			C120.3,125.9,120.2,125.5,120.4,125.4z"/>
		<path class="st15" d="M118,125.7c0.1-0.2,0.3-0.3,0.5-0.4c0.4-0.2,0.8,0.4,0.4,0.6c-0.2,0.1-0.3,0.2-0.5,0.2
			C118.1,126.2,117.9,125.9,118,125.7z"/>
		<path class="st15" d="M129,115.8c0.2-0.3,0.5-0.6,0.8-0.8c0.3-0.3,0.7,0.1,0.4,0.4c-0.3,0.3-0.5,0.5-0.8,0.8
			C129.1,116.3,128.8,116,129,115.8z"/>
	</g>
	<g>
		<path class="st16" d="M6.6,165.4c0,0,0.5,5.3,1.8,7.3c0,0,0.5-1.7,1-2.6c0,0,2.7,11.1,6.1,14.1c0,0,0.8-0.7,1-2
			c0,0,5,8.6,12.4,12.1c0,0-0.2-0.7,0-2.2c0,0,10.6,5.1,18.9,5.8c8.3,0.7,8.3-3.5,5.1-5.5c0,0,9.8-0.3,5-7c0,0,6.6-2.2,2.2-6.5
			c-4.5-4.3-14.1-5.5-19-8.1c0,0,2.8-0.3,4-0.5c0,0-8-2.3-14.7-8.6c0,0,2,0,3.3,0c0,0-2.7-1.5-6.6-4.8C23,153.7,5.5,146.9,6.6,165.4
			z"/>
		<path class="st0" d="M47.9,197.9c2.9,0.2,4.8-0.1,5.9-0.8c-0.2,0-0.3,0-0.5-0.1c-1.4-0.2-2.8-0.3-4.1-0.9
			c-1.3-0.5-2.7-1.3-3.9-2.1c-1.4-0.9-2.6-1.9-4-2.7c-0.9-0.5-1.8-1.1-2.7-1.7c-0.5-0.3-1.1-0.6-1.6-0.8c-0.6-0.2-1.1-0.6-1.6-1
			c-1.2-0.8-2.2-1.8-3.2-2.8c-0.3-0.3-0.6-0.6-1-0.9c0-0.1-0.1-0.2-0.3-0.3c-0.2,0.4-0.4,0.8-0.5,1.3c-0.1,0.4-0.1,0.8-0.2,1.1
			c-0.2,0-0.4-0.1-0.6-0.3c-0.5-0.5-1-0.9-1.6-1.4c-1.1-0.9-2.3-1.6-3.4-2.6c-0.8-0.8-1.7-1.7-2.5-2.6c-0.9-0.9-1.7-1.8-2.4-2.8
			c-0.6-0.7-1-1.6-1.6-2.3c-0.3,0.1-0.6,1-0.6,1.3c-0.1,0.3-0.1,0.7-0.2,1c-0.5,0.1-0.9-0.7-1.2-1c-1-1.5-1.9-3-2.8-4.6
			c-1-1.9-1.8-3.9-2.4-6c-0.1-0.5,0-1.1-0.2-1.6c-0.3,0.2-0.6,0.7-0.8,1.1c-0.1,0.2-0.4,0.7-0.6,0.8c-1.6-1.6-1.5-4.5-1.5-6.6
			c0-0.4,0-0.9,0-1.4c-0.9,1.9-1.3,4.5-1.1,8c0,0,0.5,5.3,1.8,7.3c0,0,0.5-1.7,1-2.6c0,0,2.7,11.1,6.1,14.1c0,0,0.8-0.7,1-2
			c0,0,5,8.6,12.4,12.1c0,0-0.2-0.7,0-2.2C29,192.1,39.6,197.2,47.9,197.9z"/>
		<path class="st0" d="M10.6,158.5c-0.1-0.4-0.7-0.4-0.8,0c-0.1,0.7-0.2,1.5,0,2.2c0.1,0.4,0.7,0.4,0.8,0
			C10.8,160.1,10.8,159.2,10.6,158.5z"/>
		<path class="st0" d="M20.6,160.2c-0.2-0.6-0.6-1.2-0.8-1.8c-0.2-0.5-0.9-0.3-0.8,0.2c0.2,0.7,0.5,1.3,0.9,1.9
			C20.1,160.8,20.8,160.7,20.6,160.2z"/>
		<path class="st0" d="M21.4,170.1c-0.5-0.7-1-1.4-1.6-2c-0.4-0.4-1.1,0.2-0.7,0.7c0.3,0.3,0.5,0.6,0.8,0.9c0.3,0.3,0.6,0.6,1,0.9
			C21.2,170.8,21.6,170.4,21.4,170.1z"/>
		<path class="st0" d="M30.2,170.2c-0.4-0.7-0.9-1.3-1.5-2c-0.4-0.5-1.1,0.2-0.7,0.7c0.5,0.6,1,1.2,1.5,1.8
			C29.8,171,30.4,170.6,30.2,170.2z"/>
		<path class="st0" d="M32.1,180.2c-0.4-0.8-1.1-1.2-1.9-1.5c-0.4-0.2-0.7,0.6-0.3,0.7c0.6,0.3,1.2,0.7,1.6,1.2
			C31.8,180.9,32.3,180.5,32.1,180.2z"/>
		<path class="st0" d="M43.6,178.3c-0.6-0.8-1.5-1.4-2.2-2.1c-0.4-0.5-1.1,0.2-0.7,0.7c0.7,0.7,1.4,1.3,2.2,1.9
			C43.3,179.1,43.9,178.7,43.6,178.3z"/>
		<path class="st0" d="M47.5,188.7c-0.4-0.5-1.1-0.8-1.6-1.2c-0.4-0.3-0.9,0.2-0.6,0.6c0.5,0.5,1.1,0.9,1.8,1.2
			C47.4,189.5,47.7,189,47.5,188.7z"/>
		<path class="st0" d="M55.7,187c-0.5-0.3-0.9-0.5-1.4-0.7c-0.5-0.3-1,0.5-0.5,0.8c0.5,0.3,1.1,0.5,1.6,0.6
			C55.8,187.7,56,187.2,55.7,187z"/>
		<path class="st16" d="M13.7,174.8c-0.1-0.5-0.2-0.9-0.3-1.4c0-0.5-0.6-0.4-0.7,0c-0.1,0.6,0,1.2,0.5,1.7
			C13.4,175.3,13.8,175.1,13.7,174.8z"/>
		<path class="st16" d="M23.5,183.7c-0.5-0.6-1-1.1-1.4-1.8c-0.3-0.5-1,0-0.7,0.4c0.4,0.8,0.9,1.4,1.7,1.9
			C23.4,184.6,23.7,184,23.5,183.7z"/>
		<path class="st16" d="M39.1,191.8c-0.6-0.3-1.2-0.5-1.8-0.9c-0.5-0.3-0.9,0.4-0.4,0.8c0.6,0.4,1.3,0.9,2,0.9
			C39.3,192.5,39.5,191.9,39.1,191.8z"/>
		<path class="st15" d="M52.7,176.6c-1-0.4-2.4-0.6-3.5-0.6c-0.4,0-0.5,0.6-0.1,0.7c0.5,0.1,1.1,0.1,1.7,0.2
			c0.6,0.1,1.2,0.3,1.8,0.3C52.8,177.2,53,176.7,52.7,176.6z"/>
		<path class="st15" d="M54.5,177.9c-0.5-0.3-1-0.5-1.5-0.6c-0.5-0.1-0.7,0.6-0.2,0.7c0.5,0.1,1,0.3,1.5,0.4
			C54.6,178.6,54.7,178.1,54.5,177.9z"/>
		<path class="st15" d="M58.4,179.9c-0.2-0.4-0.5-0.6-0.8-0.9c-0.3-0.3-0.9,0.2-0.5,0.5c0.3,0.3,0.6,0.6,0.9,0.8
			C58.2,180.5,58.6,180.1,58.4,179.9z"/>
		<path class="st15" d="M37,168.2c-0.4-0.3-0.9-0.5-1.4-0.8c-0.5-0.2-0.8,0.4-0.4,0.7c0.5,0.2,0.9,0.5,1.4,0.6
			C37,168.8,37.3,168.4,37,168.2z"/>
		<path class="st15" d="M38.4,169c0,0-0.1,0-0.1-0.1c-0.3-0.1-0.6,0-0.6,0.4c0,0.3,0.3,0.5,0.6,0.4c0,0,0.1,0,0.1-0.1
			C38.7,169.5,38.7,169.1,38.4,169z"/>
		<path class="st15" d="M27.7,158.8c-0.2-0.2-0.5-0.4-0.7-0.6c-0.3-0.2-0.7-0.3-1-0.4c-0.4-0.1-0.7,0.5-0.3,0.7
			c0.3,0.1,0.6,0.3,0.9,0.4c0.3,0.1,0.6,0.2,0.9,0.4C27.7,159.3,27.9,159,27.7,158.8z"/>
	</g>
	<g>
		<path class="st16" d="M153.3,164.6c0,0-0.1,5.3-1.3,7.4c0,0-0.6-1.6-1.2-2.6c0,0-1.9,11.3-5.2,14.5c0,0-0.9-0.6-1.1-1.9
			c0,0-4.4,8.9-11.6,12.9c0,0,0.1-0.7-0.1-2.1c0,0-10.2,5.8-18.4,7.1c-8.2,1.2-8.5-2.9-5.5-5.1c0,0-9.8,0.3-5.4-6.6
			c0,0-6.8-1.7-2.6-6.3c4.2-4.6,13.7-6.4,18.5-9.4c0,0-2.8-0.1-4-0.2c0,0,7.8-2.9,14.1-9.6c0,0-2,0.1-3.3,0.2c0,0,2.5-1.7,6.3-5.2
			S153.2,146,153.3,164.6z"/>
		<path class="st0" d="M114.3,199.8c-2.9,0.4-4.8,0.2-5.9-0.4c0.2,0,0.3-0.1,0.5-0.1c1.4-0.3,2.7-0.5,4-1.1c1.3-0.6,2.6-1.5,3.7-2.3
			c1.3-1,2.5-2.1,3.8-3c0.9-0.6,1.7-1.2,2.6-1.8c0.5-0.4,1-0.7,1.6-0.9c0.6-0.3,1-0.6,1.6-1.1c1.1-0.9,2.1-2,3-3.1
			c0.3-0.3,0.6-0.6,0.9-1c0-0.2,0.1-0.2,0.3-0.3c0.3,0.4,0.5,0.8,0.6,1.2c0.1,0.4,0.1,0.8,0.3,1.1c0.2,0,0.4-0.1,0.6-0.3
			c0.5-0.5,1-1,1.5-1.5c1.1-1,2.2-1.8,3.2-2.8c0.8-0.9,1.6-1.8,2.3-2.7c0.8-0.9,1.5-1.9,2.2-2.9c0.5-0.8,0.9-1.6,1.4-2.4
			c0.3,0.1,0.6,1,0.7,1.3c0.1,0.3,0.1,0.7,0.3,1c0.5,0,0.9-0.8,1.1-1.1c0.9-1.6,1.7-3.2,2.5-4.8c0.9-2,1.5-4,1.9-6.1
			c0.1-0.6,0-1.1,0.1-1.7c0.3,0.2,0.6,0.7,0.9,1c0.2,0.2,0.4,0.7,0.7,0.8c1.5-1.7,1.2-4.6,1.1-6.7c0-0.4,0-0.9-0.1-1.4
			c1,1.8,1.6,4.4,1.7,7.9c0,0-0.1,5.3-1.3,7.4c0,0-0.6-1.6-1.2-2.6c0,0-1.9,11.3-5.2,14.5c0,0-0.9-0.6-1.1-1.9
			c0,0-4.4,8.9-11.6,12.9c0,0,0.1-0.7-0.1-2.1C132.8,192.7,122.6,198.6,114.3,199.8z"/>
		<path class="st0" d="M148.8,158c0-0.4,0.7-0.4,0.8-0.1c0.2,0.7,0.3,1.5,0.2,2.2c-0.1,0.4-0.7,0.4-0.8,0.1
			C148.8,159.5,148.7,158.7,148.8,158z"/>
		<path class="st0" d="M139,160.3c0.2-0.6,0.5-1.2,0.7-1.9c0.1-0.5,0.9-0.4,0.8,0.2c-0.1,0.7-0.4,1.4-0.8,2
			C139.5,160.9,138.9,160.8,139,160.3z"/>
		<path class="st0" d="M138.9,170.2c0.4-0.8,0.9-1.4,1.5-2.1c0.4-0.5,1.1,0.2,0.7,0.6c-0.3,0.3-0.5,0.6-0.7,1
			c-0.3,0.4-0.6,0.7-0.9,0.9C139.2,170.9,138.7,170.5,138.9,170.2z"/>
		<path class="st0" d="M130.1,171c0.4-0.8,0.8-1.4,1.4-2.1c0.4-0.5,1.1,0.1,0.7,0.6c-0.5,0.6-0.9,1.3-1.4,1.9
			C130.5,171.7,130,171.3,130.1,171z"/>
		<path class="st0" d="M128.9,181c0.3-0.8,1-1.3,1.7-1.7c0.4-0.2,0.8,0.5,0.4,0.7c-0.6,0.3-1.1,0.8-1.5,1.3
			C129.2,181.7,128.7,181.4,128.9,181z"/>
		<path class="st0" d="M117.3,179.9c0.6-0.9,1.4-1.5,2-2.3c0.4-0.5,1.1,0.1,0.7,0.6c-0.6,0.8-1.3,1.4-2.1,2.1
			C117.7,180.7,117,180.4,117.3,179.9z"/>
		<path class="st0" d="M114.1,190.6c0.4-0.6,1-0.8,1.5-1.3c0.4-0.3,1,0.2,0.6,0.5c-0.5,0.5-1.1,0.9-1.7,1.3
			C114.2,191.3,113.9,190.9,114.1,190.6z"/>
		<path class="st0" d="M105.8,189.4c0.4-0.3,0.9-0.6,1.4-0.8c0.5-0.3,1,0.5,0.5,0.8c-0.5,0.3-1,0.6-1.6,0.7
			C105.7,190.2,105.5,189.7,105.8,189.4z"/>
		<path class="st16" d="M146.9,174.4c0.1-0.5,0.2-0.9,0.2-1.4c0-0.5,0.6-0.5,0.7,0c0.1,0.6,0,1.2-0.4,1.7
			C147.2,174.9,146.8,174.7,146.9,174.4z"/>
		<path class="st16" d="M137.7,184c0.4-0.6,0.9-1.2,1.3-1.9c0.3-0.5,1-0.1,0.8,0.4c-0.4,0.8-0.8,1.5-1.5,2
			C137.9,184.8,137.5,184.3,137.7,184z"/>
		<path class="st16" d="M122.6,193.1c0.6-0.3,1.2-0.6,1.7-1c0.5-0.3,0.9,0.4,0.5,0.7c-0.6,0.5-1.2,1-2,1
			C122.5,193.8,122.3,193.3,122.6,193.1z"/>
		<path class="st15" d="M108.1,178.8c1-0.5,2.3-0.8,3.4-0.8c0.4,0,0.6,0.6,0.1,0.7c-0.5,0.1-1.1,0.2-1.6,0.3
			c-0.6,0.2-1.1,0.4-1.7,0.4C108,179.5,107.8,179,108.1,178.8z"/>
		<path class="st15" d="M106.4,180.3c0.5-0.4,0.9-0.6,1.5-0.7c0.4-0.1,0.7,0.6,0.2,0.7c-0.5,0.1-1,0.3-1.5,0.5
			C106.3,181,106.1,180.5,106.4,180.3z"/>
		<path class="st15" d="M102.6,182.5c0.2-0.4,0.5-0.7,0.8-1c0.3-0.4,0.9,0.1,0.6,0.5c-0.3,0.3-0.5,0.7-0.9,0.9
			C102.8,183.1,102.5,182.8,102.6,182.5z"/>
		<path class="st15" d="M123.2,169.4c0.4-0.4,0.8-0.6,1.3-0.9c0.4-0.3,0.9,0.4,0.4,0.6c-0.5,0.3-0.9,0.6-1.4,0.7
			C123.2,170,122.9,169.6,123.2,169.4z"/>
		<path class="st15" d="M121.8,170.3c0,0,0.1,0,0.1-0.1c0.3-0.1,0.6,0,0.6,0.3c0,0.3-0.3,0.5-0.6,0.4c0,0-0.1,0-0.1,0
			C121.6,170.8,121.6,170.4,121.8,170.3z"/>
		<path class="st15" d="M131.8,159.4c0.2-0.2,0.4-0.5,0.7-0.6c0.3-0.2,0.6-0.3,1-0.5c0.4-0.2,0.7,0.5,0.3,0.6
			c-0.3,0.1-0.6,0.3-0.9,0.5c-0.3,0.2-0.6,0.3-0.8,0.4C131.9,159.9,131.6,159.6,131.8,159.4z"/>
	</g>
	<path class="st0" d="M43.7,54.9c-8.2,3.8-16.2,30.4,34.5,29.5c50.7-1,44.6-20.5,40.9-26c-3.7-5.5-26-0.2-42.2-0.2
		C60.7,58.2,53.1,50.5,43.7,54.9z"/>
	<path class="st9" d="M45.4,56.6C37.6,59.9,30,82.9,78.2,82.1c48.2-0.8,42.4-17.7,38.9-22.5c-3.5-4.8-24.7-0.2-40.1-0.2
		C61.7,59.4,54.4,52.8,45.4,56.6z"/>
	<path class="st13" d="M81.9,61.8c-1.8,1.6,0.7,6.7,2.8,7.7c2.1,1,6.4,0.5,7.9-0.7c1.5-1.2,2.8-6.4,0.5-7.2
		C90.8,60.7,83.9,60,81.9,61.8z"/>
	<path class="st13" d="M80.8,79.2c0.3-2.1,0.7-7.6-1.2-8.4c-1.9-0.8-10.1-1.1-11.8,0c-1.7,1.1-3.6,6.9-1.9,8.4
		C67.6,80.8,80.5,81.6,80.8,79.2z"/>
	<path class="st13" d="M63.5,70.5c-1.4-1.6-7-2.5-8.7-0.1s-1.2,6-0.5,7c0.7,1,7.3,2.6,8.2,1.4C63.4,77.5,64.8,72.1,63.5,70.5z"/>
	<path class="st13" d="M65,60.6c-1-0.8-7-3-8.1-1.5c-1.2,1.5-0.7,6.4,0.2,7.3c0.9,0.9,5,2.4,6.8,0.8C65.6,65.5,66.3,61.6,65,60.6z"
		/>
	<path class="st13" d="M53.3,58.3c-1.3-1.4-5.2-1.9-6.8,0.1c-1.6,2-3.1,3.4-1.5,5.2s7.6,3.6,8.3,2.7C54,65.5,54.7,59.8,53.3,58.3z"
		/>
	<path class="st13" d="M96.6,61.3c-0.3,0.9-0.7,7.1,1.1,7.7s8.8-0.1,10.1-1.9c1.2-1.7,0-5.8-1.5-6.7C104.8,59.6,97.1,59.9,96.6,61.3
		z"/>
	<path class="st13" d="M84,71.9c-0.7,1.6-1,6.3,0,7.3c1,1,8.9,0.7,9.9-1.1s0.1-6.3-0.9-7C92.1,70.6,84.8,70.3,84,71.9z"/>
	<path class="st13" d="M109.3,68.6c-0.7,1.2,0.6,5,2.2,5c1.6,0,5.6-2.9,5.7-4.8C117.4,66.8,109.8,67.8,109.3,68.6z"/>
	<path class="st13" d="M109.6,60.8c-0.6,0.6,0.1,4.3,1.1,5.1c1,0.7,4.2,0.4,5.5-0.2c1.2-0.6-0.4-4-1.4-5
		C113.8,59.7,110.3,60.1,109.6,60.8z"/>
	<path class="st17" d="M93.1,61.6c-2.3-0.9-9.2-1.5-11.2,0.2c-1.8,1.6,0.7,6.7,2.8,7.7c0,0,0.1,0,0.1,0c-0.5-0.5-0.9-1-1.2-1.7
		c-0.4-0.9-0.8-1.8-0.8-2.8c0-0.2,0-0.5,0-0.7c0-0.2,0-0.4,0.1-0.6c0.4-0.6,0.7,0.1,1,0.3c0.2,0.1,0.2,0.1,0.4-0.1
		c0.2-0.2,0.3-0.4,0.5-0.5c0.2-0.1,0.4-0.1,0.6-0.1c0.3,0.1,0.3,0.1,0.6,0c0.4-0.2,0.7-0.4,1.1-0.6c0.2-0.1,0.4-0.1,0.6-0.2
		c0.3-0.1,0.6-0.1,0.8-0.1c0.5,0,0.6,0.4,0.9,0.8c0.3,0.5,0.7,0.1,1.1-0.1c0.5-0.3,1.1-0.2,1.6,0.1c0.6,0.3,1,1.1,1.2,1.7
		c0.2,0.5,0.2,0.9,0.2,1.5c0,0.8-0.4,1.4-0.6,2.2C94.3,67.1,95.4,62.4,93.1,61.6z"/>
	<path class="st17" d="M106.3,60.4c-1.5-0.9-9.2-0.5-9.7,0.9c-0.1,0.3-0.2,1.3-0.3,2.4c0.2-0.6,0.6-1.2,1.1-1.6
		c0.2-0.1,0.5-0.3,0.7-0.1c0.2,0.2,0.4,0.7,0.5,1c0.1,0.2,0.2,0.6,0.4,0.7c0.3,0.1,0.6-0.3,0.7-0.6c0.2-0.3,0.5-0.9,0.9-1
		c0.1,0,0.3,0,0.4,0c0.3-0.1,0.6-0.4,0.9-0.5c0.2-0.1,0.4-0.2,0.6-0.2c0.4-0.1,0.5,0.1,0.7,0.4c0.1,0.1,0.3,0.2,0.4,0.4
		c0.1,0.2,0.3,0.4,0.5,0.3c0.4-0.1,0.7-0.7,1.1-0.8c0.6-0.2,1.1,0.3,1.4,0.8c0.2,0.3,0.4,0.6,0.6,0.9c0.3,0.4,0.5,0.8,0.7,1.2
		c0.1,0.2,0.2,0.4,0.3,0.6C108.3,63.2,107.4,61,106.3,60.4z"/>
	<path class="st17" d="M114.8,60.7c-1-1-4.5-0.6-5.2,0.1c-0.2,0.2-0.3,0.9-0.2,1.8c0-0.2,0.1-0.4,0.2-0.6c0.1-0.3,0.5-0.5,0.8-0.7
		s0.8-0.2,1.1-0.2c0.4,0,0.8,0.5,1.2,0.4c0.3-0.1,0.5-0.2,0.9-0.2c0.8-0.1,1.4,0.9,1.5,1.6c0.2,0.8,0.1,1.7,0.1,2.6
		c0,0.2,0,0.3,0,0.5c0.4-0.1,0.7-0.2,0.9-0.3C117.4,65,115.8,61.7,114.8,60.7z"/>
	<path class="st17" d="M117.3,68.8c0-0.5-0.5-0.9-1.3-1c0,0,0,0.1,0,0.1c0,0.1,0,0.2,0.1,0.3c0.1,0.5-0.2,0.8-0.3,1.2
		c-0.1,0.3-0.1,0.7-0.4,0.8c-0.1,0-0.2,0-0.3,0c-0.1,0-0.3,0.2-0.4,0.2c-0.3,0.2-0.5,0.3-0.8,0.2c-0.3,0-0.4-0.1-0.6,0.1
		c-0.1,0.1-0.2,0.3-0.3,0.4c-0.1,0.1-0.3,0.3-0.4,0.5c-0.2,0.2-0.3,0.4-0.5,0.4c-0.3,0-0.6,0-0.9,0c-0.5,0-0.9-0.3-1.3-0.7
		c-0.2-0.2-0.3-0.5-0.5-0.7c-0.1-0.2-0.2-0.4-0.3-0.6c0.2,1.6,1.2,3.6,2.4,3.6C113.2,73.6,117.1,70.7,117.3,68.8z"/>
	<path class="st17" d="M94,78.2c0.6-1.1,0.5-3.1,0.2-4.7c0,0.1,0,0.2,0,0.4c-0.1,0.7-0.2,1.5-0.2,2.2c0,0.3-0.2,0.5-0.4,0.7
		c-0.2,0.2-0.4,0.1-0.6,0.1c-0.3,0-0.3,0.1-0.5,0.4c-0.2,0.2-0.6,0.6-0.9,0.6c-0.4,0.1-0.7,0-1-0.2c-0.3-0.1-0.5-0.5-0.7-0.8
		c-0.2-0.3-0.3-0.5-0.5-0.8c-0.1,0.2-0.2,0.5-0.3,0.7c-0.1,0.2-0.2,0.5-0.4,0.6c-0.2,0.1-0.4,0.2-0.6,0.1c-0.1,0-0.3-0.3-0.5-0.3
		c-0.3,0-0.3,0.4-0.6,0.5c-0.2,0-0.4-0.1-0.6-0.1c-0.2-0.1-0.4-0.2-0.6-0.1c-0.1,0-0.2,0.1-0.3,0.2c-0.1,0.1-0.3,0.2-0.4,0.2
		c-0.1,0-0.2-0.1-0.2-0.2c-0.3-0.2-0.5-0.2-0.6-0.5c-0.2-0.4-0.3-0.7-0.4-1.1c-0.2-0.7-0.4-1.3-0.5-2c-0.3,2-0.2,4.5,0.5,5.2
		C85,80.3,93,80,94,78.2z"/>
	<path class="st17" d="M80.8,79.2c0-0.4,0.1-0.8,0.1-1.3c-0.1,0.2-0.2,0.3-0.3,0.5c-0.1,0.2-0.2,0.5-0.4,0.8
		c-0.2,0.2-0.6,0.4-0.9,0.3c-0.2,0-0.4-0.2-0.6-0.2c-0.2,0-0.3,0.1-0.4,0.2c-0.3,0.2-0.5,0.3-0.9,0.2c-0.4,0-0.8,0-1.2-0.2
		c-0.4-0.2-0.7-0.7-0.9-1.1c-0.1-0.2-0.3-0.8-0.6-0.8c-0.3,0-0.5,0.4-0.7,0.7c-0.3,0.5-1.1,0.9-1.8,0.7c-0.3-0.1-0.5-0.3-0.8-0.4
		c-0.3-0.1-0.7,0-1,0c-0.2,0-0.4,0-0.6-0.1c-0.2-0.1-0.4-0.4-0.5-0.6c-0.1-0.2-0.2-0.3-0.4-0.2c-0.1,0-0.3,0.3-0.4,0.4
		c-0.3,0.3-0.8,0.9-1.3,0.7c-0.4-0.2-0.9-0.6-1.1-1c-0.4-1-0.1-2.3,0-3.3c0.1-0.6,0.1-1.2,0.2-1.7c-1,2.2-1.5,5.2-0.3,6.2
		C67.6,80.8,80.5,81.6,80.8,79.2z"/>
	<path class="st17" d="M65,60.6c-1-0.8-7-3-8.1-1.5c-0.7,0.9-0.8,3-0.6,4.8c0.1-0.6,0.3-1.2,0.4-1.7c0.2-0.8,0.5-2,1.5-2.1
		c0.6-0.1,1,0.3,1.5,0.7c0.2,0.2,0.3,0,0.6,0c0.2,0,0.4,0,0.5,0c0.3,0,0.7,0,1,0c0.6,0.1,1,0.3,1.5,0.7c0.3,0.3,0.8,0.5,1.2,0.6
		c0.4,0.1,0.9,0.1,1.1,0.4c0,0,0,0.1,0.1,0.1C65.6,61.7,65.4,61,65,60.6z"/>
	<path class="st17" d="M62.8,76.7c-0.4,0-0.5-0.5-0.8-0.1c-0.2,0.3-0.6,0.5-1,0.7c-0.4,0.2-0.6,0.2-1,0.2c-0.2,0-0.4,0.1-0.6,0
		c-0.4-0.1-0.4-0.7-0.9-0.8c-0.3,0-0.5,0.1-0.8,0.2c-0.3,0.1-0.6,0.2-0.9,0.2c-0.2,0-0.4-0.1-0.6-0.2c-0.2-0.1-0.4-0.1-0.6-0.3
		c-0.1-0.1-0.3-0.3-0.4-0.5c-0.1-0.2,0-0.4-0.1-0.7c-0.1-0.5-0.5-0.3-0.7-0.7c-0.3-0.6-0.5-1.2-0.5-1.9c0-0.2,0-0.4,0-0.5
		c-0.6,2.1-0.2,4.5,0.4,5.2c0.7,1,7.3,2.6,8.2,1.4c0.3-0.4,0.7-1.4,1-2.5C63.3,76.4,63.1,76.7,62.8,76.7z"/>
	<path class="st17" d="M53.3,58.3c-1.3-1.4-5.2-1.9-6.8,0.1c-1.3,1.6-2.5,2.8-2.1,4.2c0,0,0,0,0,0c0.2-0.3,0.4-0.7,0.7-1
		c0.2-0.2,0.2-0.2,0.4-0.3c0.1-0.1,0.3-0.2,0.4-0.3c0.2-0.1,0.2,0,0.4-0.1c0.2-0.1,0.4-0.4,0.6-0.6c0.2-0.3,0.3-0.7,0.6-0.9
		c0.2-0.2,0.5-0.3,0.7-0.5c0.1-0.1,0.3-0.2,0.4-0.3c0.3-0.1,0.9,0,1.2,0.2c0.2,0.1,0.3,0.3,0.4,0.4c0,0.1,0.1,0.1,0.1,0.2
		c0.1,0.1,0.3-0.1,0.5-0.2c0.4-0.2,0.9-0.1,1.3-0.1c0.4,0,0.8,0.3,1,0.6c0.2,0.2,0.3,0.5,0.5,0.8c0.2,0.3,0.3,0.5,0.5,0.8
		c0,0,0,0,0,0C54.1,60.1,53.8,58.9,53.3,58.3z"/>
	<path class="st0" d="M132.4,54.5c-0.6-0.9-1.7-1.5-2.9-1.7c-0.8-0.1-1.5-0.1-2.3-0.1c-0.7,0-1.4,0.1-2.1,0.3
		c-0.8,0.3-1.6,1.1-1.8,1.9c-0.2,0.9,0.3,1.9,1.1,2.5c0.7,0.6,1.7,0.9,2.6,1.1c0.8,0.2,1.6,0.2,2.4,0.2c0.8-0.1,1.4-0.4,2.2-0.6
		c1.3-0.4,1.4-2.3,0.9-3.3C132.5,54.7,132.5,54.6,132.4,54.5z"/>
	<path class="st4" d="M132.3,53.6c-0.6-0.9-1.7-1.5-2.9-1.7c-0.7-0.1-1.5-0.1-2.3-0.1c-0.7,0-1.4,0.1-2.1,0.3
		c-0.8,0.3-1.6,1.1-1.8,1.9c-0.2,0.9,0.3,1.9,1.1,2.5c0.7,0.6,1.7,0.9,2.6,1.1c0.8,0.2,1.6,0.2,2.4,0.2c0.8-0.1,1.4-0.4,2.2-0.6
		c1.3-0.4,1.4-2.3,0.9-3.3C132.5,53.8,132.4,53.7,132.3,53.6z"/>
	<path class="st0" d="M38.3,53.9c-0.8-0.8-2-1.1-3.1-1.1c-0.8,0-1.5,0.2-2.2,0.4c-0.7,0.2-1.4,0.3-2,0.7c-0.8,0.5-1.3,1.4-1.3,2.3
		c0,1,0.7,1.8,1.6,2.2c0.8,0.4,1.8,0.5,2.8,0.5c0.8,0,1.6-0.1,2.4-0.3c0.7-0.2,1.3-0.7,2-1c1.2-0.6,0.9-2.6,0.2-3.4
		C38.4,54,38.4,53.9,38.3,53.9z"/>
	<path class="st4" d="M38.1,52.9c-0.8-0.8-2-1.1-3.1-1.1c-0.8,0-1.5,0.2-2.2,0.4c-0.7,0.2-1.4,0.3-2,0.7c-0.8,0.5-1.3,1.4-1.3,2.3
		c0,1,0.7,1.8,1.6,2.2c0.8,0.4,1.8,0.5,2.8,0.5c0.8,0,1.6-0.1,2.4-0.3c0.7-0.2,1.3-0.7,2-1c1.2-0.6,0.9-2.6,0.2-3.4
		C38.3,53,38.2,52.9,38.1,52.9z"/>
	<path class="st14" d="M79.4,44.7c-3.4,1-4.7,8.1-3.4,10.2c1.4,2.1,8.4,1.6,9.8,0.4C87.2,54,85.6,43,79.4,44.7z"/>
	<path class="st8" d="M79.4,44c-3.4,1-4.7,8.1-3.4,10.2c1.4,2.1,8.4,1.6,9.8,0.4C87.2,53.4,85.6,42.3,79.4,44z"/>
	<path class="st5" d="M86.2,53.5C85,53.2,83.2,53,83,53c-2.5-0.1-4.8,0.3-7.2,0.8c-0.1-0.4-0.2-0.9-0.3-1.4
		c3.4-1.2,7.2-1.5,10.7-0.6C86.3,52.4,86.3,53,86.2,53.5z M76,48.2c1.7-0.3,3.3-0.6,5-0.5c0.9,0,1.7,0.1,2.6,0.3
		c0.4,0.1,0.7,0.2,1.1,0.3c1,0.3,0.9,0.7,0.9,0.4c0,0.2,0,0.3,0.2,0.4c-0.3-1-0.7-2-1.3-2.9c-0.8-0.2-1.6-0.2-2.3-0.3
		c-1.8-0.1-3.6,0-5.3,0.5C76.5,46.9,76.2,47.6,76,48.2z"/>
	<path class="st7" d="M78.9,47.2c0.2-0.9,0.6-1.9,1.2-2.7c0.2-0.3,0.4-0.5,0.6-0.6c-0.4,0-0.8,0.1-1.3,0.2c-3.4,1-4.7,8.1-3.4,10.2
		c0.7,1.1,2.9,1.5,5,1.4c-1-1.8-1.5-3.8-2-5.8C78.7,48.9,78.7,48.2,78.9,47.2z"/>
	<g>
		<path class="st2" d="M79.4,51.4c-1.3,0.2-2.6,0.5-3.9,0.9v0c0,0.1,0,0.3,0,0.4c0,0,0,0,0,0c0,0.1,0,0.2,0.1,0.3c0,0,0,0,0,0.1
			c0,0.1,0,0.2,0.1,0.3c0,0,0,0,0,0.1c0,0.1,0.1,0.2,0.1,0.3c1.4-0.3,2.7-0.5,4.1-0.7C79.7,52.5,79.6,52,79.4,51.4z"/>
		<path class="st2" d="M78.9,47.2c0.1-0.4,0.2-0.8,0.4-1.2c-0.8,0.1-1.7,0.2-2.5,0.4l0,0c-0.2,0.3-0.3,0.6-0.4,0.9c0,0,0,0,0,0
			c-0.1,0.3-0.2,0.6-0.3,0.9c0.9-0.2,1.8-0.3,2.8-0.4C78.8,47.6,78.9,47.4,78.9,47.2z"/>
	</g>
	<g>
		<path class="st7" d="M79.8,137.7c-0.1,0.2-0.2,0.5-0.3,0.7c-0.1,0.3-0.2,0.5-0.4,0.6c-0.3,0.4-0.6,0.8-0.9,1.1
			c-0.4,0.5-0.7,0.8-1,1c-0.1,0.1-0.2,0.2-0.3,0.4s-0.2,0.2-0.4,0.2c-0.1,0-0.1,0-0.2,0c-0.1,0-0.2-0.1-0.3-0.1
			c-0.1,0-0.2-0.1-0.2-0.2c0-0.4,0-0.9,0-1.3c0-0.5,0-1.2,0.1-2.2s0.1-1.7,0.1-2.2c0-0.6,0-1.2-0.1-1.8c0,0-0.1-0.1-0.3-0.3
			c-0.1-0.1-0.2-0.2-0.2-0.4c0,0,0-0.1,0-0.1c0-0.1,0.2-0.2,0.3-0.2c0.1,0,0.3,0,0.4,0c0.8,0.2,1.7,0.6,2.6,1.4
			c0.2,0.2,0.4,0.4,0.6,0.6c0.5,0.7,0.7,1.4,0.7,2C80,137.2,79.9,137.5,79.8,137.7z M78.7,136.1c-0.1-0.6-0.6-1.2-1.6-1.7
			c-0.1,1.7-0.1,3.4-0.1,5.3c1.1-1.1,1.7-2.2,1.7-3.2C78.7,136.4,78.7,136.3,78.7,136.1z"/>
		<path class="st7" d="M85.8,133.6c-0.4,0.1-0.9,0.3-1.6,0.5c-0.7,0.2-1.3,0.4-1.6,0.5c-0.1,0.3-0.2,0.8-0.2,1.7
			c0.2,0.1,0.3,0.1,0.6,0.1c0.1,0,0.4,0,0.7-0.1c0.3,0,0.6-0.1,0.7-0.1c0.3,0,0.5,0.1,0.7,0.2c0.1,0.2,0.2,0.3,0.2,0.4
			c0,0.1,0,0.1-0.1,0.2c0,0-0.1,0.1-0.2,0.2c-0.1,0.1-0.2,0.1-0.3,0.1c-0.2,0-0.6,0.1-1.1,0.1c-0.5,0-0.8,0.1-1.1,0.2
			c-0.2,0.7-0.3,1.3-0.3,1.7c0,0.3,0,0.5,0.1,0.7c0.5,0.3,1.3,0.5,2.4,0.4c0.1,0,0.2,0,0.3-0.1c0.1-0.1,0.2-0.1,0.2-0.1
			c0.3-0.1,0.5,0.1,0.6,0.6c0,0.2,0,0.3-0.1,0.4c-0.1,0.1-0.2,0.2-0.4,0.2c-1.2,0-2.2-0.1-3.1-0.3c-0.3-0.1-0.5-0.2-0.8-0.5
			c-0.2-0.2-0.4-0.5-0.4-0.8c-0.1-0.9-0.1-1.6,0-2.3c-0.3-0.2-0.4-0.4-0.4-0.6c0-0.1,0.1-0.2,0.2-0.2c0.1-0.1,0.2-0.2,0.2-0.2
			c0-0.1,0.1-0.6,0.1-1.4c-0.6-0.1-0.8-0.3-0.8-0.6c0-0.3,0.2-0.5,0.5-0.7c0.3-0.1,0.6-0.3,1-0.4c0.4-0.2,0.8-0.4,1.4-0.5
			c0.5-0.1,1-0.3,1.4-0.4c0,0,0.1,0,0.2,0c0.3,0,0.6,0.1,0.9,0.3c0,0,0,0.1,0.1,0.2c0,0.1,0.1,0.2,0.1,0.2
			C85.9,133.5,85.9,133.5,85.8,133.6z"/>
	</g>
	<g>
		<path class="st1" d="M71.6,110.9c-0.1,0.5-0.3,0.8-0.7,0.8c-0.9,0.2-2.4,0.5-4.5,0.8c-0.3,3.3-0.4,6-0.4,8.2c0,0.8,0,1.7,0,2.5
			c0,0.3,0,0.4,0,0.6c-0.1,0.2-0.2,0.3-0.4,0.3c-0.4,0-0.7-0.2-1-0.5c-0.3-0.3-0.4-0.7-0.4-1c0-0.5,0-1,0-1.5c0-0.9,0.1-2.3,0.2-4.2
			c0.1-1.8,0.2-3.2,0.2-4.2c-0.4,0-0.9,0-1.5,0.1c-0.7,0.1-1.2,0.2-1.5,0.2c-0.6,0-1.2-0.2-1.6-0.5c-0.2-0.3-0.2-0.5-0.2-0.5
			c0-0.1,0-0.2,0.1-0.3c0.4-0.1,1.3-0.3,2.6-0.4c1.2-0.1,2-0.3,2.6-0.6c0.5,0.2,1,0.2,1.6,0.2c0.6,0,1.2-0.1,1.7-0.2
			c0.2,0,0.6-0.1,1.2-0.3c0.5-0.1,0.9-0.2,1.2-0.1c0.2,0,0.3,0.1,0.3,0.3C71.5,110.5,71.6,110.6,71.6,110.9z"/>
		<path class="st1" d="M76.1,122.3c0.1,0.2,0.1,0.4,0.1,0.6c0,0.3-0.1,0.5-0.3,0.7c-0.2,0.2-0.4,0.3-0.5,0.3
			c-0.6-0.1-1.1-0.6-1.2-1.6c-0.2-1-0.4-1.8-0.7-2.5c-0.5,0-0.9,0.1-1.4,0.1c-0.5,0.1-0.9,0.2-1.2,0.5c-0.1,0.4-0.3,1.1-0.6,2.2
			c-0.2,1-0.4,1.7-0.7,2.2c-0.1,0.2-0.3,0.3-0.7,0.2c-0.4-0.1-0.7-0.3-0.7-0.6c0-0.5,0.1-1.2,0.4-2c0.4-1,0.6-1.7,0.7-2.1
			c0-0.1-0.1-0.3-0.3-0.4c-0.2-0.1-0.3-0.3-0.3-0.3c0-0.1,0-0.1,0.1-0.2s0.2-0.1,0.4-0.2c0.2,0,0.3-0.1,0.4-0.2
			c0.2-0.7,0.6-1.9,1.1-3.7c0.4-1.6,0.8-2.8,1.2-3.6c0.1-0.2,0.2-0.3,0.5-0.3c0.2,0,0.4,0.1,0.5,0.2c0.4,0.3,0.6,0.8,0.7,1.4
			c0.1,0.5,0.2,1.1,0.2,1.6C74.7,117.7,75.4,120.3,76.1,122.3z M73.2,118.5c0-0.5-0.1-1-0.3-1.6c-0.1-0.5-0.3-1.1-0.4-1.6
			c-0.4,1.1-0.7,2.2-1,3.3C71.8,118.5,72.3,118.5,73.2,118.5z"/>
		<path class="st1" d="M83.7,114.6c-0.2,0.7-0.6,1.4-1.3,1.9c-0.7,0.5-1.4,0.9-2,1.4c0,0.2,0.2,0.3,0.4,0.4s0.5,0.2,0.7,0.3
			c1.1,0.7,1.6,1.6,1.6,2.5c0,0.8-0.3,1.5-0.8,2.1c-0.4,0.5-1,1-1.8,1.5c-0.6,0.4-1.3,0.7-1.9,1.1c-0.2,0.1-0.3,0.1-0.5,0.1
			c-0.4,0-0.7-0.2-0.9-0.5c0-1.1,0.1-2.2,0.1-3.3c0-1.3,0.1-2.4,0.2-3.3c-0.3-0.2-0.4-0.4-0.4-0.6c0-0.1,0-0.2,0.1-0.3
			c0.1-0.1,0.2-0.2,0.4-0.3c0.2-2,0.2-3.9,0.1-5.6c-0.6-0.1-1-0.4-1.2-0.8c0-0.1,0-0.1,0.1-0.2c0.1-0.1,0.1-0.2,0.1-0.3
			c0.3-0.2,0.6-0.3,1-0.3c0.2,0,0.4,0,0.7,0.1c0.4,0.1,0.7,0.1,0.8,0.1c0.6,0.1,1.3,0.3,1.9,0.6c1.4,0.7,2.3,1.5,2.5,2.2
			C83.7,113.8,83.8,114.3,83.7,114.6z M81.2,121.4c0-0.1,0-0.3,0-0.4c0-0.4-0.1-0.7-0.4-1.1c-0.7-0.3-1.1-0.5-1.3-0.5
			c-0.1,0-0.2,0-0.3,0.1c0,0.1,0,0.3,0,0.4c0,0.3,0,0.7-0.1,1.3s-0.1,1-0.1,1.3c0,0.4,0.1,0.8,0.2,1.2c0.2-0.2,0.4-0.4,0.7-0.6
			s0.6-0.4,0.7-0.5C80.9,122.3,81.1,121.9,81.2,121.4z M81.8,113.6c-0.1-0.5-0.5-0.9-1.2-1.1c-0.1,0-0.3-0.1-0.5-0.3
			c-0.2-0.1-0.3-0.2-0.4-0.2c-0.1,0-0.1,0-0.2,0c0,0.2,0,0.5,0,0.7c0,0.3,0,0.9,0.1,1.7c0,0.8,0.1,1.3,0,1.8c0.1,0,0.2-0.1,0.4-0.2
			s0.3-0.2,0.3-0.2c0.4-0.2,0.7-0.5,1.1-0.9C81.7,114.5,81.9,114.1,81.8,113.6z"/>
		<path class="st1" d="M90.2,121c0,0-0.8,0.6-2.3,1.7c-0.9,0.6-1.7,1.1-2.4,1.4c-0.1,0-0.2,0.1-0.2,0.1c-0.2,0-0.4-0.1-0.5-0.4
			c-0.2-0.3-0.4-0.5-0.4-0.5c0-1.2,0-2.8,0.2-4.9c0.2-2.2,0.3-3.8,0.3-4.8c0-0.7,0-1.3-0.1-1.9c0.2-0.2,0.4-0.3,0.7-0.3
			c0.5,0,0.8,0.2,0.9,0.6c0,1.1,0,2.7-0.1,4.9s-0.2,3.8-0.2,4.9c0.4-0.2,0.9-0.4,1.5-0.8c0.6-0.4,1.1-0.7,1.4-0.9c0.1,0,0.2,0,0.3,0
			c0.2,0,0.3,0,0.4,0c0.3,0,0.5,0.1,0.6,0.3C90.4,120.5,90.4,120.8,90.2,121z"/>
		<path class="st1" d="M97.6,113.3c-0.5,0.2-1.2,0.4-2.2,0.7c-1,0.3-1.7,0.5-2.2,0.7c-0.1,0.3-0.2,1.1-0.3,2.3
			c0.2,0.1,0.5,0.1,0.7,0.1c0.2,0,0.5,0,0.9-0.1c0.4-0.1,0.7-0.1,0.9-0.1c0.4,0,0.7,0.1,1,0.2c0.2,0.3,0.3,0.4,0.3,0.5
			c0,0.1,0,0.2-0.1,0.2c0,0-0.1,0.1-0.3,0.3c-0.1,0.1-0.2,0.2-0.4,0.2c-0.3,0.1-0.8,0.1-1.5,0.1c-0.6,0-1.1,0.1-1.5,0.2
			c-0.3,1-0.4,1.8-0.4,2.3c0,0.4,0.1,0.7,0.2,0.9c0.6,0.4,1.7,0.6,3.2,0.6c0.1,0,0.2-0.1,0.3-0.2c0.1-0.1,0.2-0.1,0.3-0.1
			c0.4-0.1,0.6,0.2,0.7,0.8c0,0.2,0,0.4-0.1,0.6c-0.1,0.2-0.3,0.3-0.5,0.3c-1.6,0.1-3-0.1-4.2-0.4c-0.4-0.1-0.7-0.3-1-0.6
			c-0.3-0.3-0.5-0.7-0.5-1.1c-0.1-1.2-0.1-2.2,0-3.1c-0.4-0.3-0.5-0.5-0.5-0.7c0-0.1,0.1-0.2,0.3-0.3c0.2-0.1,0.3-0.2,0.3-0.3
			c0-0.1,0.1-0.7,0.2-1.9c-0.7-0.1-1.1-0.4-1.1-0.8c0-0.4,0.2-0.7,0.7-0.9c0.4-0.2,0.8-0.3,1.3-0.5c0.5-0.3,1.1-0.5,1.9-0.7
			c0.6-0.2,1.3-0.3,1.9-0.5c0.1,0,0.1,0,0.2,0c0.4,0,0.8,0.1,1.3,0.4c0,0.1,0,0.2,0.1,0.3s0.1,0.3,0.1,0.3
			C97.8,113.2,97.7,113.3,97.6,113.3z"/>
		<path class="st1" d="M102.3,111.2c0,0.3-0.2,0.5-0.6,0.7c-0.1,0.1-0.2,0.1-0.3,0c-0.2-0.1-0.3-0.1-0.3-0.1c-0.1,0-0.2,0-0.2,0.1
			c-0.7,0.7-1.1,1.6-1.1,2.6c0,0.4,0.1,0.7,0.2,1.1c0.1,0.1,0.6,1.2,1.5,3.1c0.6,1.3,1,2.4,1,3.2c0,0.7-0.2,1.4-0.5,2.1
			c-0.1,0.2-0.4,0.5-0.9,0.9c-0.4,0.3-0.7,0.4-1,0.4c-0.1,0-0.2,0-0.3-0.1c-0.4-0.2-0.6-0.4-0.6-0.7c0-0.2,0.1-0.4,0.3-0.6
			c0.1-0.1,0.2-0.1,0.4-0.1c0.2,0,0.3-0.1,0.4-0.2c0.3-0.6,0.4-1.2,0.4-1.8c0-0.9-0.4-2.1-1.3-3.7c-0.9-1.6-1.3-2.9-1.3-3.9
			c0-0.8,0.2-1.5,0.5-2.2c0.4-0.7,0.9-1.3,1.5-1.6c0.3-0.1,0.6-0.2,0.9-0.2c0.6,0,1,0.2,1.3,0.5
			C102.2,110.9,102.3,111.1,102.3,111.2z"/>
	</g>
	<path class="st0" d="M75.9,6c-0.9-0.1-1.8-0.1-2.8,0c-0.5,0.1-0.5,0.9,0,1c0.9,0.2,1.8,0.2,2.8,0C76.5,7,76.5,6.1,75.9,6z"/>
	<path class="st0" d="M71,14.9c-0.7,0.6-1.5,1.1-2.3,1.5c-0.4,0.2-0.2,0.8,0.2,0.8c0.6,0,1.1-0.1,1.6-0.4c0.5-0.3,1-0.7,1.3-1.2
		C72.1,15,71.4,14.5,71,14.9z"/>
	<path class="st0" d="M57.6,15.1c-0.1-0.2-0.4-0.4-0.6-0.3c-0.6,0.3-1.2,0.6-1.7,1.1c-0.3,0.4,0.1,1,0.5,0.7c0.5-0.3,1-0.6,1.5-1
		C57.6,15.5,57.7,15.3,57.6,15.1z"/>
	<path class="st0" d="M39.7,23.6c-0.3,0.3-0.5,0.7-0.9,1c-0.3,0.3-0.8,0.5-1.2,0.7c-0.3,0.3,0,0.7,0.3,0.7c1,0,2.2-1.1,2.4-2.1
		C40.4,23.6,40,23.3,39.7,23.6z"/>
	<path class="st0" d="M52.6,25.4c-0.8,0.6-1.6,1.3-2.4,1.8c-0.4,0.3-0.1,1,0.3,0.8c1-0.4,2-0.9,2.7-1.8
		C53.7,25.8,53.2,25.1,52.6,25.4z"/>
	<path class="st0" d="M42,36c-0.1,0.4-0.2,0.7-0.3,1.1c-0.1,0.4-0.4,0.8-0.4,1.2c-0.1,0.5,0.4,0.8,0.8,0.5c0.7-0.6,0.8-1.7,0.9-2.6
		C43.1,35.5,42.1,35.4,42,36z"/>
	<path class="st0" d="M32.9,36.7c-0.1,0.3-0.3,0.7-0.5,0.9c-0.2,0.3-0.5,0.6-0.7,0.9c-0.2,0.3,0.2,0.9,0.5,0.7
		c1-0.4,1.5-1.4,1.6-2.4C33.8,36.3,33,36.3,32.9,36.7z"/>
	<path class="st0" d="M25.6,47.5c-0.1,0.8-0.5,1.3-0.9,2c-0.2,0.4,0.2,0.9,0.6,0.6c0.8-0.6,1.2-1.7,1.3-2.6
		C26.7,46.8,25.6,46.9,25.6,47.5z"/>
	<path class="st0" d="M43.4,49.6c-0.1-0.5-0.9-0.4-0.9,0.1c0,0.6-0.2,1.2-0.4,1.8c-0.2,0.4,0.3,0.9,0.7,0.5
		C43.4,51.3,43.6,50.5,43.4,49.6z"/>
	<path class="st0" d="M33.8,64.9c-0.1-0.6-1.1-0.7-1,0c0.1,0.8-0.1,1.4-0.4,2.1c-0.2,0.4,0.5,0.8,0.8,0.4
		C33.7,66.8,33.9,65.8,33.8,64.9z"/>
	<path class="st0" d="M25.6,66.4c-0.1,0.6-0.3,1.3-0.4,1.9c-0.1,0.5,0.5,0.8,0.8,0.3c0.4-0.7,0.6-1.4,0.6-2.2
		C26.7,65.7,25.7,65.8,25.6,66.4z"/>
	<path class="st0" d="M30,83.8c0,0.6-0.3,1.2-0.4,1.9c-0.1,0.5,0.5,0.8,0.8,0.4c0.5-0.6,0.6-1.4,0.6-2.2
		C31.1,83.1,30.1,83.1,30,83.8z"/>
	<path class="st0" d="M45,85.5c0-0.6-0.9-0.6-1,0c-0.1,0.8,0,1.5,0.4,2.2c0.2,0.3,0.7,0.2,0.7-0.2C45,86.9,44.9,86.2,45,85.5z"/>
	<path class="st0" d="M61,50.1c-0.2-0.5-0.8-0.4-0.9,0.1c-0.1,0.8-0.1,1.6-0.2,2.4c-0.1,0.5,0.6,0.9,0.8,0.3
		C61.2,52.1,61.3,51,61,50.1z"/>
	<path class="st0" d="M73.5,40.1c-0.1-0.5-0.7-0.6-0.9-0.1c-0.1,0.3-0.1,0.7-0.2,1.1c-0.1,0.4-0.1,0.8-0.1,1.2
		c0.1,0.4,0.7,0.4,0.8,0.1c0.2-0.3,0.2-0.6,0.3-1C73.5,40.9,73.5,40.5,73.5,40.1z"/>
	<path class="st0" d="M68,29.3c-0.2,0.3-0.4,0.6-0.6,1c-0.2,0.4-0.3,0.7-0.3,1.1c0,0.4,0.5,0.6,0.8,0.3c0.3-0.3,0.4-0.6,0.5-1
		c0.1-0.4,0.3-0.7,0.3-1.1C68.8,29.3,68.2,29,68,29.3z"/>
	<path class="st0" d="M80.5,25.5c-0.2,0.8-0.6,1.5-0.7,2.2c-0.1,0.4,0.4,0.8,0.8,0.5c0.6-0.7,0.8-1.7,0.9-2.6
		C81.6,25.1,80.7,25,80.5,25.5z"/>
	<path class="st0" d="M87.9,12.9C87.7,12.4,87,12.5,87,13c0,0.8,0.1,1.7,0,2.5c0,0.5,0.7,0.6,0.9,0.1C88.1,14.7,88.2,13.7,87.9,12.9
		z"/>
	<path class="st0" d="M104,9.8c-0.6-0.9-1.7-1.5-2.7-1.2c-0.4,0.1-0.4,0.7,0,0.8c0.3,0.1,0.7,0.1,1,0.3c0.4,0.2,0.7,0.4,1,0.6
		C103.7,10.6,104.3,10.2,104,9.8z"/>
	<path class="st0" d="M113.9,21.5c-0.5-0.7-1.1-1.3-1.7-1.9c-0.5-0.5-1.2,0.2-0.7,0.7c0.6,0.6,1.2,1.3,1.9,1.7
		C113.7,22.3,114.1,21.8,113.9,21.5z"/>
	<path class="st0" d="M102.5,25.8c-0.1-0.6-0.4-1.1-0.7-1.6c-0.3-0.6-1.2-0.1-0.9,0.5c0.3,0.5,0.5,1.1,0.9,1.5
		C102.1,26.6,102.6,26.2,102.5,25.8z"/>
	<path class="st0" d="M93.5,35.8c0-0.7-1.1-0.7-1.1,0c0,0.8-0.1,1.6,0.1,2.4c0.1,0.4,0.7,0.4,0.9,0C93.6,37.5,93.5,36.6,93.5,35.8z"
		/>
	<path class="st0" d="M104.8,51c0-0.6-0.9-0.6-1,0c0,0.5-0.1,1,0.1,1.5c0,0.1,0,0.1,0.1,0.1c0.1,0.1,0.2,0.1,0.3,0.1
		c0.1,0,0.2,0,0.3-0.1c0,0,0.1-0.1,0.1-0.1C105,52,104.8,51.5,104.8,51z"/>
	<path class="st0" d="M123.8,35c-0.3-0.4-1.1,0.1-0.7,0.6c0.2,0.3,0.4,0.6,0.6,0.9c0.2,0.3,0.6,0.7,1,0.5
		C125.4,36.5,124.1,35.3,123.8,35z"/>
	<path class="st0" d="M128.2,23c-0.5-0.3-1.1,0.5-0.6,0.8c0.4,0.4,0.7,0.8,0.7,1.4c0,0.4,0.6,0.6,0.8,0.2
		C129.6,24.4,129,23.5,128.2,23z"/>
	<path class="st0" d="M139,45.4c-0.5-0.4-1.2,0.3-0.7,0.7c0.4,0.4,0.9,0.9,0.7,1.5c-0.1,0.4,0.4,0.7,0.7,0.4
		C140.5,47.1,139.8,46.1,139,45.4z"/>
	<path class="st0" d="M122.4,50.9c-0.1-0.4-0.3-0.7-0.4-1c-0.2-0.6-1-0.3-0.9,0.2c0.1,0.5,0.3,1,0.7,1.2
		C122.1,51.5,122.5,51.2,122.4,50.9z"/>
	<path class="st0" d="M128.7,66.9c0-0.6-0.9-0.6-0.9,0c0,0.9,0,1.8,0.3,2.6c0.2,0.4,0.8,0.4,0.8-0.1
		C128.8,68.5,128.7,67.7,128.7,66.9z"/>
	<path class="st0" d="M120,83.4c-0.1-0.4-0.2-0.9-0.2-1.4c0-0.6-0.9-0.7-1-0.1c-0.1,0.3-0.1,0.7,0,1c0.1,0.4,0.2,0.7,0.4,1
		C119.5,84.3,120.1,83.8,120,83.4z"/>
	<path class="st0" d="M140.5,62.6c-0.1-0.7-0.2-1.4-0.5-2c-0.2-0.4-0.8-0.4-0.9,0.1c0,0.8,0.3,1.5,0.6,2.2
		C140,63.3,140.6,63,140.5,62.6z"/>
	<path class="st0" d="M137.1,79.3c0-0.6-0.9-0.6-0.9,0c0,0.7-0.1,1.4,0.1,2.1c0.1,0.4,0.7,0.4,0.8,0C137.2,80.8,137.1,80,137.1,79.3
		z"/>
	<path class="st0" d="M150.2,79.5c-0.6-0.2-1,0.7-0.4,1c0.1,0.1,0.2,0.2,0.3,0.4c0.2,0.5,0.9,0.4,0.9-0.1
		C151.1,80.2,150.8,79.7,150.2,79.5z"/>
	<path class="st0" d="M156.3,104c-0.1-0.3-0.4-0.5-0.7-0.4c-0.3,0.1-0.4,0.4-0.4,0.7c0.1,0.7,0.2,1.6,0.7,2.2c0.3,0.3,0.8,0,0.8-0.3
		C156.8,105.4,156.4,104.7,156.3,104z"/>
	<path class="st0" d="M136.6,92.9c-0.1-0.4-0.8-0.4-0.9,0c-0.2,0.6-0.1,1.3,0,2c0.1,0.4,0.7,0.4,0.8,0
		C136.7,94.2,136.7,93.5,136.6,92.9z"/>
	<path class="st0" d="M153.6,129.5c0-0.7-1-0.7-1,0c0,0.5-0.1,1.1,0.1,1.6c0.1,0.4,0.8,0.4,0.9,0C153.6,130.6,153.6,130,153.6,129.5
		z"/>
	<path class="st0" d="M143.1,140.9c0-0.6-1-0.6-1,0c0,0.6-0.2,1.2-0.2,1.7c0,0.5,0.6,0.6,0.8,0.2
		C143.1,142.3,143.1,141.6,143.1,140.9z"/>
	<path class="st0" d="M137.3,148c-0.1,0.4-0.2,0.8-0.3,1.1c-0.1,0.4-0.2,0.8-0.1,1.1c0.1,0.3,0.4,0.5,0.7,0.3
		c0.6-0.5,0.7-1.5,0.8-2.2C138.6,147.6,137.5,147.3,137.3,148z"/>
	<path class="st0" d="M106.5,87.8c-0.2-0.5-1.1-0.1-0.9,0.4c0.2,0.6,0.4,1.4,0.9,1.9c0.3,0.3,0.8,0.1,0.8-0.3
		C107.2,89,106.8,88.4,106.5,87.8z"/>
	<path class="st0" d="M63.2,88.5c-0.3-0.5-1-0.1-0.8,0.5c0.2,0.4,0,0.8,0,1.3c0,0.3,0.3,0.5,0.6,0.3C63.7,90.1,63.6,89.2,63.2,88.5z
		"/>
	<path class="st0" d="M81.6,86.5c-0.2-0.4-1-0.1-0.8,0.3c0.2,0.4,0.2,0.8,0.3,1.2c0.1,0.4,0.7,0.4,0.8,0C82,87.6,81.9,87,81.6,86.5z
		"/>
	<path class="st0" d="M90.7,89.8c-0.1-0.2-0.2-0.4-0.3-0.6c-0.3-0.4-1.1-0.1-0.9,0.4c0.2,0.4,0.3,0.8,0.7,1.1
		c0.2,0.2,0.7,0.1,0.6-0.3C90.8,90.3,90.8,90,90.7,89.8z"/>
	<path class="st0" d="M148.1,70c-0.2-0.3-0.2-0.6-0.2-0.9c0-0.7-1.1-0.7-1.1,0c0,0.7,0.3,2.1,1.3,2.1c0.2,0,0.4-0.2,0.4-0.4
		C148.4,70.6,148.3,70.3,148.1,70z"/>
	<path class="st16" d="M15.1,62.1c-0.6,0.7-1,1.6-1.3,2.4c-0.2,0.4,0.4,0.6,0.7,0.3c0.5-0.7,1-1.5,1.3-2.3
		C15.9,62.2,15.4,61.9,15.1,62.1z"/>
	<path class="st16" d="M14.1,82.7c-0.1-0.5-1-0.4-0.9,0.1c0.1,0.8,0,1.6-0.2,2.4c-0.1,0.4,0.5,0.8,0.7,0.3
		C14.2,84.6,14.3,83.7,14.1,82.7z"/>
	<path class="st16" d="M9.4,93c-0.1-0.6-1-0.6-0.9,0c0.1,0.6-0.1,1.1-0.4,1.5c-0.2,0.4,0.3,0.7,0.6,0.5C9.3,94.5,9.5,93.7,9.4,93z"
		/>
	<path class="st16" d="M7.6,122.9c-0.1-0.5-0.9-0.4-0.9,0.1c0,0.7-0.2,1.4-0.4,2.1c-0.2,0.5,0.5,0.6,0.7,0.3
		C7.6,124.8,7.8,123.8,7.6,122.9z"/>
	<path class="st16" d="M8.4,136.3c-0.2,1-0.3,2-0.2,3c0.1,0.5,0.8,0.3,0.9-0.1c0.1-0.9,0.2-1.7,0.3-2.6
		C9.6,135.9,8.6,135.6,8.4,136.3z"/>
	<path class="st16" d="M17.4,137.9c0,0.8,0,1.5,0.1,2.2c0.1,0.5,0.7,0.5,0.7,0c0.1-0.8,0.2-1.5,0.1-2.2
		C18.4,137.3,17.4,137.3,17.4,137.9z"/>
	<path class="st16" d="M17.6,146.9c-0.1-0.6-1-0.6-1,0c0.1,0.8,0.2,1.6,0.4,2.3c0.1,0.4,0.7,0.3,0.7-0.1
		C17.8,148.4,17.7,147.6,17.6,146.9z"/>
	<path class="st16" d="M26,151c-0.2-1-0.5-2-0.7-3c-0.1-0.6-1.2-0.5-1.1,0.1c0.1,1.1,0.3,2.3,0.9,3.2C25.5,151.8,26.2,151.5,26,151z
		"/>
	<path class="st16" d="M151.1,148.6c0-0.3-0.2-0.5-0.5-0.5c-0.3,0-0.5,0.2-0.5,0.5c0,0.4-0.2,0.7-0.2,1.1c0,0.3,0.4,0.4,0.7,0.3
		C151,149.7,151.1,149.1,151.1,148.6z"/>
	<path class="st16" d="M154.6,141.7c-0.3,0.4-0.4,1.3,0.3,1.4c0.2,0,0.5-0.1,0.5-0.3c0.1-0.2-0.1-0.4,0-0.6
		C155.8,141.6,154.9,141.1,154.6,141.7z"/>
	<path class="st15" d="M138.5,27.9c-0.8-1.1-2.3-1.7-3.5-2c-0.5-0.1-0.7,0.5-0.3,0.8c0.5,0.3,1.1,0.6,1.7,0.9c0.6,0.3,1.1,0.6,1.6,1
		C138.3,28.7,138.7,28.3,138.5,27.9z"/>
	<path class="st15" d="M138.5,29.3c-0.3-0.2-0.6-0.3-0.9-0.4c-0.5-0.2-0.8,0.7-0.2,0.8c0.3,0.1,0.6,0.2,0.8,0.3
		C138.6,30.1,138.8,29.5,138.5,29.3z"/>
	<path class="st15" d="M143.1,40.8c-0.4-1.3-1.6-2.1-2.7-2.8c-0.3-0.2-0.6,0.3-0.3,0.5c0.9,0.7,1.7,1.6,2.3,2.6
		C142.7,41.4,143.2,41.2,143.1,40.8z"/>
	<path class="st15" d="M144.1,41.7c-0.4-0.3-0.8,0.4-0.4,0.7c0.1,0.1,0.2,0.2,0.2,0.4c0.1,0.3,0.5,0.3,0.6,0
		C144.7,42.4,144.5,42,144.1,41.7z"/>
	<path class="st15" d="M147.9,52.9c-0.7-1.8-1.8-3.5-3.3-4.8c-0.3-0.3-0.8,0.2-0.5,0.5c1.4,1.3,2.1,3,3.1,4.6
		C147.5,53.5,148.1,53.3,147.9,52.9z"/>
	<path class="st15" d="M148.8,54.1c-0.2-0.1-0.5,0-0.6,0.2c-0.1,0.2,0,0.4,0.2,0.6c0.1,0.1,0.2,0.2,0.3,0.3c0.1,0.2,0.6,0.2,0.6-0.1
		C149.3,54.6,149.1,54.3,148.8,54.1z"/>
	<path class="st15" d="M153.5,67.9c-1.5-2.2-2.8-4.5-4.3-6.6c-0.2-0.3-0.8,0-0.5,0.3c1.5,2.1,2.3,5.1,4.3,6.7
		C153.2,68.5,153.8,68.2,153.5,67.9z"/>
	<path class="st15" d="M154.8,70.4c-0.2-0.3-0.4-0.5-0.6-0.8c-0.3-0.3-0.8,0.2-0.5,0.5c0.2,0.3,0.5,0.4,0.8,0.6
		C154.6,70.9,154.9,70.6,154.8,70.4z"/>
	<path class="st15" d="M157.9,85c-0.5-2.3-1.7-4.6-2.7-6.7c-0.2-0.4-0.8-0.1-0.6,0.3c0.9,2.2,1.6,4.6,2.7,6.7
		C157.4,85.7,157.9,85.4,157.9,85z"/>
	<path class="st15" d="M158.3,90.1c0-0.5-0.7-0.6-0.8-0.1c-0.2,0.8,0,1.5,0.3,2.3c0.2,0.4,0.6,0.1,0.6-0.2
		C158.2,91.4,158.3,90.7,158.3,90.1z"/>
	<path class="st15" d="M159,94.5c-0.1-0.5-0.8-0.3-0.7,0.2c0.1,0.3,0.1,0.6,0.2,0.9c0.1,0.3,0.6,0.1,0.6-0.2
		C159.1,95.1,159.1,94.8,159,94.5z"/>
	<path class="st15" d="M129.2,18.8c-0.7-0.7-1.7-1-2.5-1.6c-0.4-0.3-0.7,0.4-0.4,0.6c0.8,0.6,1.7,0.9,2.5,1.4
		C129.2,19.4,129.4,19.1,129.2,18.8z"/>
	<path class="st15" d="M116.5,10.6c-1.1-0.6-2.2-0.9-3.5-0.9c-0.5,0-0.5,0.8,0,0.8c1.1,0,2.2,0.4,3.2,0.8
		C116.6,11.4,116.8,10.8,116.5,10.6z"/>
	<path class="st15" d="M104.6,4.3c-1.7-0.7-3.4-0.7-5.1,0c-0.4,0.2-0.1,0.8,0.3,0.7c1.6-0.6,3-0.4,4.6,0C104.9,5,105,4.5,104.6,4.3z
		"/>
	<path class="st15" d="M108.7,4.3c-0.4-0.1-0.8-0.2-1.2-0.3c-0.4-0.1-0.5,0.7-0.1,0.8c0.4,0.1,0.8,0.1,1.3,0.1
		C109,4.9,109.1,4.4,108.7,4.3z"/>
	<path class="st15" d="M87.8,1.3c-0.9,0.1-1.7,0.4-2.5,0.8c-0.4,0.2,0,0.9,0.4,0.6c0.7-0.4,1.4-0.7,2.2-0.9
		C88.2,1.8,88.1,1.3,87.8,1.3z"/>
	<path class="st15" d="M91.8,3.1c-0.4,0.1-0.7,0.2-1,0.3c-0.5,0.2-0.3,0.9,0.2,0.7c0.4-0.1,0.7-0.2,1.1-0.4
		C92.4,3.6,92.2,3.1,91.8,3.1z"/>
	<path class="st15" d="M76.3,3c-1.1-0.3-2.2-0.5-3.4-0.5c-0.4,0-0.4,0.6,0,0.7c1.1,0.1,2.2,0.4,3.3,0.5C76.5,3.6,76.6,3.1,76.3,3z"
		/>
	<path class="st15" d="M158.5,110.5c0-0.6-1-0.6-0.9,0c0,0.9,0.1,1.7,0.3,2.6c0.1,0.4,0.8,0.3,0.8-0.1
		C158.6,112.1,158.5,111.3,158.5,110.5z"/>
	<path class="st1" d="M126.5,53.7c-0.4-0.2-0.8,0.1-1.1,0.4c-0.3,0.2-0.5,0.6-0.6,1c0,0.3,0.4,0.6,0.6,0.4c0.2-0.2,0.3-0.4,0.6-0.6
		c0.3-0.2,0.6-0.3,0.8-0.6C126.9,54.1,126.8,53.8,126.5,53.7z"/>
	<path class="st1" d="M129.7,53.9c-0.4-0.7-1.3,0-1.7,0.3c-0.5,0.4-1,1-1.3,1.5c-0.2,0.4,0.2,0.8,0.6,0.6c0.6-0.3,1-0.9,1.5-1.3
		C129.1,54.8,130.1,54.5,129.7,53.9z"/>
	<path class="st1" d="M131.4,54.9c-0.1-0.2-0.3-0.3-0.5-0.2c-0.3,0.1-0.5,0.3-0.8,0.5c-0.2,0.2-0.4,0.5-0.5,0.7
		c-0.3,0.5,0.4,1,0.8,0.6c0.3-0.4,0.7-0.7,1-1C131.5,55.3,131.5,55.1,131.4,54.9z"/>
	<path class="st1" d="M32.9,53c-0.5,0.2-0.9,0.4-1.3,0.7c-0.4,0.3-0.9,0.5-1.2,0.9c-0.2,0.2-0.1,0.6,0.2,0.6c0.5-0.1,1-0.4,1.4-0.6
		c0.5-0.3,0.9-0.6,1.2-1C33.5,53.2,33.1,52.9,32.9,53z"/>
	<path class="st1" d="M36.1,53.7c-1.3-0.2-2.6,1.1-3.4,1.9c-0.4,0.4,0.2,1,0.7,0.7c0.5-0.4,1-0.8,1.5-1.1c0.5-0.3,1-0.4,1.5-0.8
		C36.5,54.3,36.4,53.8,36.1,53.7z"/>
	<path class="st1" d="M37.7,54.8c-0.9,0.3-1.5,1-2.2,1.6c-0.4,0.4,0.2,1,0.6,0.6c0.6-0.5,1.3-1,1.9-1.5C38.4,55.2,38,54.7,37.7,54.8
		z"/>
	<path class="st10" d="M22.5,8.3c-1.3,1.4-2.1,3.9-1.4,5.7c0.2,0.5,0.9,0.4,0.9-0.1c0.2-1.8,0.4-3.4,1.3-5
		C23.6,8.4,22.9,7.9,22.5,8.3z"/>
	<path class="st10" d="M22.3,17.1c0-0.2-0.1-0.4-0.1-0.5c0-0.6-0.8-0.7-1-0.1c-0.1,0.5,0,0.9,0.4,1.2C22,17.8,22.4,17.5,22.3,17.1z"
		/>
	<path class="st6" d="M27.6,11.9c-0.4,0.7-1.3,1.7-1,2.5c0.1,0.2,0.4,0.4,0.6,0.2c0.3-0.3,0.4-0.7,0.5-1.1c0.2-0.4,0.4-0.8,0.6-1.2
		C28.6,11.7,27.9,11.5,27.6,11.9z"/>
	<path class="st6" d="M27.6,14.5c-0.3,0.6-0.6,1.2-0.5,1.8c0,0.4,0.6,0.4,0.8,0.1c0.2-0.5,0.3-1,0.5-1.5
		C28.6,14.4,27.9,14,27.6,14.5z"/>
	<path class="st6" d="M28.5,16.8c-0.2,0-0.5,0.2-0.5,0.5c0,0.1,0,0.3-0.1,0.4c-0.1,0.3,0.3,0.6,0.5,0.4c0.3-0.2,0.5-0.5,0.4-0.8
		C28.9,17,28.7,16.8,28.5,16.8z"/>
	<path class="st7" d="M68.7,137.2c-1.1,0.4-2.1,0.1-3.3,0c-1.2-0.1-2.1,0.5-2.6,1.5c-0.4,0.7,0.7,1.4,1.1,0.7
		c0.7-1.2,1.6-0.8,2.7-0.6c1,0.2,1.8,0,2.6-0.7C69.7,137.8,69.3,137,68.7,137.2z"/>
	<path class="st7" d="M98.5,137.4c-2.2,0.7-4.7-2.3-6.6,0c-0.6,0.7,0.3,1.6,1,1c1-0.8,2,0,3,0.4c1.1,0.5,2.2,0.6,3.2-0.1
		C99.7,138.3,99.4,137.2,98.5,137.4z"/>
	<path class="st12" d="M36.3,104.6c-0.7-0.3-1.2,0.2-1.7,0.7c-0.6,0.6-1.2,1.2-1.7,1.8c-0.4,0.5,0.3,1.3,0.8,0.8
		c0.5-0.5,1-1,1.5-1.5c0.2-0.2,0.5-0.4,0.7-0.6c0.1-0.1,0.3-0.2,0.4-0.3c0-0.1,0.1-0.1,0-0.1C36.6,105.2,36.7,104.7,36.3,104.6z"/>
	<path class="st12" d="M37,105.2c-1.3,1.7-3.2,2.6-4.5,4.2c-0.4,0.5,0.2,1.1,0.7,0.7c1.6-1.4,3.7-2.4,4.7-4.4
		C38.1,105.2,37.4,104.8,37,105.2z"/>
	<path class="st12" d="M57.9,130.4c-0.4-0.4-1.1,0-1.5,0.2c-0.6,0.3-1.4,0.7-1.9,1.2c-0.4,0.4,0.1,1,0.6,0.7c0.6-0.3,1.2-0.7,1.8-1
		c0.4-0.2,0.9-0.4,1.1-0.8C58.1,130.7,58,130.5,57.9,130.4z"/>
	<path class="st12" d="M59.6,132.3c-2.3,1.1-4.7,2.6-6.5,4.3c-0.4,0.4,0.2,0.9,0.6,0.6c2-1.6,4.4-2.6,6.4-4.1
		C60.6,132.8,60.2,132.1,59.6,132.3z"/>
	<path class="st12" d="M80.4,174.8c-1.8,0.3-3.6,1.5-4.9,2.6c-0.5,0.4,0.1,1,0.6,0.8c0.8-0.4,1.6-0.9,2.3-1.3
		c0.8-0.4,1.6-0.8,2.4-1.2C81.2,175.3,80.9,174.7,80.4,174.8z"/>
	<path class="st12" d="M83,175.8c-0.9,0.5-1.8,1.1-2.8,1.7c-0.6,0.3-0.1,1.2,0.5,0.9c1-0.5,1.9-1.2,2.8-1.9
		C83.9,176.2,83.4,175.6,83,175.8z"/>
	<path class="st12" d="M121.1,149.6c-1.4,0.5-2.6,1.4-3.7,2.3c-0.5,0.4,0.1,1.2,0.7,0.9c1.2-0.7,2.5-1.4,3.6-2.3
		C122,150.2,121.6,149.5,121.1,149.6z"/>
	<path class="st12" d="M118.5,114.9c-0.9,0-1.7,0.7-2.4,1.2c-0.9,0.7-1.8,1.5-2.7,2.1c-0.4,0.2-0.1,0.9,0.3,0.7
		c0.9-0.4,1.6-0.9,2.3-1.5c0.9-0.7,1.9-1.1,2.8-1.7C119.1,115.5,119,114.9,118.5,114.9z"/>
	<path class="st12" d="M121.9,115.7c-1.6,0.6-2.8,1.8-4.3,2.5c-0.5,0.3-0.1,1,0.5,0.8c1.5-0.6,2.9-1.6,4.2-2.5
		C122.6,116.2,122.3,115.5,121.9,115.7z"/>
	<path class="st12" d="M82.2,100.3c-0.7,0-1.3,0.5-1.8,0.9c-0.7,0.5-1.5,0.9-2.3,1.3c-0.3,0.1-0.2,0.6,0.2,0.6
		c0.8-0.1,1.5-0.4,2.2-0.7c0.7-0.4,1.7-0.7,2.2-1.4C82.8,100.6,82.5,100.3,82.2,100.3z"/>
	<path class="st12" d="M83.8,101.6c-1,0.6-1.8,1.5-2.8,2.2c-0.5,0.4,0,1.2,0.5,0.9c1-0.7,2.2-1.4,2.8-2.5
		C84.5,101.8,84.1,101.4,83.8,101.6z"/>
	<g>
		<path class="st1" d="M114.5,117.3c-0.8-0.3-1.7-0.1-2.5-0.1c-1,0-1.9,0.1-2.9,0.3c-0.8,0.2-0.7,1.5,0.2,1.5c0.9,0,1.8,0,2.7,0
			c0.9,0,1.8,0.2,2.6-0.3C115.3,118.4,115.1,117.6,114.5,117.3z"/>
		<path class="st1" d="M111.3,106.8c-0.7,0.4-1.1,1.1-1.6,1.7c-0.6,0.7-1.2,1.3-1.6,2.1c-0.5,0.7,0.5,1.4,1.1,0.9
			c0.6-0.5,1.2-1.1,1.7-1.7c0.6-0.6,1.3-1.3,1.5-2.1C112.5,107.1,111.8,106.5,111.3,106.8z"/>
		<path class="st1" d="M112.9,126.5c-0.9-1.3-2.2-2.7-3.7-3.1c-0.7-0.2-1.2,0.9-0.5,1.2c1.4,0.7,2,2.2,3.3,2.8
			C112.5,127.7,113.3,127.1,112.9,126.5z"/>
	</g>
	<g>
		<path class="st1" d="M54.8,116.5c-1-0.1-2,0.1-3,0.1c-1.1,0-2.2,0.1-3.3,0.4c-1,0.2-0.5,1.6,0.4,1.5c2-0.3,4.5,0.5,6.3-0.6
			C55.8,117.4,55.5,116.6,54.8,116.5z"/>
		<path class="st1" d="M53.5,110c-1.2-1-2.6-1.8-3.9-2.6c-0.8-0.5-1.4,0.7-0.7,1.2c1.3,0.9,2.5,1.9,4,2.6
			C53.5,111.4,54,110.4,53.5,110z"/>
		<path class="st1" d="M53.8,122.9c-1,1.1-1.8,2.3-2.7,3.6c-0.6,0.8,0.8,1.6,1.3,0.8c0.8-1.2,1.7-2.3,2.4-3.5
			C55.3,123.1,54.4,122.3,53.8,122.9z"/>
	</g>
	<path class="st9" d="M62.3,36.2c-2.4,1.6-6.4,5.6-8.9,7.1c-1.2,0.7-0.9,2.3,0.5,1.8c3-1,7.7-4.6,9.7-7
		C64.6,36.8,63.8,35.1,62.3,36.2z"/>
	<path class="st9" d="M54.4,36.2c2.4,1.6,6.4,5.6,8.9,7.1c1.2,0.7,0.9,2.3-0.5,1.8c-3-1-7.7-4.6-9.7-7
		C52.1,36.8,52.9,35.1,54.4,36.2z"/>
	<path class="st9" d="M110.7,35.3c-2.4,1.6-6.4,5.6-8.9,7.1c-1.2,0.7-0.9,2.3,0.5,1.8c3-1,7.7-4.6,9.7-7
		C113.1,35.9,112.2,34.2,110.7,35.3z"/>
	<path class="st9" d="M102.9,35.3c2.4,1.6,6.4,5.6,8.9,7.1c1.2,0.7,0.9,2.3-0.5,1.8c-3-1-7.7-4.6-9.7-7
		C100.6,35.9,101.4,34.2,102.9,35.3z"/>
</g>
</svg>
