<?xml version="1.0" encoding="utf-8"?>
<!-- Generator: Adobe Illustrator 16.0.0, SVG Export Plug-In . SVG Version: 6.00 Build 0)  -->
<!DOCTYPE svg PUBLIC "-//W3C//DTD SVG 1.1//EN" "http://www.w3.org/Graphics/SVG/1.1/DTD/svg11.dtd">
<svg version="1.1" id="Calque_1" xmlns="http://www.w3.org/2000/svg" xmlns:xlink="http://www.w3.org/1999/xlink" x="0px" y="0px"
	 width="148.6px" height="100px" viewBox="0 0 148.6 100" style="enable-background:new 0 0 148.6 100;" xml:space="preserve">
<style type="text/css">
<![CDATA[
	.st0{fill:#FFFBE2;}
	.st1{fill:#DED7AB;}
]]>
</style>
<g>
	<path class="st0" d="M146.3,85.9c2.4-19.5,6.9-71.9-10.9-79.3c-17.8-7.5-95.6-10-111.4,0.1C8.1,16.7-9.6,71.5,6.1,86.1
		C21.7,100.6,143.5,108.3,146.3,85.9z"/>
	<path class="st1" d="M146.3,85.9c0.4-3.4,0.9-7.8,1.3-12.7c-0.7,1.6-1.6,3.2-2.7,4.6c-1.4,2.2-2.1,5.2-3.6,7.2
		c-1.7,2.2-5.8,3.7-8.6,3.3c-2.1-0.3-3.9-2.1-6-2c-1.7,0.1-2.9,1.3-4.2,2.1c-3.1,1.9-5.1,2.4-8.8,2.3c-3.8,0-7.4,0-10.9-1.7
		c-3.7-1.8-6.7-6.7-8.8-10c-1.2-2-2.8-7.4-5.7-7.1c-3.3,0.3-4.9,3.9-6.3,6.2c-3.2,5.1-10.5,8.7-16.8,7c-2.8-0.8-4.9-3-7.7-3.6
		c-2.8-0.6-6.4-0.1-9.2,0c-2.1,0-4,0.3-5.8-0.8c-2-1.3-3.5-3.6-5-5.3c-1.4-1.7-1.5-2.4-3.4-1.8c-1.3,0.4-3,3.2-4.1,4.1
		c-3,2.6-7.7,8.2-12.2,6.4c-4.1-1.6-8.9-5.3-10.5-9.2c-3.9-9.3-1.1-21.3-0.1-30.8C7.6,38.3,8,32.7,9.3,27.4
		C0.2,47.7-4.6,76.2,6.1,86.1C21.7,100.6,143.5,108.3,146.3,85.9z"/>
</g>
</svg>
